<?xml version="1.0" encoding="UTF-8"?><svg id="uuid-9b1d602e-52c5-4c3c-ae73-af35f110edff" xmlns="http://www.w3.org/2000/svg" viewBox="0 0 573.25 524.78"><defs><style>.uuid-87d2f4b1-260e-4be4-ae0d-251e8d0622c2,.uuid-6a2d4b89-419e-4def-bcd9-2995b4135220{fill:#271e3f;}.uuid-334aa2dd-dfc0-4e0b-8eab-abd5e7a92c1c{fill:#fff;}.uuid-8017fd5a-f228-4112-a876-471755e119f0{fill:#361e4d;}.uuid-dcb1ef41-0972-46ee-92df-8d0c494f98c5{fill:#e6ebf0;}.uuid-5d927935-8956-42f6-ad8e-8c5ac102b9f8{fill:#fb4e4e;}.uuid-01dccaa2-bb4c-4bcc-b20c-59f85b2644e1{fill:#bb695b;}.uuid-6a2d4b89-419e-4def-bcd9-2995b4135220,.uuid-a751c152-e10f-45e2-a0c5-e1df82eaa8a1{opacity:.2;}.uuid-7c2f08c6-34f5-4e19-b197-9c27dd6e0143{fill:#73cbe2;}.uuid-b4ea7874-050e-487b-a880-2ca6f087e839{fill:#001940;}.uuid-ce94e619-e5a9-4388-a055-85993e29b92e{fill:#f85a44;}.uuid-a751c152-e10f-45e2-a0c5-e1df82eaa8a1{fill:none;}.uuid-177b9cb6-3fb2-4493-966c-0d557926a671{fill:#ffab48;}.uuid-f97bccb3-bdca-403f-93c4-c4374d8603db{fill:#aab6c2;}</style></defs><path class="uuid-dcb1ef41-0972-46ee-92df-8d0c494f98c5" d="m310.07,13.24c-75.7,14.91-114.35,100.65-236.26,176.95-121.91,76.29-95.07,374.2,97.47,325.61,183.68-46.35,192.18-42.69,312.48-38.41,150.57,5.36,65.88-511.34-173.69-464.15Z"/><path class="uuid-dcb1ef41-0972-46ee-92df-8d0c494f98c5" d="m73.53,84.2c-40.45,42.65-43.13,113.9,31.22,54.73,35.53-28.27,65.12-77.61,48.3-125.16-16.83-47.54-51.56,40.95-79.52,70.43Z"/><rect class="uuid-b4ea7874-050e-487b-a880-2ca6f087e839" x="16.79" y="521.12" width="525.34" height="3.66"/><path class="uuid-f97bccb3-bdca-403f-93c4-c4374d8603db" d="m482.33,77.25l-283.1-.17c-11.08,0-20.07,8.97-20.08,20.05l-.25,403.39c0,11.08,8.97,20.07,20.05,20.08l283.1.17c11.08,0,20.07-8.97,20.08-20.05l.25-403.39c0-11.08-8.97-20.07-20.05-20.08Z"/><path class="uuid-334aa2dd-dfc0-4e0b-8eab-abd5e7a92c1c" d="m474.8,87.63l-268.05-.17c-8.04,0-14.59,6.54-14.6,14.59l-.24,393.55c0,8.05,6.54,14.6,14.59,14.61l268.05.17c8.04,0,14.59-6.54,14.6-14.59l.24-393.55c0-3.9-1.51-7.57-4.27-10.32-2.75-2.76-6.42-4.28-10.32-4.28Z"/><path class="uuid-b4ea7874-050e-487b-a880-2ca6f087e839" d="m474.8,87l-268.04-.17h0c-8.41,0-15.22,6.81-15.23,15.22l-.24,393.55c0,8.41,6.81,15.24,15.22,15.24l268.04.16h0c8.41,0,15.23-6.81,15.23-15.22l.24-393.55c0-8.41-6.81-15.24-15.22-15.24Zm13.71,408.79c0,7.7-6.27,13.95-13.97,13.95l-268.04-.16c-7.7,0-13.96-6.27-13.95-13.97l.24-393.55c0-7.69,6.27-13.95,13.96-13.95h0l268.04.17c7.7,0,13.96,6.27,13.95,13.97l-.24,393.55Z"/><path class="uuid-ce94e619-e5a9-4388-a055-85993e29b92e" d="m394.93,58.51c-1.35-4.51-5.49-7.6-10.2-7.6h-12.63c-1.64,0-2.98-1.37-2.88-3.01.04-.57.06-1.14.06-1.72.07-13.88-9.88-26.13-23.54-28.62-18.34-3.34-34.36,10.72-34.37,28.44,0,.58.02,1.16.05,1.73.1,1.69-1.18,3.13-2.87,3.13h-12.64c-4.71-.01-8.86,3.07-10.21,7.58l-10.7,35.62c-1.4,4.65,2.08,9.33,6.94,9.34l116.71.07c4.86,0,8.34-4.68,6.95-9.33l-10.66-35.63Zm-40.54-7.62c-2.01,5.83-7.57,10.02-14.08,10.02-6.51,0-12.06-4.2-14.06-10.03-.46-1.31-.73-2.71-.8-4.16-.36-8.03,5.98-15.09,14-15.55,8.61-.49,15.76,6.37,15.75,14.87,0,1.7-.28,3.34-.82,4.86Z"/><path class="uuid-b4ea7874-050e-487b-a880-2ca6f087e839" d="m320.3,460.63c-5.39-.25-8.55-.51-8.57-.52-.73-.05-1.34.47-1.4,1.18-.06.71.47,1.34,1.18,1.4,0,0,3.2.27,8.67.52h.06c.69,0,1.26-.54,1.3-1.24.03-.71-.52-1.32-1.24-1.35Z"/><path class="uuid-b4ea7874-050e-487b-a880-2ca6f087e839" d="m262.88,339.68c-5.93-.92-11.55-2.21-16.69-3.83-.69-.21-1.41.16-1.63.85-.22.68.16,1.41.84,1.62,5.27,1.66,11.02,2.98,17.07,3.92.07.01.14.02.2.02.63,0,1.18-.46,1.28-1.1.11-.71-.37-1.37-1.08-1.48Z"/><path class="uuid-b4ea7874-050e-487b-a880-2ca6f087e839" d="m290.54,250.95c-.07-.71-.71-1.27-1.41-1.17-5.71.53-11.5.86-17.21.97-.72.01-1.29.61-1.27,1.32.01.71.59,1.27,1.3,1.27h.02c5.77-.11,11.63-.44,17.41-.98.71-.07,1.24-.7,1.17-1.41Z"/><path class="uuid-b4ea7874-050e-487b-a880-2ca6f087e839" d="m304.2,341.35h-.01c-5.75.05-11.39.09-16.86.09h-.47c-.72,0-1.3.58-1.3,1.3s.58,1.3,1.3,1.3h.47c5.48,0,11.13-.04,16.89-.09.72,0,1.29-.59,1.29-1.31,0-.71-.59-1.28-1.3-1.28Z"/><path class="uuid-b4ea7874-050e-487b-a880-2ca6f087e839" d="m249.07,253.78c-.15-.7-.85-1.13-1.54-.99-6.03,1.29-11.63,3.21-16.66,5.71-.64.32-.9,1.1-.58,1.74.23.45.69.72,1.16.72.19,0,.39-.04.57-.13,4.83-2.4,10.24-4.25,16.05-5.5.7-.15,1.15-.84,1-1.54Z"/><path class="uuid-b4ea7874-050e-487b-a880-2ca6f087e839" d="m353.11,237.04c.16,0,.32-.03.48-.09,5.45-2.17,10.81-4.56,15.94-7.09.64-.32.9-1.09.59-1.74-.32-.64-1.09-.9-1.74-.59-5.07,2.51-10.37,4.86-15.75,7.01-.67.27-.99,1.02-.73,1.68.2.51.69.82,1.21.82Z"/><path class="uuid-b4ea7874-050e-487b-a880-2ca6f087e839" d="m213.22,313.37c-.39-.6-1.19-.78-1.79-.39-.6.39-.78,1.19-.39,1.79,3.05,4.72,7.18,9.01,12.29,12.75.23.17.5.25.76.25.4,0,.79-.18,1.05-.53.42-.58.3-1.39-.28-1.81-4.85-3.55-8.76-7.61-11.64-12.06Z"/><path class="uuid-b4ea7874-050e-487b-a880-2ca6f087e839" d="m213.71,273.95c-.59-.41-1.4-.27-1.81.32-3.59,5.13-5.8,10.69-6.55,16.53-.09.71.41,1.36,1.12,1.45.06,0,.11,0,.17,0,.64,0,1.2-.48,1.28-1.13.7-5.42,2.75-10.59,6.11-15.38.41-.59.27-1.39-.32-1.8Z"/><path class="uuid-b4ea7874-050e-487b-a880-2ca6f087e839" d="m457.35,384.58c.18,0,.36-.03.52-.11.65-.29.95-1.06.66-1.71-2.39-5.39-5.74-10.3-9.98-14.58-.51-.51-1.33-.51-1.83,0-.51.5-.52,1.32-.01,1.83,4.01,4.06,7.19,8.7,9.45,13.8.21.49.69.77,1.18.77Z"/><path class="uuid-b4ea7874-050e-487b-a880-2ca6f087e839" d="m331.37,243.16c-.19-.69-.89-1.08-1.6-.9-5.48,1.54-11.12,2.89-16.77,4.02-.7.14-1.16.82-1.02,1.52.12.62.66,1.04,1.27,1.04.09,0,.17,0,.26-.02,5.71-1.14,11.41-2.51,16.96-4.06.69-.19,1.09-.91.9-1.6Z"/><path class="uuid-b4ea7874-050e-487b-a880-2ca6f087e839" d="m402.86,455.01c-5.3,1.17-11.01,2.18-16.99,3.02-.71.1-1.2.75-1.1,1.46.09.65.64,1.12,1.28,1.12.06,0,.12,0,.18-.01,6.05-.85,11.83-1.87,17.19-3.05.7-.15,1.14-.85.99-1.55-.15-.7-.84-1.12-1.54-.99Z"/><path class="uuid-b4ea7874-050e-487b-a880-2ca6f087e839" d="m440.99,440.16c-4.31,2.91-9.4,5.57-15.11,7.89-.66.27-.98,1.03-.71,1.69.2.5.69.81,1.2.81.16,0,.33-.03.49-.09,5.88-2.39,11.12-5.13,15.58-8.14.59-.4.75-1.21.35-1.8-.4-.6-1.2-.74-1.8-.35Z"/><path class="uuid-b4ea7874-050e-487b-a880-2ca6f087e839" d="m461.9,405.59c-.68-.07-1.31.55-1.32,1.27-.12,5.81-1.41,11.24-3.83,16.13-.32.64-.05,1.42.59,1.74.19.09.38.13.57.13.48,0,.94-.26,1.16-.72,2.59-5.24,3.97-11.03,4.1-17.22.02-.71-.55-1.31-1.27-1.32Z"/><path class="uuid-b4ea7874-050e-487b-a880-2ca6f087e839" d="m427.56,357.03c.5,0,.97-.28,1.18-.77.29-.66,0-1.42-.66-1.71-4.95-2.2-10.52-4.13-16.55-5.75-.69-.19-1.4.22-1.59.92-.19.69.22,1.4.92,1.59,5.91,1.58,11.35,3.47,16.17,5.62.17.07.35.11.53.11Z"/><path class="uuid-b4ea7874-050e-487b-a880-2ca6f087e839" d="m345.83,343.97c.7,0,1.28-.56,1.3-1.27.01-.71-.55-1.31-1.27-1.32-5.79-.12-11.6-.17-17.38-.17-.72,0-1.3.58-1.3,1.3,0,.72.58,1.3,1.3,1.3,5.76,0,11.55.05,17.32.17h.03Z"/><path class="uuid-b4ea7874-050e-487b-a880-2ca6f087e839" d="m387.37,346.77c.64,0,1.2-.47,1.28-1.13.09-.71-.41-1.36-1.12-1.46-5.39-.7-11.23-1.29-17.34-1.72-.71-.06-1.34.49-1.38,1.2-.05.71.48,1.34,1.2,1.39,6.06.44,11.84,1.01,17.19,1.71.06,0,.11,0,.17,0Z"/><path class="uuid-b4ea7874-050e-487b-a880-2ca6f087e839" d="m361.79,460.36c-5.62.34-11.44.55-17.29.63-.72,0-1.29.6-1.28,1.31,0,.71.59,1.28,1.3,1.28h.02c5.9-.08,11.76-.29,17.41-.63.71-.04,1.26-.66,1.22-1.37-.04-.71-.71-1.19-1.37-1.22Z"/><path class="uuid-b4ea7874-050e-487b-a880-2ca6f087e839" d="m396.55,210.4s-2.42,1.97-6.9,4.96c-.59.4-.76,1.2-.36,1.8.25.38.66.58,1.08.58.25,0,.5-.07.72-.22,4.6-3.07,7-5.03,7.1-5.12.55-.45.63-1.27.18-1.82-.45-.55-1.27-.64-1.82-.18Z"/><path class="uuid-ce94e619-e5a9-4388-a055-85993e29b92e" d="m265.47,419.23c-12.12-.07-22.01,9.69-22.1,21.82-.04,5.64,2.04,10.79,5.51,14.71,4.31,4.88,7.4,11.13,7.35,17.65v.58s17.76.13,17.76.13v-.65c.05-6.49,3.22-12.66,7.59-17.45,3.53-3.87,5.7-9,5.74-14.65.09-12.13-9.72-22.07-21.85-22.14Z"/><path class="uuid-b4ea7874-050e-487b-a880-2ca6f087e839" d="m258.7,441.26c1.23-.63,1.77-2.35,1.01-3.23-.37-.43-.99-.63-1.65-.53-.41.06-1.12.17-1.07,3.17-.2-.06-.4-.16-.61-.31-2.25-1.58-.58-5.22.26-6.48.11-.17-.02-.41-.29-.54-.27-.14-.58-.1-.69.06-.14.21-3.28,5.07.11,7.44.41.29.83.48,1.25.59.07,1.46.29,3.49.75,6.29.78,4.78,1.87,9.58,1.89,9.63.04.16.2.3.4.38.07.02.14.04.21.05.29.03.48-.13.43-.34-1.36-5.93-2.44-12.25-2.63-15.95.23-.04.44-.11.65-.21Zm-.16-3c.15-.02.23-.01.27,0,.03,0,.04.02.05.03.37.43.05,1.74-.83,2.25,0-1.35.14-2.19.52-2.29Z"/><path class="uuid-b4ea7874-050e-487b-a880-2ca6f087e839" d="m274.5,433.47c-.27.13-.41.37-.3.54.82,1.28,2.43,4.95.16,6.49-.22.14-.42.25-.62.3.1-3-.61-3.11-1.03-3.18-.66-.11-1.28.08-1.66.5-.77.87-.26,2.6.96,3.25.2.11.42.18.64.22-.25,3.7-1.42,10.01-2.88,15.91-.05.21.14.37.43.34.07,0,.14-.02.21-.04.2-.07.36-.22.4-.37.01-.05,1.19-4.83,2.04-9.6.5-2.79.75-4.81.85-6.28.42-.1.84-.28,1.26-.56,3.43-2.32.36-7.24.23-7.45-.11-.17-.42-.2-.69-.07Zm-2.6,4.92s.02-.02.04-.03c.04-.02.12-.02.28,0,.36.1.51.94.48,2.29-.88-.53-1.18-1.84-.8-2.26Z"/><path class="uuid-b4ea7874-050e-487b-a880-2ca6f087e839" d="m260.2,456.34l-.53.43-.13,17.76,11.14.08.13-17.76-.53-.44c-2.9-2.42-7.14-2.46-10.08-.07Zm9.44,17.23l-9.06-.07.12-16.23.16-.13c2.55-2.07,6.23-2.04,8.75.07l.15.13-.12,16.23Z"/><path class="uuid-b4ea7874-050e-487b-a880-2ca6f087e839" d="m274.32,472.77l-18.41-.13c-.75,0-1.36.6-1.37,1.35,0,.75.6,1.36,1.35,1.37l18.41.13c.75,0,1.36-.6,1.37-1.34,0-.75-.6-1.36-1.35-1.37Z"/><path class="uuid-f97bccb3-bdca-403f-93c4-c4374d8603db" d="m273.32,475.48l-16.45-.12c-.67,0-1.22.6-1.22,1.35,0,.75.53,1.36,1.2,1.37l16.45.12c.67,0,1.22-.6,1.22-1.35,0-.75-.53-1.36-1.2-1.37Z"/><path class="uuid-b4ea7874-050e-487b-a880-2ca6f087e839" d="m273.3,478.2l-16.44-.12c-.67,0-1.22.6-1.22,1.35,0,.75.53,1.36,1.2,1.37l16.45.12c.67,0,1.22-.6,1.22-1.35,0-.75-.53-1.36-1.2-1.36Z"/><path class="uuid-f97bccb3-bdca-403f-93c4-c4374d8603db" d="m273.28,480.92l-16.44-.12c-.67,0-1.22.6-1.23,1.35,0,.75.53,1.36,1.2,1.36l16.45.12c.67,0,1.22-.6,1.22-1.35,0-.75-.53-1.36-1.2-1.37Z"/><path class="uuid-b4ea7874-050e-487b-a880-2ca6f087e839" d="m273.25,483.64l-16.44-.12c-.67,0-1.22.6-1.22,1.35,0,.75.53,1.36,1.2,1.37l16.45.12c.67,0,1.22-.6,1.22-1.35,0-.75-.53-1.36-1.2-1.36Z"/><path class="uuid-f97bccb3-bdca-403f-93c4-c4374d8603db" d="m260.65,488.98l8.69.07c1.5,0,2.73-1.2,2.74-2.69l-14.13-.11c0,1.5,1.2,2.72,2.7,2.73Z"/><path class="uuid-ce94e619-e5a9-4388-a055-85993e29b92e" d="m265.67,400.73c-.86,0-1.57.69-1.58,1.55l-.07,8.79c0,.74.51,1.37,1.19,1.53.12.03.24.04.36.04.86,0,1.57-.69,1.58-1.55l.07-8.79c0-.86-.69-1.56-1.55-1.58Z"/><path class="uuid-ce94e619-e5a9-4388-a055-85993e29b92e" d="m247.32,405.46c-.46-.73-1.42-.96-2.15-.5-.74.45-.96,1.42-.51,2.15l4.72,7.62c.23.36.58.6.96.7.39.1.82.04,1.19-.19.73-.46.96-1.42.51-2.15l-4.72-7.62Z"/><path class="uuid-ce94e619-e5a9-4388-a055-85993e29b92e" d="m241.27,424.01l-8.2-3.67c-.79-.36-1.71,0-2.07.79-.35.79,0,1.71.79,2.07l8.2,3.67c.09.04.18.07.27.09.72.18,1.48-.18,1.8-.88.35-.79,0-1.71-.79-2.07Z"/><path class="uuid-ce94e619-e5a9-4388-a055-85993e29b92e" d="m236.97,442.35l-7.44.26c-.86.03-1.54.76-1.51,1.62.03.71.53,1.3,1.19,1.46.14.03.28.05.43.04l7.44-.27c.86-.03,1.54-.76,1.51-1.62-.03-.86-.76-1.54-1.62-1.51Z"/><path class="uuid-ce94e619-e5a9-4388-a055-85993e29b92e" d="m287.21,405.28c-.73-.46-1.7-.26-2.16.47l-4.84,7.55c-.47.72-.25,1.69.47,2.16.15.1.31.16.48.2.63.15,1.31-.1,1.69-.68l4.84-7.54c.47-.73.25-1.7-.47-2.16Z"/><path class="uuid-ce94e619-e5a9-4388-a055-85993e29b92e" d="m299.06,420.85l-8.25,3.54c-.79.34-1.16,1.26-.82,2.06.2.47.61.79,1.07.9.32.08.66.06.99-.08l8.25-3.54c.79-.34,1.16-1.26.82-2.05-.34-.8-1.26-1.16-2.06-.82Z"/><path class="uuid-ce94e619-e5a9-4388-a055-85993e29b92e" d="m302.26,443.17l-7.43-.38c-.86-.04-1.6.62-1.64,1.48-.04.76.48,1.43,1.19,1.6.09.02.19.04.29.04l7.43.38c.86.04,1.6-.62,1.64-1.48.04-.86-.62-1.59-1.48-1.64Z"/><path class="uuid-f97bccb3-bdca-403f-93c4-c4374d8603db" d="m415.98,333.39c-8.38,5.08-13.96,14.37-13.87,24.93v.37s30.42-.32,30.42-.32l-15.15-25.68s-1.4.7-1.4.7Z"/><path class="uuid-ce94e619-e5a9-4388-a055-85993e29b92e" d="m452.5,337.65l-1.9-.38-.52,3.5-.25,1.71-.03.22-.09.63-3.31,22.36-1.7.02h-.64s-26.18.31-26.18.31c0,.44.02.87.04,1.31.05,1.2.18,2.44.39,3.69.03.21.07.43.11.64,1.79,9.78,8.37,20.22,22.54,22.62.22.04.43.07.65.1,3.2.47,6.76.55,10.72.13,7.41-.79,13.88-4.78,18.31-10.51.09-.11.17-.22.26-.33.63-.83,1.21-1.7,1.74-2.6,1.54-2.57,2.7-5.4,3.4-8.37.42-1.77.68-3.6.76-5.46.02-.49.03-.98.02-1.48-.01-.84-.05-1.99-.25-3.58-1.62-12.42-11.51-22.71-24.06-24.52Z"/><path class="uuid-b4ea7874-050e-487b-a880-2ca6f087e839" d="m445.49,330.85c-2.55-.36-5.26-.44-8.24,0-3.85.56-7.44,1.88-10.63,3.82l16.27,27.32,4.49-30.76h-.01l-1.89-.38Z"/><path class="uuid-334aa2dd-dfc0-4e0b-8eab-abd5e7a92c1c" d="m258.92,219.8c-17.39.13-31.44,14.37-31.32,31.77.12,17.27,14.27,31.32,31.54,31.32h.22c17.39-.13,31.44-14.37,31.32-31.77-.12-17.27-14.27-31.32-31.76-31.32Z"/><path class="uuid-b4ea7874-050e-487b-a880-2ca6f087e839" d="m259.15,219.31h-.23c-17.69.13-31.93,14.57-31.81,32.26.12,17.62,14.44,31.81,32.03,31.81h.23c17.69-.13,31.93-14.57,31.81-32.26-.12-17.62-14.44-31.81-32.03-31.81Zm.21,63.09h-.22c-17,0-30.93-13.83-31.05-30.83-.06-8.29,3.12-16.12,8.94-22.02,5.82-5.91,13.6-9.19,21.89-9.25h.23c17,0,30.93,13.83,31.05,30.83.12,17.12-13.71,31.15-30.84,31.27Z"/><polygon class="uuid-334aa2dd-dfc0-4e0b-8eab-abd5e7a92c1c" points="275.31 230.44 285.61 242.61 291.82 236.08 280.05 223.41 275.31 230.44"/><path class="uuid-ce94e619-e5a9-4388-a055-85993e29b92e" d="m289.83,221.45c-2.01-1.27-4.66-.67-5.93,1.33-.83,1.32-18.02,28.44-23.98,38.24-3.25-3.05-8.85-9.92-13.22-16-1.38-1.93-4.07-2.37-6-.98-1.93,1.38-2.37,4.07-.99,6,13.53,18.85,18.57,20.81,20.86,20.93.3.01.55,0,.77-.01,1.81-.11,3.41-1.13,4.29-2.74,1.82-3.33,19.04-30.6,25.52-40.82,1.27-2.01.68-4.66-1.33-5.93Z"/><path class="uuid-ce94e619-e5a9-4388-a055-85993e29b92e" d="m403.75,201.19c-2.71,2.67-2,7.78-2,7.78,0,0,5.09.77,7.81-1.91,2.71-2.68,2.62-5.19,1.02-6.81-1.6-1.62-4.11-1.74-6.82.94Z"/><path class="uuid-334aa2dd-dfc0-4e0b-8eab-abd5e7a92c1c" d="m408.48,199.82c-.86,0-1.79.47-2.7,1.37-1.46,1.44-1.37,4.1-1.28,5.06.26.02.63.05,1.07.05,1.24,0,2.94-.22,4-1.27,1.62-1.6,1.85-3.21.65-4.43-.5-.51-1.1-.78-1.74-.78Z"/><path class="uuid-b4ea7874-050e-487b-a880-2ca6f087e839" d="m408.48,199.33c-.93,0-1.97.45-3.04,1.51-2,1.97-1.37,5.84-1.37,5.84,0,0,.63.11,1.51.11,1.3,0,3.15-.24,4.34-1.42,2-1.97,1.89-3.87.65-5.13-.57-.58-1.29-.92-2.09-.92Zm.75,5.35c-.95.93-2.51,1.13-3.66,1.13-.23,0-.43,0-.61-.02-.05-1.09.02-3.13,1.16-4.26.81-.8,1.63-1.23,2.35-1.23.51,0,.98.21,1.39.63.45.45.65.97.61,1.53-.05.69-.49,1.46-1.25,2.21Z"/><path class="uuid-f97bccb3-bdca-403f-93c4-c4374d8603db" d="m413.17,191.59c-1.04-1.07-2.68-1.29-3.96-.52l-4.25,2.54c-1.78,1.06-2.1,3.51-.66,5l7.71,7.94c1.44,1.49,3.9,1.24,5.02-.51l2.67-4.17c.8-1.26.64-2.9-.4-3.97l-6.12-6.31Z"/><path class="uuid-b4ea7874-050e-487b-a880-2ca6f087e839" d="m446.53,177.21l-25.19,22.35c-.34.43-.37,1-.13,1.45h0l5.94,7c.23.29.37.65.4,1.03l1.3,18.92c.08,1.18,1.6,1.58,2.26.61l14.7-21.79c.49-.72.76-1.56.79-2.43l.91-26.88c-.07-.73-.51-.86-.97-.28Z"/><path class="uuid-b4ea7874-050e-487b-a880-2ca6f087e839" d="m434.45,164.04l-26.89.1c-.87,0-1.72.25-2.45.71l-22.22,14.04c-.99.63-.63,2.16.54,2.28l18.88,1.87c.37.04.73.18,1.01.43l6.82,6.15h0c.45.25,1.02.24,1.46-.09l23.1-24.5c.6-.44.48-.88-.25-.97Z"/><path class="uuid-334aa2dd-dfc0-4e0b-8eab-abd5e7a92c1c" d="m469.36,132.54c-3.4,0-7.39.87-11.87,2.58-9.4,3.59-19.77,10.48-28.44,18.89-8.45,8.2-14.9,17.43-18.16,26.01-3.21,8.45-2.93,15.22.78,19.05,2.1,2.16,5.15,3.27,9.06,3.27,10.12,0,24.45-7.56,36.51-19.25,8.68-8.41,15.87-18.57,19.75-27.86,3.82-9.15,3.96-16.21.39-19.89-1.81-1.86-4.5-2.8-8.02-2.8Z"/><path class="uuid-b4ea7874-050e-487b-a880-2ca6f087e839" d="m469.36,132.05c-3.51,0-7.63.92-12.05,2.61-9.18,3.51-19.66,10.32-28.61,19-17.58,17.05-25.36,37.53-17.38,45.76,2.25,2.32,5.5,3.41,9.41,3.41,9.98,0,24.23-7.14,36.86-19.39,8.95-8.68,16.07-18.94,19.86-28.02,3.65-8.75,4.2-16.39.29-20.42-1.96-2.02-4.86-2.95-8.38-2.95Zm7.18,23c-3.85,9.23-11.01,19.32-19.64,27.69-11.97,11.61-26.17,19.11-36.17,19.11-3.77,0-6.7-1.05-8.71-3.11-7.59-7.82.2-27.73,17.36-44.37,8.63-8.37,18.93-15.21,28.28-18.78,4.42-1.69,8.36-2.55,11.7-2.55s5.96.89,7.67,2.66c3.37,3.48,3.2,10.54-.49,19.36Z"/><g class="uuid-a751c152-e10f-45e2-a0c5-e1df82eaa8a1"><path class="uuid-87d2f4b1-260e-4be4-ae0d-251e8d0622c2" d="m451.61,152.78c-2.76,2.68-2.82,7.08-.14,9.84,2.68,2.76,7.09,2.82,9.84.14,2.76-2.68,2.82-7.08.14-9.84-2.68-2.76-7.09-2.82-9.84-.14Z"/><path class="uuid-87d2f4b1-260e-4be4-ae0d-251e8d0622c2" d="m436.4,167.56c-2.76,2.68-2.82,7.08-.14,9.84,2.68,2.76,7.09,2.82,9.84.14,2.76-2.68,2.82-7.08.15-9.84-2.68-2.76-7.09-2.82-9.84-.14Z"/></g><path class="uuid-6a2d4b89-419e-4def-bcd9-2995b4135220" d="m408.18,202.62l3.85,3.96c.16.17.34.31.53.44l3.31-4.85c.55.19,1.3.34,1.3.34,0,0,16.98-22.8,17.15-23.44.17-.64-.15-.98-.15-.98l-25.99,24.54Z"/><path class="uuid-b4ea7874-050e-487b-a880-2ca6f087e839" d="m451.54,150.7c-2.76,2.68-2.82,7.08-.15,9.84,2.68,2.76,7.09,2.82,9.84.14,2.76-2.68,2.82-7.09.14-9.84-2.68-2.76-7.09-2.82-9.84-.14Z"/><path class="uuid-334aa2dd-dfc0-4e0b-8eab-abd5e7a92c1c" d="m456.39,149.95c-1.5,0-2.92.57-4,1.62-1.1,1.07-1.72,2.5-1.74,4.04-.02,1.54.55,2.99,1.62,4.09,1.09,1.12,2.55,1.74,4.12,1.74s2.92-.57,4-1.62c1.1-1.07,1.72-2.51,1.74-4.04.02-1.53-.55-2.99-1.62-4.09-1.09-1.12-2.55-1.74-4.12-1.74Z"/><path class="uuid-b4ea7874-050e-487b-a880-2ca6f087e839" d="m456.39,149.46c-1.57,0-3.13.59-4.34,1.76-2.47,2.4-2.52,6.35-.13,8.81h0c1.22,1.26,2.85,1.89,4.48,1.89s3.13-.58,4.34-1.76c1.19-1.16,1.87-2.72,1.89-4.38.02-1.67-.6-3.24-1.76-4.44-1.22-1.26-2.85-1.89-4.48-1.89Zm3.66,10c-.98.96-2.28,1.48-3.66,1.48s-2.77-.56-3.77-1.59c-.98-1.01-1.5-2.33-1.48-3.74.02-1.4.58-2.72,1.59-3.69.98-.95,2.28-1.48,3.66-1.48s2.77.56,3.77,1.59c.98,1.01,1.51,2.33,1.49,3.74-.02,1.4-.59,2.71-1.59,3.69Z"/><path class="uuid-b4ea7874-050e-487b-a880-2ca6f087e839" d="m436.33,165.48c-2.76,2.68-2.82,7.08-.14,9.84,2.68,2.76,7.08,2.82,9.84.14,2.76-2.68,2.82-7.09.14-9.84-2.68-2.76-7.09-2.82-9.84-.14Z"/><path class="uuid-334aa2dd-dfc0-4e0b-8eab-abd5e7a92c1c" d="m441.18,164.73c-1.51,0-2.93.57-4,1.62-2.27,2.21-2.32,5.85-.12,8.13,1.09,1.12,2.55,1.74,4.12,1.74s2.93-.57,4-1.62c1.1-1.07,1.72-2.5,1.74-4.04.02-1.54-.55-2.99-1.62-4.09-1.09-1.12-2.55-1.74-4.12-1.74Z"/><path class="uuid-b4ea7874-050e-487b-a880-2ca6f087e839" d="m441.18,164.24c-1.57,0-3.14.59-4.34,1.76-2.47,2.4-2.53,6.35-.13,8.82h0c1.22,1.26,2.85,1.89,4.47,1.89s3.13-.58,4.34-1.76c2.46-2.4,2.52-6.35.13-8.82-1.22-1.26-2.85-1.89-4.47-1.89Zm3.66,10c-.99.96-2.29,1.48-3.66,1.48s-2.77-.56-3.77-1.59c-.98-1.01-1.5-2.33-1.48-3.74.02-1.4.58-2.72,1.59-3.69.98-.96,2.28-1.48,3.66-1.48s2.77.56,3.77,1.59c.98,1,1.5,2.33,1.48,3.74-.02,1.41-.58,2.72-1.59,3.69Z"/><path class="uuid-b4ea7874-050e-487b-a880-2ca6f087e839" d="m433.47,177.32c-.24-.25-.62-.25-.87-.01l-27.05,26.23c-.25.24-.25.63-.02.87l.61.63c.24.24.63.25.87.01l27.05-26.23c.25-.24.25-.63.02-.87l-.61-.63Z"/><path class="uuid-ce94e619-e5a9-4388-a055-85993e29b92e" d="m457.31,134.66c.77,4.85,3.06,9.61,6.84,13.51,3.78,3.9,8.47,6.33,13.29,7.25,3.65-8.75,4.2-16.39.29-20.42-3.92-4.04-11.57-3.72-20.42-.34Z"/><path class="uuid-334aa2dd-dfc0-4e0b-8eab-abd5e7a92c1c" d="m209.12,517.71s-.05-.02-.08-.03c-.98-.3-3.46-.41-6.42-.56-6.25-.32-10.71-5.26-16.51-7.29-5.8-2.03-8.57-23.47-10.34-28.62-8.37-.28-20.25,4.87-18.13,7.05,19.17,19.71,4.36,20.97,4.34,29.84,0,4.03,4.02,4.81,6.2,4.75,16.72-.41,26.39-.1,39.99.02,2.99.03,3.8-4.25.95-5.17Z"/><path class="uuid-b4ea7874-050e-487b-a880-2ca6f087e839" d="m209.22,517.41l-.09-.02c-.95-.29-3.11-.4-5.84-.54l-.66-.03c-3.71-.19-6.73-2.01-9.93-3.94-2.05-1.24-4.17-2.52-6.49-3.33-4.13-1.45-6.78-13.66-8.52-21.75-.62-2.86-1.15-5.33-1.62-6.68l-.07-.21h-.22c-7.22-.25-17.4,3.57-18.58,6.24-.22.5-.14.97.22,1.34,13.24,13.6,10.07,18.28,7,22.81-1.35,1.99-2.75,4.05-2.75,6.82,0,1.37.44,2.51,1.32,3.37,1.7,1.66,4.41,1.73,5.21,1.7,12.77-.32,21.57-.2,30.88-.08,2.91.04,5.9.08,9.1.1h.03c1.75,0,2.76-1.33,2.96-2.57.2-1.23-.32-2.7-1.94-3.22Zm1.32,3.12c-.16,1.02-.95,2.03-2.34,2.03h-.03c-3.2-.03-6.19-.07-9.1-.1-4.83-.06-9.52-.12-14.69-.12-4.81,0-10.05.05-16.21.21-.76.03-3.23-.04-4.75-1.52-.75-.73-1.13-1.71-1.13-2.91,0-2.57,1.29-4.46,2.65-6.46,3.2-4.74,6.52-9.63-7.08-23.6-.18-.18-.21-.38-.09-.64.98-2.21,10.42-6.03,17.76-5.88.43,1.36.94,3.71,1.53,6.4,1.88,8.71,4.46,20.65,8.93,22.21,2.26.79,4.35,2.05,6.37,3.27,3.13,1.89,6.36,3.84,10.23,4.03l.66.03c2.58.13,4.81.24,5.73.52h.04c1.34.45,1.65,1.64,1.51,2.53Z"/><path class="uuid-b4ea7874-050e-487b-a880-2ca6f087e839" d="m210.13,517.38c-2.74-1.5-6.02-2.09-9.4-2.2-2.48-.08-7.13-2.54-9.43-3.85-.62-.36-1.38-.09-1.74.53-.58.99-2.02,2.32-5.56,3.25-5.47,1.45-16.58-2.52-19.42-3.59-.41-.15-.86-.02-1.11.34-.73,1.06-2.15,3.33-2.5,5.4-.3,1.77.28,3.73.76,4.94.28.71.96,1.18,1.72,1.18l46.03.02c1.24,0,2.25-1.01,2.23-2.25-.01-1.41-.32-3.08-1.57-3.77Z"/><path class="uuid-334aa2dd-dfc0-4e0b-8eab-abd5e7a92c1c" d="m80.4,512.2c-6.22-2.95-2.87-21.37-4.2-27.22-6.23-.27-14.54,1.1-13.99,4.46,3.36,20.72,2.34,19.83-1.8,26.06-2.54,3.82-2.56,8.37,4.01,7.76,6.77-.63,12.02-.34,17.01-.31,4.07.03,11.68-4.7-1.03-10.74Z"/><path class="uuid-b4ea7874-050e-487b-a880-2ca6f087e839" d="m80.53,511.92c-4.02-1.91-3.85-10.96-3.71-18.24.07-3.67.13-6.83-.31-8.76l-.05-.24h-.24c-5.32-.23-11.73.68-13.71,2.9-.52.58-.72,1.23-.61,1.92,3.05,18.84,2.47,19.68-.77,24.38-.3.44-.63.92-.99,1.45-1.65,2.49-2.09,4.92-1.15,6.48.52.87,1.68,1.83,4.29,1.83.36,0,.74-.02,1.16-.06,5.33-.5,9.63-.43,13.79-.35,1.08.02,2.14.03,3.19.04,2.19.03,5.68-1.33,6.25-3.82.39-1.7-.53-4.39-7.14-7.53Zm6.53,7.39c-.48,2.07-3.56,3.32-5.59,3.32h-.03c-1.05,0-2.1-.02-3.19-.04-4.17-.08-8.49-.15-13.86.36-2.47.22-4.14-.28-4.85-1.46-.79-1.33-.36-3.56,1.13-5.81.35-.53.68-1,.98-1.44,3.36-4.87,3.96-5.75.87-24.84-.08-.5.07-.96.46-1.4,1.64-1.84,6.92-2.73,11.64-2.73.45,0,.89,0,1.32.02.37,1.89.31,5.05.25,8.38-.14,7.46-.31,16.74,4.08,18.83,4.86,2.31,7.27,4.73,6.8,6.81Z"/><path class="uuid-b4ea7874-050e-487b-a880-2ca6f087e839" d="m127.13,276.37c-6.61-5.24-31.62-5.1-39.43-2.88-1.95,101.73,63.44,203.34,75.43,227.57,5.04,1.1,14.24-1.74,19.57-3.34-6.66-22.37-31.64-144.84-43.84-192.89-3.06-2.27-8.73-26.08-11.72-28.46Z"/><path class="uuid-b4ea7874-050e-487b-a880-2ca6f087e839" d="m64.98,266.59c-10.87,40.5-17.73,186.26-6,231.16,10.81.93,11.2.6,22.02,1.54,1.02-20.48,3.73-54.01,14.72-88.57.48-1.51.85-3.06,1.06-4.63,5.4-40.02,16.02-46.29,23.94-98.04-2.47-2.9-20.98-26.69-23.37-29.67-5.27-6.59-24.27-12.2-32.38-11.78Z"/><polygon class="uuid-334aa2dd-dfc0-4e0b-8eab-abd5e7a92c1c" points="137.19 511.77 148.57 513.4 158.5 497.97 131.99 494.18 137.19 511.77"/><path class="uuid-b4ea7874-050e-487b-a880-2ca6f087e839" d="m136.78,512.25l12.06,1.73,10.56-16.42-28.15-4.02,5.54,18.72Zm11.53.57l-10.7-1.53-4.87-16.46,24.85,3.55-9.28,14.44Z"/><path class="uuid-ce94e619-e5a9-4388-a055-85993e29b92e" d="m182.34,305.69l-18.33-2.62c-2.71-.38-5.22,1.5-5.61,4.21l-1.5,10.51,28.15,4.02,1.5-10.51c.39-2.71-1.5-5.22-4.21-5.61Z"/><path class="uuid-f97bccb3-bdca-403f-93c4-c4374d8603db" d="m131.34,492.91c-.38,2.59,1.42,4.99,4.02,5.36,2.59.37,4.99-1.43,5.36-4.02l25.66-175.8-9.38-1.34-25.66,175.8Z"/><path class="uuid-b4ea7874-050e-487b-a880-2ca6f087e839" d="m140.72,494.25c-.37,2.59,1.43,4.99,4.02,5.36,2.59.37,4.99-1.43,5.36-4.02l25.66-175.8-9.38-1.34-25.66,175.8Z"/><path class="uuid-f97bccb3-bdca-403f-93c4-c4374d8603db" d="m150.1,495.59c-.37,2.59,1.43,4.99,4.02,5.36,2.59.37,4.99-1.43,5.36-4.02l25.66-175.8-9.38-1.34-25.66,175.8Z"/><rect class="uuid-334aa2dd-dfc0-4e0b-8eab-abd5e7a92c1c" x="168.14" y="304.65" width="5.92" height="28.44" transform="translate(-168.77 443.13) rotate(-81.86)"/><path class="uuid-b4ea7874-050e-487b-a880-2ca6f087e839" d="m156.01,320.24l29.21,4.17,1-6.92-29.21-4.17-.99,6.92Zm1.9-5.71l27.09,3.87-.69,4.8-27.09-3.87.69-4.81Z"/><path class="uuid-ce94e619-e5a9-4388-a055-85993e29b92e" d="m139.45,520.35c.66,2,3.33,2.36,4.5.62l4.88-6.99-12.06-1.73,2.67,8.1Z"/><path class="uuid-b4ea7874-050e-487b-a880-2ca6f087e839" d="m81.47,512.25c-.72-.16-1.4-.45-2.02-.85-1.45-.92-3.37-1.07-5.11-.78-2.1.36-4.06,1.25-6.12,1.78-1.82.47-3.85.62-5.55-.12-.4-.17-.87-.15-1.19.16-2.64,2.61-4.09,6.38-3.91,10.08.04.79.68,1.41,1.47,1.41h29.27c.74,0,1.34-.6,1.31-1.34-.09-2.37-.88-5.01-2.34-6.68-1.49-1.7-3.59-3.18-5.81-3.67Z"/><path class="uuid-334aa2dd-dfc0-4e0b-8eab-abd5e7a92c1c" d="m185.81,305.32c-.53-4.19-1.49-7.98-2.83-11l-.04-.13s0-.02-.02-.03l-12.44-38.61-2.12-6.59-2.77-8.6-2.21-6.83s-13.99-22.81-23.91-18.79c-2.13.95-3.86,2.28-5.2,3.86-.19,2.58-.22,5.17-.08,7.73.33,6.2,1.61,12.33,3.78,18.13.73,2.04,1.58,4.01,2.54,5.94l1.12,1.94,2.66,4.6,2.12,3.68,2.55,4.38,17.27,29.89s0,.02,0,.02h0c-.25.62-.46,1.25-.61,1.88-.53,2.23-1.75,4.35-1.27,6.61.6,2.86,1.35,5.69,2.03,8.53.12.5.25,1.02.57,1.42.32.4.9.64,1.36.42.5-.24.65-.88.74-1.43.23-1.33.54-2.64.91-3.94.66.77,1.33,1.53,1.96,2.3.53.65,1.4,2.4,2.49,4.37.24,3.46.48,6.92.71,10.38.04.59.09,1.21.36,1.73.27.53.84.95,1.43.88.73-.09,1.15-.85,1.44-1.53.06-.14.1-.28.15-.42.02.36.05.72.07,1.08.04.59.09,1.21.36,1.73.27.53.84.96,1.43.88.73-.09,1.15-.85,1.44-1.53.17-.4.3-.81.45-1.21.05.37.12.74.29,1.07.27.53.83.96,1.42.88.73-.09,1.15-.85,1.44-1.53,1.4-3.33,2.18-6.91,2.32-10.51.04-1.11-.01-1.99-.18-2.78-.17-2.24-1.57-7.38-1.75-8.87Z"/><path class="uuid-b4ea7874-050e-487b-a880-2ca6f087e839" d="m186.77,308.39c-.31-1.36-.57-2.53-.65-3.12-.53-4.24-1.52-8.08-2.85-11.06l-12.49-38.77-7.13-22.09c-.58-.94-14.26-22.98-24.31-18.92-2.1.93-3.88,2.26-5.31,3.94l-.07.08v.1c-.2,2.62-.23,5.23-.09,7.77.33,6.23,1.61,12.37,3.8,18.22.71,1.98,1.57,3.99,2.57,5.99l25.65,44.37h0s0,.02,0,.02c-.25.61-.43,1.2-.57,1.76-.15.64-.37,1.29-.58,1.92-.52,1.55-1.05,3.16-.7,4.83.39,1.87.86,3.77,1.31,5.6.24.98.49,1.96.72,2.94.11.48.25,1.08.63,1.55.39.48,1.11.81,1.75.51.63-.3.8-1.02.92-1.66.18-1.07.43-2.16.75-3.34l.15.17c.48.56.96,1.11,1.42,1.67.36.44.91,1.47,1.55,2.66.27.5.56,1.05.87,1.6l.71,10.31c.04.59.08,1.26.39,1.86.31.59.95,1.13,1.75,1.05.61-.08,1.03-.51,1.32-.99.04.55.1,1.15.38,1.69.27.53.87,1.06,1.57,1.06.06,0,.12,0,.18-.01.92-.12,1.4-1.04,1.69-1.72.03-.08.07-.17.1-.25.02.04.04.09.06.13.3.59.95,1.13,1.75,1.05.91-.12,1.4-1.04,1.69-1.72,1.42-3.36,2.21-6.93,2.35-10.62.04-1.13-.01-2.03-.18-2.83-.11-1.37-.64-3.7-1.1-5.75Zm-1.64,18.96c-.36.85-.74,1.28-1.19,1.34-.48.06-.9-.32-1.1-.71-.16-.3-.22-.66-.26-.96l-.16-1.27-.45,1.2c-.05.14-.1.28-.15.43-.09.26-.18.52-.29.77-.36.85-.74,1.28-1.19,1.34-.43.07-.89-.31-1.1-.71-.25-.48-.29-1.06-.32-1.61l-.17-2.44-.52,1.26c-.03.07-.05.14-.08.21-.02.07-.05.14-.07.2-.36.85-.74,1.28-1.19,1.34-.5.06-.91-.32-1.11-.71-.25-.48-.28-1.05-.32-1.61l-.71-10.38-.04-.13c-.32-.58-.62-1.14-.9-1.66-.68-1.27-1.22-2.27-1.62-2.76-.46-.56-.95-1.12-1.43-1.68l-.92-1.07-.16.57c-.4,1.41-.7,2.71-.92,3.98-.08.49-.21,1.03-.57,1.2-.32.15-.75-.05-.98-.34-.28-.35-.4-.85-.51-1.29-.23-.98-.47-1.96-.72-2.95-.45-1.83-.92-3.71-1.31-5.58-.32-1.51.17-2.96.68-4.5.21-.64.43-1.3.59-1.97.12-.52.3-1.08.53-1.65h.31l-25.98-44.95c-.98-1.96-1.83-3.95-2.53-5.91-2.16-5.8-3.43-11.86-3.76-18.04-.14-2.48-.11-5.03.07-7.58,1.35-1.57,3.04-2.82,5.01-3.69,9.57-3.86,23.38,18.44,23.49,18.6l19.54,60.63.07.19c1.31,2.96,2.28,6.73,2.81,10.91.08.62.35,1.8.66,3.18.44,1.94.99,4.36,1.09,5.68v.04c.17.75.22,1.61.18,2.7-.14,3.61-.91,7.11-2.3,10.4Z"/><path class="uuid-b4ea7874-050e-487b-a880-2ca6f087e839" d="m167.17,247.78c-4.01,1.52-8.16,2.66-12.17,4.17-2.32.87-4.73,1.79-6.5,3.54-1.26,1.27-2.15,3.27-2.1,5.12l2.55,4.38c2.23-3.35,5.8-5.69,9.61-7.08,3.81-1.37,7.87-1.93,11.92-2.37l-2.12-6.59c-.36-.41-.76-.81-1.19-1.17Z"/><path class="uuid-5d927935-8956-42f6-ad8e-8c5ac102b9f8" d="m135.33,213.51l-16.4-45.49c-7.76,8.98,16.4,45.49,16.4,45.49Z"/><path class="uuid-7c2f08c6-34f5-4e19-b197-9c27dd6e0143" d="m138.9,253.15c-2.4-24.55-5.17-51.72-5.61-53.04-1.77-5.23,7.57-26.73-15.98-32.59-1.14-.3-2.36-.55-3.65-.76h-.05c-1.55-.78-3.03-1.49-4.39-2.1-4.28-1.99-7.33-3.21-7.33-3.21,0,0-4.36,1.33-10.04,3.51-.06.02-.13.05-.19.06-.54.21-1.09.43-1.64.65-.92.38-1.88.76-2.86,1.2-.27.1-.54.22-.82.35-9.85,4-20.99,8.16-21.26,14.11,0,0,3.16,22.46,5.22,42.47,1.15,11.24,1.96,21.72,1.66,26.96-.47,8.2-12.06,21.69-12.06,21.69-.57,9.88,6.86,18.45,16.74,19.17,8,.6,17.97,2.94,28.47,9.29,3.95,2.39,11.98,4.12,19.74,5.33,9.86,1.52,18.54-6.62,17.61-16.56-.55-6.02-1.98-20.74-3.54-36.53Z"/><path class="uuid-334aa2dd-dfc0-4e0b-8eab-abd5e7a92c1c" d="m110.41,354.56c-.22-.07-.47.04-.54.27l-7.05,20.58c-.08.22.04.47.27.55.04.01.09.02.14.02.18,0,.34-.11.4-.29l7.05-20.58c.08-.22-.04-.47-.27-.54Z"/><path class="uuid-01dccaa2-bb4c-4bcc-b20c-59f85b2644e1" d="m81.36,321.8c-2.06-1.72-4.12-3.43-6.18-5.15-.99-.83-3.99-4.39-5.37-3.81-3.86,1.64,4.63,8.52,5.65,9.36.82.67,6.14,5.25,7.09,4.63.82-.66.99-1.95.63-2.87-.36-.92-1.1-1.55-1.83-2.16Z"/><path class="uuid-01dccaa2-bb4c-4bcc-b20c-59f85b2644e1" d="m87.48,322.42c-2.06-1.72-4.12-3.43-6.18-5.15-.99-.83-3.99-4.39-5.37-3.81-3.86,1.64,4.63,8.52,5.65,9.36.82.67,6.14,5.25,7.09,4.62.82-.66.99-1.95.63-2.87-.36-.92-1.1-1.55-1.83-2.16Z"/><path class="uuid-01dccaa2-bb4c-4bcc-b20c-59f85b2644e1" d="m90.07,319.28c-2.06-1.72-4.12-3.43-6.18-5.15-.99-.83-3.99-4.39-5.37-3.81-3.86,1.64,4.63,8.52,5.65,9.36.82.67,6.14,5.25,7.09,4.63.82-.66.99-1.95.63-2.87-.36-.92-1.1-1.56-1.83-2.16Z"/><path class="uuid-334aa2dd-dfc0-4e0b-8eab-abd5e7a92c1c" d="m82.24,307.9c-4.04-4.5-8.15-8.44-11.95-9.8v-.02s-20.67-48.71-20.67-48.71l2.51-3.95,1.14-1.8,15.47-24.4c-8.77-7.14,4.39-29.32-7.46-29.52,0,0-17.58,19.84-28.75,37.57-2.1,3.35-4,6.64-5.49,9.69-2.61,5.34-4.03,10-3.38,13.2,3.29,16.28,29.05,48.41,36.27,57.15v.02s0,.01.02.02c.3,2.99,2.45,6.45,4.27,8.19,1.78,2.09,4.27,4.11,4.79,4.54.82.67,6.14,5.25,7.09,4.62.82-.66.99-1.95.63-2.87s-1.1-1.55-1.83-2.16c-.25-.21-.5-.41-.75-.62,1.7.71,3.41,1.42,5.11,2.13.89.37,1.79.74,2.75.82.96.08,1.99-.2,2.61-.93.94-1.12.61-2.81.05-4.16-.74-1.75-1.79-3.34-2.95-4.85,2.62.8,4.89,1.21,4.21-.57-.45-1.17-2.54-2.27-3.72-3.59Z"/><path class="uuid-b4ea7874-050e-487b-a880-2ca6f087e839" d="m84.15,309.17c-.59-.47-1.21-.96-1.67-1.48-3.39-3.78-7.81-8.29-11.94-9.83l-20.55-48.45,19.19-30.26-.22-.18c-4.02-3.27-3.25-10.05-2.58-16.03.56-4.93,1.08-9.59-1-11.96-.92-1.05-2.26-1.57-4.08-1.6h-.15s-.1.11-.1.11c-.18.2-17.72,20.06-28.78,37.61-2.31,3.68-4.11,6.86-5.5,9.72-2.87,5.88-4.02,10.39-3.41,13.4,3.3,16.32,28.53,47.84,36.29,57.23h0c.33,3.01,2.48,6.52,4.33,8.29,1.17,1.37,2.83,2.95,4.83,4.58l.35.29c4.31,3.59,5.95,4.46,6.72,4.46.18,0,.31-.05.42-.12.98-.79,1.11-2.25.73-3.23-.25-.64-.68-1.16-1.14-1.6l3.26,1.36c.9.37,1.83.76,2.85.84,1.17.07,2.25-.3,2.88-1.04.85-1.01.89-2.6.1-4.49-.56-1.33-1.34-2.67-2.41-4.15,2.05.56,3.11.57,3.59.06.28-.3.31-.74.09-1.31-.3-.78-1.18-1.47-2.11-2.21Zm1.55,3.09c-.22.24-1.07.35-3.85-.5l-.95-.29.61.79c1.35,1.75,2.28,3.27,2.91,4.77.4.96.93,2.73,0,3.83-.5.59-1.36.9-2.35.82-.92-.07-1.8-.44-2.65-.8l-7.03-2.93,2.33,1.95c.66.55,1.4,1.16,1.73,2.03.3.78.19,1.93-.51,2.49-.18.08-1.16.02-6.37-4.31l-.37-.31c-2.47-2.02-3.94-3.55-4.76-4.51-1.81-1.73-3.88-5.12-4.17-7.99v-.05s-.09-.15-.09-.15c-5.46-6.6-32.85-40.38-36.21-57.01-.58-2.87.55-7.24,3.36-13,1.38-2.84,3.17-6,5.47-9.66,10.6-16.83,27.19-35.79,28.62-37.42,1.56.05,2.69.51,3.47,1.39,1.89,2.16,1.38,6.68.84,11.47-.68,6.04-1.45,12.87,2.59,16.41l-15.32,24.17-3.74,5.89,20.73,48.89.05.13.13.05c4.04,1.44,8.44,5.94,11.82,9.71.5.55,1.14,1.06,1.75,1.55.86.68,1.67,1.32,1.91,1.94.09.22.16.52.03.65Z"/><path class="uuid-b4ea7874-050e-487b-a880-2ca6f087e839" d="m82.78,298.8c-.47,6.24-3.06,12.27-7.31,16.98-4.24,4.7-10.1,8.05-16.49,9.41-1.32,5.58,3.79,11.55,9.54,13.39,5.75,1.85,12.25.04,16.84-3.6,4.59-3.64,7.49-8.88,9.41-14.29,1.67-4.72,2.65-9.99.72-14.69-1.93-4.7-7.8-8.92-12.7-7.21Z"/><path class="uuid-334aa2dd-dfc0-4e0b-8eab-abd5e7a92c1c" d="m82.82,298.33c-.24,0-.49.18-.51.44-.46,6.14-3.01,12.07-7.18,16.7-4.18,4.63-9.95,7.92-16.24,9.26-.26.06-.42.31-.36.56.05.22.24.37.46.37.03,0,.06,0,.1,0,6.49-1.38,12.44-4.78,16.75-9.56,4.31-4.78,6.95-10.91,7.43-17.26.02-.26-.18-.49-.44-.51Z"/><path class="uuid-b4ea7874-050e-487b-a880-2ca6f087e839" d="m47.84,234.11c-2.91-2.67-6.31-4.85-10.09-6.01-1.69-.51-3.46-.81-5.21-.84-2.1,3.35-4,6.64-5.49,9.69.92-.05,1.83-.02,2.73.06,3.67.32,7.21,1.49,10.64,2.75,4.08,1.47,8.19,3.13,11.71,5.66l1.14-1.8c-.11-1.44-.55-2.86-1.2-4.16-1.03-2.05-2.56-3.79-4.24-5.36Z"/><path class="uuid-7c2f08c6-34f5-4e19-b197-9c27dd6e0143" d="m132.46,173.85c-2.12-1.19-8.68-4.38-14.97-6.73-2.97-1.11-5.89-2.04-8.27-2.47-1.97-.38-3.59-.43-4.52.05-2.54,1.26.41,5.04,2.7,8.76,1.56,2.51,2.81,4.99,1.83,6.65-3.26,5.47-4.08,12.49-1.53,18.33,2.01,4.58,5.82,8.11,9.75,11.19,6.69,5.28,13.81,29.23,21.45,43.51,2.91,5.45,5.91,9.5,8.98,10.56,4.38-8.73,26.11-8.27,25.38-14.05-1.28-10.08-9.77-15.73-16.55-28.77-9.72-18.73-18.98-44.1-24.26-47.04Z"/><path class="uuid-7c2f08c6-34f5-4e19-b197-9c27dd6e0143" d="m91.66,164.97c-9.75.88-18.86,6.02-26.05,12.72-7.76,7.22-13.64,16.19-19.44,25.05-2.7,4.12-5.39,8.25-8.08,12.38-3.91,5.96-6.78,12.49-10.45,18.56-.57.93.02,2.15,1.09,2.23,8.46.65,16.09,3.73,22.68,9.07.95.77,2.33.76,3.18-.11,6.2-6.23,11.49-13.36,15.69-21.07,3.57-6.57,6.37-13.58,8.28-20.82,1.71-6.5,2.7-13.18,4.79-19.57,1.99-6.07,5.06-11.44,8.88-16.48.55-.71,1.11-1.41,1.68-2.1-.7.01-1.39.05-2.07.13-.06,0-.13,0-.19.02Z"/><path class="uuid-334aa2dd-dfc0-4e0b-8eab-abd5e7a92c1c" d="m111.17,158.53l-.58-5.68-12.71-.19-.56,5.48-.51,4.99c-1.46.51-3.13,1.11-4.96,1.82-.06,0-.13,0-.19.02v.05c.02.65.22,1.28.58,1.91,1.6,2.81,6.07,5.31,8.09,5.96,2.28.71,4.69.9,7.06.57,2.15-.28,4.25-1,6.12-2.12,1.55-.93,2.99-2.21,3.79-3.83.06-.13.13-.25.17-.38v-.02c-1.95-.73-3.86-1.36-5.63-1.84l-.69-6.75Z"/><path class="uuid-b4ea7874-050e-487b-a880-2ca6f087e839" d="m112.15,165.03l-1.27-12.49-13.28-.2-1.08,10.56c-1.68.59-3.23,1.16-4.72,1.73-.06,0-.13,0-.21.03l-.25.11v.25c.02.68.23,1.36.63,2.06,1.67,2.95,6.29,5.47,8.27,6.1,1.57.49,3.23.74,4.9.74.77,0,1.54-.05,2.3-.16,2.22-.29,4.38-1.04,6.24-2.16,1.26-.76,2.97-2.06,3.91-3.96.07-.14.14-.27.19-.41l.02-.35-.21-.08c-1.96-.73-3.79-1.33-5.45-1.79Zm4.88,2.35c-.88,1.75-2.48,2.98-3.67,3.7-1.79,1.07-3.86,1.79-6,2.07-2.33.33-4.72.13-6.92-.56-2.03-.65-6.4-3.15-7.91-5.82-.3-.52-.48-1.02-.53-1.53,1.55-.6,3.16-1.19,4.92-1.8l.19-.07,1.07-10.38,12.14.18,1.26,12.36.21.06c1.61.44,3.39,1.02,5.3,1.72-.01.02-.02.05-.04.07Z"/><path class="uuid-b4ea7874-050e-487b-a880-2ca6f087e839" d="m121.59,287.28c-3.65,4.04-9.89,4.18-14.12,3.08-3.84-1-7.41-2.98-10.85-4.9-1.07-.6-2.14-1.19-3.22-1.76-6.72-3.54-13.9-6.09-21.35-7.57-.25-.05-.5.11-.55.37-.05.26.11.5.37.55,7.36,1.47,14.45,3.98,21.09,7.48,1.07.56,2.14,1.16,3.2,1.75,3.5,1.95,7.12,3.96,11.08,4.99,1.52.4,3.23.64,4.97.64,3.64,0,7.43-1.06,10.09-4,.17-.19.16-.49-.03-.67-.19-.18-.49-.16-.67.03Z"/><path class="uuid-b4ea7874-050e-487b-a880-2ca6f087e839" d="m129.21,122.44c2.28-2.32,2.62-6.29.76-8.96-1.86-2.67-5.71-3.73-8.67-2.39,1.52-2,1.08-5.1-.71-6.87-1.79-1.77-4.61-2.25-7.02-1.54-2.41.71-4.42,2.47-5.81,4.56-1.72-4.93-5.85-9.25-11-10.06-5.16-.8-10.94,2.79-11.53,7.98-1.58-3.08-5.61-4.5-8.91-3.44-3.3,1.06-5.69,4.24-6.22,7.66-.53,3.42.64,6.98,2.74,9.73-2.45-2.71-7.02-2.84-9.99-.72-2.97,2.13-4.35,6.03-4,9.67.35,3.64,2.23,6.99,4.68,9.7,1.68,1.86,3.64,3.47,5.82,4.71.86.1,1.68.45,2.26,1.11-.78-.32-1.53-.7-2.26-1.11-1.22-.14-2.54.24-3.43,1.09-1.53,1.47-1.86,3.92-1.11,5.9.75,1.99,2.41,3.53,4.28,4.53,4.74,2.53,10.47,1.85,15.79,1.1-1.02,1.34-.5,3.41.77,4.51,1.27,1.1,3.07,1.38,4.75,1.27,4.42-.27,7.51-2.84,10.12-6.17,1.66,1.47,3.35,2.08,5.67,2.09,3.51.03,7.02-.06,10.53-.27,2.49-.15,5.12-.4,7.16-1.84,2.04-1.44,3.15-4.49,1.69-6.51,2.72-.2,5.22-2.15,6.07-4.74.84-2.59-.02-5.65-2.1-7.41,2.83-.99,4.85-3.92,4.78-6.92-.07-2.99-2.22-5.83-5.09-6.69Z"/><path class="uuid-b4ea7874-050e-487b-a880-2ca6f087e839" d="m71.61,143.59c-.58-.66-1.4-1.01-2.26-1.11.73.41,1.49.79,2.26,1.11Z"/><path class="uuid-334aa2dd-dfc0-4e0b-8eab-abd5e7a92c1c" d="m121.94,129.85c-2.43-.21-4.61,2.16-4.88,5.28-.27,3.13-.54,7.53,1.88,7.73,2.42.21,6.63-3.85,6.9-6.98.27-3.13-1.48-5.83-3.9-6.04Z"/><path class="uuid-b4ea7874-050e-487b-a880-2ca6f087e839" d="m121.97,129.54c-1.27-.12-2.52.42-3.51,1.49-.97,1.05-1.58,2.5-1.71,4.08-.14,1.62-.27,3.48-.06,5.03.25,1.92,1.01,2.94,2.24,3.05.07,0,.14,0,.22,0,2.7,0,6.75-4.14,7.02-7.28.28-3.3-1.59-6.16-4.19-6.38Zm3.56,6.33c-.26,3.04-4.42,6.87-6.55,6.69-.91-.08-1.45-.9-1.67-2.5-.19-1.41-.08-3.19.07-4.89.13-1.44.68-2.76,1.55-3.7.78-.85,1.74-1.3,2.71-1.3.09,0,.18,0,.27.01,2.25.19,3.87,2.75,3.62,5.7Z"/><path class="uuid-b4ea7874-050e-487b-a880-2ca6f087e839" d="m123.48,131.46c-1.7.17-3.62,1.08-4.99,6.48-.06.23.06.47.29.55.05.02.11.03.16.03.17,0,.33-.09.42-.26.21-.42.35-.86.49-1.29.23-.74.44-1.38.93-1.64.43-.22,1.13-.18,2.08.12.25.07.51-.06.58-.3.08-.25-.06-.51-.3-.59-.95-.3-1.7-.38-2.3-.24.89-1.5,1.85-1.85,2.73-1.94.26-.02.44-.25.42-.51-.02-.26-.27-.44-.51-.42Z"/><path class="uuid-b4ea7874-050e-487b-a880-2ca6f087e839" d="m97.89,152.66l-.56,5.48c.58.36,2.42.93,4.96.97,2.42.03,6.34-1.22,8.59-3.2l-.29-3.07-12.71-.19Z"/><path class="uuid-b4ea7874-050e-487b-a880-2ca6f087e839" d="m105.28,112.49c-9.17-.14-16.72,6.71-16.84,15.29-.13,8.58,7.21,15.64,16.38,15.78,9.18.14,16.72-6.71,16.84-15.29.13-8.58-7.21-15.64-16.38-15.78Z"/><path class="uuid-334aa2dd-dfc0-4e0b-8eab-abd5e7a92c1c" d="m86.15,129.32c-2.43.14-4.26,2.79-4.08,5.92.18,3.13,4.26,7.32,6.69,7.18,2.43-.14,2.29-4.54,2.12-7.68-.18-3.13-2.29-5.56-4.72-5.42Z"/><path class="uuid-b4ea7874-050e-487b-a880-2ca6f087e839" d="m86.14,129c-2.6.15-4.57,2.95-4.38,6.25.18,3.17,4.18,7.48,6.89,7.48.05,0,.09,0,.14,0,2.86-.16,2.57-5.27,2.41-8.01-.19-3.3-2.44-5.86-5.06-5.72Zm2.61,13.1c-2.2.13-6.18-3.84-6.35-6.88-.17-2.95,1.53-5.46,3.78-5.58.06,0,.12,0,.18,0,2.18,0,4.05,2.26,4.21,5.13.13,2.34.41,7.22-1.82,7.34Z"/><path class="uuid-b4ea7874-050e-487b-a880-2ca6f087e839" d="m84.57,130.89c-.25-.02-.49.15-.52.4-.03.25.15.49.4.52.87.12,1.82.5,2.67,2.02-.59-.16-1.34-.1-2.3.17-.25.07-.39.33-.32.58.07.25.32.39.58.32.96-.27,1.66-.29,2.08-.06.49.27.67.92.88,1.67.12.43.25.88.45,1.31.08.17.24.27.42.27.05,0,.1,0,.15-.02.23-.08.36-.31.31-.54-1.21-5.45-3.1-6.41-4.79-6.63Z"/><path class="uuid-334aa2dd-dfc0-4e0b-8eab-abd5e7a92c1c" d="m105.01,116.22c-8.86-.13-16.18,9.02-16.35,20.43-.17,11.42,6.88,20.78,15.73,20.91,8.86.13,16.18-9.02,16.35-20.44.17-11.42-6.88-20.78-15.73-20.91Z"/><path class="uuid-b4ea7874-050e-487b-a880-2ca6f087e839" d="m105.02,115.91c-.06,0-.13,0-.19,0-8.93,0-16.3,9.26-16.47,20.75-.08,5.59,1.53,10.88,4.54,14.88,3.03,4.03,7.12,6.28,11.5,6.35.07,0,.13,0,.2,0,4.31,0,8.38-2.13,11.49-6.01,3.13-3.91,4.9-9.15,4.99-14.74.17-11.57-7.03-21.1-16.05-21.23Zm10.57,35.58c-2.98,3.72-6.88,5.77-10.99,5.77-.06,0-.13,0-.19,0-4.18-.06-8.09-2.23-11-6.1-2.93-3.89-4.5-9.04-4.42-14.49.17-11.15,7.25-20.12,15.84-20.12.06,0,.12,0,.18,0,8.67.13,15.59,9.36,15.42,20.59-.08,5.45-1.8,10.55-4.85,14.35Z"/><path class="uuid-b4ea7874-050e-487b-a880-2ca6f087e839" d="m108.49,141.02c-.71.41-1.52.62-2.34.62-.17,0-.39,0-.51-.1-.22-.16-.2-.64-.17-.99l.52-5.65c.02-.26-.17-.48-.42-.51-.25-.02-.48.16-.51.42l-.52,5.65c-.04.4-.12,1.34.55,1.83.34.24.74.28,1.06.28.98,0,1.95-.26,2.8-.74.22-.13.3-.41.18-.64-.13-.22-.42-.3-.64-.17Z"/><path class="uuid-b4ea7874-050e-487b-a880-2ca6f087e839" d="m99.37,131.87c-.61,0-1.11.79-1.12,1.8-.01,1,.46,1.82,1.07,1.83.6,0,1.11-.79,1.12-1.8.01-1-.46-1.82-1.07-1.83Z"/><path class="uuid-b4ea7874-050e-487b-a880-2ca6f087e839" d="m111.93,132.06c-.6,0-1.1.8-1.12,1.8-.01,1,.46,1.82,1.07,1.83.6,0,1.11-.8,1.12-1.8.01-1-.46-1.82-1.07-1.83Z"/><path class="uuid-b4ea7874-050e-487b-a880-2ca6f087e839" d="m101.29,128.91c-1.24-.21-2.49-.09-3.47.76-.56.49-1.01,1.22-1.26,2.13-.13.49.34,1.03.55.64.37-.67.83-1.2,1.37-1.53.87-.54,1.93-.57,2.96-.08.21.1.37-.14.32-.48-.04-.32-.09-.64-.14-.95-.04-.25-.18-.46-.34-.48Z"/><path class="uuid-b4ea7874-050e-487b-a880-2ca6f087e839" d="m110.8,129.05c-.16.02-.31.22-.35.47-.05.31-.11.63-.17.95-.06.33.1.58.31.49,1.04-.45,2.1-.4,2.96.17.52.35.97.89,1.32,1.57.2.4.69-.13.57-.62-.22-.91-.64-1.66-1.19-2.17-.95-.88-2.19-1.03-3.44-.86Z"/><path class="uuid-b4ea7874-050e-487b-a880-2ca6f087e839" d="m89.02,129.93c-.87,7.89-.19,9.78-.19,9.78,0,0,5.16-1.98,5.25-8.3.09-6.32,2.43-12.13,1.42-12.15-1.01-.01-5.87,5.11-6.49,10.66Z"/><path class="uuid-b4ea7874-050e-487b-a880-2ca6f087e839" d="m117.44,119.59c-.72-.01.81,5.86.71,12.18s2.4,8.63,2.4,8.63c0,0,.67-2.28.77-8.6.09-6.32-3.16-12.19-3.88-12.2Z"/><path class="uuid-b4ea7874-050e-487b-a880-2ca6f087e839" d="m105.25,114.4c-3.96-.24-8.17.45-10.99,3.48-.98,1.05-1.6,2.37-1.89,3.78-.73,3.49,1.55,1.05,3.34,2.78.47.45.92.97,1.54,1.17.72.24,1.58-.03,2.03-.64.46-.61.47-1.51.03-2.13.33-.65,1.36-.47,1.87.05.51.52.77,1.27,1.32,1.74.83.71,2.25.56,2.92-.31.66-.87.43-2.28-.48-2.89.61-.84,2.01-.5,2.69.29s.94,1.85,1.5,2.72c.56.87,1.72,1.56,2.61,1.04.08-1.02.16-2.04.24-3.07,2.13.59,2.38,4.18,4.56,4.5,1.14.17,2.22-.8,2.5-1.91.28-1.11-.06-2.3-.57-3.33-2.35-4.72-7.96-6.95-13.23-7.27Z"/><path class="uuid-b4ea7874-050e-487b-a880-2ca6f087e839" d="m98.95,144.32c.26,1.4.57,3.11,1.38,4.28,1.11,1.61,3.3,2.38,5.17,1.82,1.21-.36,1.87-.91,3-1.48-3.7.33-7.51-1.52-9.55-4.62Z"/><path class="uuid-b4ea7874-050e-487b-a880-2ca6f087e839" d="m100.9,130.98c-1.41-.17-2.82.22-3.96,1.11-1.12.88-1.84,2.16-2.01,3.58-.35,2.94,1.75,5.61,4.69,5.97.22.03.43.04.65.04,1.19,0,2.35-.4,3.3-1.15,1.13-.89,1.84-2.16,2.01-3.58.17-1.42-.22-2.83-1.11-3.95-.88-1.13-2.15-1.84-3.58-2.01Zm3.75,5.85c-.14,1.17-.73,2.22-1.66,2.95-.93.73-2.09,1.06-3.25.91-2.42-.29-4.15-2.5-3.86-4.92.14-1.17.73-2.22,1.66-2.95.79-.62,1.74-.94,2.72-.94.18,0,.36,0,.54.03,1.17.14,2.22.73,2.95,1.66.73.93,1.05,2.09.91,3.26Z"/><path class="uuid-b4ea7874-050e-487b-a880-2ca6f087e839" d="m114.09,131.08c-2.94-.34-5.61,1.75-5.97,4.69-.35,2.94,1.75,5.61,4.68,5.97.22.03.43.04.64.04,2.67,0,5-2.01,5.32-4.73.35-2.94-1.75-5.61-4.68-5.97Zm3.75,5.85c-.29,2.42-2.49,4.15-4.92,3.86-2.42-.29-4.15-2.5-3.86-4.92.14-1.17.73-2.22,1.66-2.95.79-.62,1.74-.94,2.72-.94.18,0,.36,0,.53.03,2.42.29,4.15,2.5,3.86,4.92Z"/><path class="uuid-b4ea7874-050e-487b-a880-2ca6f087e839" d="m104.98,135.39l.43.84c.99-.5,2.28-.43,3.21.18l.52-.79c-1.22-.8-2.85-.9-4.16-.24Z"/><path class="uuid-177b9cb6-3fb2-4493-966c-0d557926a671" d="m506.83,416.72l13.95-.04c13.54-7.79,69.83-54.89,47.15-79.39-28.02-30.25-64.71,48.41-61.09,79.43Z"/><path class="uuid-b4ea7874-050e-487b-a880-2ca6f087e839" d="m513,416.37l1.08.5c20.58-44.94,53.92-78.82,54.26-79.16l-.84-.84c-.34.34-33.83,34.37-54.5,79.5Z"/><path class="uuid-b4ea7874-050e-487b-a880-2ca6f087e839" d="m530.28,384.86l.15,1.18c.9-.11,20.03-2.55,28.96-5.35.96-.3,1.81-.61,2.5-.92l-.49-1.09c-6.94,3.11-30.88,6.15-31.12,6.18Z"/><path class="uuid-b4ea7874-050e-487b-a880-2ca6f087e839" d="m543.31,334.06c0,.16.7,15.8,4.05,25.58l1.13-.39c-3.29-9.61-3.98-25.09-3.98-25.25l-1.19.05Z"/><path class="uuid-b4ea7874-050e-487b-a880-2ca6f087e839" d="m506.83,416.72c19.45-20.21,15.31-47.45,12.21-50.76-8.51,17.8-13.68,38.19-12.21,50.76Z"/><path class="uuid-177b9cb6-3fb2-4493-966c-0d557926a671" d="m496.24,316.35c-24.82-12.14-17.16,61.14,4.72,100.38l10.15-.03c5.04-9.83,5.23-90.53-14.87-100.36Z"/><path class="uuid-b4ea7874-050e-487b-a880-2ca6f087e839" d="m491.41,324.18c.11.71,10.88,70.88,14.83,92.64l1.17-.21c-3.96-21.75-14.72-91.9-14.83-92.61l-1.18.18Z"/><rect class="uuid-b4ea7874-050e-487b-a880-2ca6f087e839" x="496.11" y="377.6" width="1.19" height="16.84" transform="translate(-131.84 411.88) rotate(-40.21)"/><rect class="uuid-b4ea7874-050e-487b-a880-2ca6f087e839" x="496.55" y="357.85" width="16.05" height="1.19" transform="translate(-112.37 408.06) rotate(-39.99)"/><path class="uuid-334aa2dd-dfc0-4e0b-8eab-abd5e7a92c1c" d="m483.14,416.85v6.01c.03,6.82,2.08,13.53,5.95,19.47l1.54,2.36,9.02,76.68,29.18-.08,12.13-76.73,1.53-2.37c3.84-5.96,5.85-12.68,5.83-19.5l-.02-6.01-65.16.18Z"/><path class="uuid-8017fd5a-f228-4112-a876-471755e119f0" d="m482.7,416.41l.02,6.45c.02,6.89,2.1,13.7,6.01,19.71l1.49,2.27,9.05,76.96,29.95-.08,12.17-77.01,1.48-2.29c3.88-6.02,5.92-12.85,5.9-19.74l-.02-6.45-66.04.18Zm59.42,25.53l-1.59,2.53-12.07,76.36-28.42.08-8.98-76.39-1.6-2.44c-3.82-5.86-5.85-12.51-5.87-19.23v-5.57s64.27-.18,64.27-.18l.02,5.57c.02,6.72-1.97,13.38-5.76,19.26Z"/><rect class="uuid-b4ea7874-050e-487b-a880-2ca6f087e839" x="499.41" y="431.26" width="48.54" height="1.19"/><rect class="uuid-b4ea7874-050e-487b-a880-2ca6f087e839" x="490.35" y="444" width="17.37" height="1.19" transform="translate(-1.79 2.02) rotate(-.23)"/><path class="uuid-b4ea7874-050e-487b-a880-2ca6f087e839" d="m483.14,416.25v1.19l64.57-.18v5.41c.03,6.69-1.95,13.32-5.72,19.17l-1.59,2.47-12.07,76.35h-.57s0,1.19,0,1.19h1.59s12.19-77.11,12.19-77.11l1.46-2.26c3.9-6.05,5.95-12.9,5.93-19.82l-.02-6.6-65.76.18Z"/></svg>