<?xml version="1.0" encoding="UTF-8"?><svg id="uuid-3b730fdc-e328-4b53-8635-a5351a8ab967" xmlns="http://www.w3.org/2000/svg" xmlns:xlink="http://www.w3.org/1999/xlink" viewBox="0 0 540.71 530.66"><defs><style>.uuid-1dfa31d2-92a4-4461-b5d0-8475d2945a20,.uuid-4977b1ce-343e-4758-9a2c-a90f1cc6ee83,.uuid-15574724-701b-41a4-b6a5-1a3c9bbaab75{fill:#fff;}.uuid-0c1f0688-9377-444d-b348-faf8348d2121{fill:#bd695b;}.uuid-2fe2ab43-d2f7-41bb-9b78-173fd7a3cedc{fill:#e6ebf0;}.uuid-4977b1ce-343e-4758-9a2c-a90f1cc6ee83{opacity:.5;}.uuid-88894630-1337-45e0-8e9c-33fef00cd5a5{fill:#c6d0db;}.uuid-f8d23c4b-7f1d-47ed-aa04-1fde072b9513{fill:#73cbe2;}.uuid-6c0220be-2b80-478a-b16e-d7a8bc1bd836{clip-path:url(#uuid-f642538e-70b4-4966-bc91-74538a6fa7ab);}.uuid-6c0220be-2b80-478a-b16e-d7a8bc1bd836,.uuid-afe76249-4547-4650-b67f-57fe7d726c9b{fill:none;}.uuid-4e803d10-f84e-4541-abf6-6433cecb9e02{fill:#001940;}.uuid-5635adac-5038-454b-b5c5-e8eba093bfb2{fill:#f85a44;}.uuid-15574724-701b-41a4-b6a5-1a3c9bbaab75{opacity:.35;}.uuid-ec6e8500-2d6f-49b6-a2eb-8837f8cc2aaf{fill:#ffab48;}.uuid-aeb448b7-ee48-4c4e-be9c-5cd5b9faecb4{fill:#aab6c2;}</style><clipPath id="uuid-f642538e-70b4-4966-bc91-74538a6fa7ab"><path class="uuid-afe76249-4547-4650-b67f-57fe7d726c9b" d="m240.07,529.79c83.47,2.74,233.67-23.67,278.42-181.55,44.75-157.88-117.42-121.49-174.02-295.56C302.28-77.09-73.45,34.7,12.83,368.03c37.94,146.55,154.81,159.38,227.24,161.75Z"/></clipPath></defs><path class="uuid-2fe2ab43-d2f7-41bb-9b78-173fd7a3cedc" d="m344.47,52.68C302.28-77.09-73.45,34.7,12.83,368.03c37.94,146.55,154.81,159.38,227.24,161.75,83.47,2.74,233.67-23.67,278.42-181.55,44.75-157.88-117.42-121.49-174.02-295.56Z"/><path class="uuid-2fe2ab43-d2f7-41bb-9b78-173fd7a3cedc" d="m387.27,48.5c-9.2,26.83-9.91,60.25,50.96,102.73,32.17,22.45,122.45,115.18,98.49,17.86-23.96-97.33-139.01-151-149.45-120.58Z"/><g class="uuid-6c0220be-2b80-478a-b16e-d7a8bc1bd836"><polygon class="uuid-88894630-1337-45e0-8e9c-33fef00cd5a5" points="140.25 133.36 103.77 133.36 103.77 35.78 94.44 35.78 94.44 133.36 60.57 133.36 60.57 153.78 18.88 153.78 18.88 562.93 159.79 562.93 159.79 153.78 140.25 153.78 140.25 133.36"/><rect class="uuid-aeb448b7-ee48-4c4e-be9c-5cd5b9faecb4" x="18.88" y="153.78" width="19.54" height="368.05"/><rect class="uuid-88894630-1337-45e0-8e9c-33fef00cd5a5" x="89.34" y="251.24" width="140.91" height="311.69"/><rect class="uuid-aeb448b7-ee48-4c4e-be9c-5cd5b9faecb4" x="89.34" y="251.24" width="19.54" height="311.69"/><rect class="uuid-aeb448b7-ee48-4c4e-be9c-5cd5b9faecb4" x="190.37" y="264.52" width="20.22" height="8.39"/><rect class="uuid-aeb448b7-ee48-4c4e-be9c-5cd5b9faecb4" x="156.32" y="264.52" width="20.22" height="8.39"/><rect class="uuid-aeb448b7-ee48-4c4e-be9c-5cd5b9faecb4" x="190.37" y="295.07" width="20.22" height="8.39"/><rect class="uuid-aeb448b7-ee48-4c4e-be9c-5cd5b9faecb4" x="156.32" y="295.07" width="20.22" height="8.39"/><rect class="uuid-aeb448b7-ee48-4c4e-be9c-5cd5b9faecb4" x="122.28" y="295.07" width="20.22" height="8.39"/><rect class="uuid-aeb448b7-ee48-4c4e-be9c-5cd5b9faecb4" x="190.37" y="325.63" width="20.22" height="8.39"/><rect class="uuid-aeb448b7-ee48-4c4e-be9c-5cd5b9faecb4" x="122.28" y="325.63" width="20.22" height="8.39"/><rect class="uuid-aeb448b7-ee48-4c4e-be9c-5cd5b9faecb4" x="156.32" y="340.91" width="20.22" height="8.39"/><rect class="uuid-aeb448b7-ee48-4c4e-be9c-5cd5b9faecb4" x="190.37" y="356.18" width="20.22" height="8.39"/><rect class="uuid-aeb448b7-ee48-4c4e-be9c-5cd5b9faecb4" x="156.32" y="371.46" width="20.22" height="8.39"/><rect class="uuid-aeb448b7-ee48-4c4e-be9c-5cd5b9faecb4" x="190.37" y="386.74" width="20.22" height="8.39"/><rect class="uuid-aeb448b7-ee48-4c4e-be9c-5cd5b9faecb4" x="122.28" y="386.74" width="20.22" height="8.39"/><rect class="uuid-aeb448b7-ee48-4c4e-be9c-5cd5b9faecb4" x="190.37" y="414.98" width="20.22" height="8.39"/><rect class="uuid-aeb448b7-ee48-4c4e-be9c-5cd5b9faecb4" x="156.32" y="414.98" width="20.22" height="8.39"/><rect class="uuid-aeb448b7-ee48-4c4e-be9c-5cd5b9faecb4" x="190.37" y="445.53" width="20.22" height="8.39"/><rect class="uuid-aeb448b7-ee48-4c4e-be9c-5cd5b9faecb4" x="156.32" y="445.53" width="20.22" height="8.39"/><rect class="uuid-aeb448b7-ee48-4c4e-be9c-5cd5b9faecb4" x="122.28" y="445.53" width="20.22" height="8.39"/><rect class="uuid-aeb448b7-ee48-4c4e-be9c-5cd5b9faecb4" x="190.37" y="476.09" width="20.22" height="8.39"/><rect class="uuid-aeb448b7-ee48-4c4e-be9c-5cd5b9faecb4" x="122.28" y="476.09" width="20.22" height="8.39"/><rect class="uuid-aeb448b7-ee48-4c4e-be9c-5cd5b9faecb4" x="156.32" y="491.36" width="20.22" height="8.39"/><rect class="uuid-aeb448b7-ee48-4c4e-be9c-5cd5b9faecb4" x="122.28" y="491.36" width="20.22" height="8.39"/><rect class="uuid-aeb448b7-ee48-4c4e-be9c-5cd5b9faecb4" x="190.37" y="506.64" width="20.22" height="8.39"/><rect class="uuid-aeb448b7-ee48-4c4e-be9c-5cd5b9faecb4" x="156.32" y="521.92" width="20.22" height="8.39"/><rect class="uuid-88894630-1337-45e0-8e9c-33fef00cd5a5" x="426.49" y="251.24" width="140.91" height="311.69"/><rect class="uuid-aeb448b7-ee48-4c4e-be9c-5cd5b9faecb4" x="426.49" y="251.24" width="19.54" height="311.69"/><rect class="uuid-88894630-1337-45e0-8e9c-33fef00cd5a5" x="226.32" y="102.99" width="189.06" height="459.94"/><rect class="uuid-aeb448b7-ee48-4c4e-be9c-5cd5b9faecb4" x="226.32" y="102.99" width="19.54" height="459.94"/><rect class="uuid-aeb448b7-ee48-4c4e-be9c-5cd5b9faecb4" x="365.94" y="125.02" width="29.53" height="12.25"/><rect class="uuid-aeb448b7-ee48-4c4e-be9c-5cd5b9faecb4" x="316.23" y="125.02" width="29.53" height="12.25"/><rect class="uuid-aeb448b7-ee48-4c4e-be9c-5cd5b9faecb4" x="365.94" y="169.63" width="29.53" height="12.26"/><rect class="uuid-aeb448b7-ee48-4c4e-be9c-5cd5b9faecb4" x="316.23" y="169.63" width="29.53" height="12.26"/><rect class="uuid-aeb448b7-ee48-4c4e-be9c-5cd5b9faecb4" x="266.52" y="169.63" width="29.53" height="12.26"/><rect class="uuid-aeb448b7-ee48-4c4e-be9c-5cd5b9faecb4" x="365.94" y="214.26" width="29.53" height="12.25"/><rect class="uuid-aeb448b7-ee48-4c4e-be9c-5cd5b9faecb4" x="266.52" y="214.26" width="29.53" height="12.25"/><rect class="uuid-aeb448b7-ee48-4c4e-be9c-5cd5b9faecb4" x="316.23" y="236.56" width="29.53" height="12.25"/><rect class="uuid-aeb448b7-ee48-4c4e-be9c-5cd5b9faecb4" x="365.94" y="258.87" width="29.53" height="12.26"/><rect class="uuid-aeb448b7-ee48-4c4e-be9c-5cd5b9faecb4" x="316.23" y="281.18" width="29.53" height="12.26"/><rect class="uuid-aeb448b7-ee48-4c4e-be9c-5cd5b9faecb4" x="365.94" y="303.49" width="29.53" height="12.25"/><rect class="uuid-aeb448b7-ee48-4c4e-be9c-5cd5b9faecb4" x="266.52" y="303.49" width="29.53" height="12.25"/><rect class="uuid-aeb448b7-ee48-4c4e-be9c-5cd5b9faecb4" x="365.94" y="344.73" width="29.53" height="12.26"/><rect class="uuid-aeb448b7-ee48-4c4e-be9c-5cd5b9faecb4" x="316.23" y="344.73" width="29.53" height="12.26"/><rect class="uuid-aeb448b7-ee48-4c4e-be9c-5cd5b9faecb4" x="365.94" y="389.35" width="29.53" height="12.25"/><rect class="uuid-aeb448b7-ee48-4c4e-be9c-5cd5b9faecb4" x="316.23" y="389.35" width="29.53" height="12.25"/><rect class="uuid-aeb448b7-ee48-4c4e-be9c-5cd5b9faecb4" x="266.52" y="389.35" width="29.53" height="12.25"/><rect class="uuid-aeb448b7-ee48-4c4e-be9c-5cd5b9faecb4" x="365.94" y="433.96" width="29.53" height="12.26"/><rect class="uuid-aeb448b7-ee48-4c4e-be9c-5cd5b9faecb4" x="266.52" y="433.96" width="29.53" height="12.26"/><rect class="uuid-aeb448b7-ee48-4c4e-be9c-5cd5b9faecb4" x="316.23" y="456.27" width="29.53" height="12.26"/><rect class="uuid-aeb448b7-ee48-4c4e-be9c-5cd5b9faecb4" x="266.52" y="456.27" width="29.53" height="12.26"/><rect class="uuid-aeb448b7-ee48-4c4e-be9c-5cd5b9faecb4" x="365.94" y="478.59" width="29.53" height="12.25"/><rect class="uuid-aeb448b7-ee48-4c4e-be9c-5cd5b9faecb4" x="316.23" y="500.89" width="29.53" height="12.25"/><rect class="uuid-aeb448b7-ee48-4c4e-be9c-5cd5b9faecb4" x="365.94" y="523.2" width="29.53" height="12.25"/><rect class="uuid-aeb448b7-ee48-4c4e-be9c-5cd5b9faecb4" x="266.52" y="523.2" width="29.53" height="12.25"/><rect class="uuid-88894630-1337-45e0-8e9c-33fef00cd5a5" x="523.56" y="137.27" width="185.3" height="425.66"/><rect class="uuid-aeb448b7-ee48-4c4e-be9c-5cd5b9faecb4" x="523.56" y="137.27" width="19.15" height="425.66"/><rect class="uuid-88894630-1337-45e0-8e9c-33fef00cd5a5" x="-75.27" y="272.6" width="119.34" height="290.33"/><rect class="uuid-aeb448b7-ee48-4c4e-be9c-5cd5b9faecb4" x="12.86" y="286.5" width="18.64" height="7.73"/><rect class="uuid-aeb448b7-ee48-4c4e-be9c-5cd5b9faecb4" x="-18.52" y="286.5" width="18.64" height="7.73"/><rect class="uuid-aeb448b7-ee48-4c4e-be9c-5cd5b9faecb4" x="12.86" y="314.67" width="18.64" height="7.74"/><rect class="uuid-aeb448b7-ee48-4c4e-be9c-5cd5b9faecb4" x="-18.52" y="314.67" width="18.64" height="7.74"/><rect class="uuid-aeb448b7-ee48-4c4e-be9c-5cd5b9faecb4" x="12.86" y="342.83" width="18.64" height="7.74"/><rect class="uuid-aeb448b7-ee48-4c4e-be9c-5cd5b9faecb4" x="-18.52" y="356.92" width="18.64" height="7.74"/><rect class="uuid-aeb448b7-ee48-4c4e-be9c-5cd5b9faecb4" x="12.86" y="371" width="18.64" height="7.74"/><rect class="uuid-aeb448b7-ee48-4c4e-be9c-5cd5b9faecb4" x="-18.52" y="385.08" width="18.64" height="7.74"/><rect class="uuid-aeb448b7-ee48-4c4e-be9c-5cd5b9faecb4" x="12.86" y="399.16" width="18.64" height="7.74"/><rect class="uuid-aeb448b7-ee48-4c4e-be9c-5cd5b9faecb4" x="12.86" y="425.19" width="18.64" height="7.74"/><rect class="uuid-aeb448b7-ee48-4c4e-be9c-5cd5b9faecb4" x="-18.52" y="425.19" width="18.64" height="7.74"/><rect class="uuid-aeb448b7-ee48-4c4e-be9c-5cd5b9faecb4" x="12.86" y="453.36" width="18.64" height="7.74"/><rect class="uuid-aeb448b7-ee48-4c4e-be9c-5cd5b9faecb4" x="-18.52" y="453.36" width="18.64" height="7.74"/><rect class="uuid-aeb448b7-ee48-4c4e-be9c-5cd5b9faecb4" x="12.86" y="481.52" width="18.64" height="7.74"/><rect class="uuid-aeb448b7-ee48-4c4e-be9c-5cd5b9faecb4" x="-18.52" y="495.6" width="18.64" height="7.74"/><rect class="uuid-aeb448b7-ee48-4c4e-be9c-5cd5b9faecb4" x="12.86" y="509.69" width="18.64" height="7.74"/><rect class="uuid-aeb448b7-ee48-4c4e-be9c-5cd5b9faecb4" x="-18.52" y="523.77" width="18.64" height="7.74"/><rect class="uuid-15574724-701b-41a4-b6a5-1a3c9bbaab75" x="-150.04" y="-38.13" width="505.75" height="576.65"/><polygon class="uuid-4977b1ce-343e-4758-9a2c-a90f1cc6ee83" points="-15.18 528.1 24.07 528.1 234.49 -31.54 195.24 -31.54 -15.18 528.1"/><polygon class="uuid-4977b1ce-343e-4758-9a2c-a90f1cc6ee83" points="-64.86 528.1 -45.24 528.1 165.18 -31.54 145.56 -31.54 -64.86 528.1"/><polygon class="uuid-4977b1ce-343e-4758-9a2c-a90f1cc6ee83" points="189.11 528.1 349.88 68.8 349.88 28.55 169.48 528.1 189.11 528.1"/><rect class="uuid-15574724-701b-41a4-b6a5-1a3c9bbaab75" x="358.37" y="-49.55" width="505.75" height="576.65"/><polygon class="uuid-4977b1ce-343e-4758-9a2c-a90f1cc6ee83" points="402.76 528.1 442.01 528.1 652.43 -31.54 613.18 -31.54 402.76 528.1"/><polygon class="uuid-4977b1ce-343e-4758-9a2c-a90f1cc6ee83" points="353.08 528.1 372.7 528.1 583.12 -31.54 563.49 -31.54 353.08 528.1"/><path class="uuid-1dfa31d2-92a4-4461-b5d0-8475d2945a20" d="m867.05-44.73h0s-505.8,0-505.8,0H-155.58v13.2h11.02v4.66H181.59V59.28H-155.58v6.6H181.59v169.34H-155.58v6.6H181.59v169.34H-155.58v6.6H181.59v110.34H-144.46v3.82h-11.12v15.27h1022.62v-1.23h0v-128.2h18.17v-6.6h-18.17v-169.34h18.17v-6.6h-18.17V65.88h18.17v-6.6h-18.17V-44.73ZM350.18,531.92h-.06v-3.82h-157.46v-110.34h157.52v114.16Zm0-120.75h-157.52v-169.34h157.52v169.34Zm0-175.94h-157.52V65.88h157.52v169.34Zm0-175.94h-157.52V-26.88h157.52V59.28Zm168.63,468.82h-157.47v3.82h-.05v-114.16h157.52v110.34Zm0-116.94h-157.52v-169.34h157.52v169.34Zm0-175.94h-157.52V65.88h157.52v169.34Zm0-175.94h-157.52V-26.88h157.52V59.28Zm168.58,468.82h-157.52v-110.34h157.52v110.34Zm0-116.94h-157.52v-169.34h157.52v169.34Zm0-175.94h-157.52V65.88h157.52v169.34Zm0-175.94h-157.52V-26.88h157.52V59.28Z"/></g><rect class="uuid-4e803d10-f84e-4541-abf6-6433cecb9e02" x="12.83" y="526.86" width="499.82" height="3.8"/><rect class="uuid-1dfa31d2-92a4-4461-b5d0-8475d2945a20" x="59.29" y="54.05" width="250.04" height="446.69" transform="translate(-.53 .35) rotate(-.11)"/><path class="uuid-4e803d10-f84e-4541-abf6-6433cecb9e02" d="m58.21,53.65l.85,448.01,251.35-.5-.85-448.01-251.35.5Zm2.16,446.69l-.84-445.37,248.72-.5.84,445.37-248.72.5Z"/><path class="uuid-4e803d10-f84e-4541-abf6-6433cecb9e02" d="m86.99,485.62c-17.68.03-32.03-14.27-32.07-31.94l-.68-364.95c-.04-17.67,14.26-32.03,31.94-32.07l52.46-.29,73.6-.15-.04-18.87-145.33-.83c-17.68.04-31.97,14.39-31.94,32.07l.8,426.34c.04,17.67,14.39,31.97,32.07,31.94l145.32-1.37-.08-39.62-126.06-.26Z"/><path class="uuid-aeb448b7-ee48-4c4e-be9c-5cd5b9faecb4" d="m303.45,36.27l-223.45.04c-.75,0-1.49.02-2.22.07-16.65,1.15-29.8,15.01-29.8,31.95l.07,426.32c0,16.96,13.17,30.82,29.84,31.94.72.06,1.46.07,2.18.07l223.47-.04c11.44,0,20.72-9.29,20.72-20.73l-.08-448.89c0-11.45-9.29-20.74-20.75-20.74Zm-19.16,449.15l-196.22.03c-11.45,0-20.75-9.29-20.75-20.74l-.07-387.47c0-11.45,9.28-20.74,20.73-20.74l196.23-.03c11.44,0,20.73,9.28,20.73,20.73l.07,387.48c0,11.45-9.28,20.74-20.72,20.74Z"/><path class="uuid-4e803d10-f84e-4541-abf6-6433cecb9e02" d="m213.18,496.23l-53.28.11c-5.34.01-9.66,4.35-9.65,9.69.01,5.34,4.35,9.66,9.69,9.65l53.28-.11c5.34-.01,9.66-4.35,9.65-9.69-.01-5.34-4.35-9.66-9.69-9.65Z"/><path class="uuid-4e803d10-f84e-4541-abf6-6433cecb9e02" d="m184.37,363.5s-2.05-1.06-2.05-1.06l-25.29,38.9,45.95.48.04-.56c1.12-15.98-6.44-30.06-18.65-37.76Z"/><path class="uuid-f8d23c4b-7f1d-47ed-aa04-1fde072b9513" d="m137.99,412.45l-2.57-.03-2.98-33.86-.08-.95-.03-.33-.23-2.59-.48-5.3-2.9.57c-19.14,2.75-35.04,18.34-38.59,37.13-.45,2.4-.61,4.13-.7,5.41-.05.75-.08,1.5-.1,2.24-.04,2.82.18,5.58.66,8.26.79,4.5,2.3,8.77,4.39,12.66.73,1.36,1.53,2.66,2.4,3.92.12.17.23.33.36.5,6.18,8.66,15.6,14.68,26.71,15.87,5.95.63,11.33.52,16.19-.2.33-.05.66-.09.99-.15,21.61-3.61,32.51-19.38,36.12-34.17.08-.32.15-.64.22-.96.43-1.89.74-3.76.93-5.58.08-.65.14-1.32.19-1.98l-39.53-.46h-.97Z"/><path class="uuid-aeb448b7-ee48-4c4e-be9c-5cd5b9faecb4" d="m139.94,359.65l-2.89.57h-.02l3.98,46.59,27.12-41.38c-4.64-2.93-9.96-4.95-15.73-5.79-4.46-.66-8.57-.54-12.46.01Z"/><polygon class="uuid-4e803d10-f84e-4541-abf6-6433cecb9e02" points="108.77 293.11 200.62 293.11 200.91 289.26 109 289.26 108.77 293.11"/><polygon class="uuid-4e803d10-f84e-4541-abf6-6433cecb9e02" points="108.09 304.69 257.9 304.69 258.19 300.84 108.32 300.84 108.09 304.69"/><polygon class="uuid-4e803d10-f84e-4541-abf6-6433cecb9e02" points="107.4 316.27 278.31 316.27 278.6 312.43 107.63 312.43 107.4 316.27"/><polygon class="uuid-4e803d10-f84e-4541-abf6-6433cecb9e02" points="204.74 293.11 269.38 293.11 269.67 289.26 205.03 289.26 204.74 293.11"/><polygon class="uuid-4e803d10-f84e-4541-abf6-6433cecb9e02" points="218.58 407.71 257.86 407.71 258.15 403.88 218.82 403.88 218.58 407.71"/><polygon class="uuid-4e803d10-f84e-4541-abf6-6433cecb9e02" points="217.86 419.24 288.81 419.24 289.11 415.41 218.1 415.41 217.86 419.24"/><polygon class="uuid-4e803d10-f84e-4541-abf6-6433cecb9e02" points="217.14 430.77 283.01 430.77 283.29 426.94 217.38 426.94 217.14 430.77"/><polygon class="uuid-4e803d10-f84e-4541-abf6-6433cecb9e02" points="261.97 407.71 274.1 407.71 274.39 403.88 262.26 403.88 261.97 407.71"/><polygon class="uuid-aeb448b7-ee48-4c4e-be9c-5cd5b9faecb4" points="149.87 255.17 183.15 255.17 183.95 224.43 150.65 224.43 149.87 255.17"/><polygon class="uuid-5635adac-5038-454b-b5c5-e8eba093bfb2" points="102.01 255.17 135.29 255.17 135.77 236.18 102.47 236.18 102.01 255.17"/><polygon class="uuid-4e803d10-f84e-4541-abf6-6433cecb9e02" points="195.44 255.17 228.72 255.17 230.09 204.95 196.77 204.95 195.44 255.17"/><polygon class="uuid-5635adac-5038-454b-b5c5-e8eba093bfb2" points="241.01 255.17 274.29 255.17 276.25 185.8 242.92 185.8 241.01 255.17"/><path class="uuid-5635adac-5038-454b-b5c5-e8eba093bfb2" d="m272.09,130.78c-1.11-.64-2.58-.29-3.3.77l-18.1,26.51-25.35-11.78c-.58-.27-1.27-.3-1.88-.08-.63.22-1.13.67-1.41,1.25l-17.16,36.22-27-19.77c-.54-.39-1.22-.54-1.91-.41-.68.13-1.27.52-1.63,1.09l-22.69,35.41-27.43-10.78c-1.01-.39-2.2-.08-2.87.77l-24.15,30.19c-.8,1.01-.61,2.4.43,3.13.47.32,1.04.46,1.59.41.66-.06,1.31-.37,1.75-.92l22.99-28.75,27.63,10.86c1.09.43,2.38.02,3.01-.96l22.36-34.9,27.29,19.98c.58.42,1.33.56,2.05.37.72-.19,1.32-.67,1.63-1.31l17.4-36.7,25.03,11.63c1.09.5,2.45.13,3.12-.87l19.3-28.27c.72-1.06.41-2.45-.69-3.09Z"/><path class="uuid-5635adac-5038-454b-b5c5-e8eba093bfb2" d="m275.55,128.04c-.14-.61-.55-1.13-1.12-1.43-.58-.3-1.27-.35-1.9-.16l-16.96,5.38c-1.27.4-1.99,1.68-1.6,2.85.38,1.18,1.71,1.79,2.97,1.4l14.47-4.58,2.66,11.82c.25,1.09,1.31,1.79,2.46,1.69.12-.01.25-.03.37-.06,1.29-.3,2.12-1.53,1.84-2.73l-3.2-14.2Z"/><path class="uuid-4e803d10-f84e-4541-abf6-6433cecb9e02" d="m296.76,56.04H75.5c-4.55,0-8.25,3.69-8.25,8.25v20.16h237.76v-20.16c0-4.55-3.69-8.25-8.25-8.25Z"/><path class="uuid-1dfa31d2-92a4-4461-b5d0-8475d2945a20" d="m255.2,65.88c-2.41,0-4.36,1.95-4.36,4.36,0,2.41,1.95,4.36,4.36,4.36s4.36-1.95,4.36-4.36-1.95-4.36-4.36-4.36Z"/><path class="uuid-aeb448b7-ee48-4c4e-be9c-5cd5b9faecb4" d="m271.99,65.88c-2.41,0-4.36,1.95-4.36,4.36,0,2.41,1.95,4.36,4.36,4.36s4.36-1.95,4.36-4.36-1.95-4.36-4.36-4.36Z"/><path class="uuid-5635adac-5038-454b-b5c5-e8eba093bfb2" d="m288.78,65.88c-2.41,0-4.36,1.95-4.36,4.36s1.95,4.36,4.36,4.36,4.36-1.95,4.36-4.36c0-2.41-1.95-4.36-4.36-4.36Z"/><polygon class="uuid-1dfa31d2-92a4-4461-b5d0-8475d2945a20" points="85.88 64.89 82.8 67.97 79.71 64.89 77.55 67.05 80.63 70.13 77.55 73.22 79.71 75.38 82.79 72.29 85.88 75.38 88.04 73.22 84.95 70.13 88.04 67.05 85.88 64.89"/><path class="uuid-4e803d10-f84e-4541-abf6-6433cecb9e02" d="m390.34,495.02c-10.72,7.02-21.07,14.62-30.98,22.76-2.08,1.71-4.36,4.36-3.14,6.76.98,1.92,3.56,2.22,5.72,2.26,4.83.1,9.66.2,14.49.31,5.23.11,11.5-.34,14.05-4.91.89-1.6,1.15-3.47,1.77-5.2.63-1.72,1.84-3.45,3.64-3.79.28,2.52,1.08,12.02,1.08,12.02l2.04-.08s2.06-11.28,3.77-16.66c1.49-4.67,4.39-13.21,1.44-17.87-3.16-4.98-10.63,2.25-13.9,4.4Z"/><path class="uuid-4e803d10-f84e-4541-abf6-6433cecb9e02" d="m461.59,503.84c-5.16-.36-10.68,1.29-13.94,5.31-3.25,4.01-3.44,10.57.36,14.06,2.36,2.18,5.69,2.87,8.84,3.48,3.52.68,7.04,1.36,10.56,2.04,3.58.69,7.58,1.31,10.61-.72,6.28-4.2,2.82-12.72-.72-17.39-3.42-4.51-10.3-6.41-15.71-6.78Z"/><path class="uuid-1dfa31d2-92a4-4461-b5d0-8475d2945a20" d="m412.19,356.14c2.64-27.02-3.67-40.03,4.03-56.78-12.41-3.61-24.88-4.74-38.73-4.83-7.25,14.18-1.93,73.63,4.59,85.39l4.3,107.35c.02.62.07,1.14.15,1.62-1.17,1.75-2.14,3.65-3.13,5.51-1.44,2.72-3.01,5.45-5.34,7.46-1.59,1.38-8.18,6.89-8.26,9,4.57,1.04,9.43.22,13.74-1.62,4.31-1.84,8.13-4.66,11.69-7.7,3.59-3.07,10.95-6.58,8.13-12.02-.12-.22-.28-.39-.41-.59.17-.71.34-1.56.51-2.62l14.95-66.01c4.41-28.22-7.16-44.06-8.94-46.3,2.17-5.47,2.26-13.12,2.72-17.88Z"/><path class="uuid-4e803d10-f84e-4541-abf6-6433cecb9e02" d="m412.26,359.44c.08-1.19.16-2.29.26-3.28,1.06-10.92.68-19.49.33-27.05-.5-11-.9-19.69,3.67-29.62.04-.09.04-.19,0-.27-.04-.09-.11-.15-.21-.18-11.18-3.25-23.15-4.75-38.82-4.84h0c-.12,0-.24.07-.29.18-7.33,14.36-1.86,73.86,4.55,85.63l4.29,107.27c.01.53.06,1.02.14,1.54-1.03,1.56-1.92,3.24-2.77,4.86l-.3.57c-1.39,2.63-2.94,5.36-5.26,7.37l-.37.32c-3.69,3.17-7.94,7.05-8.01,8.92,0,.16.1.3.26.33,1.45.33,2.89.47,4.26.47,3.8,0,7.22-1.06,9.67-2.1,3.75-1.6,7.38-3.99,11.78-7.76.7-.6,1.55-1.22,2.46-1.87,3.63-2.64,8.15-5.93,5.76-10.54-.07-.14-.17-.27-.26-.39-.03-.04-.06-.08-.09-.12.16-.68.31-1.48.48-2.48l14.95-66.01s0-.01,0-.02c4.31-27.56-6.38-43.19-8.89-46.41,1.68-4.36,2.09-9.98,2.41-14.51Zm6.15,60.87h0,0Zm-.32-.06l-14.95,66.02c-.18,1.08-.34,1.9-.51,2.59-.02.09,0,.18.04.25.06.1.13.19.2.28.07.1.14.19.2.29,2.13,4.11-1.95,7.08-5.56,9.71-.91.66-1.77,1.29-2.49,1.91-4.34,3.72-7.92,6.08-11.61,7.65-3.19,1.37-8.06,2.74-13.23,1.67.37-1.34,2.97-4.09,7.74-8.18l.37-.32c2.4-2.09,3.99-4.88,5.41-7.56l.3-.57c.87-1.65,1.77-3.35,2.81-4.91.05-.07.06-.15.05-.24-.09-.53-.14-1.04-.15-1.58l-4.3-107.35c0-.05-.02-.1-.04-.15-6.36-11.48-11.83-70.32-4.67-84.9,15.33.1,27.11,1.56,38.07,4.71-4.47,9.93-4.07,18.61-3.57,29.57.34,7.54.73,16.09-.33,26.96-.1.98-.18,2.1-.26,3.29-.33,4.55-.73,10.21-2.44,14.5-.04.11-.03.23.05.33,1.37,1.73,13.3,17.71,8.87,46.03Z"/><path class="uuid-1dfa31d2-92a4-4461-b5d0-8475d2945a20" d="m467.19,490.27c.29-.94.37-2.32.35-4.43l3.77-67.57c-.34-28.56-14.38-42.26-16.51-44.17,1.23-5.75.04-13.32-.29-18.08-1.9-27.09-10.28-38.86-5.46-56.66-12.84-1.5-25.32-.55-38.99,1.68-4.79,15.19,10.34,72.93,18.71,83.44l22.08,105.14c.17.9.41,1.57.68,2.16.11.61.2,1.23.26,1.83.52,5.9-5.41,15.6,1.18,18.49,7.07,3.11,12.25,3.67,18.38,2.78,1.67-.24,3.56-.7,4.34-2.19,1.06-2.03-.61-4.34-2.01-6.17-3.46-4.54-4.31-10.93-6.49-16.24Z"/><path class="uuid-4e803d10-f84e-4541-abf6-6433cecb9e02" d="m469.43,495.9c-.57-1.89-1.17-3.84-1.9-5.65.29-1.02.34-2.46.33-4.39l3.77-67.6c-.34-27.88-13.47-41.52-16.48-44.28.94-4.58.4-10.2-.03-14.73-.11-1.18-.22-2.28-.29-3.26-.77-10.94-2.57-19.34-4.17-26.74-2.32-10.76-4.16-19.26-1.3-29.81.02-.09,0-.19-.05-.27s-.14-.13-.23-.14c-11.55-1.35-23.6-.84-39.08,1.68-.12.02-.22.11-.26.23-4.85,15.38,10.44,73.14,18.72,83.68l22.07,105.06c.16.8.37,1.5.68,2.19.08.49.19,1.13.24,1.76.17,1.94-.39,4.39-.94,6.76-1.13,4.91-2.3,9.98,2.31,12,4.98,2.19,9.11,3.19,13.55,3.19,1.61,0,3.26-.13,5.01-.39,1.69-.24,3.73-.74,4.58-2.37,1.2-2.28-.75-4.83-2.03-6.52-2.24-2.93-3.39-6.73-4.51-10.4Zm5.96,16.62c-.71,1.36-2.47,1.78-4.09,2.02-6.44.94-11.54.17-18.2-2.75-4.11-1.81-3.05-6.39-1.93-11.25.56-2.42,1.13-4.92.95-6.96-.06-.67-.17-1.35-.26-1.86,0-.03-.01-.05-.02-.08-.3-.65-.5-1.31-.65-2.09l-22.09-105.14c-.01-.05-.03-.1-.06-.14-8.18-10.26-23.35-67.37-18.72-82.94,15.15-2.45,27-2.97,38.32-1.69-2.75,10.53-.92,19.03,1.39,29.75,1.59,7.38,3.39,15.75,4.16,26.65.07.99.17,2.09.29,3.28.43,4.54.98,10.2,0,14.71-.03.12.01.23.1.31,1.64,1.48,16.06,15.27,16.4,43.91l-3.77,67.59c.01,1.91-.04,3.38-.34,4.33-.02.07-.02.15.01.22.74,1.81,1.34,3.78,1.92,5.69,1.13,3.73,2.3,7.59,4.61,10.62,1.51,1.97,2.9,4.05,1.98,5.81Z"/><path class="uuid-1dfa31d2-92a4-4461-b5d0-8475d2945a20" d="m386.38,162.11l-29.02,40.5-40.02-27.4c-.03-.39-.05-.78-.1-1.15-.32-2.3.05-4.76-1.24-6.73-1.63-2.48-3.39-4.89-5.07-7.33-.3-.43-.61-.87-1.06-1.13-.46-.26-1.09-.27-1.45.11-.39.42-.29,1.07-.17,1.62,1,4.96,1.06,10.1.16,15.07-.28,1.58-.55,3.51.68,4.54.5.42,1.16.56,1.82.65l-3.24,5.89,43.34,40.8c4.17,3.93,10.43,4.81,15.45,2.03,7.86-4.35,14.73-10.35,20.1-17.65l18.28-24.81c-10.79-5.34-7.2-27.39-18.45-25.03Z"/><path class="uuid-4e803d10-f84e-4541-abf6-6433cecb9e02" d="m396.47,172.85c-1.99-6.37-3.89-12.4-10.16-11.06-.08.02-.15.06-.2.13l-28.84,40.24-39.62-27.13c-.02-.34-.05-.68-.09-1.02-.1-.66-.13-1.36-.16-2.03-.08-1.66-.17-3.37-1.13-4.83-1.06-1.62-2.19-3.23-3.29-4.78-.6-.85-1.2-1.7-1.78-2.55-.3-.43-.65-.93-1.17-1.23-.55-.32-1.37-.36-1.85.17-.53.57-.35,1.44-.25,1.91.99,4.88,1.04,10.05.16,14.95-.24,1.36-.65,3.64.79,4.85.44.38.99.55,1.51.65l-3.01,5.48c-.07.13-.05.3.06.4l43.34,40.8c2.62,2.47,5.98,3.75,9.37,3.75,2.21,0,4.44-.55,6.47-1.67,7.99-4.42,14.79-10.38,20.21-17.74l18.28-24.81c.06-.08.08-.18.05-.27-.02-.1-.08-.17-.17-.22-4.9-2.43-6.82-8.57-8.51-14Zm-10.18,38.9c-5.36,7.28-12.09,13.18-20,17.55-4.89,2.7-10.94,1.9-15.06-1.98l-43.15-40.63,3.11-5.67c.05-.1.05-.21,0-.31-.05-.1-.14-.16-.25-.18-.56-.07-1.2-.19-1.65-.57-1.06-.89-.86-2.58-.57-4.23.9-4.98.84-10.24-.17-15.2-.1-.49-.18-1.04.1-1.33.25-.26.73-.23,1.04-.05.4.23.68.64.96,1.03.59.85,1.19,1.7,1.79,2.55,1.09,1.55,2.22,3.16,3.28,4.77.86,1.31.94,2.86,1.02,4.5.03.69.07,1.4.17,2.09.05.36.07.75.1,1.13,0,.1.06.19.14.25l40.02,27.4c.15.1.35.06.45-.08l28.95-40.4c5.63-1.06,7.31,4.35,9.27,10.64,1.69,5.42,3.6,11.55,8.5,14.21l-18.05,24.5Z"/><path class="uuid-4e803d10-f84e-4541-abf6-6433cecb9e02" d="m447.8,112.13c2.89-1.33,4.31-4.94,3.62-8.05-.69-3.1-3.16-5.62-6.05-6.94-2.89-1.32-6.17-1.58-9.34-1.37-.94-2.96-3.41-5.38-6.38-6.27-2.97-.89-6.37-.21-8.77,1.74-3.03-4.7-9.82-5.93-14.99-3.78s-8.82,6.95-11.09,12.06c-1.1,2.48-1.8,5.72.14,7.61,1.82,1.77,4.75,1.23,7.29,1.09,4.48-.23,9.03,1.31,12.45,4.22,3.29,2.79,4.85,6.29,5.93,10.35,1.05,3.98,3.55,6.81,7.24,8.75,3.48,1.83,7.4,2.62,11.26,3.39,3.05.61,6.4,1.18,9.14-.29,3.83-2.06,4.75-7.03,5.25-11.34.28-2.41.55-4.92-.26-7.21-.81-2.29-3.03-4.27-5.43-3.97Z"/><path class="uuid-4e803d10-f84e-4541-abf6-6433cecb9e02" d="m358.21,201.87c-.26-.05-.51.11-.57.37-.05.26.11.51.37.57,3.15.67,5.99,2.58,7.79,5.26.09.13.23.21.38.21.1,0,.2-.02.29-.08.22-.15.28-.44.13-.66-1.93-2.88-4.99-4.95-8.38-5.66Z"/><path class="uuid-ec6e8500-2d6f-49b6-a2eb-8837f8cc2aaf" d="m450.82,176.19c-7.02-13.03-20.05-19.73-30.25-22.77-1.34-.39-2.65-.77-3.91-1.11-6.91-1.85-12.47-2.84-12.47-2.84,0,0-4.94,2.67-10.94,6.56-1.54,1-3.25,2.18-5.02,3.53-9.42,7.13-14.92,27.46-16.12,33.22-2.21,10.58,8.94,16.24,11.62,25.48,0,0,10.23,14.6-2.57,42.01-17.69,37.91-4.69,99.11-4.69,99.11l78.85,3.08s9.42-80.07-16.7-104.29c-30.54-28.31,19.08-69.22,12.21-81.97Z"/><path class="uuid-4e803d10-f84e-4541-abf6-6433cecb9e02" d="m380.38,262.04c-16.51,38.02-3.93,97.34-3.93,97.34l78.85,3.08s9.4-79.91-16.63-104.22c-19.43,3.42-40.44,10.41-58.3,3.8Z"/><path class="uuid-4e803d10-f84e-4541-abf6-6433cecb9e02" d="m419.01,203.51c-4.05,1.44-7.47,2.49-11.01,2.87-4.14.45-7.92-.15-10.94-1.73-3.47-1.81-5.95-5.06-6.47-8.49-.04-.26-.29-.44-.55-.4-.26.04-.44.29-.4.55.57,3.72,3.24,7.24,6.97,9.19,2.21,1.15,4.81,1.81,7.64,1.95,1.24.06,2.53.02,3.85-.12,4.05-.44,7.92-1.73,11.23-2.92.25-.09.38-.36.29-.61-.09-.25-.36-.38-.61-.29Z"/><path class="uuid-1dfa31d2-92a4-4461-b5d0-8475d2945a20" d="m433.67,168.43c-20.22,12.1-2.32,64.15-2.32,64.15l-55.59,13.75c-.22-1.2-.47-2.43-.75-3.67-.39-1.75-.07-4.13-.78-5.19-1.78-2.68-3.37,4.97-4.52,8.2-1.15,3.26-14.41,4.41-14.19,7.76.03.45.16.94.36,1.45-.17.09-.33.18-.48.3-.78.62-1.3,1.83-.92,2.84.13.27.72.38,1.53.4-.7.65-1.14,1.75-.79,2.69.14.28.76.39,1.6.4-.64.66-1.02,1.69-.68,2.58.12.25.62.36,1.31.39-.32.6-.47,1.31-.23,1.95.51,1.03,5.96.11,7.02-.06.55-.08,2.78-.43,5.01-1.04,8.94-.31,73.12-3.01,85.31-16.61,6.03-6.73,10.7-59.01-10.3-78.25-3.19-2.92-5.64-5.01-10.57-2.06Z"/><path class="uuid-4e803d10-f84e-4541-abf6-6433cecb9e02" d="m433.5,168.14c-19.58,11.72-4.23,59.29-2.58,64.2l-54.9,13.58c-.22-1.17-.45-2.26-.69-3.34-.15-.68-.2-1.48-.23-2.26-.06-1.2-.12-2.34-.59-3.05-.35-.52-.75-.78-1.17-.7-1.19.18-2.07,2.8-3.17,6.5-.28.93-.54,1.8-.78,2.47-.5,1.41-3.93,2.52-6.96,3.5-3.8,1.23-7.38,2.39-7.25,4.39.03.38.12.8.29,1.28-.1.06-.19.12-.28.19-.84.66-1.49,2.01-1.02,3.25.14.29.51.46,1.14.54-.48.69-.75,1.64-.41,2.55.15.31.54.48,1.25.55-.43.68-.66,1.58-.33,2.43.14.29.49.46,1.12.54-.23.62-.24,1.24-.03,1.81.22.44.93.67,2.24.67,1.15,0,2.75-.17,4.89-.51l.23-.03c2.31-.35,4.02-.77,4.97-1.04,12.16-.42,73.45-3.22,85.54-16.72,5.77-6.44,11.32-58.89-10.33-78.71-3.06-2.81-5.71-5.24-10.97-2.1Zm20.8,80.37c-12.17,13.58-77.65,16.25-85.15,16.52-1.01.28-2.69.68-4.97,1.03l-.23.04c-5.77.9-6.39.32-6.43.23-.25-.66.03-1.34.21-1.68.05-.1.05-.22,0-.32-.06-.1-.16-.16-.27-.17-.82-.03-1.01-.18-1.02-.18t0,0c-.3-.79.09-1.69.61-2.24.09-.1.12-.23.07-.35s-.17-.2-.3-.2c-1.08-.01-1.28-.19-1.3-.19h0c-.31-.82.12-1.79.7-2.33.1-.09.13-.23.08-.36-.05-.12-.17-.21-.3-.21-1-.02-1.21-.19-1.22-.19,0,0,0,0,0,0-.33-.87.16-1.94.83-2.46.14-.11.28-.19.43-.27.15-.08.21-.25.15-.41-.2-.52-.32-.97-.34-1.35-.1-1.49,3.57-2.68,6.8-3.73,3.48-1.13,6.77-2.19,7.38-3.9.24-.69.51-1.57.79-2.51.66-2.21,1.76-5.9,2.63-6.03.19-.01.38.21.52.41.37.56.42,1.6.48,2.72.04.8.08,1.63.25,2.37.26,1.17.51,2.37.75,3.66.02.09.07.17.15.22.07.05.17.06.26.04l55.59-13.75c.09-.02.16-.08.21-.16.05-.08.05-.18.02-.26-.18-.52-17.58-51.93,2.18-63.76,4.83-2.89,7.2-.72,10.18,2.02h0c12.05,11.04,14.68,32.04,15.18,43.58.71,16.39-1.96,30.92-4.9,34.2Z"/><path class="uuid-1dfa31d2-92a4-4461-b5d0-8475d2945a20" d="m416.65,152.31c-.22-.06-.43-.11-.65-.17l-.05-5.3-.05-5.87-12.99-1.39-1.09,5.56-1.26,6.38c-1.95,1.14-4.51,2.68-7.32,4.51-.92.6-1.9,1.26-2.91,1.98-1.42,1.01-2.45,2.56-2.65,4.29-.11.93-.03,1.82.55,2.52,6.84,8.21,33.86-2.12,32.34-11.4-1.34-.39-2.65-.77-3.91-1.11Z"/><path class="uuid-4e803d10-f84e-4541-abf6-6433cecb9e02" d="m420.66,153.1c-1.34-.39-2.65-.77-3.92-1.12l-.4-.1-.1-10.91c0-.17-.13-.31-.29-.32l-12.99-1.39c-.21-.05-.33.1-.36.26l-2.32,11.79c-2.49,1.46-4.92,2.95-7.21,4.44-.93.6-1.91,1.27-2.92,1.99-1.57,1.11-2.58,2.76-2.79,4.53-.09.76-.12,1.88.62,2.76,1.83,2.2,4.99,3.12,8.66,3.12,4.33,0,9.36-1.29,13.76-3.3,5.56-2.54,11.24-6.9,10.49-11.49-.02-.12-.11-.23-.23-.26Zm-10.53,11.16c-7.7,3.52-17.91,4.84-21.65.35-.45-.53-.59-1.23-.47-2.27.18-1.58,1.1-3.06,2.51-4.07,1.01-.71,1.98-1.37,2.9-1.97,2.32-1.51,4.78-3.02,7.31-4.5.08-.05.14-.13.16-.22l2.29-11.64,12.4,1.33.1,10.87c0,.15.1.28.25.32l.64.17c1.2.32,2.43.68,3.7,1.05.39,3.44-3.56,7.58-10.14,10.58Z"/><path class="uuid-4e803d10-f84e-4541-abf6-6433cecb9e02" d="m401.82,145.14c.56.42,2.39,1.18,4.99,1.46,2.48.27,6.6-.65,9.1-2.46v-3.17l-12.99-1.39-1.09,5.56Z"/><path class="uuid-4e803d10-f84e-4541-abf6-6433cecb9e02" d="m411.97,99.56c-9.3-1.57-18.03,4.2-19.5,12.9-1.47,8.7,4.88,17.02,14.18,18.59,9.3,1.57,18.03-4.2,19.5-12.9,1.47-8.7-4.88-17.02-14.18-18.59Z"/><path class="uuid-1dfa31d2-92a4-4461-b5d0-8475d2945a20" d="m411.12,103.31c-8.98-1.52-17.84,6.63-19.8,18.21-1.96,11.57,3.74,22.19,12.72,23.7,8.98,1.52,17.84-6.63,19.8-18.21,1.96-11.57-3.74-22.18-12.72-23.7Z"/><path class="uuid-4e803d10-f84e-4541-abf6-6433cecb9e02" d="m411.17,102.99c-9.15-1.56-18.19,6.74-20.18,18.47-1.98,11.73,3.84,22.54,12.99,24.08.74.13,1.47.19,2.21.19,8.35,0,16.15-7.87,17.97-18.66,1.99-11.73-3.84-22.53-12.99-24.08Zm12.34,23.97c-1.92,11.37-10.63,19.42-19.42,17.93-8.78-1.48-14.37-11.95-12.45-23.33,1.77-10.46,9.29-18.11,17.32-18.11.7,0,1.4.06,2.1.17,8.79,1.49,14.37,11.95,12.45,23.33Z"/><path class="uuid-1dfa31d2-92a4-4461-b5d0-8475d2945a20" d="m427.84,120.08c-2.43-.59-5.02,1.47-5.78,4.6-.76,3.13-1.73,7.56.71,8.15,2.43.59,7.33-2.88,8.1-6.01.76-3.13-.59-6.15-3.02-6.74Z"/><path class="uuid-4e803d10-f84e-4541-abf6-6433cecb9e02" d="m427.92,119.76c-1.28-.31-2.63.03-3.8.96-1.15.92-2,2.29-2.38,3.88-.67,2.74-1.91,7.85.95,8.55.2.05.42.07.66.07,1.19,0,2.77-.63,4.29-1.74,1.85-1.35,3.18-3.07,3.55-4.59.39-1.58.27-3.2-.33-4.54-.61-1.37-1.65-2.29-2.93-2.6Zm2.63,6.98c-.33,1.36-1.59,2.97-3.3,4.22-1.64,1.2-3.37,1.79-4.4,1.56-1.95-.48-1.38-4.01-.47-7.76.35-1.45,1.12-2.7,2.15-3.52.77-.61,1.63-.93,2.46-.93.26,0,.52.03.77.09,1.07.26,1.96,1.05,2.49,2.23.54,1.21.65,2.67.29,4.11Z"/><path class="uuid-4e803d10-f84e-4541-abf6-6433cecb9e02" d="m429.14,121.96c-1.75-.09-3.84.55-6.06,5.81-.1.23,0,.48.21.6.07.04.14.06.21.06.16,0,.31-.06.41-.2.28-.39.49-.82.7-1.24.3-.62.59-1.2,1.03-1.45.48-.27,1.22-.15,2.27.37.23.12.52.02.64-.22.12-.24.02-.52-.22-.64-.91-.45-1.66-.65-2.29-.6,1.14-1.38,2.18-1.53,3.07-1.54.26.01.49-.19.5-.46.02-.27-.21-.47-.47-.5Z"/><path class="uuid-1dfa31d2-92a4-4461-b5d0-8475d2945a20" d="m389.91,113.67c-2.49-.24-4.76,2.17-5.07,5.38-.31,3.21,3.18,8.1,5.67,8.34,2.49.24,3.04-4.26,3.35-7.47.31-3.21-1.46-6.01-3.95-6.25Z"/><path class="uuid-4e803d10-f84e-4541-abf6-6433cecb9e02" d="m389.94,113.35c-1.28-.13-2.59.4-3.62,1.49-1.01,1.07-1.65,2.55-1.81,4.18-.15,1.56.53,3.62,1.84,5.5,1.28,1.85,2.86,3.07,4.12,3.19.07,0,.15.01.22.01,1.16,0,2.03-.9,2.61-2.68.49-1.52.71-3.43.87-5.1.16-1.62-.19-3.2-.97-4.44-.8-1.27-1.96-2.04-3.27-2.16Zm3.59,6.54c-.16,1.63-.37,3.5-.84,4.96-.52,1.58-1.23,2.3-2.15,2.21-1.06-.1-2.49-1.25-3.65-2.92-1.2-1.73-1.86-3.67-1.73-5.06.14-1.48.72-2.83,1.63-3.79.8-.85,1.77-1.31,2.77-1.31.1,0,.21,0,.31.02,1.1.11,2.09.77,2.78,1.86.71,1.12,1.02,2.55.87,4.03Z"/><path class="uuid-4e803d10-f84e-4541-abf6-6433cecb9e02" d="m388.05,115.01c-.25-.08-.52.07-.59.33-.07.26.07.52.33.59.87.25,1.77.79,2.39,2.46-.58-.25-1.35-.31-2.37-.19-.26.03-.45.27-.42.53.03.26.27.45.53.42,1.02-.13,1.73-.04,2.13.27.45.35.53,1.04.63,1.83.06.46.12.93.25,1.4.06.2.24.33.43.34.04,0,.07,0,.11,0,.24-.04.41-.26.39-.5-.37-5.72-2.14-6.99-3.83-7.48Z"/><path class="uuid-4e803d10-f84e-4541-abf6-6433cecb9e02" d="m407.46,128.49c-.79.3-1.65.39-2.47.26-.18-.03-.39-.07-.5-.18-.2-.2-.11-.69-.02-1.04l1.41-5.65c.06-.26-.09-.52-.35-.58-.25-.06-.52.09-.58.35l-1.41,5.66c-.1.4-.34,1.34.27,1.95.31.3.71.39,1.03.44.2.03.4.05.59.06.8.04,1.61-.09,2.37-.38.25-.1.37-.37.28-.62-.1-.24-.37-.37-.62-.28Z"/><path class="uuid-4e803d10-f84e-4541-abf6-6433cecb9e02" d="m410.26,133.13c-2.71,2.35-6.78,3.07-10.13,1.79-.24-.09-.52.03-.62.28-.1.25.03.52.28.62,1.04.39,2.14.62,3.25.67,2.82.14,5.72-.79,7.84-2.64.2-.17.22-.48.05-.68-.17-.2-.48-.22-.68-.05Z"/><path class="uuid-4e803d10-f84e-4541-abf6-6433cecb9e02" d="m407.73,136.92c-1.36,1.12-3.5,1.26-4.99.32-.22-.14-.52-.07-.66.15-.14.22-.07.52.15.66.75.48,1.62.73,2.5.78,1.29.06,2.61-.33,3.61-1.16.2-.17.23-.47.06-.67-.17-.2-.47-.23-.67-.06Z"/><path class="uuid-4e803d10-f84e-4541-abf6-6433cecb9e02" d="m399.62,117.77c-.61-.1-1.25.64-1.42,1.65-.17,1.01.19,1.92.8,2.03.61.1,1.25-.64,1.42-1.65.17-1.02-.19-1.92-.8-2.03Z"/><path class="uuid-4e803d10-f84e-4541-abf6-6433cecb9e02" d="m414.01,120.2c-.61-.1-1.25.63-1.42,1.65-.17,1.01.19,1.92.8,2.03.61.1,1.25-.64,1.42-1.65.17-1.02-.19-1.92-.8-2.03Z"/><path class="uuid-4e803d10-f84e-4541-abf6-6433cecb9e02" d="m416.34,117.19c-.67-.42-1.72-1.04-2.53-1.06-.51,0-1.17.96-.92,1.49.12.25.44.33.71.39,1.11.27,2.12.89,2.88,1.75.41-.44.85-.99.73-1.58-.1-.44-.48-.75-.86-1Z"/><path class="uuid-4e803d10-f84e-4541-abf6-6433cecb9e02" d="m401,113.97c-.77-.25-1.97-.01-2.74.17-.44.1-.91.27-1.14.66-.31.52-.07,1.17.17,1.73.99-.56,2.16-.81,3.29-.7.28.03.6.06.8-.14.41-.42.11-1.55-.38-1.71Z"/><path class="uuid-4e803d10-f84e-4541-abf6-6433cecb9e02" d="m392.94,112.26c-.74,4.39-.64,6.16-.64,6.16,0,0,3.27-1.2,4.02-5.59.74-4.39,3.51-8.1,2.58-8.26-.93-.16-5.22,3.3-5.96,7.69Z"/><path class="uuid-4e803d10-f84e-4541-abf6-6433cecb9e02" d="m419.46,108.04c-.93-.16.46,4.26-.28,8.65-.74,4.39,5.02,8.15,5.02,8.15,0,0,.57-3.38,1.31-7.78.74-4.39-5.12-8.86-6.05-9.02Z"/><path class="uuid-4e803d10-f84e-4541-abf6-6433cecb9e02" d="m416.33,103.22c-2.04-.93-4.31-1.29-6.56-1.3-2.21-.01-4.59.37-6.15,1.92l.67-.44c.41,2.87,1.99,5.5,4.05,7.53,2.06,2.04,4.61,3.53,7.24,4.76,1.54.72,3.2,1.43,4.12,2.85.25.38.62.88,1.04.69.24-.11.33-.4.4-.66.43-1.8.86-3.61.96-5.46.1-1.85-.13-3.75-.94-5.41-.98-2.02-2.79-3.57-4.82-4.5Z"/><path class="uuid-4e803d10-f84e-4541-abf6-6433cecb9e02" d="m404.27,102.77c-1.06.29-2.08.69-3.06,1.19-1.83.93-3.52,2.2-4.67,3.9-1.16,1.69-2.14,4.23-1.71,6.24,1.1-1.25,2.54-2.15,3.97-3,1.43-.85,2.9-1.68,4.11-2.83,1.21-1.14,2.17-2.66,2.28-4.32.37-.07.49-.94.17-1.15-.32-.21-.73-.13-1.09-.03Z"/><path class="uuid-4e803d10-f84e-4541-abf6-6433cecb9e02" d="m414.72,97.69c-2.37-.32-4.91-.12-6.94,1.14-1.53.94-3.45,3.21-2.83,5.17.53,1.69,2.88,2.44,4.27,3.21,4.4,2.48,8.33,5.7,11.51,9.64,1.41,1.74,3.15,3.82,5.36,3.5,2.31-.33,3.39-3.1,3.48-5.43.17-4.16-1.34-8.35-4.08-11.48-2.73-3.14-6.65-5.2-10.77-5.75Z"/><path class="uuid-4e803d10-f84e-4541-abf6-6433cecb9e02" d="m397.83,99.67c-1.84.97-3.18,2.69-4.15,4.53-1.85,3.52-2.49,7.65-1.81,11.56,1.33.12,2.44-.92,3.37-1.88,1.85-1.92,3.7-3.85,5.55-5.77,1.47-1.52,4.8-3.85,5.52-5.82,1.73-4.75-6.18-3.65-8.48-2.63Z"/><path class="uuid-ec6e8500-2d6f-49b6-a2eb-8837f8cc2aaf" d="m446.05,169.08c-4.59-4.11-12.46-2.42-16.83,1.17-4.53,3.72-6.89,9.59-7.42,15.42-.94,10.28.1,18.24,2.01,32.12.96-5.09,13.95-14.35,17.93-17.67,3.98-3.31,8.68-5.64,13.37-7.83,1.2-.56,2.53-1.27,2.86-2.55.23-.88-.1-1.8-.44-2.64-2.53-6.26-6.37-13.46-11.47-18.03Z"/><path class="uuid-0c1f0688-9377-444d-b348-faf8348d2121" d="m306.61,169.47c-1.9-1.67-4.32-2.74-6.83-3.07-2.51-.33-5.11.06-7.43,1.07-.47.2-.97.48-1.11.96-.17.57.23,1.17.74,1.47.51.3,1.12.39,1.68.57,2.02.64,3.43,2.4,4.95,3.87,1.26,1.23,2.7,2.32,4.35,2.93,1.44.53,3.75.87,5.14,0,1.21-.76,1.3-2.91.98-4.13-.38-1.45-1.35-2.69-2.48-3.68Z"/><path class="uuid-4e803d10-f84e-4541-abf6-6433cecb9e02" d="m306.93,152.11c-.19-.84-1.03-1.37-1.87-1.18l-19.44,4.41c-.84.19-1.37,1.02-1.18,1.86l8.11,35.79c.19.84,1.03,1.37,1.86,1.18l19.44-4.41c.84-.19,1.37-1.02,1.18-1.86l-8.11-35.79Z"/><rect class="uuid-1dfa31d2-92a4-4461-b5d0-8475d2945a20" x="289.25" y="154.44" width="19.83" height="31.05" transform="translate(-30.16 70.31) rotate(-12.77)"/><path class="uuid-4e803d10-f84e-4541-abf6-6433cecb9e02" d="m300.39,153.39l-9.48,2.15c-.35.08-.57.42-.49.77l.02.11c.08.35.42.56.77.48l9.48-2.15c.35-.08.57-.42.49-.77l-.03-.11c-.08-.35-.42-.56-.77-.49Z"/><path class="uuid-1dfa31d2-92a4-4461-b5d0-8475d2945a20" d="m292.38,180.61c-.1-.08-.21-.12-.32-.18.07-.21.12-.41.16-.54.23-.72.42-1.46.39-2.17-.03-.71-.29-1.4-.85-1.81-.43-.32-1.02-.44-1.63-.39,0-.21.02-.43,0-.64-.08-.68-.37-1.35-.88-1.79-.23-.19-.5-.31-.79-.4.11-.48.19-.96.15-1.44-.05-.55-.27-1.1-.7-1.44-.64-.52-1.68-.48-2.43,0-.75.49-1.19,1.35-1.24,2.19-.06.84.24,1.66.72,2.33.06.08.15.19.25.31-.1.31-.17.64-.19.97-.03,1.02.36,2.02.95,2.86.13.19.38.48.67.79-.05.99.26,1.93.81,2.69.15.2.42.52.76.83-.02.11-.04.23-.05.34-.03,1.02.36,2.03.95,2.86.42.59,1.88,2.24,2.74,1.88.73-.3,1.11-2.75,1.26-3.44.14-.67.24-1.35.16-2.03-.08-.67-.37-1.35-.89-1.79Z"/><path class="uuid-4e803d10-f84e-4541-abf6-6433cecb9e02" d="m292.59,180.36s-.09-.07-.14-.1c.03-.11.06-.2.08-.27.22-.68.43-1.48.4-2.28-.04-.89-.38-1.62-.98-2.06-.39-.29-.91-.45-1.48-.46,0-.11,0-.23-.02-.34-.1-.83-.46-1.54-1-2-.17-.15-.38-.26-.62-.36.08-.39.13-.82.1-1.25-.06-.7-.35-1.3-.82-1.67-.73-.59-1.92-.6-2.82-.01-.79.52-1.33,1.45-1.39,2.44-.06.86.22,1.76.78,2.54.04.05.09.12.15.19-.09.32-.14.6-.15.88-.03,1.01.33,2.1,1.01,3.06.15.21.37.47.6.72-.02.97.28,1.92.88,2.75.13.17.36.46.67.76-.01.07-.02.14-.02.21-.03,1.01.33,2.1,1.01,3.06.02.02,1.51,2.07,2.75,2.07.13,0,.26-.02.39-.07.75-.31,1.11-1.89,1.39-3.35l.06-.33c.14-.63.26-1.37.17-2.13-.1-.83-.46-1.54-1-2Zm.19,4l-.07.34c-.34,1.77-.68,2.73-1,2.87-.53.22-1.74-.91-2.35-1.77-.6-.84-.91-1.79-.88-2.66,0-.06.01-.12.02-.18l.02-.12c.01-.11-.02-.21-.1-.28-.33-.31-.59-.62-.71-.79-.54-.75-.8-1.6-.75-2.48,0-.09-.03-.18-.09-.25-.29-.3-.52-.59-.63-.75-.6-.84-.91-1.79-.89-2.66,0-.26.06-.54.17-.88.04-.11.01-.23-.06-.32-.09-.11-.17-.21-.23-.28-.47-.66-.71-1.41-.66-2.11.05-.79.47-1.53,1.1-1.94.33-.22.73-.33,1.1-.33s.69.1.95.3c.32.26.53.7.58,1.22.04.46-.05.93-.14,1.34-.04.17.06.34.23.39.29.08.5.19.67.33.42.35.69.91.77,1.57.02.15.01.31,0,.47v.12c0,.1.03.19.1.25.07.06.16.09.25.09.56-.05,1.06.06,1.4.32.59.43.7,1.16.71,1.56.03.7-.17,1.43-.37,2.06-.04.13-.1.31-.16.54-.04.15.02.31.15.38l.12.06c.06.03.11.05.14.08.42.35.69.91.77,1.57.08.67-.04,1.34-.16,1.92Z"/></svg>