<?xml version="1.0" encoding="UTF-8"?><svg id="uuid-2717fc77-3da5-4d43-aa39-985fc765a05f" xmlns="http://www.w3.org/2000/svg" xmlns:xlink="http://www.w3.org/1999/xlink" viewBox="0 0 551.69 549.21"><defs><style>.uuid-bb11fbdc-283f-4992-a1c2-a28558c96cd5,.uuid-bdf34b74-a2ce-402c-88ed-e530e5d09b73,.uuid-46c4c779-7d2c-4ab1-800e-0474542c7233{fill:#fff;}.uuid-2883b9d8-2b94-4450-a09a-25e51cbeb502{fill:#361e4d;}.uuid-c341fcbb-def1-436a-a22f-000857c9aa93{fill:#d9e0e6;}.uuid-20fbea55-cbbd-4580-aed8-b65d04daaec1{mask:url(#uuid-b49d702f-d8b4-4850-85a6-e5bba31bc954);}.uuid-20fbea55-cbbd-4580-aed8-b65d04daaec1,.uuid-0bf0c41c-00f5-485e-92f1-089ff00e5b1a,.uuid-4204a6f7-8f16-4cb8-92a6-7468ddee5b00,.uuid-70839431-8f73-4db9-b6fc-5918c76430dd,.uuid-e7fd558a-7a93-4dbb-8be0-d87b3c3ecc12,.uuid-d5de936a-3ea3-47a1-a868-428a413d4f8b{fill:none;}.uuid-78e82c12-02dc-48cf-bbc1-ab6a2f9f39bb{fill:#e6ebf0;}.uuid-0bf0c41c-00f5-485e-92f1-089ff00e5b1a{clip-path:url(#uuid-2e23ddde-d9d3-49ba-80cc-25e84d9314e2);}.uuid-a1da616b-4edc-418c-89c5-9505c627ba0e{fill-rule:evenodd;}.uuid-a1da616b-4edc-418c-89c5-9505c627ba0e,.uuid-6d1482a0-7230-4591-ab45-e945cbe7af7a{fill:#001940;}.uuid-eb8fbf71-d273-439d-ad8d-daa1eedd94ce{filter:url(#uuid-d98f6ed2-d95c-4f5c-97b2-9335a764ca2d);}.uuid-a0b6c63e-69ec-4c17-afaa-fb83a281f36e{fill:#c6d0db;}.uuid-a318eeac-bcf4-4f00-8596-cab7d36957a3{fill:#73cbe2;}.uuid-85684fcc-0a6a-4a42-b237-2528ee277092{fill:url(#uuid-cfae53e5-6d52-4014-bd9d-a2f6e286fc6f);mix-blend-mode:multiply;}.uuid-4204a6f7-8f16-4cb8-92a6-7468ddee5b00{opacity:.5;}.uuid-3dc262c7-478f-4a77-a3b4-07a6486b24c7{fill:#f85a44;}.uuid-7a8a608a-99c1-47bf-93f0-acd5eb3aa80f{fill:#ffab48;}.uuid-14a1d944-ffdd-492d-8cb6-d6a5687b1f5a{fill:url(#uuid-c810baba-1e98-4bd4-9b14-b952a37fd298);opacity:.22;}.uuid-bdf34b74-a2ce-402c-88ed-e530e5d09b73{opacity:.6;}.uuid-46c4c779-7d2c-4ab1-800e-0474542c7233{opacity:.31;}.uuid-41011722-4fc3-49b6-bcdd-dceee3aa2512{fill:#ffbf5b;}.uuid-7e4e1201-fd47-4ddd-bed1-dea76989d1af{fill:#aab6c2;}.uuid-e7fd558a-7a93-4dbb-8be0-d87b3c3ecc12{mask:url(#uuid-d3d44523-605b-4c68-9fc1-0d12df13fb0b);}.uuid-a43faa77-f6a7-428a-83bc-09653ff1c4f3{fill:#95999f;}.uuid-d5de936a-3ea3-47a1-a868-428a413d4f8b{clip-path:url(#uuid-ceb34ee1-6ee3-42c4-8d7f-94b80cd8edc4);}</style><clipPath id="uuid-2e23ddde-d9d3-49ba-80cc-25e84d9314e2"><path class="uuid-70839431-8f73-4db9-b6fc-5918c76430dd" d="m336.39,7.98c82.61,23.79,221.33,97.28,215.09,266.09-6.24,168.8-153.52,81.74-264.15,234.26-82.48,113.71-427.73-41.77-223.87-375.83C144.64-.52,264.7-12.66,336.39,7.98Z"/></clipPath><clipPath id="uuid-ceb34ee1-6ee3-42c4-8d7f-94b80cd8edc4"><rect class="uuid-70839431-8f73-4db9-b6fc-5918c76430dd" x="339.39" y="62.38" width="282.74" height="364.62"/></clipPath><filter id="uuid-d98f6ed2-d95c-4f5c-97b2-9335a764ca2d" x="151.32" y="80.22" width="189.94" height="210.52" color-interpolation-filters="sRGB" filterUnits="userSpaceOnUse"><feFlood flood-color="#fff" result="bg"/><feBlend in="SourceGraphic" in2="bg"/></filter><filter id="uuid-9d7330a9-66ba-487b-b416-3427f052e4da" x="151.32" y="-8470.98" width="189.94" height="32766" color-interpolation-filters="sRGB" filterUnits="userSpaceOnUse"><feFlood flood-color="#fff" result="bg"/><feBlend in="SourceGraphic" in2="bg"/></filter><mask id="uuid-b49d702f-d8b4-4850-85a6-e5bba31bc954" x="151.32" y="-8470.98" width="189.94" height="32766" maskUnits="userSpaceOnUse"/><linearGradient id="uuid-cfae53e5-6d52-4014-bd9d-a2f6e286fc6f" x1="246.29" y1="290.75" x2="246.29" y2="80.22" gradientUnits="userSpaceOnUse"><stop offset="0" stop-color="#000"/><stop offset="1" stop-color="#fff"/></linearGradient><mask id="uuid-d3d44523-605b-4c68-9fc1-0d12df13fb0b" x="151.32" y="80.22" width="189.94" height="210.52" maskUnits="userSpaceOnUse"><g class="uuid-eb8fbf71-d273-439d-ad8d-daa1eedd94ce"><g class="uuid-20fbea55-cbbd-4580-aed8-b65d04daaec1"><polygon class="uuid-85684fcc-0a6a-4a42-b237-2528ee277092" points="213.05 80.22 151.32 290.75 341.26 290.75 275.94 80.22 213.05 80.22"/></g></g></mask><linearGradient id="uuid-c810baba-1e98-4bd4-9b14-b952a37fd298" x1="246.29" y1="290.75" x2="246.29" y2="80.22" gradientUnits="userSpaceOnUse"><stop offset="0" stop-color="#fff"/><stop offset="1" stop-color="#fff"/></linearGradient></defs><rect class="uuid-6d1482a0-7230-4591-ab45-e945cbe7af7a" x="20.71" y="545.31" width="514.51" height="3.91"/><path class="uuid-78e82c12-02dc-48cf-bbc1-ab6a2f9f39bb" d="m336.39,7.98C264.7-12.66,144.64-.52,63.46,132.5c-203.85,334.07,141.39,489.55,223.87,375.83,110.63-152.52,257.91-65.46,264.15-234.26C557.73,105.26,419,31.77,336.39,7.98Z"/><path class="uuid-78e82c12-02dc-48cf-bbc1-ab6a2f9f39bb" d="m410.4,441.56c-73.08,22.3-82.98,55.25-82.48,84.44.57,33.1,130.27,17.02,184.6-70.7,54.33-87.72-63.5-25.53-102.12-13.74Z"/><g class="uuid-0bf0c41c-00f5-485e-92f1-089ff00e5b1a"><rect class="uuid-78e82c12-02dc-48cf-bbc1-ab6a2f9f39bb" x="339.34" y="66.41" width="282.49" height="362.16"/><g class="uuid-d5de936a-3ea3-47a1-a868-428a413d4f8b"><path class="uuid-a0b6c63e-69ec-4c17-afaa-fb83a281f36e" d="m533.41,320.38c-1.19-1.9-2.99-3.49-5.09-4.15-1.58-.47-2.7-.14-4.28-.06-.65.03-1.18-.01-1.66-.1.82-1.55,1.41-3.21,1.69-4.98.07-.4-.09-.71-.33-.93-.23-.45-.78-.7-1.23-.55-.22-.07-.49-.04-.75.16-1.4,1.02-2.36,2.37-2.83,3.95-.3-.36-.61-.75-.96-1.18-5.88-7.1-13.97-8.37-22.03-6.83-.39-.53-.81-1.03-1.32-1.47-1.04-.92-2.42-1.92-3.89-1.72-1.4.2-2.09,1.58-1.46,2.84.34.67.92,1.22,1.58,1.68-2.26.74-4.46,1.68-6.59,2.7-.84-.94-1.79-1.77-2.86-2.36-1.85-1.01-3.28.58-2.81,2.44.2.8.7,1.63,1.38,2.15-1.4.8-2.76,1.63-4.02,2.46-3.32,2.21-6.55,4.56-9.86,6.79.36-1.58.33-3.29-1.46-3.2-1.01.05-1.6.85-1.82,1.77-.26,1.08-.41,2.21-.57,3.33-1.07-1.72-2.31-3.33-3.74-4.79-.57-.58-1.43-.24-1.69.44-.95,2.5,0,5.4,2.13,6.93-1.59,1.01-3.09,2.17-4.08,3.74-1.9,3-.24,4.4.34,7.28,1.03,5.08-3.03,6.31-3.83,10.67-.3,1.7-.32,3.23-.06,4.62,1.94,11.09,19.89,13.15,28.85,9.86,2.86-1.05,5.24-2.76,6.92-5.35.38-.59.75-1.86,1.23-2.28.51-.46,5.13-1.83,5.71-1.9,1.65-.22,3.45.24,5.19,0,9.08-1.25,17.61-7.83,25.38-12.51.24.12.54.14.84-.06,5.65-3.69,11.78-10.25,8.92-17.55-.24-.63-.57-1.25-.95-1.86Z"/><path class="uuid-7e4e1201-fd47-4ddd-bed1-dea76989d1af" d="m533.41,320.38c-3.03,9.68-13.14,15.27-23.48,12.23-.56-.16-1.35.32-1.27.97.65,5.33-4.24,8.13-8.83,8.37-3.21.18-6.64-1.19-9.64-2.24-.65-.24-1.23.36-1.27.97-.18,3.17-1.69,6.05-4.58,7.61-1.03.55-2.44.52-3.41,1.11-1.55.91-1.33,1.77-2.16,3.19-5.11,8.57-19.15,1.65-26.15-1.23-.3-.12-.76.02-.97.26-.12.14-.22.26-.32.41,1.94,11.09,19.89,13.15,28.85,9.86,2.86-1.05,5.24-2.76,6.92-5.35.38-.59.75-1.86,1.23-2.28.51-.46,5.13-1.83,5.71-1.9,1.65-.22,3.45.24,5.19,0,9.08-1.25,17.61-7.83,25.38-12.51.24.12.54.14.84-.06,5.65-3.69,11.78-10.25,8.92-17.55-.24-.63-.57-1.25-.95-1.86Z"/><path class="uuid-a0b6c63e-69ec-4c17-afaa-fb83a281f36e" d="m520.3,328.92c.04.2.06.39.08.58-.1.05-.2.12-.29.22-1.89,2.11-2.56,4.9-1.73,7.62.27.89,1.33.92,1.84.24,2.02-2.66,2.69-5.94,2.04-9.2-.25-1.27-2.19-.73-1.94.53Z"/><path class="uuid-a0b6c63e-69ec-4c17-afaa-fb83a281f36e" d="m496.86,335.75c-.27,1.13-.65,2.21-1.09,3.26-.24-.1-.52-.1-.82.12-1.81,1.36-2.6,3.3-2.21,5.54.12.71,1.23,1.01,1.69.45,2.11-2.62,3.6-5.56,4.38-8.83.3-1.27-1.65-1.8-1.95-.54Z"/><path class="uuid-a0b6c63e-69ec-4c17-afaa-fb83a281f36e" d="m474.07,350.76c.29.33.62.73.93,1.15-.08.1-.15.21-.17.35-.28,1.98-.21,3.88.29,5.82.21.8,1.12.89,1.69.44,3.35-2.62.8-6.78-1.31-9.19-.86-.98-2.28.45-1.43,1.42Z"/><path class="uuid-7e4e1201-fd47-4ddd-bed1-dea76989d1af" d="m503.94,314.36c-1.29.89-.62,3.2-.31,4.41.52,2,1.49,3.79,2.75,5.41.78,1,2.12-.33,1.47-1.34.08-1.61-.7-10.69-3.91-8.48Z"/><path class="uuid-7e4e1201-fd47-4ddd-bed1-dea76989d1af" d="m484.72,316.18c-.4.13-.77.52-.74.97.25,3.58,1.3,6.88,3.22,9.92.02.03.05.05.07.07-.06.4-.11.79-.2,1.19-.26,1.27,1.69,1.81,1.95.54.61-2.98.55-6.03-.43-8.93-.58-1.72-1.6-4.48-3.87-3.77Z"/><path class="uuid-a0b6c63e-69ec-4c17-afaa-fb83a281f36e" d="m482.69,334.03c-1.77,1.49-3.45,3.61-2.15,5.98.35.63,1.09.58,1.58.2,1.52-1.18,2.35-2.95,2.42-4.86,0-.19-.04-.35-.11-.48.07-.75-.96-1.49-1.74-.84Z"/><path class="uuid-7e4e1201-fd47-4ddd-bed1-dea76989d1af" d="m466.95,336.79c-1.31-.97-2.69-1.85-4.16-2.44-1.56-.62-3.44,0-3.34,1.95.22,3.88,5.15,3.71,8.39,3.78.01.01.03.02.04.03.43.37.94.29,1.3.03.04,0,.1,0,.13,0,1.04.11,1.31-1.4.51-1.88-.93-.56-1.9-1.04-2.88-1.47Z"/><path class="uuid-a0b6c63e-69ec-4c17-afaa-fb83a281f36e" d="m723.79,276.51c-1.69.17-3.39.33-5.08.5,1.3-2.38,1.72-5.27,1.65-8.1,1.38-1.81-.39-4.69-2.64-4.14-1.13-.09-2.21.46-2.52,1.62-.12.09-.24.18-.36.27-2.23-4.57-5.68-8.58-9.6-12.41,2.74-5.38,3.27-12.23,4.16-18.3,1.63-11.18-2.48-16.71-12.44-21.25-.05,0-.16,0-.26-.05-.24-.82-.5-1.6-.74-2.4l.09-.06c2.68-.34,5.1-1.87,6.58-4.22.24-.38.15-.8-.09-1.1-.1-.38-.4-.67-.91-.61-2.51.29-4.8,1.2-6.73,2.71-.4-1.16-.8-2.33-1.23-3.45,2.23-3.85,2.96-8.27,1.54-12.64-.26-1.79-1.05-3.32-2.71-4.05-.32-.2-.72-.26-1.03-.04-.11.08-.2.16-.3.24-.07.05-.14.09-.2.16-.78.63-1.46,1.31-2.04,2.05-.16-.98-.43-1.95-.91-2.92-.42-.85-1.57-.5-1.84.24-.22.6-.37,1.19-.47,1.77-8.48-11.65-20.91-17.27-40.25-12.5-5.49,1.37-9.24.98-12.67-.55,2.1-1.49,3.9-3.34,5.45-5.48,2.47-1.36,1.11-5.7-1.94-4.8-3.92,1.15-7.13,3.33-9.77,6.3-.99-.75-1.96-1.5-3.07-2.38-5.05-3.95-10.7-7.14-16.69-9.48-1.37-2.54-3-4.93-5-7.01-1.62-1.68-4.42-4.95-7.07-3.47-2.3,1.29-2.29,4.46-1.43,6.73-2.93-.49-5.89-.83-8.88-.94-2.97-.11-5.72-.36-8.38-.74-.59-2.41-1.55-4.71-3.57-6.29-.8-.63-2.15-1.56-3.18-.93-1.07.66-.69,2.24-.49,3.24.1.51.37,1.59.78,2.72-4.02-1-7.96-2.39-12.21-4.27-1.18-.52-2.38-1.01-3.59-1.46-.52-.96-1.03-1.92-1.57-2.87-.51-.9-1.49-1.69-2.43-.75-.61.61-.75,1.36-.59,2.1-9.94-2.89-20.57-3.26-30.41.41-2.2.81-4.3,1.81-6.28,2.99-.12-1.65-.61-3.26-1.63-4.78-.38-.56-1.41-.75-1.74,0-.69,1.58-3.08,6.37-1,7.78-1.53,1.2-3,2.51-4.38,3.92-3.49,3.65-6.59,6.31-9.98,8.48-.06-.46-.12-.93-.18-1.39.04-1.67-.45-3.32-1.55-4.78-.36-.48-1.12-.74-1.58-.2-.73.84-1.38,1.71-1.98,2.62-.39.19-.74.51-1.02.98-.96,1.66-1.61,3.39-2.09,5.17-.55-1.68-1.47-3.21-2.84-4.45-.53-.49-1.5-.33-1.68.44-.57,2.47-.18,4.9,1.05,7.01-.37.12-.72.24-1.1.36-7.75,2.39-15.98,6.62-22.34,12.23-.28-.34-.56-.69-.84-1.03-.18-.25-.37-.5-.6-.73-.08-.1-.16-.21-.25-.31-.93-1.08-1.99-1.86-3.46-1.54-.54.11-.84.74-.7,1.24.36,1.37,1.43,3.9,2.94,5.18-1.6,1.7-3.04,3.5-4.23,5.4.14-2.69-4.2-3.65-5.17-.69-1.19,3.61-.67,7.45,1.42,10.62-.65,4.73.18,9.82,3.08,15.19-2.14,2.49-4.52,5.24-6.89,8.16-2.68,1.89-5.37,3.79-8.05,5.68-2.14,1.51-5.09,3.69-2.69,6.52.4.47.95.75,1.49,1.01-2.58,4.64-4.39,9.4-4.64,14.06-.74,12.97,11.12,12.5,17.14,21.09,1.9,2.69,3.74,5.01,5.75,7.01,4.37,4.22,9.49,6.59,17.19,6.17,13.66-.74,20.14-10.55,29.64-18.46,6.33-5.27,15.4-3.01,22.89-6.43,4.85-2.22,8.91-5.54,12.12-9.81,1.06-1.48,2.27-5.33,3.64-6.33,4.74-3.48,10.39.37,14.34,2.01,6.86,2.9,12.18,6.27,19.78,7.59,2.95.53,5.91.42,8.91.84,5.75.69,4.01-1.21,6.12,4.8,2.11,6.12,2.48,10.81,6.96,15.87,5.96,6.75,14.23,9.38,22.78,7.49,3.96,7.96,13.34,11.17,21.3,6.64,3.53,9.7,11.18,17.19,21.73,19.09,12.39,2.27,24.83,4.38,36.43-1.74,6.54-3.43,12.44-8.96,16.29-15.61,2.1-3.53,3.51-7.42,4.16-11.45,2.91-.08,5.6-1.34,7.51-3.59.51-.6.24-1.81-.71-1.72Z"/><path class="uuid-7e4e1201-fd47-4ddd-bed1-dea76989d1af" d="m675.55,295.79c-14.61-7.22-14.98-22.88-14.24-36.96,1.37-1.58,2.58-3.27,3.48-5.17,1.42-3.06-3.16-5.75-4.59-2.69-.84,1.9-2.11,3.48-3.48,4.85-10.28,5.22-13.29-1.11-20.88-4.9-1.74-.84-3.59-1.42-5.48-1.95,2.11-1,3.9-2.58,5.17-4.75,1.63-2.95-12.55,1.16-16.45-1.95-5.01-6.86-4.64-15.24-11.76-21.3-1.05-.95-2.63-1.05-3.74,0-5.64,5.7-11.86,7.17-18.09,6.28-.26-.26-.58-.48-1.05-.58-2.48-.69-9.91-3.85-5.8-7.28.74-.63.89-1.37.79-2.06.95-2.74-3.11-5.01-4.69-2.16-1.48,2.69-4.27,3.48-7.28,3.48-4.48-3.32-8.54-7.12-12.02-10.49-.9-.95-2.8-1.11-3.69,0-5.22,6.33-11.87,6.75-18.19,10.6-3.01,1.79-4.75,5.17-7.12,7.59-.38.38-.77.73-1.15,1.1.48-1.65.29-3.49-.76-5.07-.6-.89-1.88-.34-1.9.49-.27.11-.51.3-.58.6-.25,1.07-.22,2.06-.32,3.14-.16,1.71-.79,2.77-1.93,3.99-1.21,1.3-2.51,2.52-4.11,3.06-1.54-.26-2.74-1-2.91-2.67,0-.11,0-.21.05-.32.26-2.58-2.74-3.16-4.32-1.79-.58.37-.95.9-.95,1.74v.05c-.05.11-.05.16-.05.21v.11c-.16,2.42.95,4.53-1,6.49-.37.37-.79.63-1.16.95-6.49,1.69-13.34,1.95-20.25.58-1.58-.26-3.37.74-3.32,2.59.42,12.34-.11,24.78-13.66,29.47-4.22,1.42-9.12,2.06-12.44,5.38-1.42,1.42-2.42,3.01-2.95,4.69,3.23,3.11,6.87,5.22,11.66,5.93-.55.36-1.09.74-1.61,1.17-.86.7.1,1.85.98,1.68,2.4-.44,4.59-1.36,6.6-2.67,13.35-.93,19.81-10.59,29.19-18.41,2.18-1.82,4.7-2.74,7.35-3.31-.13,1.08-.1,2.17.13,3.27.16.77,1.17.94,1.69.44,1.21-1.14,1.75-2.72,1.61-4.29,2.82-.38,5.73-.63,8.52-1.33-.21.96-.27,1.96-.13,3.04.1.73,1.24,1,1.69.44,1.4-1.73,2.59-3.58,3.57-5.53,4.15-2.19,7.72-5.18,10.58-8.98,1.06-1.48,2.27-5.33,3.64-6.33,4.74-3.48,10.39.37,14.34,2.01.23.1.44.2.66.29.06.67.19,1.34.43,1.98.29.75,1.4,1.07,1.85.24.17-.33.33-.66.47-1,.96.44,1.89.89,2.82,1.32-.22.08-.42.16-.5.21-.65.44-1.05,1.07-1.02,1.86.02.66.63,1.15,1.28.97,1.26-.34,2.44-.87,3.56-1.53,3.16,1.38,6.41,2.57,10.23,3.23,2.95.53,5.91.42,8.91.84,5.75.69,4.01-1.21,6.12,4.8,2.11,6.12,2.48,10.81,6.96,15.87,3.12,3.54,6.89,5.91,10.99,7.13.35,1.24.95,2.41,1.8,3.46.39.47.9.4,1.26.09.45.06.92-.17,1.12-.68.27-.66.38-1.34.43-2.03,2.35.19,4.75.06,7.19-.48,3.96,7.96,13.34,11.17,21.3,6.64,1.41,3.87,3.49,7.38,6.13,10.34-.06,1.24-.09,2.49-.04,3.73.03.62.5.93.98.96.19.14.41.25.7.3,1.12.17,1.8-.48,2.22-1.41,3.33,2.55,7.27,4.37,11.74,5.17,1.19.22,2.38.43,3.57.64,1.06,1.79,2.61,3.25,4.55,4.15.39.18.76.1,1.04-.1.71.28,1.7-.24,1.36-1.14-.26-.69-.58-1.34-.92-1.97,9.17,1.22,18.23,1.22,26.84-3.32,6.54-3.43,12.44-8.96,16.29-15.61-11.81,5.27-25.05,8.54-37.28,2.53Z"/><path class="uuid-a0b6c63e-69ec-4c17-afaa-fb83a281f36e" d="m540.14,212.62s.01.03.01.04c-.22.08-.43.2-.53.41-1.22,2.62-1.59,5.29-1.15,8.14.11.68.96.87,1.48.6.66-.34,1.14-.78,1.56-1.26.04-.04.08-.08.11-.13,1.8-2.23,1.35-5.62.46-8.34-.4-1.23-2.35-.7-1.95.54Z"/><path class="uuid-a0b6c63e-69ec-4c17-afaa-fb83a281f36e" d="m496.17,238.46c-.35.21-.62.59-.55,1.09.31,2.1.84,4.12,1.58,6.11.26.7,1.1,1.01,1.68.45,2.61-2.53.71-5.88-1.1-8.2-.58-.74-1.47-.19-1.62.55Z"/><path class="uuid-a0b6c63e-69ec-4c17-afaa-fb83a281f36e" d="m480.77,252.36c-.38-.03-.64.13-.79.37-.51.22-.87.79-.51,1.4.76,1.3,1.68,2.49,2.74,3.57.37.38,1.06.4,1.43,0,.86-.93,1.09-2.3.47-3.44-.67-1.24-1.99-1.77-3.33-1.89Z"/><path class="uuid-a0b6c63e-69ec-4c17-afaa-fb83a281f36e" d="m471.16,262.21c-.19,1.67-.47,3.32-.83,4.96-.35-.04-.71.07-.95.45-1.15,1.82-1.78,3.71-2.04,5.84-.07.6.71,1.21,1.28.97,1.65-.69,2.35-1.97,2.87-3.63.89-2.78,1.36-5.69,1.69-8.59.15-1.29-1.87-1.28-2.02,0Z"/><path class="uuid-7e4e1201-fd47-4ddd-bed1-dea76989d1af" d="m559.17,179.94c-1.33-3.53-4.33-6.21-8.06-7.02-.63-.14-1.28.29-1.28.97.04,4.51,3.62,8,8.07,7.9.58.4,1.52.07,1.59-.67.13-.26.16-.56-.05-.85-.08-.12-.19-.22-.28-.34Z"/><path class="uuid-7e4e1201-fd47-4ddd-bed1-dea76989d1af" d="m523.87,193.6c-2.31,3.7-1.33,7.84.07,11.69.19.54.92,1.03,1.48.6,1.04-.8,1.56-1.91,1.76-3.15.06-.09.11-.18.15-.3.82-3.12.25-6.27-1.71-8.84-.45-.59-1.3-.7-1.74,0Z"/><path class="uuid-7e4e1201-fd47-4ddd-bed1-dea76989d1af" d="m502.77,176.08c-2-.78-4.87-1.02-6.97-1.01-1.34.01-2.12.67-1.85,2.12.28,1.51,1.66,2.45,2.93,3.13,1.72.92,9.46,5.46,10.07,1.14.12-.89-.24-1.61-.88-2.2-.6-1.51-1.74-2.57-3.29-3.18Z"/><path class="uuid-7e4e1201-fd47-4ddd-bed1-dea76989d1af" d="m483.33,198.77c-3.25-.22-6.4.52-9.24,2.08-1.65.9-1.03,3.1.48,3.69,3.42,1.34,7.06.53,9.89-1.7.44-.35.64-.75.68-1.16.42-1.16-.18-2.8-1.81-2.91Z"/><path class="uuid-7e4e1201-fd47-4ddd-bed1-dea76989d1af" d="m465.23,228c-1.47.86-1.5,2.9-1.28,4.38.22,1.51.89,2.8,1.88,3.96.19.22.42.37.68.46,1.11,1.14,3.54.72,3.49-1.31-.04-1.73-.31-3.46-.92-5.08-.57-1.54-1.9-3.54-3.84-2.41Z"/><path class="uuid-a0b6c63e-69ec-4c17-afaa-fb83a281f36e" d="m456.58,244.58c-1.97-.13-3.97.7-5.24,2.22-.86,1.02-.75,3.12.89,3.37,1.67.26,3.29.21,4.9-.35,1.03-.36,1.71-1.37,1.41-2.48-.01-.05-.05-.09-.07-.13.07-.2.13-.4.13-.61,0-1.14-.93-1.95-2.02-2.02Z"/><path class="uuid-7e4e1201-fd47-4ddd-bed1-dea76989d1af" d="m575.07,268.37c-.1-6.42-.01-12.84.41-19.25.22-3.39-5.51,25.1-5.38,25.39-4.11,5.36-7.81,11.01-10.68,17.16-1.65,3.54-2.95,7.17-3.95,10.87-1.6-21.36-15.3-73.61-15.07-70.24,1.51,22.36,7.18,43.61,6.19,63.3-.88,17.48-3.14,34.34-1.62,51.88.29,3.33.39,4.43.75,7.73-5.35-1.83-14.86-6.42-15.58-7.08-4.29-3.88-6.59-9.42-5.77-15.23.47-3.33-5.29,5.98-4.19,9.37-5.56-5.01-10.43-10.85-14.36-17.52-1.72-2.92-.57,8.78,1.67,11.61-11.69-.22-23.18-1.73-34.53-4.68-3.29-.86,24.33,10.06,37.55,10.04.51,0,.92-.14,1.27-.34,9.43,10.12,21.27,17.64,34.82,21.84,3.6,31.41,1.46,85.65-2.59,116.82-.23,1.76.93,3.29,2.54,3.34,5.41.16,10.01-.3,15.25-1.43,1.8-.39,2.18-2.05,1.65-3.38.22-34.17-.45-89.25-4.09-122.04-.71-6.37-1.37-12.98-1.7-19.62,13.02-.29,24.95-5.1,34.58-13.95-13.33,7.35-23.04,8.44-34.74,8.68-.18-10.17.61-20.32,3.6-29.81,5.65-17.95,19.17-31.87,31.93-45.1,2.36-2.44-13.39,6.33-17.94,11.64Z"/><path class="uuid-7e4e1201-fd47-4ddd-bed1-dea76989d1af" d="m325.85,442.53c-1.74-.67-4.43-.51-6.17.09-2.2.76-3.31,2.62-4.27,4.6,0,.02,0,.03-.02.05-1.15.53-2.26,1.11-3.33,1.74.36-1.21.57-2.47.55-3.8-.02-1.29-.21-5.06-2.44-4.52-1.66.4-2.91,4.01-3.33,5.42-.63,2.12-.5,4.24.56,6.13-1.95,1.58-3.74,3.33-5.39,5.21.15-1.13.17-2.28,0-3.45-.18-1.28-.83-5-2.97-4.19-1.6.6-2.39,4.33-2.64,5.79-.39,2.35.08,4.6,1.62,6.43-.13.22-.18.5-.12.75-1.17,1.73-2.26,3.52-3.28,5.37-.06.11-.11.21-.17.31-.08-1.26-.32-2.52-.79-3.75-.46-1.2-1.94-4.68-3.85-3.41-1.42.95-1.35,4.76-1.25,6.23.15,2.38,1.12,4.47,3.04,5.9-.06.19-.06.38-.01.57-.72,1.46-1.4,2.92-2.06,4.41-.27-.97-.65-1.91-1.17-2.82-.55-.96-2.08-3.44-3.57-3.18-.49-1.67-3.49-1.59-5.17-1.15-1.65.43-3.16,1.17-4.53,2.13.62-2.86,1.27-5.71,1.95-8.56,3.77-.03,11.38-2.29,11.48-5.22.08-2.26-3.39-2.21-5.24-1.73-1.9.5-3.62,1.41-5.15,2.59.6-2.32,1.25-4.63,1.92-6.93,3.97.25,10.69-.89,11.19-3.54.42-2.22-3.02-2.69-4.92-2.49-1.71.18-3.32.7-4.83,1.44.84-2.46,1.79-4.88,2.88-7.21,3.82,1.13,10.55,1.51,11.64-.95.91-2.07-2.33-3.3-4.23-3.53-1.79-.22-3.56-.06-5.27.38,1.4-2.43,3-4.72,4.83-6.83,3.34,1.78,11.06,3.43,12.56.91,1.16-1.94-1.9-3.56-3.76-4.03-1.81-.45-3.65-.49-5.47-.24,1.36-1.21,2.82-2.34,4.42-3.34.08.02.15.05.23.06,2.21.1,5.13-.09,6.9-1.58,1.38-1.17,2.03-3.64,1.58-5.38-.08-.31-.36-.61-.68-.68-1.83-.4-4.46.18-6.08,1.04-2.05,1.09-2.87,3.09-3.51,5.2,0,.02,0,.03,0,.05-1.06.7-2.06,1.44-3.03,2.23.17-1.25.18-2.53-.04-3.83-.22-1.27-.98-4.97-3.11-4.1-1.58.65-2.26,4.41-2.45,5.87-.3,2.19.16,4.27,1.5,5.97-1.68,1.86-3.18,3.86-4.53,5.98-.02-1.14-.18-2.27-.52-3.41-.37-1.23-1.59-4.81-3.59-3.69-1.49.84-1.69,4.65-1.71,6.12-.03,2.38.79,4.53,2.59,6.1-.1.25-.1.52,0,.76-.89,1.89-1.69,3.83-2.41,5.81-.04.11-.08.23-.12.35-.28-1.24-.7-2.45-1.37-3.6-.64-1.12-2.64-4.33-4.33-2.78-1.26,1.15-.6,4.91-.28,6.35.52,2.33,1.8,4.24,3.91,5.36-.03.21,0,.43.1.62-.47,1.54-.93,3.1-1.35,4.66-.42-.93-.96-1.83-1.62-2.66-.8-1.01-3.26-3.88-4.7-2.1-1.07,1.33.15,4.94.68,6.32.78,2.02,2.15,3.61,4.09,4.47-.65,2.68-1.26,5.38-1.83,8.08-.46-1.2-1.07-2.34-1.9-3.39-.1-.12-.22-.28-.37-.44,0-.67-.1-1.27-.41-1.66-.55-.69-1.26-.68-1.96-.35-.7-.32-1.41-.33-1.96.35-.31.39-.42.99-.41,1.66-.14.17-.27.32-.37.44-.84,1.05-1.45,2.19-1.91,3.39-.57-2.7-1.18-5.39-1.83-8.08,1.94-.87,3.3-2.45,4.09-4.47.53-1.38,1.75-4.99.68-6.32-1.43-1.78-3.89,1.09-4.7,2.1-.66.83-1.2,1.73-1.62,2.66-.43-1.56-.88-3.12-1.35-4.66.1-.19.13-.41.1-.62,2.11-1.12,3.39-3.03,3.91-5.36.32-1.44.98-5.2-.28-6.35-1.69-1.54-3.69,1.66-4.33,2.78-.66,1.15-1.09,2.35-1.37,3.6-.04-.11-.08-.23-.12-.35-.71-1.98-1.52-3.92-2.41-5.8.1-.24.1-.52,0-.76,1.8-1.57,2.62-3.72,2.59-6.1-.02-1.47-.22-5.28-1.71-6.12-2-1.12-3.21,2.45-3.59,3.69-.34,1.14-.5,2.27-.52,3.41-1.34-2.12-2.85-4.12-4.53-5.98,1.34-1.71,1.8-3.79,1.5-5.97-.2-1.46-.88-5.22-2.45-5.87-2.12-.87-2.89,2.83-3.11,4.1-.22,1.3-.21,2.58-.04,3.83-.96-.79-1.97-1.53-3.03-2.23,0-.02,0-.03,0-.05-.65-2.11-1.46-4.11-3.51-5.2-1.62-.86-4.25-1.43-6.08-1.04-.32.07-.6.37-.68.68-.45,1.74.2,4.21,1.58,5.38,1.77,1.49,4.69,1.68,6.89,1.58.08,0,.16-.03.24-.06,1.59,1.01,3.05,2.13,4.42,3.34-1.82-.25-3.66-.21-5.47.24-1.86.46-4.92,2.09-3.76,4.03,1.5,2.51,9.22.86,12.56-.91,1.83,2.11,3.43,4.4,4.82,6.83-1.71-.43-3.48-.6-5.27-.38-1.91.23-5.14,1.47-4.23,3.53,1.09,2.46,7.82,2.08,11.64.95,1.1,2.34,2.04,4.75,2.88,7.21-1.5-.75-3.12-1.26-4.83-1.44-1.91-.2-5.34.27-4.92,2.49.5,2.66,7.21,3.8,11.19,3.54.67,2.3,1.32,4.61,1.92,6.93-1.53-1.18-3.25-2.09-5.15-2.59-1.85-.49-5.32-.53-5.24,1.73.1,2.93,7.72,5.19,11.48,5.22.69,2.84,1.33,5.7,1.95,8.56-1.37-.95-2.88-1.69-4.52-2.13-1.76-.46-4.97-.52-5.22,1.41-1.09.64-2.05,2.21-2.46,2.93-.52.91-.9,1.85-1.17,2.82-.66-1.49-1.35-2.94-2.06-4.41.04-.19.05-.38-.01-.57,1.91-1.43,2.89-3.52,3.04-5.9.09-1.47.17-5.28-1.25-6.23-1.91-1.27-3.39,2.21-3.85,3.41-.48,1.23-.71,2.49-.79,3.75-.06-.11-.11-.21-.17-.31-1.01-1.85-2.1-3.64-3.27-5.37.06-.25.02-.52-.12-.75,1.54-1.83,2.01-4.08,1.62-6.43-.24-1.45-1.04-5.19-2.64-5.79-2.14-.8-2.8,2.91-2.98,4.19-.16,1.17-.15,2.32.01,3.45-1.66-1.89-3.45-3.63-5.4-5.21,1.06-1.89,1.19-4.02.56-6.13-.42-1.41-1.67-5.02-3.33-5.42-2.23-.53-2.42,3.23-2.44,4.52-.02,1.32.19,2.58.55,3.8-1.07-.63-2.18-1.21-3.33-1.74,0-.02,0-.03-.02-.05-.96-1.98-2.07-3.84-4.27-4.6-1.73-.6-4.43-.76-6.17-.09-.31.12-.54.46-.57.78-.17,1.79.84,4.13,2.39,5.07,1.97,1.2,4.89.93,7.06.5.08-.02.15-.06.22-.09,1.73.75,3.35,1.64,4.88,2.63-1.83.03-3.65.35-5.37,1.08-1.77.74-4.54,2.81-3.1,4.56,1.87,2.25,9.25-.56,12.27-2.83,2.13,1.8,4.07,3.83,5.82,6.01-1.76-.17-3.53-.06-5.27.43-1.85.52-4.86,2.24-3.63,4.14,1.45,2.26,8.05.85,11.65-.85,1.44,2.14,2.75,4.39,3.96,6.68-1.6-.51-3.28-.76-5-.68-1.91.09-5.24,1.08-4.48,3.21.91,2.55,7.73,2.65,11.61,1.78,1.09,2.31,2.01,4.35,2.95,6.55-1.69-.93-3.53-1.56-5.48-1.76-1.91-.2-5.34.29-4.92,2.51.56,2.89,8.46,3.96,12.17,3.4.54.69,1.96-.03,1.82-.89-.08-.2-.16-.39-.24-.59,1.28-.83,2.22-1.98,2.81-3.35-.02.13-.04.27-.03.42.1,2.81,7.11,5.01,11,5.22.45.43,1.29.21,1.56-.4.52-.36,1.21-.93,1.92-1.59.71.67,1.4,1.23,1.92,1.59.26.61,1.11.83,1.56.4,3.9-.2,10.91-2.4,11-5.22.08-2.26-3.39-2.21-5.24-1.72-1.7.44-3.25,1.22-4.65,2.22.24-1.19.48-2.37.73-3.56,2.78-.19,6.96-1.33,9.21-2.96-.04,1.44.26,3.08.44,3.92.46,2.12,1.56,3.89,3.34,5.04-.08.2-.16.39-.24.59-.13.86,1.29,1.58,1.82.89,3.72.56,11.62-.51,12.17-3.4.43-2.22-3.01-2.71-4.92-2.51-1.95.2-3.79.83-5.48,1.76.93-2.19,1.86-4.24,2.95-6.55,3.88.86,10.71.76,11.61-1.78.76-2.13-2.57-3.12-4.48-3.21-1.72-.08-3.39.18-4.99.68,1.21-2.3,2.52-4.54,3.96-6.68,3.61,1.7,10.2,3.11,11.65.85,1.22-1.91-1.79-3.62-3.64-4.14-1.73-.49-3.51-.6-5.27-.43,1.76-2.18,3.69-4.21,5.82-6.01,3.02,2.27,10.39,5.08,12.26,2.83,1.45-1.74-1.33-3.81-3.1-4.56-1.72-.73-3.53-1.05-5.37-1.08,1.54-.99,3.15-1.87,4.88-2.63.07.04.14.08.22.09,2.16.43,5.08.7,7.06-.5,1.55-.94,2.57-3.29,2.39-5.07-.03-.32-.26-.66-.57-.78Zm-66.32,36.98c-1.57-.41-4.29-.5-5.04.84.14-.39.27-.8.36-1.22.16-.72.39-2.01.44-3.26,2.35,1.27,5.77,2.14,8.16,2.3.25,1.19.49,2.37.73,3.56-1.4-1-2.95-1.77-4.65-2.22Zm9.24-4.21c-.08-.07-.16-.15-.24-.23.08-.09.17-.18.24-.28.08.1.16.19.24.28-.08.08-.16.15-.24.23Z"/><path class="uuid-a0b6c63e-69ec-4c17-afaa-fb83a281f36e" d="m425.91,108.17c-6.13-6.26-13.11-13.85-23.27-16.11-19.84-4.42-38.97,14.11-49.73,24.75-12.69,12.57-22.39,26.99-28.71,42.29-6.82,16.48-9.72,33.98-8.26,51.28,3.05,35.51,26.66,76.28,74.2,85.16,1.52.28,9.61.39,10.74.05,16.23-4.94,29.94-10.28,41.03-16.81,17.34-10.18,28.25-23.2,32.41-41.85,8.3-37.02-5.36-74.75-29.25-106.59-5.76-7.69-12.2-15.09-19.15-22.17Z"/><path class="uuid-7e4e1201-fd47-4ddd-bed1-dea76989d1af" d="m348.81,242.88c-11.34-12.02-16.83-26.57-20-41.19-2.99-13.76-5.56-28.5-4.62-42.59-6.82,16.48-9.72,33.98-8.26,51.28,3.05,35.51,26.66,76.28,74.2,85.16,1.52.28,9.61.39,10.74.05,16.23-4.94,29.94-10.28,41.03-16.81-16.52-.87-32.3-4.86-47.54-10.36-17.05-6.17-34.12-13.42-45.54-25.55Z"/><path class="uuid-a0b6c63e-69ec-4c17-afaa-fb83a281f36e" d="m310.89,187.58c-1.04-.46-2.19.33-2.17,1.17.18,5-.27,10.9,3.82,15.11,3.35,3.44,8.39,3.98,13.48,4.64.79.1,1.34-.24,1.59-.69.2-.11.38-.26.5-.51,4.38-9.34-8.59-15.85-17.23-19.72Z"/><path class="uuid-a0b6c63e-69ec-4c17-afaa-fb83a281f36e" d="m329.72,138.91c-.88-.64-2.23-.08-2.45.75-1.27,4.9-3.41,10.57-.64,15.4,2.27,3.96,7.02,5.4,11.79,6.96.74.24,1.37,0,1.75-.39.23-.07.45-.19.63-.4,6.95-8.3-3.8-16.98-11.09-22.31Z"/><path class="uuid-a0b6c63e-69ec-4c17-afaa-fb83a281f36e" d="m342.82,115.43c-.88-.64-2.23-.08-2.45.75-1.27,4.9-3.41,10.57-.64,15.4,2.27,3.96,7.02,5.4,11.79,6.95.74.24,1.37,0,1.75-.39.23-.07.45-.19.63-.4,6.95-8.3-3.79-16.99-11.09-22.31Z"/><path class="uuid-a0b6c63e-69ec-4c17-afaa-fb83a281f36e" d="m356.86,103.7c-.88-.64-2.23-.08-2.45.75-1.27,4.9-3.41,10.57-.64,15.4,2.27,3.96,7.02,5.39,11.79,6.95.74.24,1.37,0,1.75-.39.23-.07.45-.19.63-.4,6.95-8.3-3.8-16.98-11.09-22.31Z"/><path class="uuid-a0b6c63e-69ec-4c17-afaa-fb83a281f36e" d="m376.21,88.12c-.77-.73-2.2-.31-2.55.49-2.05,4.73-5.1,10.13-3.13,15.21,1.61,4.16,6.09,6.07,10.56,8.1.7.32,1.36.15,1.8-.21.24-.05.48-.14.69-.33,8.25-7.52-1-17.23-7.37-23.25Z"/><path class="uuid-a0b6c63e-69ec-4c17-afaa-fb83a281f36e" d="m460.79,138.91c-7.3,5.32-18.05,14.01-11.09,22.31.18.22.4.33.63.4.38.39,1.01.63,1.75.39,4.77-1.56,9.51-3,11.79-6.96,2.77-4.83.63-10.5-.64-15.4-.21-.82-1.57-1.39-2.45-.75Z"/><path class="uuid-7e4e1201-fd47-4ddd-bed1-dea76989d1af" d="m447.69,124.2c-7.29,5.32-18.04,14.01-11.09,22.31.18.22.4.33.63.4.38.39,1.01.63,1.75.39,4.77-1.56,9.51-3,11.79-6.96,2.78-4.84.63-10.5-.64-15.4-.21-.83-1.56-1.39-2.45-.75Z"/><path class="uuid-a0b6c63e-69ec-4c17-afaa-fb83a281f36e" d="m433.66,103.7c-7.3,5.32-18.05,14.01-11.09,22.31.18.22.4.33.63.4.38.39,1.01.63,1.75.39,4.77-1.56,9.51-3,11.79-6.95,2.77-4.84.63-10.5-.64-15.4-.21-.82-1.57-1.39-2.45-.75Z"/><path class="uuid-a0b6c63e-69ec-4c17-afaa-fb83a281f36e" d="m414.3,88.12c-6.37,6.02-15.62,15.73-7.37,23.25.21.2.45.29.69.33.44.35,1.1.52,1.8.21,4.47-2.03,8.95-3.94,10.56-8.1,1.97-5.08-1.08-10.48-3.13-15.21-.34-.8-1.78-1.22-2.54-.49Z"/><path class="uuid-a0b6c63e-69ec-4c17-afaa-fb83a281f36e" d="m394.21,76.06c-3.12,4.35-7.38,9.2-6.64,14.48.61,4.32,4.56,6.85,8.48,9.51.61.41,1.3.34,1.82.06.25-.01.5-.07.76-.23,9.87-6.18,3.05-17.08-1.8-23.93-.58-.83-2.09-.62-2.62.11Z"/><path class="uuid-a0b6c63e-69ec-4c17-afaa-fb83a281f36e" d="m301.75,210.49c-1.2,0-1.71,1.14-1.16,1.86,3.25,4.29,6.51,9.61,12.69,11.68,5.06,1.7,9.78.21,14.63-1.19.75-.22,1.02-.73.96-1.22.11-.18.17-.38.12-.64-1.97-9.84-17.31-10.48-27.23-10.49Z"/><path class="uuid-7e4e1201-fd47-4ddd-bed1-dea76989d1af" d="m330.13,231.23c-1.2,0-1.71,1.14-1.16,1.86,3.25,4.29,6.51,9.61,12.69,11.68,5.06,1.7,9.78.21,14.62-1.19.76-.22,1.02-.73.96-1.22.11-.18.17-.38.12-.64-1.97-9.84-17.31-10.48-27.23-10.49Z"/><path class="uuid-a0b6c63e-69ec-4c17-afaa-fb83a281f36e" d="m378.22,249.73c-7.38-8.07-21.43-3.14-30.28.4-1.07.43-.87,1.63.03,2.07,5.35,2.66,11.3,6.23,18,5.87,5.48-.3,8.84-3.32,12.36-6.3.55-.46.49-1.02.15-1.43,0-.2-.06-.4-.25-.61Z"/><path class="uuid-a0b6c63e-69ec-4c17-afaa-fb83a281f36e" d="m401.04,262.78c-7.38-8.07-21.42-3.14-30.28.4-1.07.43-.87,1.63.03,2.08,5.35,2.66,11.3,6.23,18,5.87,5.48-.3,8.85-3.32,12.36-6.3.55-.46.49-1.02.15-1.43,0-.2-.06-.4-.26-.61Z"/><path class="uuid-7e4e1201-fd47-4ddd-bed1-dea76989d1af" d="m323.1,206.71c-1.17-.2-1.97.83-1.63,1.62,2.04,4.73,3.81,10.48,9.3,13.54,4.49,2.5,9.51,1.84,14.61,1.27.8-.09,1.19-.54,1.26-1.04.15-.15.27-.34.29-.6.69-9.95-14.14-13.13-23.83-14.79Z"/><path class="uuid-a0b6c63e-69ec-4c17-afaa-fb83a281f36e" d="m379.6,284.81c-.05-.15-.14-.29-.33-.42-7.42-4.93-16.75.82-22.53,4.78-.7.48-.27,1.34.51,1.55,4.63,1.19,9.92,2.98,14.83,1.72,4.02-1.03,5.82-3.78,7.75-6.53.3-.43.12-.83-.22-1.09Z"/><path class="uuid-a0b6c63e-69ec-4c17-afaa-fb83a281f36e" d="m311.4,232.5c-1.16-.25-2.02.75-1.73,1.56,1.76,4.8,3.19,10.61,8.48,13.87,4.34,2.67,9.39,2.19,14.52,1.82.8-.06,1.22-.5,1.32-.99.16-.15.29-.33.32-.59,1.28-9.91-13.34-13.64-22.93-15.67Z"/><path class="uuid-7e4e1201-fd47-4ddd-bed1-dea76989d1af" d="m474.44,164.41c-8.64,3.87-21.61,10.38-17.23,19.72.12.24.3.39.5.51.25.45.8.8,1.59.69,5.09-.66,10.13-1.2,13.48-4.64,4.1-4.21,3.64-10.11,3.82-15.11.03-.84-1.12-1.63-2.17-1.17Z"/><path class="uuid-7e4e1201-fd47-4ddd-bed1-dea76989d1af" d="m492.38,185.34c-9.92.01-25.26.65-27.23,10.49-.05.26.01.46.12.64-.06.49.2,1,.96,1.22,4.84,1.4,9.57,2.89,14.62,1.19,6.18-2.07,9.44-7.4,12.69-11.68.55-.72.03-1.86-1.16-1.86Z"/><path class="uuid-a0b6c63e-69ec-4c17-afaa-fb83a281f36e" d="m486.28,249.32c-9.73-1.51-24.94-3.24-29.29,6.1-.11.24-.1.45-.04.64-.18.47-.05,1.02.64,1.35,4.41,2.12,8.68,4.31,14.05,3.42,6.57-1.09,11.07-5.8,15.32-9.51.71-.62.49-1.82-.69-2Z"/><path class="uuid-a0b6c63e-69ec-4c17-afaa-fb83a281f36e" d="m461.6,269.1c-9.73-1.51-24.94-3.24-29.29,6.1-.11.24-.1.45-.04.64-.18.47-.05,1.02.64,1.35,4.41,2.12,8.68,4.31,14.05,3.42,6.57-1.09,11.08-5.8,15.32-9.51.71-.62.49-1.82-.69-2Z"/><path class="uuid-7e4e1201-fd47-4ddd-bed1-dea76989d1af" d="m443.36,282.42c-9.74-1.51-24.94-3.25-29.29,6.1-.11.24-.1.46-.04.65-.18.47-.05,1.02.64,1.34,4.41,2.12,8.68,4.3,14.05,3.42,6.57-1.09,11.07-5.8,15.32-9.51.71-.62.49-1.82-.69-2Z"/><path class="uuid-a0b6c63e-69ec-4c17-afaa-fb83a281f36e" d="m402.11,291.6c-.15.11-.22.23-.26.35-.28.22-.41.56-.15.9,1.67,2.22,3.23,4.45,6.57,5.22,4.07.94,8.37-.63,12.13-1.7.64-.18.96-.9.37-1.28-4.87-3.14-12.71-7.69-18.66-3.49Z"/><path class="uuid-a0b6c63e-69ec-4c17-afaa-fb83a281f36e" d="m391.9,291.6c-5.04-4.19-11.69.35-15.82,3.49-.5.38-.22,1.1.31,1.28,3.19,1.07,6.83,2.64,10.29,1.7,2.83-.77,4.16-3,5.57-5.22.22-.34.11-.68-.13-.9-.03-.12-.09-.24-.22-.35Z"/><path class="uuid-7e4e1201-fd47-4ddd-bed1-dea76989d1af" d="m482.73,207.36c-9.59,2.03-24.2,5.76-22.92,15.67.03.26.16.44.32.59.1.49.52.93,1.32.99,5.13.37,10.18.85,14.52-1.82,5.3-3.26,6.73-9.06,8.48-13.87.3-.81-.57-1.81-1.73-1.56Z"/><path class="uuid-a0b6c63e-69ec-4c17-afaa-fb83a281f36e" d="m482.73,223.71c-9.59,2.03-24.2,5.76-22.92,15.67.03.26.16.44.32.59.1.49.52.93,1.32.99,5.13.37,10.18.85,14.52-1.82,5.3-3.26,6.73-9.06,8.48-13.87.3-.81-.57-1.81-1.73-1.56Z"/><path class="uuid-a0b6c63e-69ec-4c17-afaa-fb83a281f36e" d="m367.66,272.55c-7.45-8.03-21.45-3.03-30.28.55-1.07.43-.86,1.63.04,2.07,5.37,2.63,11.35,6.18,18.04,5.78,5.48-.32,8.82-3.36,12.31-6.36.54-.47.48-1.02.14-1.43,0-.2-.07-.4-.26-.61Z"/><path class="uuid-a0b6c63e-69ec-4c17-afaa-fb83a281f36e" d="m355.15,264.63c-5.41-9-20.34-6.18-29.87-3.97-1.15.27-1.24,1.47-.45,2.04,4.65,3.38,9.68,7.76,16.35,8.37,5.46.5,9.46-1.99,13.6-4.41.65-.38.71-.93.48-1.39.04-.19.03-.4-.11-.64Z"/><path class="uuid-a0b6c63e-69ec-4c17-afaa-fb83a281f36e" d="m413.23,103.73c-2.35,2.54-5.46,5.34-5.48,8.69-.01,2.74,2.23,4.55,4.44,6.44.34.29.79.29,1.13.14.16,0,.32-.01.49-.1,6.74-3.31,3.47-10.52,1.05-15.09-.29-.55-1.25-.51-1.65-.08Z"/><path class="uuid-a0b6c63e-69ec-4c17-afaa-fb83a281f36e" d="m455.09,180.27c-3.13,1.95-7.07,3.99-8.22,7.21-.94,2.64.61,4.86,2.1,7.14.23.36.66.45,1.04.38.15.04.31.05.51,0,7.62-1.76,6.9-9.4,6.12-14.32-.1-.59-1.04-.76-1.56-.43Z"/><path class="uuid-7e4e1201-fd47-4ddd-bed1-dea76989d1af" d="m411.51,195.25c-1.87,2.78-4.45,5.9-3.87,9.22.48,2.71,3.03,4.26,5.55,5.87.4.25.83.2,1.15.01.16-.01.31-.05.47-.15,6.08-4.03,1.55-10.81-1.66-15.06-.39-.51-1.33-.36-1.65.11Z"/><path class="uuid-a0b6c63e-69ec-4c17-afaa-fb83a281f36e" d="m355,153.87c-1.04-.47-2.2.33-2.17,1.17.18,5-.27,10.9,3.82,15.11,3.35,3.44,8.39,3.98,13.48,4.64.79.1,1.34-.24,1.59-.7.2-.11.39-.26.5-.51,4.38-9.34-8.59-15.85-17.23-19.72Z"/><path class="uuid-7e4e1201-fd47-4ddd-bed1-dea76989d1af" d="m415.33,142.74c-4.99,3.09-11.43,6.35-12.38,11.22-.78,3.98,2.82,7.2,6.34,10.51.55.52,1.35.62,2.03.5.28.05.59.06.93-.02,13.21-3.06,9.21-14.4,6.07-21.67-.38-.88-2.15-1.07-2.99-.55Z"/><path class="uuid-a0b6c63e-69ec-4c17-afaa-fb83a281f36e" d="m366.44,113.19c-.85-.28-1.97.45-2.06,1.11-.53,3.95-1.75,8.66,1.27,11.64,2.47,2.44,6.82,2.43,11.2,2.51.69.01,1.21-.31,1.5-.69.19-.11.38-.24.51-.44,5.14-7.78-5.35-11.81-12.41-14.13Z"/><path class="uuid-a0b6c63e-69ec-4c17-afaa-fb83a281f36e" d="m364.69,207.57c-.85-.28-1.98.45-2.07,1.11-.53,3.95-1.75,8.66,1.27,11.64,2.47,2.44,6.82,2.43,11.2,2.51.68.01,1.21-.31,1.49-.69.2-.11.38-.24.51-.45,5.14-7.78-5.35-11.81-12.41-14.13Z"/><path class="uuid-a0b6c63e-69ec-4c17-afaa-fb83a281f36e" d="m343.46,276.93c-3.82-.22-7.76-.15-11.76.17-3.53.27-7.67.46-11.25,3.03-6.99,5.01-7.36,15.79-7.51,21.91-.17,7.22,1.05,14,3.49,19.96,2.63,6.42,6.68,11.89,11.94,15.95,10.81,8.31,29.06,11.62,45.33-.84.52-.4,2.9-2.89,3.13-3.33,3.33-6.33,5.81-11.99,7.21-17.14,2.18-8.05,1.71-14.84-2.3-21-7.94-12.24-22.45-17.84-38.28-18.73Z"/><path class="uuid-7e4e1201-fd47-4ddd-bed1-dea76989d1af" d="m346.99,336.21c-6.65.39-12.31-1.7-17.31-4.53-4.71-2.66-9.58-5.71-13.25-9.68,2.63,6.42,6.68,11.89,11.94,15.95,10.81,8.31,29.06,11.62,45.33-.84.52-.4,2.9-2.89,3.13-3.33,3.33-6.33,5.81-11.99,7.21-17.14-5.04,4.91-10.73,8.77-16.69,12.07-6.67,3.69-13.65,7.1-20.36,7.48Z"/><path class="uuid-7e4e1201-fd47-4ddd-bed1-dea76989d1af" d="m328.82,269.4c-.41-.25-1.13.11-1.19.76-.47,5.41-.81,13.72,5.09,14.13.15.01.28-.04.39-.11.3,0,.62-.18.79-.61,1.09-2.73,2.22-5.41,1.43-8.05-.97-3.22-4.06-4.64-6.51-6.12Z"/><path class="uuid-a0b6c63e-69ec-4c17-afaa-fb83a281f36e" d="m354.7,272.65c-.41-.25-1.13.11-1.19.76-.47,5.41-.82,13.72,5.09,14.13.15.01.28-.04.39-.11.3,0,.62-.18.79-.61,1.09-2.73,2.22-5.41,1.43-8.05-.97-3.23-4.05-4.64-6.51-6.12Z"/><path class="uuid-a0b6c63e-69ec-4c17-afaa-fb83a281f36e" d="m368.28,276.47c-2.03,5.04-4.8,12.89.73,15,.14.06.28.04.41.01.28.08.65.01.93-.35,1.84-2.3,3.7-4.52,3.72-7.28.02-3.37-2.52-5.63-4.43-7.76-.32-.36-1.11-.23-1.36.38Z"/><path class="uuid-a0b6c63e-69ec-4c17-afaa-fb83a281f36e" d="m323.52,277.65c-2.94-1.64-6.14-.5-8.94.15-.47.11-.74.87-.32,1.38,3.43,4.2,8.98,10.41,13.5,6.58.12-.1.17-.22.2-.35.21-.21.32-.56.15-.98-1.13-2.72-2.18-5.43-4.59-6.77Z"/><path class="uuid-a0b6c63e-69ec-4c17-afaa-fb83a281f36e" d="m307.84,292.64c-.62.11-.85.83-.55,1.2,1.8,2.22,3.63,5.05,6.88,5.7,2.66.54,5.06-.76,7.52-2.03.38-.2.5-.52.46-.81.05-.11.08-.24.04-.38-1.29-5.6-9.23-4.58-14.36-3.68Z"/><path class="uuid-7e4e1201-fd47-4ddd-bed1-dea76989d1af" d="m310.29,315.08c-.62.11-.85.83-.55,1.2,1.8,2.22,3.63,5.05,6.88,5.7,2.66.54,5.06-.76,7.52-2.03.38-.2.5-.52.46-.81.05-.11.08-.24.05-.38-1.29-5.6-9.23-4.58-14.36-3.68Z"/><path class="uuid-a0b6c63e-69ec-4c17-afaa-fb83a281f36e" d="m360.94,327.43c-.07-.1-.16-.19-.31-.23-5.48-1.72-8.62,5.64-10.44,10.52-.22.59.28,1.15.75,1.08,2.83-.43,6.19-.57,8.41-3.04,1.81-2.02,1.9-4.75,2.06-7.51.02-.43-.19-.7-.46-.81Z"/><path class="uuid-7e4e1201-fd47-4ddd-bed1-dea76989d1af" d="m368.27,337.38c-.12-.1-.27-.17-.47-.21-7.68-1.44-10.09,5.85-11.35,10.66-.15.58.64,1.11,1.26,1.02,3.65-.53,8.08-.82,10.42-3.31,1.92-2.04,1.39-4.7.94-7.39-.07-.42-.43-.67-.8-.76Z"/><path class="uuid-7e4e1201-fd47-4ddd-bed1-dea76989d1af" d="m347.02,340.58c-6.28-4.65-11.63.85-14.87,4.63-.39.46.1,1.28.69,1.47,3.52,1.11,7.62,2.79,10.82,1.57,2.62-1,3.3-3.62,4.07-6.24.12-.41-.09-.79-.39-1.04-.07-.14-.16-.28-.32-.39Z"/><path class="uuid-7e4e1201-fd47-4ddd-bed1-dea76989d1af" d="m328.67,333.8c-3.4-6.01-9.7-3.48-13.66-1.58-.48.23-.38,1.07.03,1.43,2.44,2.16,5.16,4.98,8.17,5.15,2.47.13,3.96-1.74,5.52-3.58.24-.29.21-.67.06-.98,0-.13-.03-.28-.12-.44Z"/><path class="uuid-7e4e1201-fd47-4ddd-bed1-dea76989d1af" d="m350.98,285.04c-.41-.37-1.23,0-1.46.51-1.34,3.02-3.26,6.53-2.33,9.42.76,2.36,3.22,3.13,5.68,3.97.38.13.76-.03,1.03-.28.14-.05.28-.12.4-.26,4.94-5.23.06-10.28-3.32-13.37Z"/><path class="uuid-7e4e1201-fd47-4ddd-bed1-dea76989d1af" d="m368.96,296.93c-1.85,2.73-4.37,5.84-3.97,8.85.33,2.46,2.61,3.66,4.88,4.92.35.2.76.11,1.06-.09.14-.02.29-.07.44-.19,5.79-4.26,1.9-10.11-.88-13.74-.34-.44-1.22-.22-1.53.24Z"/><path class="uuid-a0b6c63e-69ec-4c17-afaa-fb83a281f36e" d="m326.9,287.34c-.55-.08-1.02.69-.92,1.24.58,3.25.95,7.23,3.33,9.11,1.95,1.54,4.42.8,6.93.12.39-.1.62-.45.7-.8.09-.12.16-.26.19-.44,1.18-7.09-5.7-8.56-10.22-9.23Z"/><path class="uuid-a0b6c63e-69ec-4c17-afaa-fb83a281f36e" d="m349.36,315.09c-3.98-6-10-2.39-13.77.21-.46.31-.28,1.2.17,1.54,2.64,1.98,5.62,4.65,8.65,4.4,2.48-.2,3.78-2.43,5.16-4.63.21-.34.15-.75-.04-1.06-.02-.15-.06-.3-.16-.45Z"/><path class="uuid-7e4e1201-fd47-4ddd-bed1-dea76989d1af" d="m385.9,545.76h24.14s-17.76-276.36-19.31-296.3c0,0,2.16,215.41-4.82,296.3Z"/><path class="uuid-7e4e1201-fd47-4ddd-bed1-dea76989d1af" d="m394.99,317.12c3.15-11.79,18.46-42.9,22.4-50.82-6.04,11.54-23.54,34.94-23.54,34.94l1.13,15.87Z"/><path class="uuid-7e4e1201-fd47-4ddd-bed1-dea76989d1af" d="m417.4,266.3c.34-.66.67-1.29.93-1.87,0,0-.34.68-.93,1.87Z"/><path class="uuid-7e4e1201-fd47-4ddd-bed1-dea76989d1af" d="m392.8,364.15l1.13-15.88s-13.96-13.19-29.1-26.59c0,0,19.25,28.92,27.96,42.47Z"/><path class="uuid-7e4e1201-fd47-4ddd-bed1-dea76989d1af" d="m392.4,299.6l.68-9.53s-11.41-15.36-14.35-21.75c0,0,11.49,23.14,13.67,31.28Z"/><path class="uuid-a0b6c63e-69ec-4c17-afaa-fb83a281f36e" d="m460.93,489.97c-2.38-.92-6.07-.69-8.44.13-3.01,1.04-4.53,3.58-5.85,6.3-.01.02-.01.04-.02.06-1.57.72-3.09,1.52-4.56,2.38.49-1.66.78-3.39.75-5.19-.03-1.76-.29-6.92-3.33-6.19-2.27.55-3.98,5.48-4.55,7.42-.87,2.9-.69,5.8.76,8.39-2.66,2.15-5.12,4.55-7.38,7.13.21-1.54.24-3.11.01-4.72-.24-1.74-1.13-6.84-4.07-5.73-2.19.82-3.27,5.92-3.61,7.92-.54,3.21.11,6.3,2.22,8.79-.19.31-.25.68-.16,1.03-1.6,2.36-3.1,4.82-4.48,7.34-.08.15-.15.29-.23.43-.11-1.73-.44-3.45-1.09-5.13-.63-1.65-2.66-6.4-5.27-4.67-1.94,1.29-1.84,6.51-1.72,8.52.21,3.25,1.54,6.11,4.15,8.07-.08.25-.08.52-.01.78-.98,2-1.91,3.99-2.82,6.03-.37-1.33-.89-2.62-1.6-3.86-.75-1.31-2.84-4.7-4.88-4.35-.67-2.28-4.77-2.18-7.07-1.58-2.25.59-4.32,1.6-6.19,2.91.85-3.91,1.73-7.82,2.67-11.71,5.15-.04,15.57-3.13,15.71-7.14.11-3.09-4.64-3.03-7.17-2.36-2.61.68-4.96,1.92-7.05,3.54.82-3.18,1.71-6.34,2.63-9.48,5.43.35,14.62-1.22,15.31-4.85.57-3.04-4.13-3.68-6.73-3.4-2.33.25-4.55.95-6.6,1.97,1.15-3.36,2.44-6.67,3.94-9.87,5.23,1.54,14.44,2.07,15.92-1.3,1.25-2.83-3.18-4.52-5.79-4.83-2.45-.3-4.87-.08-7.21.52,1.92-3.32,4.1-6.46,6.6-9.35,4.56,2.43,15.12,4.69,17.18,1.25,1.59-2.66-2.6-4.87-5.15-5.51-2.48-.62-5-.68-7.48-.33,1.86-1.65,3.87-3.2,6.04-4.57.1.04.21.07.32.08,3.02.13,7.02-.12,9.43-2.15,1.9-1.6,2.78-4.98,2.17-7.36-.11-.43-.49-.83-.93-.93-2.5-.55-6.1.24-8.32,1.42-2.81,1.49-3.92,4.23-4.8,7.12,0,.02,0,.04-.01.07-1.45.96-2.82,1.98-4.14,3.05.23-1.72.25-3.47-.06-5.24-.3-1.74-1.35-6.8-4.25-5.6-2.16.89-3.09,6.03-3.36,8.02-.41,3,.22,5.84,2.05,8.18-2.3,2.54-4.35,5.28-6.19,8.17-.03-1.56-.25-3.11-.71-4.66-.51-1.69-2.18-6.58-4.91-5.04-2.04,1.15-2.32,6.36-2.34,8.38-.03,3.26,1.08,6.2,3.55,8.35-.13.33-.14.71,0,1.04-1.22,2.58-2.32,5.24-3.3,7.94-.06.16-.11.32-.16.48-.38-1.7-.96-3.35-1.87-4.92-.88-1.53-3.61-5.92-5.92-3.8-1.72,1.57-.82,6.72-.38,8.69.7,3.18,2.46,5.8,5.35,7.33-.04.29,0,.59.14.86-.65,2.11-1.27,4.24-1.85,6.38-.58-1.28-1.31-2.5-2.22-3.64-1.1-1.38-4.46-5.31-6.43-2.87-1.46,1.82.2,6.76.93,8.65,1.07,2.77,2.94,4.93,5.59,6.12-.89,3.67-1.72,7.35-2.51,11.05-.63-1.64-1.46-3.2-2.6-4.64-.13-.17-.3-.38-.5-.6,0-.92-.13-1.74-.56-2.27-.76-.94-1.72-.93-2.68-.49-.96-.44-1.93-.45-2.68.49-.43.53-.57,1.35-.56,2.27-.19.23-.36.44-.5.6-1.14,1.43-1.98,2.99-2.61,4.64-.79-3.7-1.62-7.38-2.51-11.05,2.65-1.19,4.52-3.35,5.59-6.12.73-1.88,2.4-6.83.93-8.65-1.96-2.44-5.33,1.5-6.43,2.87-.91,1.14-1.64,2.36-2.22,3.64-.58-2.14-1.2-4.26-1.85-6.38.13-.26.18-.56.14-.86,2.89-1.53,4.64-4.15,5.35-7.33.44-1.97,1.34-7.11-.38-8.69-2.31-2.12-5.04,2.27-5.92,3.8-.9,1.57-1.49,3.22-1.87,4.92-.06-.16-.11-.32-.16-.48-.98-2.7-2.08-5.36-3.29-7.94.14-.33.14-.71,0-1.04,2.47-2.15,3.58-5.09,3.54-8.35-.02-2.02-.31-7.23-2.34-8.38-2.73-1.54-4.39,3.35-4.91,5.04-.47,1.55-.69,3.11-.72,4.66-1.84-2.9-3.89-5.64-6.19-8.17,1.83-2.34,2.46-5.18,2.05-8.18-.27-2-1.2-7.13-3.36-8.02-2.9-1.19-3.95,3.87-4.25,5.6-.31,1.78-.29,3.53-.06,5.24-1.31-1.08-2.69-2.1-4.14-3.05,0-.02,0-.04-.01-.07-.88-2.88-1.99-5.63-4.8-7.12-2.22-1.18-5.82-1.96-8.32-1.42-.44.1-.82.5-.93.93-.61,2.38.27,5.76,2.17,7.36,2.41,2.04,6.42,2.29,9.43,2.15.11,0,.22-.04.32-.08,2.18,1.38,4.17,2.92,6.04,4.57-2.48-.34-5.01-.28-7.48.33-2.55.64-6.74,2.85-5.15,5.51,2.05,3.44,12.62,1.18,17.18-1.25,2.5,2.88,4.69,6.02,6.6,9.35-2.34-.6-4.77-.82-7.21-.52-2.61.32-7.04,2-5.79,4.83,1.48,3.37,10.69,2.84,15.92,1.3,1.5,3.2,2.79,6.51,3.94,9.87-2.06-1.02-4.27-1.72-6.61-1.97-2.61-.28-7.31.37-6.73,3.4.69,3.63,9.87,5.2,15.3,4.85.92,3.14,1.81,6.3,2.63,9.48-2.09-1.62-4.44-2.86-7.05-3.54-2.54-.67-7.28-.73-7.17,2.36.14,4.01,10.56,7.11,15.71,7.14.94,3.89,1.82,7.8,2.67,11.71-1.87-1.31-3.94-2.32-6.19-2.91-2.41-.63-6.8-.72-7.14,1.92-1.49.87-2.8,3.02-3.36,4.01-.71,1.24-1.23,2.54-1.6,3.86-.91-2.04-1.84-4.03-2.82-6.03.06-.26.07-.53-.01-.78,2.62-1.96,3.95-4.81,4.15-8.07.13-2.01.23-7.23-1.72-8.52-2.61-1.73-4.63,3.02-5.26,4.67-.65,1.69-.98,3.4-1.09,5.13-.08-.14-.15-.28-.23-.43-1.38-2.52-2.88-4.97-4.48-7.34.09-.35.03-.72-.16-1.03,2.11-2.5,2.75-5.58,2.22-8.79-.33-1.99-1.42-7.09-3.61-7.92-2.93-1.1-3.83,3.99-4.07,5.73-.22,1.6-.2,3.18.01,4.72-2.26-2.58-4.71-4.97-7.38-7.13,1.45-2.59,1.63-5.49.76-8.39-.57-1.94-2.28-6.87-4.55-7.42-3.05-.73-3.31,4.43-3.33,6.19-.03,1.81.26,3.53.75,5.19-1.46-.87-2.98-1.66-4.56-2.38,0-.02-.01-.04-.02-.06-1.32-2.71-2.84-5.25-5.85-6.3-2.37-.82-6.06-1.05-8.44-.13-.42.16-.74.62-.78,1.06-.24,2.44,1.15,5.65,3.27,6.94,2.7,1.64,6.69,1.28,9.65.68.11-.02.21-.07.31-.13,2.36,1.03,4.57,2.24,6.67,3.6-2.5.04-4.99.48-7.34,1.47-2.42,1.02-6.21,3.85-4.23,6.23,2.56,3.08,12.65-.77,16.78-3.87,2.92,2.46,5.56,5.23,7.96,8.22-2.4-.23-4.83-.08-7.2.59-2.52.71-6.64,3.06-4.97,5.67,1.99,3.1,11,1.17,15.93-1.16,1.97,2.93,3.76,6,5.42,9.14-2.19-.69-4.48-1.05-6.83-.94-2.62.13-7.17,1.48-6.13,4.4,1.24,3.49,10.58,3.62,15.89,2.44,1.49,3.15,2.75,5.96,4.03,8.96-2.31-1.27-4.82-2.14-7.5-2.41-2.61-.27-7.31.39-6.72,3.43.76,3.95,11.57,5.41,16.65,4.65.73.95,2.68-.04,2.5-1.22-.11-.28-.22-.53-.33-.8,1.76-1.14,3.03-2.71,3.84-4.59-.03.18-.05.37-.04.57.14,3.85,9.72,6.86,15.06,7.13.61.6,1.77.29,2.13-.54.71-.49,1.66-1.27,2.63-2.18.97.91,1.92,1.69,2.63,2.18.36.83,1.52,1.14,2.13.54,5.33-.28,14.92-3.29,15.05-7.13.11-3.09-4.63-3.02-7.17-2.36-2.32.61-4.44,1.67-6.36,3.04.33-1.62.66-3.25,1-4.87,3.81-.26,9.52-1.82,12.6-4.05-.05,1.97.35,4.21.6,5.37.63,2.9,2.14,5.32,4.57,6.9-.11.27-.22.53-.33.8-.18,1.18,1.76,2.17,2.5,1.22,5.09.76,15.89-.7,16.65-4.65.58-3.04-4.11-3.7-6.72-3.43-2.67.28-5.19,1.14-7.5,2.41,1.28-3,2.54-5.81,4.03-8.96,5.31,1.18,14.65,1.05,15.89-2.44,1.04-2.92-3.51-4.27-6.13-4.4-2.35-.11-4.64.24-6.83.94,1.65-3.15,3.44-6.22,5.42-9.14,4.93,2.33,13.95,4.26,15.93,1.16,1.67-2.61-2.45-4.95-4.97-5.67-2.37-.67-4.8-.82-7.2-.59,2.4-2.99,5.04-5.76,7.96-8.22,4.13,3.1,14.22,6.95,16.78,3.87,1.98-2.38-1.82-5.22-4.24-6.23-2.35-.99-4.83-1.44-7.34-1.47,2.1-1.35,4.31-2.57,6.67-3.6.1.05.2.11.31.13,2.96.59,6.95.96,9.65-.68,2.12-1.29,3.52-4.5,3.27-6.94-.04-.44-.35-.9-.78-1.06Zm-90.72,50.59c-2.15-.56-5.86-.69-6.89,1.15.2-.54.37-1.09.49-1.67.21-.98.54-2.75.6-4.47,3.21,1.74,7.89,2.93,11.16,3.15.34,1.62.67,3.25,1,4.87-1.92-1.37-4.04-2.43-6.36-3.04Zm12.64-5.76c-.11-.11-.22-.21-.33-.31.11-.13.23-.25.33-.38.1.13.22.25.33.38-.11.1-.22.21-.33.31Z"/></g><rect class="uuid-46c4c779-7d2c-4ab1-800e-0474542c7233" x="339.39" y="62.38" width="282.74" height="364.62"/><polygon class="uuid-bdf34b74-a2ce-402c-88ed-e530e5d09b73" points="408.04 420.42 437.64 420.42 563.44 66.55 533.83 66.55 408.04 420.42"/><polygon class="uuid-bdf34b74-a2ce-402c-88ed-e530e5d09b73" points="370.57 420.42 385.37 420.42 511.17 66.55 496.36 66.55 370.57 420.42"/><polygon class="uuid-bdf34b74-a2ce-402c-88ed-e530e5d09b73" points="514.41 420.42 529.21 420.42 621.88 125.38 618.73 104.83 514.41 420.42"/><rect class="uuid-bb11fbdc-283f-4992-a1c2-a28558c96cd5" x="335.04" y="58.21" width="8.34" height="373.5"/><rect class="uuid-bb11fbdc-283f-4992-a1c2-a28558c96cd5" x="429.29" y="60.09" width="8.34" height="369.73"/><rect class="uuid-bb11fbdc-283f-4992-a1c2-a28558c96cd5" x="335.04" y="58.21" width="291.09" height="8.35"/><rect class="uuid-bb11fbdc-283f-4992-a1c2-a28558c96cd5" x="335.04" y="422.83" width="291.09" height="8.34"/><rect class="uuid-bb11fbdc-283f-4992-a1c2-a28558c96cd5" x="523.54" y="60.09" width="8.34" height="369.73"/><rect class="uuid-bb11fbdc-283f-4992-a1c2-a28558c96cd5" x="335.04" y="240.78" width="291.09" height="8.35"/><rect class="uuid-7e4e1201-fd47-4ddd-bed1-dea76989d1af" x="343.43" y="249.13" width="274.31" height="2.95"/><rect class="uuid-7e4e1201-fd47-4ddd-bed1-dea76989d1af" x="343.43" y="420.42" width="274.31" height="2.95"/><rect class="uuid-7e4e1201-fd47-4ddd-bed1-dea76989d1af" x="343.35" y="66.55" width="274.47" height="2.95"/><rect class="uuid-7e4e1201-fd47-4ddd-bed1-dea76989d1af" x="-29.62" y="149.35" width="215.06" height="129.65"/><rect class="uuid-78e82c12-02dc-48cf-bbc1-ab6a2f9f39bb" x="-18.94" y="160.14" width="193.7" height="108.07"/><rect class="uuid-a0b6c63e-69ec-4c17-afaa-fb83a281f36e" x="-1.73" y="174.81" width="159.27" height="78.74"/><path class="uuid-7e4e1201-fd47-4ddd-bed1-dea76989d1af" d="m52.2,227.34l-11.07,11.75-13.81-21.88c-.91-1.44-2.99-1.48-3.95-.08L-1.73,253.55h71.88l-14.16-25.72c-.77-1.41-2.7-1.65-3.8-.48Z"/><path class="uuid-bb11fbdc-283f-4992-a1c2-a28558c96cd5" d="m39.05,185.47c-4.34,0-7.86,3.52-7.86,7.86s3.52,7.86,7.86,7.86,7.86-3.52,7.86-7.86-3.52-7.86-7.86-7.86Z"/><path class="uuid-bb11fbdc-283f-4992-a1c2-a28558c96cd5" d="m99.55,192.01c-1.69-.47-2.39-2.11-3.95-2.83-1.39-.64-2.92-.7-4.36-.21-.78.26-1.16.53-1.91,1.01-1.54.97-1.22,1.03-2.94,1.27-1.38.19-2.29.41-3.6.81-2.44.76-9.51.1-10.73,3.16-1.08,2.71,2.76,2.2,4.06,2.31,2.23.19,4.04,1.54,6.27,1.59,2.03.05,3.98-.77,5.82-1.59,1.85,0,3.69.02,5.54-.01,3.03-.06,6.53.23,9.5-.33.83-.16,1.71-.27,2.11-1.12,1.63-3.46-4.39-3.67-5.8-4.06Z"/><path class="uuid-bb11fbdc-283f-4992-a1c2-a28558c96cd5" d="m126.99,197.76c-.68-.26-1.4-.22-2.11-.11-.62.1-1.36.56-1.98.6-.8.05-1.5-.38-2.26-.5-1.94-.3-3.7.22-5.45.95-.98-.25-1.98-.24-2.8.53-.89.84-.96,2.11-.13,3,1.16,1.24,3.67,1.38,5.24,1.53,2.72.26,5.87.03,8.48-.82,2.41-.79,4.29-3.92,1.01-5.17Z"/><path class="uuid-7e4e1201-fd47-4ddd-bed1-dea76989d1af" d="m123.84,237.04l-5.03,7.83-11.88-19.38c-.58-.95-1.97-.92-2.52.05l-15.66,28.01h45.37l-7.75-16.35c-.49-1.03-1.92-1.13-2.54-.17Z"/><path class="uuid-7e4e1201-fd47-4ddd-bed1-dea76989d1af" d="m147.17,223.28l-13.05,30.27h23.41v-8.68l-7.66-21.5c-.44-1.25-2.19-1.3-2.71-.09Z"/><path class="uuid-a0b6c63e-69ec-4c17-afaa-fb83a281f36e" d="m244.54,121.31c-25.77,0-46.73-20.96-46.73-46.73h-2.31c0,27.04,22,49.04,49.04,49.04s49.04-22,49.04-49.04h-2.31c0,25.77-20.96,46.73-46.73,46.73Z"/><polygon class="uuid-7e4e1201-fd47-4ddd-bed1-dea76989d1af" points="170.68 87.46 307.05 87.46 245.2 36.22 170.68 87.46"/><g class="uuid-e7fd558a-7a93-4dbb-8be0-d87b3c3ecc12"><polygon class="uuid-14a1d944-ffdd-492d-8cb6-d6a5687b1f5a" points="213.05 80.22 151.32 290.75 341.26 290.75 275.94 80.22 213.05 80.22"/></g><polygon class="uuid-a0b6c63e-69ec-4c17-afaa-fb83a281f36e" points="242.03 29.89 242.03 38.39 242.03 38.6 242.03 42.53 242.03 43 242.03 51.99 248.04 51.99 248.04 43 248.04 42.55 248.04 38.56 248.04 38.34 248.04 29.88 248.04 .27 242.03 2.97 242.03 29.89"/><path class="uuid-41011722-4fc3-49b6-bcdd-dceee3aa2512" d="m247.99,43h-5.91c-3.92,0-7.11,3.18-7.11,7.1v14.69h20.12v-14.69c0-3.92-3.18-7.1-7.11-7.1Z"/><path class="uuid-a0b6c63e-69ec-4c17-afaa-fb83a281f36e" d="m245.31,77.47c-6.47,0-11.72,5.25-11.72,11.72s5.25,11.72,11.72,11.72,11.72-5.25,11.72-11.72-5.25-11.72-11.72-11.72Z"/><path class="uuid-bb11fbdc-283f-4992-a1c2-a28558c96cd5" d="m252.45,90.91c-.72,2.93-4.53,5.11-7.3,5.61-1.06.19-.61,1.8.44,1.61,3.35-.61,7.62-3.29,8.47-6.78.26-1.05-1.36-1.49-1.61-.44Z"/><polygon class="uuid-a0b6c63e-69ec-4c17-afaa-fb83a281f36e" points="177.02 87.46 313.39 87.46 245.2 36.22 177.02 87.46"/><rect class="uuid-a0b6c63e-69ec-4c17-afaa-fb83a281f36e" x="238.87" y="29.88" width="12.67" height="12.67" rx="3.53" ry="3.53"/></g><path class="uuid-bb11fbdc-283f-4992-a1c2-a28558c96cd5" d="m519.64,25.91H143.43c-6.57,0-11.91,5.35-11.91,11.93v274.06c0,5.08,4.13,9.21,9.2,9.21h381.64c5.08,0,9.21-4.13,9.21-9.21V37.82c0-6.57-5.35-11.91-11.93-11.91Z"/><path class="uuid-6d1482a0-7230-4591-ab45-e945cbe7af7a" d="m519.64,25.3H143.43c-6.91,0-12.52,5.61-12.52,12.53v274.06c0,5.42,4.39,9.82,9.8,9.82h381.64c5.41,0,9.81-4.4,9.81-9.82V37.82c0-6.91-5.61-12.51-12.53-12.51Zm11.32,286.59c0,4.75-3.86,8.61-8.61,8.61H140.72c-4.74,0-8.59-3.86-8.59-8.61V37.83c0-6.24,5.07-11.32,11.31-11.32h376.21c6.24,0,11.32,5.07,11.32,11.31v274.07Z"/><path class="uuid-6d1482a0-7230-4591-ab45-e945cbe7af7a" d="m519.64,25.3H143.44c-6.92,0-12.52,5.61-12.52,12.53v30.62h401.25v-30.62c0-6.92-5.61-12.53-12.52-12.53Z"/><path class="uuid-7e4e1201-fd47-4ddd-bed1-dea76989d1af" d="m206.55,40.25c-3.66,0-6.63,2.97-6.63,6.63s2.97,6.63,6.63,6.63,6.63-2.97,6.63-6.63-2.97-6.63-6.63-6.63Z"/><path class="uuid-3dc262c7-478f-4a77-a3b4-07a6486b24c7" d="m181.05,40.25c-3.66,0-6.63,2.97-6.63,6.63s2.97,6.63,6.63,6.63,6.63-2.97,6.63-6.63-2.97-6.63-6.63-6.63Z"/><path class="uuid-bb11fbdc-283f-4992-a1c2-a28558c96cd5" d="m155.56,40.85c-3.32,0-6.02,2.7-6.02,6.02s2.7,6.02,6.02,6.02,6.02-2.7,6.02-6.02-2.7-6.02-6.02-6.02Z"/><path class="uuid-6d1482a0-7230-4591-ab45-e945cbe7af7a" d="m155.56,40.25c-3.66,0-6.63,2.97-6.63,6.63s2.97,6.63,6.63,6.63,6.63-2.97,6.63-6.63-2.97-6.63-6.63-6.63Zm0,12.05c-2.99,0-5.42-2.43-5.42-5.42s2.43-5.42,5.42-5.42,5.42,2.43,5.42,5.42-2.43,5.42-5.42,5.42Z"/><polygon class="uuid-bb11fbdc-283f-4992-a1c2-a28558c96cd5" points="513.25 39.61 508.56 44.29 503.87 39.61 501.45 42.03 506.13 46.71 501.45 51.4 503.87 53.82 508.56 49.14 513.25 53.82 515.67 51.4 510.99 46.71 515.67 42.03 513.25 39.61"/><path class="uuid-6d1482a0-7230-4591-ab45-e945cbe7af7a" d="m513.25,38.75l-4.69,4.69-4.69-4.69-3.28,3.28,4.69,4.69-4.69,4.69,3.28,3.28,4.69-4.69,4.69,4.69,3.28-3.28-4.69-4.69,4.69-4.69-3.28-3.28Zm-2.26,8.82l3.83,3.83-1.57,1.57-3.83-3.83-.85-.85-.86.85-3.83,3.83-1.57-1.57,3.83-3.83.85-.86-.85-.85-3.83-3.83,1.57-1.57,3.83,3.83.86.85.85-.85,3.83-3.83,1.57,1.57-3.83,3.83-.86.85.86.86Z"/><g class="uuid-4204a6f7-8f16-4cb8-92a6-7468ddee5b00"><rect class="uuid-6d1482a0-7230-4591-ab45-e945cbe7af7a" x="197.37" y="83.89" width="1.24" height="227.66"/></g><g class="uuid-4204a6f7-8f16-4cb8-92a6-7468ddee5b00"><rect class="uuid-6d1482a0-7230-4591-ab45-e945cbe7af7a" x="265.42" y="83.89" width="1.24" height="227.66"/></g><g class="uuid-4204a6f7-8f16-4cb8-92a6-7468ddee5b00"><rect class="uuid-6d1482a0-7230-4591-ab45-e945cbe7af7a" x="333.47" y="83.89" width="1.24" height="227.66"/></g><g class="uuid-4204a6f7-8f16-4cb8-92a6-7468ddee5b00"><rect class="uuid-6d1482a0-7230-4591-ab45-e945cbe7af7a" x="401.51" y="83.89" width="1.24" height="227.66"/></g><g class="uuid-4204a6f7-8f16-4cb8-92a6-7468ddee5b00"><rect class="uuid-6d1482a0-7230-4591-ab45-e945cbe7af7a" x="469.56" y="83.89" width="1.24" height="227.66"/></g><g class="uuid-4204a6f7-8f16-4cb8-92a6-7468ddee5b00"><rect class="uuid-6d1482a0-7230-4591-ab45-e945cbe7af7a" x="141.15" y="153.49" width="378.31" height="1.58"/></g><g class="uuid-4204a6f7-8f16-4cb8-92a6-7468ddee5b00"><rect class="uuid-6d1482a0-7230-4591-ab45-e945cbe7af7a" x="141.15" y="232.92" width="378.31" height="1.58"/></g><path class="uuid-bb11fbdc-283f-4992-a1c2-a28558c96cd5" d="m300.06,99.05c-5.71.04-11.06,2.3-15.07,6.36-4.01,4.07-6.19,9.45-6.15,15.16.08,11.7,9.67,21.22,21.37,21.22h.15c5.71-.04,11.06-2.3,15.07-6.37,4.01-4.06,6.19-9.45,6.15-15.16-.08-11.7-9.67-21.22-21.52-21.22Z"/><path class="uuid-6d1482a0-7230-4591-ab45-e945cbe7af7a" d="m300.21,98.5c-.05,0-.1,0-.16,0-12.11.08-21.85,9.97-21.77,22.08.08,12.05,9.88,21.77,21.92,21.77.05,0,.11,0,.16,0,12.11-.08,21.85-9.97,21.77-22.08-.08-12.05-9.88-21.77-21.92-21.77Zm.14,42.74h-.15c-11.4,0-20.74-9.27-20.82-20.67-.08-11.48,9.19-20.88,20.67-20.97h.15c11.4,0,20.73,9.27,20.81,20.67.08,11.48-9.19,20.88-20.67,20.96Z"/><path class="uuid-3dc262c7-478f-4a77-a3b4-07a6486b24c7" d="m321.21,99.97c-1.37-.87-3.19-.46-4.06.91-.57.9-12.33,19.46-16.42,26.16-2.22-2.08-6.06-6.79-9.05-10.95-.94-1.32-2.78-1.62-4.1-.67-1.32.95-1.62,2.78-.67,4.1,9.26,12.9,12.71,14.24,14.27,14.33.21,0,.38,0,.53-.01,1.24-.07,2.33-.78,2.93-1.87,1.24-2.28,13.03-20.94,17.46-27.94.87-1.37.46-3.19-.91-4.06Z"/><path class="uuid-bb11fbdc-283f-4992-a1c2-a28558c96cd5" d="m432.53,254.08c-5.71.04-11.06,2.3-15.07,6.36-4.01,4.07-6.19,9.45-6.15,15.16.08,11.7,9.67,21.22,21.37,21.22h.15c5.71-.04,11.06-2.3,15.07-6.36,4.01-4.06,6.19-9.45,6.15-15.16-.08-11.7-9.67-21.22-21.52-21.22Z"/><path class="uuid-6d1482a0-7230-4591-ab45-e945cbe7af7a" d="m432.68,253.52c-.05,0-.1,0-.16,0-12.11.08-21.85,9.97-21.77,22.08.08,12.06,9.88,21.77,21.92,21.77h.16c12.11-.09,21.85-9.97,21.77-22.08-.08-12.05-9.88-21.77-21.92-21.77Zm.15,42.74h-.15c-11.4,0-20.73-9.27-20.82-20.67-.08-11.48,9.19-20.88,20.67-20.96h.15c11.4,0,20.73,9.27,20.81,20.67.08,11.48-9.19,20.89-20.67,20.97Z"/><path class="uuid-3dc262c7-478f-4a77-a3b4-07a6486b24c7" d="m453.67,254.99c-1.37-.87-3.18-.46-4.06.91-.57.9-12.33,19.46-16.41,26.16-2.22-2.08-6.06-6.79-9.05-10.95-.95-1.32-2.78-1.62-4.1-.67-1.32.95-1.62,2.78-.67,4.1,9.26,12.9,12.7,14.24,14.27,14.33.2.01.38,0,.53-.01,1.24-.07,2.33-.78,2.94-1.87,1.24-2.28,13.03-20.94,17.46-27.94.87-1.37.46-3.19-.91-4.06Z"/><polygon class="uuid-6d1482a0-7230-4591-ab45-e945cbe7af7a" points="344.48 193.55 371.84 193.55 371.88 189.81 344.48 189.81 344.48 193.55"/><polygon class="uuid-6d1482a0-7230-4591-ab45-e945cbe7af7a" points="344.48 204.82 393.92 204.82 393.95 201.07 344.48 201.07 344.48 204.82"/><polygon class="uuid-6d1482a0-7230-4591-ab45-e945cbe7af7a" points="344.48 216.08 390.38 216.08 390.42 212.34 344.48 212.34 344.48 216.08"/><polygon class="uuid-6d1482a0-7230-4591-ab45-e945cbe7af7a" points="374.71 193.55 383.16 193.55 383.19 189.81 374.74 189.81 374.71 193.55"/><polygon class="uuid-6d1482a0-7230-4591-ab45-e945cbe7af7a" points="205.4 111.03 232.76 111.03 232.79 107.29 205.4 107.29 205.4 111.03"/><polygon class="uuid-6d1482a0-7230-4591-ab45-e945cbe7af7a" points="205.4 122.29 254.84 122.29 254.87 118.55 205.4 118.55 205.4 122.29"/><polygon class="uuid-6d1482a0-7230-4591-ab45-e945cbe7af7a" points="205.4 133.56 251.3 133.56 251.33 129.82 205.4 129.82 205.4 133.56"/><polygon class="uuid-6d1482a0-7230-4591-ab45-e945cbe7af7a" points="235.63 111.03 244.08 111.03 244.11 107.29 235.66 107.29 235.63 111.03"/><polygon class="uuid-6d1482a0-7230-4591-ab45-e945cbe7af7a" points="142.45 264.18 169.82 264.18 169.85 260.44 142.45 260.44 142.45 264.18"/><polygon class="uuid-6d1482a0-7230-4591-ab45-e945cbe7af7a" points="142.45 275.45 191.89 275.45 191.93 271.7 142.45 271.7 142.45 275.45"/><polygon class="uuid-6d1482a0-7230-4591-ab45-e945cbe7af7a" points="142.45 286.71 188.36 286.71 188.39 282.97 142.45 282.97 142.45 286.71"/><polygon class="uuid-6d1482a0-7230-4591-ab45-e945cbe7af7a" points="172.68 264.18 181.13 264.18 181.16 260.44 172.71 260.44 172.68 264.18"/><polygon class="uuid-3dc262c7-478f-4a77-a3b4-07a6486b24c7" points="506.6 186.32 499.72 172.39 492.85 186.32 477.48 188.56 488.6 199.4 485.97 214.71 499.72 207.48 513.48 214.71 510.85 199.4 521.97 188.56 506.6 186.32"/><polygon class="uuid-3dc262c7-478f-4a77-a3b4-07a6486b24c7" points="307.08 264.48 300.21 250.54 293.33 264.48 277.96 266.71 289.08 277.55 286.46 292.86 300.21 285.63 313.96 292.86 311.33 277.55 322.46 266.71 307.08 264.48"/><path class="uuid-3dc262c7-478f-4a77-a3b4-07a6486b24c7" d="m437.64,98.44c-8.2-.04-14.89,6.56-14.95,14.76-.03,3.81,1.38,7.31,3.72,9.96,2.92,3.3,5,7.53,4.97,11.94v.39s12.02.09,12.02.09v-.44c.03-4.39,2.18-8.57,5.14-11.81,2.39-2.62,3.86-6.09,3.88-9.91.06-8.21-6.58-14.93-14.79-14.98Z"/><path class="uuid-6d1482a0-7230-4591-ab45-e945cbe7af7a" d="m433.06,113.34c.83-.43,1.2-1.59.68-2.18-.25-.29-.67-.43-1.12-.36-.28.04-.76.11-.73,2.14-.13-.04-.27-.11-.41-.21-1.52-1.06-.39-3.53.17-4.39.07-.11-.02-.28-.2-.37-.18-.09-.39-.07-.47.04-.09.14-2.22,3.43.08,5.04.28.19.56.33.84.39.05.99.2,2.36.51,4.26.52,3.24,1.27,6.48,1.28,6.51.02.11.13.21.27.26.04.02.09.03.14.03.19.02.33-.08.29-.23-.92-4.01-1.65-8.29-1.78-10.8.15-.03.3-.07.44-.14Zm-.11-2.03c.11-.02.16,0,.19,0,.02,0,.03.02.03.02.25.29.03,1.17-.56,1.52,0-.92.1-1.48.35-1.55Z"/><path class="uuid-6d1482a0-7230-4591-ab45-e945cbe7af7a" d="m443.75,108.07c-.19.08-.28.25-.2.36.55.87,1.65,3.35.11,4.39-.15.1-.28.17-.42.21.06-2.03-.42-2.11-.7-2.15-.45-.08-.87.05-1.12.34-.52.59-.18,1.76.65,2.2.14.07.28.12.43.15-.17,2.5-.96,6.77-1.95,10.77-.03.14.09.25.29.23.05,0,.1-.01.15-.03.13-.05.24-.15.27-.25,0-.03.8-3.27,1.38-6.49.33-1.89.51-3.26.57-4.25.28-.06.57-.19.85-.38,2.32-1.57.24-4.89.15-5.04-.07-.11-.28-.14-.46-.05Zm-1.76,3.33s.01-.01.03-.02c.03-.01.08-.02.19,0,.25.07.34.63.32,1.55-.59-.36-.8-1.25-.54-1.53Z"/><path class="uuid-6d1482a0-7230-4591-ab45-e945cbe7af7a" d="m434.08,123.55l-.36.29-.09,12.02,7.53.06.09-12.02-.36-.3c-1.96-1.64-4.83-1.66-6.82-.05Zm6.39,11.66l-6.13-.04.08-10.98.1-.08c1.73-1.4,4.22-1.38,5.92.04l.11.09-.08,10.98Z"/><path class="uuid-6d1482a0-7230-4591-ab45-e945cbe7af7a" d="m443.63,134.66l-12.46-.09c-.51,0-.92.4-.93.91,0,.51.4.92.91.93l12.46.09c.51,0,.92-.4.92-.91,0-.51-.4-.92-.91-.92Z"/><path class="uuid-7e4e1201-fd47-4ddd-bed1-dea76989d1af" d="m442.95,136.49l-11.13-.08c-.45,0-.82.4-.83.91,0,.51.36.92.82.93l11.13.08c.45,0,.82-.4.83-.91,0-.51-.36-.92-.81-.93Z"/><path class="uuid-6d1482a0-7230-4591-ab45-e945cbe7af7a" d="m442.94,138.34l-11.13-.08c-.46,0-.82.4-.83.91,0,.51.36.92.81.92l11.13.08c.45,0,.83-.4.83-.91,0-.51-.36-.92-.81-.92Z"/><path class="uuid-7e4e1201-fd47-4ddd-bed1-dea76989d1af" d="m442.92,140.18l-11.13-.08c-.45,0-.82.4-.83.91,0,.51.36.92.82.92l11.13.08c.45,0,.82-.4.83-.91,0-.51-.36-.92-.81-.93Z"/><path class="uuid-6d1482a0-7230-4591-ab45-e945cbe7af7a" d="m442.91,142.02l-11.13-.08c-.45,0-.82.4-.83.91,0,.51.36.92.82.92l11.13.08c.45,0,.82-.4.83-.91h0c0-.51-.36-.92-.81-.92Z"/><path class="uuid-7e4e1201-fd47-4ddd-bed1-dea76989d1af" d="m434.38,145.63l5.88.05c1.01,0,1.84-.81,1.85-1.82l-9.56-.07c0,1.01.81,1.84,1.82,1.85Z"/><path class="uuid-3dc262c7-478f-4a77-a3b4-07a6486b24c7" d="m437.78,85.92c-.59,0-1.06.47-1.07,1.05l-.04,5.95c0,.5.34.92.81,1.04.08.02.16.03.24.03.58,0,1.06-.47,1.07-1.05l.04-5.95c0-.59-.47-1.06-1.05-1.07Z"/><path class="uuid-3dc262c7-478f-4a77-a3b4-07a6486b24c7" d="m425.36,89.12c-.31-.5-.96-.65-1.46-.34s-.65.96-.34,1.46l3.19,5.15c.15.25.39.41.65.47.27.06.56.03.81-.13.5-.31.65-.96.34-1.46l-3.19-5.15Z"/><path class="uuid-3dc262c7-478f-4a77-a3b4-07a6486b24c7" d="m421.27,101.67l-5.55-2.48c-.53-.25-1.16,0-1.4.53-.24.53,0,1.16.53,1.4l5.55,2.48c.06.03.12.05.18.06.49.12,1.01-.12,1.22-.6.24-.53,0-1.16-.53-1.4Z"/><path class="uuid-3dc262c7-478f-4a77-a3b4-07a6486b24c7" d="m418.36,114.08l-5.03.18c-.58.02-1.04.51-1.02,1.1.02.49.36.88.81.99.09.02.19.03.29.03l5.03-.18c.58-.02,1.04-.51,1.02-1.1-.02-.58-.51-1.04-1.1-1.02Z"/><path class="uuid-3dc262c7-478f-4a77-a3b4-07a6486b24c7" d="m452.35,89c-.49-.31-1.15-.17-1.46.32l-3.27,5.11c-.32.49-.17,1.15.32,1.46.1.06.21.11.32.14.43.11.89-.07,1.14-.46l3.27-5.11c.31-.49.17-1.15-.32-1.46Z"/><path class="uuid-3dc262c7-478f-4a77-a3b4-07a6486b24c7" d="m460.37,99.53l-5.58,2.4c-.54.23-.79.85-.56,1.39.14.32.41.53.72.61.21.05.45.04.67-.06l5.58-2.4c.54-.23.79-.86.56-1.39-.23-.54-.85-.79-1.39-.56Z"/><path class="uuid-3dc262c7-478f-4a77-a3b4-07a6486b24c7" d="m462.53,114.63l-5.03-.25c-.58-.03-1.08.42-1.11,1-.02.52.32.97.81,1.08.06.01.13.02.2.03l5.03.26c.58.03,1.08-.42,1.11-1,.03-.58-.42-1.08-1.01-1.11Z"/><path class="uuid-bb11fbdc-283f-4992-a1c2-a28558c96cd5" d="m359.77,99.4c-2.34,0-3.92.33-4.6.51,3.24,11.9-2.62,38.56-3.67,43.13.61-.1,1.27-.15,1.97-.15,8.66,0,21.09,7.75,23.37,9.22,12.02-18.31,7.85-41.3,7.44-43.4-10.79-7.69-19.28-9.3-24.51-9.3Z"/><path class="uuid-6d1482a0-7230-4591-ab45-e945cbe7af7a" d="m359.77,98.98c-3.3,0-5.11.65-5.11.65,3.75,12.56-3.71,43.94-3.71,43.94.78-.18,1.63-.27,2.51-.27,9.35,0,23.49,9.38,23.49,9.38,13.09-19.54,7.69-44.22,7.69-44.22-11.07-7.92-19.76-9.48-24.88-9.48Zm16.95,52.55c-3.02-1.91-14.86-9.06-23.25-9.06-.49,0-.97.02-1.43.07,1.32-5.85,6.55-30.59,3.64-42.33.79-.17,2.18-.4,4.09-.4,5.14,0,13.49,1.59,24.13,9.13.54,2.85,4.24,24.84-7.18,42.59Z"/><path class="uuid-6d1482a0-7230-4591-ab45-e945cbe7af7a" d="m376.54,140.25c-.74-.11-1.24.1-1.95.08-.23.09-.46.18-.7.27-.31.2-.56.08-.73-.38-.81-.23-1.2-.64-1.9-.73-.79-1.24-2.31-2.16-3.48-2.92-2.06-1.35-3.24-1.9-5.35-1.22-1.67-2.09-3.68-2.44-5.51.13-.69.97.89,1.94,1.59.97.93.15,1.85.29,2.78.44.29.45.75.6,1.25.39,1.72-.71,3.9.57,5.13,1.58.45.37,2.03,1.6,2.22,2.02.17.39.64.54,1.03.47.91-.17,1.57,1.24,2.45,1.29,1.16.07,1.73-.73,3.09-.53,1.18.17,1.23-1.69.06-1.86Z"/><path class="uuid-6d1482a0-7230-4591-ab45-e945cbe7af7a" d="m369.19,127.67c-.47-.09-.92-.16-1.41-.13-.48.03-.96.3-1.42.32-.57.03-.96-.3-1.49-.49-.48-.17-1.04-.14-1.5-.31-.9-.34-1.36-1.31-2.42-1.45-.76-.1-1.3.22-1.55.94-.32.91.76,1.41,1.41.99.55.09,1.13.98,1.56,1.18.61.29,1.34.19,1.98.43.6.22,1.11.62,1.77.62.91,0,1.59-.51,2.55-.33,1.16.22,1.7-1.56.52-1.78Z"/><path class="uuid-6d1482a0-7230-4591-ab45-e945cbe7af7a" d="m380.11,130.16c-.76-.27-1.51-.37-2.32-.41-.47-.02-.61-.05-.98-.36-.25-.21-.48-.43-.78-.59-1.11-.6-2.47-.31-3.35.54-.86.83.41,2.18,1.27,1.36.99-.95,1.68.37,2.55.74.96.4,2.07.15,3.08.51,1.13.4,1.65-1.38.53-1.78Z"/><path class="uuid-6d1482a0-7230-4591-ab45-e945cbe7af7a" d="m380.36,121.61c-.7-.4-1.18-.52-1.94-.78-.89.01-1.74-.21-2.53-.68-.24-.28-.49-.53-.78-.75-1.42-.68-2.63-1.15-4.2-1.2-1.84-.06-4.22-.79-5.98-1.68-1.53-.77-2.41-1.58-4.18-.93-1.11.41-.7,2.22.42,1.81.96-.35,5.35,1.73,6.51,2.16,1.21.45,1.65.69,2.91.76,1.51.09,2.6.18,3.96,1.09.58.39.79.85,1.49,1.09,1.21.41,2.06-.08,3.37.68,1.03.6,2-.99.97-1.59Z"/><path class="uuid-6d1482a0-7230-4591-ab45-e945cbe7af7a" d="m367.14,107.66c-.64-.12-1.04-.48-1.62-.76-1.12-.54-2.3-.48-3.44-.06-1.12.42-.24,2.06.87,1.64.84-.31,1.59-.06,2.3.4.29.19.6.36.93.46.32.09.93.05,1.18.28.87.82,2.22-.45,1.35-1.27-.48-.46-.93-.58-1.56-.7Z"/><path class="uuid-6d1482a0-7230-4591-ab45-e945cbe7af7a" d="m378.7,111.91c-.74-.21-1.58-.08-2.28-.28-.52-.15-.9-.73-1.46-.95-.67-.26-1.42-.23-2.1-.49-1.12-.42-1.64,1.36-.52,1.78.56.21,1.24.16,1.77.38.6.26.84.84,1.48,1.04.56.18,1.21.07,1.79.14,1,.13,1.86.52,2.69,1.09.99.67,1.95-.91.97-1.59-.72-.49-1.49-.89-2.33-1.13Z"/><path class="uuid-6d1482a0-7230-4591-ab45-e945cbe7af7a" d="m373.71,97.37c-2.19,0-3.96,1.78-3.96,3.96s1.77,3.96,3.96,3.96,3.97-1.78,3.97-3.96-1.78-3.96-3.97-3.96Z"/><path class="uuid-3dc262c7-478f-4a77-a3b4-07a6486b24c7" d="m372.95,97.37c-2.19,0-3.96,1.78-3.96,3.96s1.77,3.96,3.96,3.96,3.97-1.78,3.97-3.96-1.78-3.96-3.97-3.96Z"/><path class="uuid-7a8a608a-99c1-47bf-93f0-acd5eb3aa80f" d="m463.78,432.75l14.91-.04c14.47-8.32,74.64-58.67,50.39-84.86-29.95-32.34-69.17,51.75-65.3,84.9Z"/><path class="uuid-6d1482a0-7230-4591-ab45-e945cbe7af7a" d="m470.38,432.38l1.16.53c22-48.03,57.64-84.25,58-84.61l-.91-.9c-.36.36-36.15,36.74-58.25,84.98Z"/><path class="uuid-6d1482a0-7230-4591-ab45-e945cbe7af7a" d="m488.85,398.7l.16,1.27c.96-.12,21.41-2.72,30.96-5.72,1.03-.32,1.93-.65,2.67-.98l-.52-1.16c-7.42,3.33-33.01,6.57-33.27,6.6Z"/><path class="uuid-6d1482a0-7230-4591-ab45-e945cbe7af7a" d="m502.77,344.4c0,.17.75,16.89,4.33,27.35l1.21-.41c-3.52-10.28-4.25-26.82-4.26-26.99l-1.28.05Z"/><path class="uuid-6d1482a0-7230-4591-ab45-e945cbe7af7a" d="m463.78,432.75c20.79-21.6,16.37-50.72,13.05-54.26-9.1,19.03-14.62,40.82-13.05,54.26Z"/><path class="uuid-7a8a608a-99c1-47bf-93f0-acd5eb3aa80f" d="m452.46,325.47c-26.53-12.97-18.34,65.36,5.05,107.3l10.85-.03c5.39-10.5,5.59-96.76-15.89-107.27Z"/><path class="uuid-6d1482a0-7230-4591-ab45-e945cbe7af7a" d="m447.3,333.84c.11.76,11.62,75.76,15.85,99.02l1.25-.22c-4.23-23.24-15.74-98.23-15.85-98.98l-1.26.19Z"/><rect class="uuid-6d1482a0-7230-4591-ab45-e945cbe7af7a" x="452.32" y="390.94" width="1.27" height="18" transform="translate(-151.16 386.87) rotate(-40.2)"/><rect class="uuid-6d1482a0-7230-4591-ab45-e945cbe7af7a" x="452.79" y="369.83" width="17.16" height="1.27" transform="translate(-130.21 382.63) rotate(-39.94)"/><path class="uuid-bb11fbdc-283f-4992-a1c2-a28558c96cd5" d="m438.46,432.89l.02,6.42c.02,7.29,2.21,14.46,6.35,20.81l1.65,2.52,9.64,81.96,31.19-.09,12.97-82.02,1.63-2.53c4.11-6.37,6.25-13.55,6.23-20.84l-.02-6.42-69.65.19Z"/><path class="uuid-2883b9d8-2b94-4450-a09a-25e51cbeb502" d="m437.99,432.43l.02,6.89c.02,7.37,2.24,14.65,6.42,21.06l1.59,2.43,9.68,82.26,32.01-.09,13.01-82.31,1.58-2.45c4.15-6.44,6.33-13.73,6.31-21.1l-.02-6.89-70.59.19Zm63.51,27.29l-1.7,2.71-12.9,81.62-30.38.08-9.6-81.65-1.71-2.61c-4.08-6.26-6.25-13.37-6.27-20.55l-.02-5.95,68.72-.19.02,5.95c.02,7.18-2.11,14.3-6.16,20.59Z"/><rect class="uuid-6d1482a0-7230-4591-ab45-e945cbe7af7a" x="455.85" y="448.29" width="51.89" height="1.27"/><rect class="uuid-6d1482a0-7230-4591-ab45-e945cbe7af7a" x="446.17" y="461.91" width="18.57" height="1.27" transform="translate(-1.86 1.84) rotate(-.23)"/><path class="uuid-6d1482a0-7230-4591-ab45-e945cbe7af7a" d="m438.46,432.25v1.28s69.02-.19,69.02-.19l.02,5.79c.02,7.15-2.1,14.24-6.13,20.49l-1.7,2.64-12.9,81.62h-.61v1.28s1.7,0,1.7,0l13.03-82.42,1.56-2.42c4.16-6.46,6.36-13.79,6.33-21.19l-.02-7.06-70.29.19Z"/><path class="uuid-a318eeac-bcf4-4f00-8596-cab7d36957a3" d="m315.82,530.52c0,7.87,8.54,14.24,19.07,14.24h61.71v-28.49h-61.71c-10.53,0-19.07,6.38-19.07,14.25Z"/><path class="uuid-6d1482a0-7230-4591-ab45-e945cbe7af7a" d="m315.11,530.52c0,8.15,8.87,14.78,19.78,14.78h62.42v-29.56h-62.42c-10.91,0-19.78,6.63-19.78,14.78Zm80.77,13.71h-60.99c-10.12,0-18.35-6.15-18.35-13.71s8.23-13.71,18.35-13.71h60.99v27.42Z"/><path class="uuid-bb11fbdc-283f-4992-a1c2-a28558c96cd5" d="m360.53,530.32c0,6.41,6.95,11.6,15.53,11.6h88.93v-23.2h-88.93c-8.57,0-15.53,5.2-15.53,11.6Z"/><path class="uuid-6d1482a0-7230-4591-ab45-e945cbe7af7a" d="m359.82,530.32c0,6.69,7.29,12.14,16.24,12.14h89.65v-24.27h-89.65c-8.96,0-16.24,5.44-16.24,12.13Zm104.46,11.07h-88.22c-8.17,0-14.81-4.97-14.81-11.07s6.64-11.07,14.81-11.07h88.22v22.13Z"/><path class="uuid-a318eeac-bcf4-4f00-8596-cab7d36957a3" d="m357.91,530.52c0,7.87,8.54,14.24,19.07,14.24h94.55v-4.88h-94.55c-6.91,0-12.53-4.2-12.53-9.36s5.62-9.36,12.53-9.36h94.55v-4.88h-94.55c-10.53,0-19.07,6.38-19.07,14.25Z"/><path class="uuid-6d1482a0-7230-4591-ab45-e945cbe7af7a" d="m357.2,530.52c0,8.15,8.87,14.78,19.78,14.78h95.27v-5.95h-95.27c-6.51,0-11.81-3.96-11.81-8.83s5.3-8.83,11.81-8.83h95.27v-5.95h-95.27c-10.91,0-19.78,6.63-19.78,14.78Zm113.62-9.89h-93.84c-7.3,0-13.24,4.44-13.24,9.89s5.94,9.89,13.24,9.89h93.84v3.82h-93.84c-10.12,0-18.35-6.15-18.35-13.71s8.23-13.71,18.35-13.71h93.84v3.82Z"/><path class="uuid-a318eeac-bcf4-4f00-8596-cab7d36957a3" d="m350.42,484.22c0,4.66,5.06,8.45,11.3,8.45h51.96v-16.89h-51.96c-6.24,0-11.3,3.78-11.3,8.45Z"/><path class="uuid-6d1482a0-7230-4591-ab45-e945cbe7af7a" d="m349.7,484.22c0,4.95,5.39,8.98,12.02,8.98h52.68v-17.96h-52.68c-6.63,0-12.02,4.03-12.02,8.98Zm63.27,7.92h-51.25c-5.84,0-10.59-3.55-10.59-7.92s4.75-7.91,10.59-7.91h51.25v15.83Z"/><path class="uuid-bb11fbdc-283f-4992-a1c2-a28558c96cd5" d="m399.87,484.1c0,3.8,4.12,6.88,9.2,6.88h62.17v-13.75h-62.17c-5.08,0-9.2,3.08-9.2,6.87Z"/><path class="uuid-6d1482a0-7230-4591-ab45-e945cbe7af7a" d="m399.15,484.1c0,4.09,4.45,7.41,9.92,7.41h62.88v-14.82h-62.88c-5.47,0-9.92,3.33-9.92,7.41Zm71.37,6.35h-61.45c-4.68,0-8.49-2.85-8.49-6.35s3.81-6.34,8.49-6.34h61.45v12.69Z"/><path class="uuid-a318eeac-bcf4-4f00-8596-cab7d36957a3" d="m398.31,484.22c0,4.66,5.06,8.45,11.31,8.45h65.5v-2.89h-65.5c-4.1,0-7.43-2.49-7.43-5.55s3.33-5.55,7.43-5.55h65.5v-2.9h-65.5c-6.25,0-11.31,3.78-11.31,8.45Z"/><path class="uuid-6d1482a0-7230-4591-ab45-e945cbe7af7a" d="m397.59,484.22c0,4.95,5.39,8.98,12.02,8.98h66.21v-3.96h-66.21c-3.7,0-6.72-2.25-6.72-5.02s3.02-5.01,6.72-5.01h66.21v-3.96h-66.21c-6.63,0-12.02,4.03-12.02,8.98Zm76.81-6.08h-64.78c-4.49,0-8.15,2.73-8.15,6.08s3.65,6.09,8.15,6.09h64.78v1.83h-64.78c-5.84,0-10.59-3.55-10.59-7.92s4.75-7.91,10.59-7.91h64.78v1.83Z"/><path class="uuid-a43faa77-f6a7-428a-83bc-09653ff1c4f3" d="m321.27,504.47c0,6.52,7.07,11.8,15.8,11.8h51.12v-23.61h-51.12c-8.73,0-15.8,5.28-15.8,11.8Z"/><path class="uuid-6d1482a0-7230-4591-ab45-e945cbe7af7a" d="m320.55,504.47c0,6.8,7.41,12.34,16.51,12.34h51.84v-24.67h-51.84c-9.11,0-16.51,5.53-16.51,12.34Zm66.92,11.27h-50.41c-8.32,0-15.09-5.06-15.09-11.27s6.77-11.27,15.09-11.27h50.41v22.54Z"/><path class="uuid-bb11fbdc-283f-4992-a1c2-a28558c96cd5" d="m358.32,504.31c0,5.31,5.76,9.61,12.87,9.61h77.66v-19.22h-77.66c-7.11,0-12.87,4.3-12.87,9.61Z"/><path class="uuid-6d1482a0-7230-4591-ab45-e945cbe7af7a" d="m357.6,504.31c0,5.59,6.09,10.14,13.58,10.14h78.37v-20.29h-78.37c-7.49,0-13.58,4.55-13.58,10.14Zm90.53,9.08h-76.95c-6.7,0-12.15-4.07-12.15-9.08s5.45-9.08,12.15-9.08h76.95v18.16Z"/><path class="uuid-c341fcbb-def1-436a-a22f-000857c9aa93" d="m356.14,504.47c0,6.52,7.08,11.8,15.8,11.8h82.31v-4.05h-82.31c-5.73,0-10.38-3.48-10.38-7.76s4.66-7.76,10.38-7.76h82.31v-4.05h-82.31c-8.72,0-15.8,5.28-15.8,11.8Z"/><path class="uuid-6d1482a0-7230-4591-ab45-e945cbe7af7a" d="m355.43,504.47c0,6.8,7.41,12.34,16.51,12.34h83.03v-5.11h-83.03c-5.33,0-9.67-3.24-9.67-7.22s4.34-7.22,9.67-7.22h83.03v-5.11h-83.03c-9.11,0-16.51,5.53-16.51,12.34Zm98.11-8.29h-81.6c-6.12,0-11.1,3.72-11.1,8.29s4.98,8.29,11.1,8.29h81.6v2.98h-81.6c-8.32,0-15.09-5.06-15.09-11.27s6.77-11.27,15.09-11.27h81.6v2.98Z"/><path class="uuid-bb11fbdc-283f-4992-a1c2-a28558c96cd5" d="m235.9,196.11c-3.31-.09-6.62.44-9.75,1.52-.96.33-1.7.68-2.31,1.08-1.26.61-3.46,2.13-5.14,3.27.12-.58.21-1.17.36-1.75.13-.49.25-1.08-.08-1.47-.3-.36-.88-.38-1.3-.17-.42.21-.72.6-1.01.97-1.64,2.12-3.34,4.2-4.92,6.36-.35.48-.57,1-.73,1.54l-.08.07-12.16,10.71-1.46,1.27v.02s-25.27,22.22-25.27,22.22l-7.83-8.52-10.1-11.01-16.62-18.1c-11.75-1.01-5.37,20.99-15.69,27.76l20.51,21.75,1.17,1.24c2.08,2.2,4.32,4.27,6.68,6.14,4.84,3.87,10.24,7.01,15.98,9.33,5.44,2.2,11.7.53,15.47-3.98l20.55-24.68h.02s1.44-1.75,1.44-1.75l14.75-17.7c1.02-.41,1.91-.89,2.53-1.37,2.41-1.85,3.65-4.92,5.18-7.64.49-.87,2.34-2.81,4.04-5.01.75-.35,1.5-.71,2.26-1.07.49-.23,1-.48,1.36-.89.36-.41.54-1.03.28-1.51-.25-.45-.76-.62-1.29-.69.1-.23.19-.46.26-.69.75-.36,1.51-.71,2.26-1.07.49-.23,1-.48,1.36-.89s.54-1.03.28-1.51c-.19-.35-.56-.53-.96-.62.05-.02.1-.05.15-.07.49-.23,1-.48,1.36-.89.36-.41.54-1.03.28-1.51-.32-.59-1.11-.7-1.78-.72Z"/><path class="uuid-6d1482a0-7230-4591-ab45-e945cbe7af7a" d="m235.91,195.8c-3.35-.09-6.66.43-9.86,1.54-.99.34-1.75.7-2.38,1.11-1.09.53-2.9,1.75-4.51,2.84.06-.33.13-.65.21-.98.11-.42.31-1.21-.14-1.75-.42-.5-1.16-.51-1.68-.25-.49.25-.83.68-1.12,1.06-.56.72-1.12,1.44-1.69,2.16-1.08,1.37-2.19,2.78-3.24,4.21-.31.43-.56.92-.75,1.54h-.01s-13.74,12.09-13.74,12.09v.02l-24.92,21.91-34.43-37.49h-.12c-6.56-.6-7.73,5.78-8.96,12.5-1.05,5.73-2.24,12.23-6.93,15.31l-.32.21,21.94,23.26c2.09,2.22,4.35,4.29,6.71,6.17,4.84,3.87,10.24,7.02,16.05,9.37,1.66.67,3.39,1,5.11,1,4.03,0,7.97-1.78,10.71-5.06l36.7-44.06c1.01-.42,1.91-.91,2.53-1.38,1.96-1.51,3.17-3.8,4.34-6.02.3-.58.61-1.15.92-1.71.25-.45.95-1.27,1.76-2.22.68-.81,1.46-1.72,2.21-2.69l2.19-1.03c.49-.23,1.05-.49,1.46-.96.41-.47.67-1.23.32-1.87-.21-.39-.59-.64-1.13-.78.03-.07.05-.15.08-.22l2.14-1.01c.49-.23,1.05-.5,1.46-.96.4-.45.66-1.23.31-1.87-.11-.2-.26-.36-.46-.49.35-.18.69-.41.97-.72.41-.46.67-1.22.32-1.87-.42-.76-1.37-.87-2.05-.88Zm1.26,2.34c-.32.37-.8.59-1.26.81l-.97.46.89.2c.39.09.63.24.75.46.2.36.03.85-.23,1.15-.33.37-.8.59-1.26.81l-2.38,1.12-.04.13c-.07.22-.16.44-.25.67l-.16.39.42.05c.56.07.9.24,1.05.52.2.36.03.85-.23,1.15-.33.37-.82.6-1.26.81l-2.37,1.16c-.76.98-1.55,1.91-2.24,2.73-.86,1.02-1.54,1.82-1.82,2.32-.32.57-.62,1.15-.93,1.73-1.14,2.16-2.31,4.39-4.16,5.81-.59.45-1.47.92-2.46,1.33l-.12.09-16.1,19.35-.1.1-20.55,24.68c-3.74,4.47-9.81,6.03-15.11,3.89-5.76-2.33-11.1-5.45-15.89-9.28-2.34-1.86-4.58-3.92-6.64-6.11l-21.43-22.72c4.66-3.3,5.85-9.78,6.9-15.51,1.22-6.66,2.29-12.42,8.16-12l34.68,37.77.23-.21,25.39-22.33h0s1.34-1.18,1.34-1.18l12.31-10.83.03-.09c.18-.59.4-1.05.69-1.44,1.04-1.42,2.15-2.83,3.22-4.19.57-.72,1.14-1.44,1.7-2.16.26-.35.54-.7.9-.88.29-.15.71-.15.92.08.23.28.13.76.02,1.19-.11.4-.18.81-.26,1.22l-.26,1.3,1.22-.83c1.52-1.03,3.42-2.32,4.52-2.85.62-.41,1.34-.74,2.28-1.07,3.13-1.09,6.36-1.59,9.64-1.5.84.02,1.32.2,1.51.56.2.36.03.85-.24,1.15Z"/><path class="uuid-6d1482a0-7230-4591-ab45-e945cbe7af7a" d="m115.7,538.75c-3.53-1.74-10.63-5.32-11.81-11.99-.47-2.64,0-5.71-1.97-7.72-2.12-2.15-5.49-3.18-8.38-2.69-1.33.22-2.7.86-3.39,2.05-.48-1.09-1.03-1.75-2.39-.67-3.05,2.42-.16,12.17.32,15.83.37,2.86,1.88,12.23,1.88,12.23,0,0,1.32,0,1.79.12.15-1.99.16-5.99.24-8.97.21.4.39.79.66,1.2,3.14,4.96,6.5,8.09,10.84,8.32,1.99.1,7.04.06,10.2-.01,1.96-.04,4.39.11,5.23-1.73.51-1.13.17-2.51-.55-3.51-.72-1-1.61-1.93-2.69-2.46Z"/><path class="uuid-6d1482a0-7230-4591-ab45-e945cbe7af7a" d="m137.9,203.61c-2.62-12.67-5.32-25.38-8.67-37.27-3.36-11.89-7.43-23.02-12.06-30.65-7.98-13.17-18.68-10.48-24.31-.55-6.98,12.32-4.6,38.62-4.63,47.5-.09,22.35.48,45.34,1.7,68.74.23,4.35.54,9.06,1.71,13.13,1.75,6.08,4.61,8.06,7.03,9.23,6.56,3.16,13.06,5.6,19.5,7.32,5.82,1.55,11.62,2.51,16.92.3,5.3-2.2,11.98-4.39,13-18.43.42-5.78-.91-13.06-2.2-19.67-2.59-13.26-5.25-26.48-7.98-39.65Z"/><path class="uuid-6d1482a0-7230-4591-ab45-e945cbe7af7a" d="m171.09,241.09c-3.37,1.15-6.22,3.63-7.84,6.8-.12.24-.02.54.22.66.07.04.15.05.22.05.18,0,.35-.1.44-.27,1.5-2.95,4.15-5.25,7.27-6.32.25-.09.39-.37.3-.62-.09-.26-.37-.39-.62-.31Z"/><path class="uuid-6d1482a0-7230-4591-ab45-e945cbe7af7a" d="m149.52,223.38c-3.52,2.09-4.97,6.39-6.05,10.34-.99,3.63-1.88,7.32-2.12,11.09-.2,2.98.05,6,.97,8.81l1.17,1.24c2.08,2.2,4.32,4.27,6.68,6.14.77-2.99,1.34-6.06,2.04-9.08.94-4.05,2.14-8.09,4.3-11.65,1-1.65,2.22-3.16,3.64-4.46,1.26-1.15,2.66-1.79,4.07-2.61l-10.1-11.01c-1.6-.03-3.21.35-4.6,1.17Z"/><path class="uuid-7a8a608a-99c1-47bf-93f0-acd5eb3aa80f" d="m136.26,191.91c-2-1.35-10.86-6.75-12.97-4.84-1.76,1.59,3.57,9.31,3.17,11.55-1.1,6.24-1.06,12.68.14,18.9,1.09,5.6,3.18,11.14,6.99,15.39,3.8,4.25,9.5,7.04,15.17,6.39,3.97-.45,7.57-2.49,11.02-4.5,2.78-1.63,5.78-3.54,6.71-6.63,1.07-3.59-1.08-7.28-3.28-10.31-7.39-10.13-16.56-18.94-26.95-25.95Z"/><path class="uuid-7a8a608a-99c1-47bf-93f0-acd5eb3aa80f" d="m147.59,276.36c4.38-12.71,6.63-23.77,6.14-41.87-.02-.9-.45-1.73-.66-2.55,0-.03-.03-.05-.03-.08-1.92-7.22-3.58-12.67-4.67-14.81-2.75-5.37-8.55-24.78-19.79-29.3-.13-.05-.26-.1-.37-.15,0,0-.16-.06-.24-.09-1.76-.69-3.43-1.3-4.95-1.78-.13-.03-.24-.07-.35-.11-.07-.02-.14-.04-.21-.07-7.92-2.54-16.56-1.6-23.76,2.57-.07.04-.13.08-.2.12-.9.53-1.83,1.07-2.76,1.67-.26.14-.53.32-.8.49-9.53,5.64-20.36,11.64-19.72,17.82,0,0-1.74,56.7,10.07,83.44,3.04,6.88-.76,36.43-.76,36.43,1.45,16.47,60.19,5.21,68.12,1.73,6.72-2.95-14.68-25.52-5.06-53.45Z"/><path class="uuid-bb11fbdc-283f-4992-a1c2-a28558c96cd5" d="m123.09,142.59c-2.75.21-4.75,3.26-4.48,6.8.27,3.54.78,8.51,3.53,8.3,2.75-.21,6.7-5.52,6.42-9.07-.27-3.54-2.72-6.24-5.47-6.03Z"/><path class="uuid-6d1482a0-7230-4591-ab45-e945cbe7af7a" d="m123.07,142.28c-1.43.11-2.71.93-3.61,2.29-.88,1.34-1.29,3.06-1.16,4.85.15,1.97.36,4.02.85,5.62.6,1.97,1.55,2.97,2.82,2.97.07,0,.13,0,.2,0,1.38-.11,3.13-1.42,4.57-3.42,1.47-2.04,2.27-4.28,2.14-5.99-.14-1.78-.81-3.42-1.89-4.61-1.1-1.21-2.49-1.81-3.92-1.71Zm3.16,11.94c-1.32,1.82-2.93,3.06-4.11,3.15-1.04.07-1.83-.74-2.37-2.52-.47-1.55-.67-3.55-.82-5.49-.13-1.64.25-3.22,1.06-4.45.79-1.2,1.9-1.91,3.13-2.01.09,0,.19-.01.28-.01,1.13,0,2.23.53,3.12,1.51.99,1.09,1.6,2.59,1.73,4.24.12,1.54-.65,3.68-2.02,5.57Z"/><path class="uuid-6d1482a0-7230-4591-ab45-e945cbe7af7a" d="m125.39,145.13c.28-.08.45-.37.37-.65-.08-.28-.36-.44-.65-.37-1.87.5-3.85,1.87-4.38,8.16-.02.27.16.51.42.56.04,0,.07.01.1.01.23,0,.43-.15.51-.37.16-.51.24-1.03.31-1.53.12-.87.23-1.63.74-2.01.44-.33,1.23-.41,2.35-.25.3.04.56-.16.6-.45.04-.29-.16-.56-.45-.6-1.12-.16-1.96-.11-2.61.16.73-1.83,1.73-2.41,2.69-2.67Z"/><path class="uuid-7a8a608a-99c1-47bf-93f0-acd5eb3aa80f" d="m124.05,155.28c-1.62.24-2.73,1.75-2.49,3.37.24,1.62,1.75,2.73,3.37,2.49,1.62-.24,2.73-1.75,2.49-3.37-.24-1.62-1.75-2.73-3.37-2.49Z"/><path class="uuid-bb11fbdc-283f-4992-a1c2-a28558c96cd5" d="m122.66,185.63c-1.5-.48-2.91-.91-4.24-1.3l-2.09-7.71-1.69-6.24-14.23,2.13.38,6.23.48,7.93c-.9.5-1.82,1.02-2.78,1.58-.89.53-1.82,1.07-2.76,1.67-.08.73,26.53,22.86,26.53,22.86,0,0,1.06-26.34.75-27.04-.13-.03-.24-.07-.35-.11Z"/><path class="uuid-6d1482a0-7230-4591-ab45-e945cbe7af7a" d="m123.23,185.47l-.15-.04c-.11-.03-.21-.06-.3-.09-1.31-.42-2.65-.83-4.1-1.26l-3.81-14.05-14.8,2.21.87,14.25c-.84.47-1.72.96-2.62,1.49h0s-.73.43-.73.43c-.67.4-1.36.8-2.04,1.24l-.13.08-.02.15c-.02.22-.1.9,26.65,23.14l.49.41.03-.64c.25-6.19,1.03-26.47.71-27.18l-.06-.14Zm-1.26,26.65c-9.87-8.22-24.11-20.23-25.8-22.11.59-.37,1.18-.71,1.75-1.06l.73-.43c.96-.56,1.88-1.08,2.78-1.58l.17-.1v-.2s-.86-13.87-.86-13.87l13.67-2.04,3.75,13.85.17.05c1.52.45,2.9.87,4.23,1.3.06.02.12.04.17.05.14,1.64-.36,16.11-.76,26.14Z"/><path class="uuid-6d1482a0-7230-4591-ab45-e945cbe7af7a" d="m100.41,172.51l.38,6.23c.71.29,2.88.59,5.72.17,2.72-.41,6.86-2.53,9.01-5.15l-.88-3.38-14.23,2.13Z"/><path class="uuid-6d1482a0-7230-4591-ab45-e945cbe7af7a" d="m101.27,126.25c-10.28,1.54-17.45,10.57-16.01,20.18,1.44,9.61,10.93,16.16,21.21,14.62,10.28-1.54,17.45-10.57,16.01-20.18-1.44-9.61-10.93-16.16-21.21-14.62Z"/><path class="uuid-bb11fbdc-283f-4992-a1c2-a28558c96cd5" d="m101.67,130.48c-9.92,1.49-16.42,13.06-14.5,25.84,1.91,12.79,11.51,21.95,21.43,20.47,9.92-1.48,16.42-13.05,14.5-25.84-1.91-12.79-11.51-21.95-21.43-20.47Z"/><path class="uuid-6d1482a0-7230-4591-ab45-e945cbe7af7a" d="m101.62,130.16c-10.08,1.51-16.71,13.26-14.77,26.2.93,6.25,3.71,11.86,7.8,15.77,3.51,3.35,7.63,5.13,11.8,5.13.73,0,1.45-.05,2.18-.16,10.08-1.51,16.71-13.26,14.77-26.2-1.93-12.94-11.71-22.23-21.79-20.74Zm6.92,46.32c-4.69.71-9.48-1-13.45-4.8-4-3.82-6.7-9.29-7.62-15.41-1.88-12.59,4.51-24.03,14.24-25.49.69-.1,1.38-.15,2.06-.15,8.97,0,17.26,8.66,19.01,20.36,1.88,12.6-4.5,24.03-14.24,25.49Z"/><path class="uuid-bb11fbdc-283f-4992-a1c2-a28558c96cd5" d="m83,148.59c-2.69.6-4.24,3.9-3.47,7.37.78,3.47,6.1,7.39,8.8,6.79,2.69-.6,1.72-5.5.95-8.97-.77-3.47-3.58-5.79-6.27-5.19Z"/><path class="uuid-6d1482a0-7230-4591-ab45-e945cbe7af7a" d="m87.06,149.41c-1.26-1.05-2.72-1.45-4.13-1.13-1.4.31-2.55,1.3-3.25,2.78-.69,1.46-.85,3.22-.46,4.96.37,1.68,1.79,3.58,3.8,5.1,1.67,1.27,3.42,1.99,4.73,1.99.23,0,.44-.02.65-.07,1.34-.3,2.02-1.55,2.02-3.72,0-1.68-.4-3.7-.83-5.63-.39-1.74-1.28-3.27-2.52-4.3Zm1.2,13.02c-1.16.26-3.06-.45-4.86-1.81-1.86-1.41-3.22-3.23-3.56-4.74-.36-1.61-.21-3.23.41-4.55.61-1.3,1.61-2.17,2.82-2.43.26-.06.53-.09.79-.09.96,0,1.92.37,2.79,1.09,1.13.94,1.95,2.34,2.31,3.95.42,1.89.82,3.87.82,5.49,0,1.86-.5,2.87-1.53,3.1Z"/><path class="uuid-6d1482a0-7230-4591-ab45-e945cbe7af7a" d="m81.52,150.63c-.29,0-.52.25-.51.54,0,.29.25.52.55.51,1.01-.03,2.12.22,3.35,1.76-.69-.07-1.52.13-2.54.61-.26.12-.38.44-.25.7.13.26.44.38.7.25,1.02-.48,1.8-.64,2.32-.45.6.22.92.91,1.29,1.7.21.46.44.94.74,1.38.1.15.26.23.43.23.08,0,.17-.02.25-.06.24-.13.34-.41.24-.66-2.35-5.87-4.66-6.62-6.57-6.53Z"/><path class="uuid-6d1482a0-7230-4591-ab45-e945cbe7af7a" d="m110.36,159.18c-.72.58-1.58.97-2.5,1.12-.19.03-.43.06-.58-.02-.28-.14-.35-.68-.37-1.08l-.46-6.41c-.02-.29-.28-.47-.57-.49-.29.02-.51.28-.49.57l.46,6.4c.03.46.11,1.52.95,1.95.24.12.49.16.74.16.18,0,.35-.02.49-.04,1.1-.18,2.13-.65,2.99-1.35.22-.18.26-.51.08-.74-.19-.23-.52-.26-.74-.08Z"/><path class="uuid-6d1482a0-7230-4591-ab45-e945cbe7af7a" d="m98.49,150.63c-.68.1-1.09,1.09-.92,2.21.17,1.12.85,1.95,1.53,1.85.68-.1,1.09-1.09.92-2.22-.17-1.12-.85-1.95-1.53-1.85Z"/><path class="uuid-6d1482a0-7230-4591-ab45-e945cbe7af7a" d="m112.55,148.53c-.68.1-1.09,1.09-.92,2.21.17,1.12.85,1.95,1.53,1.85s1.09-1.09.92-2.22c-.17-1.12-.86-1.95-1.53-1.85Z"/><path class="uuid-6d1482a0-7230-4591-ab45-e945cbe7af7a" d="m115.76,146.71c-.84-.4-1.69-.81-2.54-1.22-.36-.17-.77-.35-1.14-.2-.45.18-.76.92-.49,1.36.22.37.8.39,1.18.49.68.19,1.34.42,1.99.71.28.12,1.66,1.07,1.86,1,.47-.17.57-.84.31-1.26-.25-.43-.73-.66-1.17-.88Z"/><path class="uuid-6d1482a0-7230-4591-ab45-e945cbe7af7a" d="m97.92,147.41c-.4-.03-.74.26-1.03.53-.69.64-1.38,1.27-2.07,1.91-.37.34-.75.7-.87,1.18-.12.48.17,1.09.67,1.12.21,0,1.26-1.31,1.49-1.5.53-.46,1.1-.88,1.69-1.26.33-.21.88-.4.98-.82.12-.49-.39-1.12-.87-1.15Z"/><path class="uuid-6d1482a0-7230-4591-ab45-e945cbe7af7a" d="m91.6,135.63c-1.13.17-7.53,7.19-5.28,13.11,2.54,6.69,3.79,11.09,3.79,11.09,0,0,3.2-3.29,2.14-10.37-1.06-7.08.48-14.01-.65-13.84Z"/><path class="uuid-6d1482a0-7230-4591-ab45-e945cbe7af7a" d="m116.18,131.95c-.81.12,1.98,6.4,3.04,13.48,1.06,7.08,4.07,9.44,4.07,9.44,0,0-.07-2.8-1.12-9.88-1.06-7.08-5.17-13.16-5.98-13.04Z"/><path class="uuid-6d1482a0-7230-4591-ab45-e945cbe7af7a" d="m99.3,161.6c-.74,2.7.59,5.47,2.95,6.97s5.51,1.29,7.63-.54c-4.3-.19-8.43-2.7-10.58-6.43Z"/><path class="uuid-6d1482a0-7230-4591-ab45-e945cbe7af7a" d="m105.08,128.83c-2.5.28-4.87,1.21-7.2,2.14-1.99.79-4.05,1.61-5.54,3.15-1.47,1.51-2.26,3.59-2.6,5.68-.58,3.6.1,7.38,1.9,10.55,1.53-2.97,4.61-4.8,7.66-6.16,3.06-1.36,6.31-2.43,8.91-4.53,2.39-1.92,3.98-4.86,3.74-7.98-.23-3-4.54-3.11-6.87-2.84Z"/><path class="uuid-6d1482a0-7230-4591-ab45-e945cbe7af7a" d="m116.9,132.92c-1.64-1.62-3.93-2.65-6.23-2.49-2.12.15-4.6,1.6-5.43,3.66-.83,2.07,2.09,4.88,3.52,5.93,1.98,1.46,4.29,2.4,6.41,3.65,2.12,1.25,4.14,2.95,4.95,5.27.81-.79.85-2.05.82-3.18-.06-2.3-.2-4.62-.78-6.85-.58-2.23-1.62-4.38-3.26-6Z"/><path class="uuid-6d1482a0-7230-4591-ab45-e945cbe7af7a" d="m116.18,147.55c-1.29-.75-2.8-.96-4.24-.58-1.45.38-2.66,1.29-3.41,2.58-.75,1.29-.96,2.79-.58,4.24.65,2.51,2.93,4.18,5.41,4.18.47,0,.94-.06,1.41-.18,1.45-.38,2.66-1.29,3.41-2.58.75-1.29.96-2.79.58-4.23-.38-1.45-1.29-2.66-2.58-3.41Zm1.14,7.15c-.62,1.06-1.62,1.82-2.81,2.13-2.46.64-4.97-.83-5.62-3.29-.31-1.19-.14-2.43.48-3.49.62-1.06,1.62-1.82,2.81-2.13.39-.1.78-.15,1.17-.15.81,0,1.6.22,2.32.64,1.06.62,1.82,1.62,2.13,2.81.31,1.19.14,2.43-.48,3.49Z"/><path class="uuid-6d1482a0-7230-4591-ab45-e945cbe7af7a" d="m102.57,149.51c-1.28-.75-2.79-.97-4.24-.58-1.45.38-2.66,1.29-3.41,2.58-.75,1.29-.96,2.79-.58,4.24.65,2.51,2.93,4.18,5.41,4.18.47,0,.94-.06,1.41-.18,1.44-.38,2.66-1.29,3.41-2.58.75-1.29.96-2.79.58-4.23-.38-1.45-1.29-2.66-2.58-3.41Zm1.15,7.15c-.62,1.06-1.62,1.81-2.81,2.12-2.46.64-4.98-.83-5.62-3.29-.64-2.46.84-4.98,3.29-5.62.39-.1.78-.15,1.16-.15,2.04,0,3.92,1.37,4.46,3.44.31,1.19.14,2.43-.48,3.49Z"/><path class="uuid-6d1482a0-7230-4591-ab45-e945cbe7af7a" d="m104.09,152.92l.65.74c.87-.76,2.19-1.02,3.29-.64l.32-.93c-1.45-.5-3.11-.17-4.25.83Z"/><path class="uuid-7a8a608a-99c1-47bf-93f0-acd5eb3aa80f" d="m87.24,160.2c-1.62.24-2.73,1.75-2.49,3.37.24,1.62,1.75,2.73,3.37,2.49,1.62-.24,2.73-1.75,2.49-3.37-.24-1.62-1.75-2.73-3.37-2.49Z"/><path class="uuid-bb11fbdc-283f-4992-a1c2-a28558c96cd5" d="m107.19,465.39c-7.93-.52-15.65,9.7-22.66,14.14l2.77,33.35c.11.71.25,1.41.41,2.09.27,1.15.61,2.25,1,3.26.49,1.25,1.1,2.39,1.81,3.37.24.33.49.64.77.94,1.74,1.91,4.09,3.08,7.26,3.2,4.09.12,4.62-1.26,4.66-4.19,0-1.11-.04-2.46-.01-4.03l3.98-52.13Z"/><path class="uuid-6d1482a0-7230-4591-ab45-e945cbe7af7a" d="m107.21,465.07c-5.52-.34-10.82,4.25-15.94,8.71-2.41,2.09-4.68,4.07-6.9,5.48l-.16.1,2.79,33.54c.11.67.24,1.34.42,2.13.28,1.18.62,2.29,1.01,3.31.51,1.29,1.13,2.45,1.85,3.44.29.39.53.69.8.97,1.9,2.08,4.42,3.19,7.48,3.3.17,0,.34,0,.5,0,1.72,0,2.8-.3,3.49-.96.8-.77.98-1.93,1-3.55,0-.43,0-.9,0-1.41-.01-.79-.02-1.66,0-2.62l4-52.43-.32-.02Zm-4.32,52.42c-.02.98,0,1.87,0,2.66,0,.5.01.96.01,1.39-.02,1.46-.16,2.49-.8,3.11-.61.58-1.76.83-3.53.77-2.88-.1-5.25-1.14-7.03-3.09-.25-.27-.48-.55-.75-.92-.69-.95-1.29-2.06-1.77-3.3-.39-.99-.72-2.07-.99-3.22-.17-.77-.3-1.43-.4-2.07l-2.75-33.14c2.21-1.43,4.45-3.38,6.82-5.43,4.84-4.21,9.85-8.57,14.92-8.57.08,0,.16,0,.25,0l-3.96,51.8Z"/><path class="uuid-6d1482a0-7230-4591-ab45-e945cbe7af7a" d="m70.26,347.23c.16,17.29,7.39,145.54,7.39,145.54,0,0,3.87,4.46,15.38,5.89,11.51,1.42,32.22-4.24,32.22-4.24l11.27-187.98-49.46-7.38s-16.96,30.87-16.8,48.16Z"/><path class="uuid-6d1482a0-7230-4591-ab45-e945cbe7af7a" d="m155.98,538.75c-3.68-1.74-11.07-5.32-12.3-11.99-.49-2.64,0-5.71-2.05-7.72-2.21-2.15-5.72-3.18-8.73-2.69-1.39.22-2.81.86-3.53,2.05-.5-1.09-1.07-1.75-2.49-.67-3.18,2.42-.17,12.17.33,15.83.39,2.86,1.96,12.23,1.96,12.23,0,0,1.38,0,1.87.12.15-1.99.17-5.99.25-8.97.22.4.41.79.69,1.2,3.27,4.96,6.77,8.09,11.29,8.32,2.07.1,7.34.06,10.63-.01,2.04-.04,4.58.11,5.45-1.73.53-1.13.18-2.51-.57-3.51-.75-1-1.67-1.93-2.8-2.46Z"/><path class="uuid-bb11fbdc-283f-4992-a1c2-a28558c96cd5" d="m147.33,467.64c-7.93-.51-15.65,9.7-22.66,14.14l2.77,33.35c.11.71.25,1.4.41,2.09.27,1.15.61,2.25,1,3.27.49,1.25,1.09,2.38,1.81,3.36.24.33.49.64.77.95,1.74,1.91,4.09,3.08,7.25,3.2,4.09.13,4.62-1.26,4.67-4.19,0-1.11-.04-2.46-.01-4.03l3.98-52.13Z"/><path class="uuid-6d1482a0-7230-4591-ab45-e945cbe7af7a" d="m147.35,467.32c-5.5-.34-10.81,4.25-15.94,8.71-2.41,2.09-4.68,4.07-6.91,5.48l-.16.1,2.79,33.54c.11.67.24,1.36.41,2.13.27,1.16.61,2.27,1.02,3.31.51,1.3,1.13,2.45,1.85,3.44.27.37.52.68.8.97,1.9,2.08,4.41,3.18,7.47,3.3.17,0,.34,0,.51,0,1.72,0,2.8-.3,3.49-.96.8-.77.98-1.93,1-3.55,0-.44,0-.91-.01-1.41-.01-.79-.02-1.66,0-2.62l4-52.43-.32-.02Zm-4.32,52.42c-.02.98,0,1.87,0,2.66,0,.5.01.96.01,1.39-.02,1.46-.16,2.49-.8,3.1-.61.58-1.75.84-3.54.77-2.93-.11-5.23-1.12-7.03-3.09-.26-.28-.49-.57-.75-.92-.69-.94-1.29-2.05-1.77-3.3-.39-1.01-.72-2.1-.99-3.22-.17-.75-.3-1.43-.4-2.06l-2.76-33.14c2.22-1.43,4.46-3.38,6.82-5.43,4.85-4.21,9.85-8.57,14.92-8.57.08,0,.16,0,.24,0l-3.96,51.8Z"/><path class="uuid-6d1482a0-7230-4591-ab45-e945cbe7af7a" d="m105.1,301.76s5.13,30.44,5.29,47.73c.16,17.29,7.39,145.54,7.39,145.54,0,0,3.87,4.46,15.38,5.88,11.51,1.42,19.58,1.54,24.38-5.02,4.92-141.37-5.57-185.95-5.57-185.95l-46.88-8.19Z"/><path class="uuid-6d1482a0-7230-4591-ab45-e945cbe7af7a" d="m135.25,292.72c-4.87-.88-9.67-5.25-14.16-3.16-2.81,1.31-5.4,5.02-8.11,3.42-1-.59-1.7-1.86-2.84-1.96-1.49-.13-2.28,1.74-3.47,2.65-3.86,2.95-9.12-4.85-13.47-2.77-1.33.64-2.16,2.08-3.43,2.85-2.4,1.45-5.39.09-8.02-.9-2.33-.88-6.07-1.45-7.4,1.24,5.96,4.12,8.26,9.56,9.37,16.71.78,5.01,1.69,7.48,6.6,9.16,6.67,2.28,14.21,2.97,21.15,3.12,7.26.16,14.53-.59,21.59-2.25,1.88-.44,19.63-5.36,19.29-7.16-2.07-11.08,2.13-23.12,10.48-30.04-9.79-1.59-17.81,10.84-27.58,9.09Z"/><path class="uuid-bb11fbdc-283f-4992-a1c2-a28558c96cd5" d="m151.86,309.46c-19.82,5.12-41.75,2.96-60.18-5.92-.24-.12-.54-.02-.66.23-.12.24-.02.54.23.66,12,5.78,25.46,8.74,38.87,8.74,7.43,0,14.85-.91,21.99-2.75.26-.07.42-.34.35-.6-.07-.26-.34-.43-.6-.35Z"/><path class="uuid-bb11fbdc-283f-4992-a1c2-a28558c96cd5" d="m121.72,347.67h-.01c-.27,0-.49.23-.48.5l3.53,146.26c0,.27.22.48.49.48h.01c.27,0,.49-.23.48-.5l-3.53-146.26c0-.27-.22-.48-.49-.48Z"/><path class="uuid-bb11fbdc-283f-4992-a1c2-a28558c96cd5" d="m94.8,294.32c-.27-.06-.53.1-.6.36-.06.26.1.53.36.6,3.15.78,5.65,3.8,5.81,7.05.01.26.23.47.49.47h.02c.27-.01.48-.24.47-.51-.18-3.66-2.99-7.08-6.55-7.95Z"/><path class="uuid-bb11fbdc-283f-4992-a1c2-a28558c96cd5" d="m112.14,295.51c-.27.03-.46.28-.42.55l1.47,11.26c.03.25.24.43.49.43.02,0,.04,0,.06,0,.27-.04.46-.28.42-.55l-1.47-11.26c-.03-.27-.29-.47-.55-.42Z"/><path class="uuid-bb11fbdc-283f-4992-a1c2-a28558c96cd5" d="m127.94,295.6c-3.12,2.83-4.96,7.04-4.91,11.25,0,.27.22.49.49.49h0c.27,0,.49-.22.49-.49-.04-3.94,1.67-7.87,4.59-10.52.2-.18.22-.49.03-.69s-.49-.22-.69-.03Z"/><path class="uuid-bb11fbdc-283f-4992-a1c2-a28558c96cd5" d="m148.42,298.9c-4.21.86-7.98,3.8-9.84,7.66-.12.25-.02.54.23.66.07.03.14.05.21.05.18,0,.36-.1.44-.28,1.73-3.6,5.24-6.33,9.15-7.13.27-.05.44-.31.38-.58-.05-.26-.32-.45-.58-.38Z"/><path class="uuid-bb11fbdc-283f-4992-a1c2-a28558c96cd5" d="m136.1,297.49c-3.36,1.66-5.69,5.15-5.94,8.9-.02.27.19.5.46.52.01,0,.02,0,.03,0,.26,0,.47-.2.49-.46.22-3.4,2.33-6.57,5.39-8.08.24-.12.34-.41.22-.66-.12-.24-.42-.34-.66-.22Z"/><path class="uuid-bb11fbdc-283f-4992-a1c2-a28558c96cd5" d="m148.96,315.42c-20.45,6.92-43.54,4.15-61.78-7.4-.23-.15-.53-.08-.68.15-.15.23-.08.53.15.68,11.77,7.45,25.54,11.3,39.34,11.3,7.87,0,15.76-1.25,23.29-3.8.26-.09.4-.37.31-.62-.08-.25-.36-.39-.62-.31Z"/><path class="uuid-a1da616b-4edc-418c-89c5-9505c627ba0e" d="m120.44,216.15c-4.65-.63-8.93,2.63-9.56,7.28-.63,4.65,2.63,8.93,7.28,9.56,4.65.63,8.93-2.63,9.56-7.28.63-4.65-2.63-8.93-7.29-9.56Zm4.31,9.16c-.41,3.01-3.18,5.11-6.18,4.7-3-.41-5.11-3.17-4.71-6.18.41-3,3.17-5.11,6.18-4.71,3,.41,5.11,3.17,4.71,6.18Z"/><path class="uuid-a1da616b-4edc-418c-89c5-9505c627ba0e" d="m137.65,227.05l-36.7-4.96c-3.75-.5-7.19,2.12-7.7,5.87l-7.67,56.75c-.51,3.75,2.12,7.19,5.87,7.7l36.7,4.96c3.75.51,7.19-2.12,7.7-5.87l7.67-56.75c.51-3.75-2.12-7.19-5.87-7.7Z"/><path class="uuid-bb11fbdc-283f-4992-a1c2-a28558c96cd5" d="m143.56,247.27c-1.13-1.29-2.92-1.79-4.63-1.98-3.39-.36-6.8.3-10,1.56.39-1.08.68-2.19.73-3.34.02-.44-.17-1.04-.6-.98-.18.03-.32.18-.44.32-1.86,2.19-3.65,4.49-5.61,6.6-.66.71-1.38,1.35-2.1,1.99-.63.46-1.25.92-1.86,1.41l-37.33,9.15-.06-6.05-.03-3.02-.28-29.92c-18.36-7.96-21.34,4.71-25.17,16.45,0,0-.16,6.48.2,15.15.23,5.11.62,10.95,1.35,16.71,1.75,13.61,4.29,22.27,11.54,22.98,12.25,1.22,34.26-12.18,49.2-23.13.58-.36,1.14-.76,1.67-1.16,3.77-2.81,8.17-4.77,12.78-5.69,2.31-.46,4.75-.69,6.76-1.93,1.25-.78,1.45-1.58.81-2.29,1.71-.29,2.69-3.11,1.44-3.71,1.69-.67,2.45-3,1.48-4.53,1.38-1.02,1.27-3.29.14-4.59Z"/><path class="uuid-6d1482a0-7230-4591-ab45-e945cbe7af7a" d="m138.96,244.98c-3.01-.32-6.21.13-9.51,1.34.32-1,.49-1.92.53-2.79.02-.35-.08-.85-.38-1.13-.16-.15-.37-.21-.58-.17-.31.05-.51.28-.64.43-.62.73-1.22,1.46-1.83,2.2-1.21,1.47-2.46,2.98-3.77,4.39-.66.71-1.38,1.35-2.08,1.97-.59.43-1.2.88-1.8,1.36l-36.88,9.04-.36-38.8-.19-.08c-6.31-2.73-11.22-3.23-14.99-1.52-5.58,2.53-7.84,9.58-10.04,16.4-.19.59-.38,1.17-.57,1.76l-.02.09c0,.06-.16,6.59.2,15.17.29,6.31.73,11.78,1.35,16.73,1.77,13.82,4.37,22.52,11.82,23.26.53.05,1.09.08,1.65.08,14.85,0,40.14-17.68,47.76-23.27.61-.38,1.21-.82,1.67-1.16,3.73-2.78,8.1-4.73,12.66-5.63.43-.09.87-.17,1.31-.24,1.9-.34,3.87-.69,5.55-1.73.78-.48,1.22-1.01,1.3-1.56.04-.28-.01-.55-.15-.82.97-.4,1.65-1.49,1.79-2.46.08-.55-.03-1.03-.28-1.36.67-.41,1.19-1.08,1.46-1.91.3-.91.24-1.84-.15-2.61.5-.46.82-1.11.9-1.87.12-1.06-.24-2.21-.93-3-1.02-1.16-2.6-1.84-4.84-2.08Zm4.28,6.62l-.24.17.16.25c.41.65.49,1.5.22,2.32s-.83,1.46-1.55,1.74l-.67.27.65.31c.43.21.4.8.37,1.05-.12.87-.82,1.91-1.73,2.06l-.56.1.38.42c.21.24.3.47.27.7-.05.36-.4.74-1.01,1.12-1.57.97-3.48,1.32-5.33,1.65-.44.08-.89.16-1.33.25-4.65.93-9.11,2.91-12.91,5.75-.44.34-1.04.77-1.65,1.15-7.89,5.79-34.69,24.51-49,23.09-7.03-.69-9.52-9.2-11.25-22.71-.62-4.93-1.06-10.39-1.34-16.68-.34-8.17-.21-14.48-.2-15.08.19-.57.37-1.14.55-1.72,2.15-6.69,4.37-13.61,9.69-16.02,3.57-1.62,8.24-1.14,14.29,1.44l.36,39.19,37.84-9.31c.61-.49,1.23-.95,1.86-1.4.7-.62,1.46-1.29,2.14-2.03,1.32-1.42,2.58-2.94,3.79-4.42.61-.74,1.21-1.47,1.83-2.19.06-.07.17-.2.24-.21.17.12.25.4.24.65-.04.99-.28,2.06-.71,3.25l-.24.66.66-.26c2.76-1.09,5.45-1.63,8.01-1.63.62,0,1.23.03,1.83.1,2.08.22,3.52.83,4.43,1.87.58.66.88,1.63.78,2.52-.05.48-.25,1.15-.87,1.61Z"/><path class="uuid-6d1482a0-7230-4591-ab45-e945cbe7af7a" d="m61.59,252.47c-1.6.52-3.23,1.1-4.69,1.87-.14,3.81-.18,8.16.12,12.41,2.87-1.46,5.7-2.99,8.63-4.37,12.08-5.7,12.96-5.89,16.01-6.41l.09-4.7c-.04-.08-.1-.15-.15-.22-2.81-3.63-15.6,0-20.01,1.42Z"/><path class="uuid-7a8a608a-99c1-47bf-93f0-acd5eb3aa80f" d="m94.25,191.63c-4.02-.3-17.33,10.67-20.06,13.2-8.22,7.64-14.35,17.4-18.25,27.89-2.22,5.97-3.73,12.22-4.47,18.55-.36,3.11-.41,6.68,1.82,8.87,2.91,2.87,7.73,1.71,11.58.35,6.84-2.4,11.39-4,18.23-6.4,3.95-1.39-2.09-23.77,3.33-29.94,2.93-3.33,9.06,1.45,8.71-2.97-.62-8.12,1.24-3.37-.18-11.38-.67-3.79,4.41-17.8-.72-18.18Z"/><path class="uuid-bb11fbdc-283f-4992-a1c2-a28558c96cd5" d="m374.73,300.33h-149.05c-2.42,0-4.38,1.97-4.38,4.39v108.6c0,1.83,1.48,3.31,3.31,3.31h151.2c1.83,0,3.31-1.49,3.31-3.31v-108.61c0-2.42-1.97-4.38-4.39-4.38Z"/><path class="uuid-6d1482a0-7230-4591-ab45-e945cbe7af7a" d="m374.73,299.75h-149.05c-2.74,0-4.96,2.22-4.96,4.97v108.6c0,2.14,1.74,3.89,3.88,3.89h151.2c2.15,0,3.89-1.74,3.89-3.89v-108.61c0-2.73-2.22-4.96-4.96-4.96Zm3.81,113.57c0,1.51-1.23,2.73-2.73,2.73h-151.2c-1.5,0-2.73-1.23-2.73-2.73v-108.6c0-2.1,1.71-3.81,3.81-3.81h149.05c2.1,0,3.81,1.71,3.81,3.8v108.61Z"/><path class="uuid-6d1482a0-7230-4591-ab45-e945cbe7af7a" d="m374.73,299.75h-149.05c-2.74,0-4.96,2.22-4.96,4.96v12.13h158.97v-12.13c0-2.74-2.22-4.96-4.96-4.96Z"/><path class="uuid-7e4e1201-fd47-4ddd-bed1-dea76989d1af" d="m250.69,305.67c-1.45,0-2.63,1.18-2.63,2.62s1.18,2.63,2.63,2.63,2.63-1.18,2.63-2.63-1.18-2.62-2.63-2.62Z"/><path class="uuid-3dc262c7-478f-4a77-a3b4-07a6486b24c7" d="m240.59,305.67c-1.45,0-2.63,1.18-2.63,2.62s1.18,2.63,2.63,2.63,2.63-1.18,2.63-2.63-1.18-2.62-2.63-2.62Z"/><path class="uuid-bb11fbdc-283f-4992-a1c2-a28558c96cd5" d="m230.49,305.91c-1.32,0-2.39,1.07-2.39,2.39s1.07,2.39,2.39,2.39,2.38-1.07,2.38-2.39-1.07-2.39-2.38-2.39Z"/><path class="uuid-6d1482a0-7230-4591-ab45-e945cbe7af7a" d="m230.49,305.67c-1.45,0-2.62,1.18-2.62,2.62s1.18,2.63,2.62,2.63,2.63-1.18,2.63-2.63-1.18-2.62-2.63-2.62Zm0,4.77c-1.18,0-2.14-.96-2.14-2.15s.96-2.14,2.14-2.14,2.15.96,2.15,2.14-.96,2.15-2.15,2.15Z"/><polygon class="uuid-bb11fbdc-283f-4992-a1c2-a28558c96cd5" points="372.2 305.08 370.34 306.93 368.48 305.08 367.18 306.38 369.04 308.23 367.18 310.09 368.48 311.39 370.34 309.53 372.2 311.39 373.5 310.09 371.64 308.23 373.5 306.38 372.2 305.08"/><rect class="uuid-7e4e1201-fd47-4ddd-bed1-dea76989d1af" x="274.92" y="388.35" width="21.68" height="19.93"/><rect class="uuid-3dc262c7-478f-4a77-a3b4-07a6486b24c7" x="243.75" y="395.96" width="21.67" height="12.31"/><rect class="uuid-6d1482a0-7230-4591-ab45-e945cbe7af7a" x="304.6" y="375.73" width="21.68" height="32.54"/><rect class="uuid-3dc262c7-478f-4a77-a3b4-07a6486b24c7" x="334.28" y="363.35" width="21.67" height="44.93"/><path class="uuid-3dc262c7-478f-4a77-a3b4-07a6486b24c7" d="m352.25,327.81c-.73-.41-1.69-.19-2.13.5l-11.28,17.11-16.68-7.6c-.38-.17-.83-.2-1.23-.05-.4.14-.72.43-.89.8l-10.52,23.4-17.89-12.78c-.35-.25-.8-.35-1.24-.26-.44.08-.82.34-1.05.7l-14.15,22.9-18.02-6.97c-.66-.25-1.43-.05-1.86.49l-15.23,19.54c-.51.65-.36,1.56.33,2.03.32.21.69.3,1.05.26.43-.03.85-.24,1.12-.6l14.5-18.61,18.15,7.02c.72.28,1.55.01,1.95-.62l13.96-22.57,18.09,12.92c.38.27.88.36,1.34.24.46-.12.84-.43,1.03-.85l10.67-23.71,16.47,7.51c.72.33,1.59.08,2.01-.56l12.02-18.25c.45-.69.22-1.58-.51-1.99Z"/><path class="uuid-3dc262c7-478f-4a77-a3b4-07a6486b24c7" d="m354.44,326.05c-.1-.39-.38-.73-.75-.92-.38-.19-.83-.23-1.24-.1l-10.91,3.47c-.82.26-1.26,1.08-.99,1.84.27.76,1.15,1.16,1.96.91l9.31-2.96,1.95,7.63c.18.7.88,1.16,1.63,1.09.08,0,.16-.02.24-.03.83-.2,1.34-.98,1.15-1.76l-2.34-9.16Z"/></svg>