<?xml version="1.0" encoding="UTF-8"?><svg id="uuid-4f64c0a9-d808-4108-93c6-1f8a3f69c996" xmlns="http://www.w3.org/2000/svg" viewBox="0 0 558.65 532.67"><defs><style>.uuid-20dabef4-4c35-4edb-a776-b1ca57329623{fill:#e3e6eb;}.uuid-17f14a1d-5102-4c3a-a92a-28b132ad019a,.uuid-81870690-5703-49c3-8e77-27585bb62c46{fill:#fff;}.uuid-504f6b1d-52eb-4760-b4fc-b9afda815c6b{fill:#bd695b;}.uuid-c59bdc12-03ba-45ba-9906-7eceb7a3d71b{fill:#e6ebf0;}.uuid-311d9943-8bd3-4db5-9b98-1fef6276c2af{fill:#73cbe2;}.uuid-bed6ebc7-fb66-42b0-ac95-75f8c9f21dbe{fill:#fd4e4e;}.uuid-884ece26-70cd-482d-b240-48a2697497bf{fill:#001940;}.uuid-af6a7237-8308-4d1d-bc6e-d9a4c82275bc{fill:#f85a44;}.uuid-cf8783c9-3302-4808-a24b-a9ad6eaf773a{fill:#ffab48;}.uuid-81870690-5703-49c3-8e77-27585bb62c46{opacity:.6;}.uuid-1d289821-b857-4e25-bdcf-1cdfa6faf93c{fill:#aab6c2;}</style></defs><path class="uuid-c59bdc12-03ba-45ba-9906-7eceb7a3d71b" d="m400.5,17.1c-1.54.06-3.09.15-4.64.26-13.93,1.05-27.71,4.28-40.88,9.99-97.01,42.05-104.77,68.43-195.2,65.17C-73.57,84.11-10.51,372.12,92.5,470.93c103.01,98.81,304.83,52.56,408.01,0,103.18-52.56,27.16-178.69,54.46-285.91,23.17-91.04-67.26-171.47-154.47-167.92Z"/><path class="uuid-c59bdc12-03ba-45ba-9906-7eceb7a3d71b" d="m92.5,470.93c103.01,98.81,304.83,52.56,408.01,0,103.18-52.56,27.16-178.69,54.46-285.91,23.17-91.04-67.26-171.47-154.47-167.92-1.54.06-3.09.15-4.64.26-13.93,1.05-27.71,4.28-40.88,9.99-97.01,42.05-104.77,68.43-195.2,65.17C-73.57,84.11-10.51,372.12,92.5,470.93Z"/><path class="uuid-c59bdc12-03ba-45ba-9906-7eceb7a3d71b" d="m164.91,53.67c-.58,4.49,2.31,8.69,6.72,9.71,17.79,4.1,69.52,10.85,112.79-34.82,50.53-53.34-113.16-24.42-119.51,25.11Z"/><rect class="uuid-884ece26-70cd-482d-b240-48a2697497bf" x="35.12" y="529" width="482.46" height="3.66"/><path class="uuid-1d289821-b857-4e25-bdcf-1cdfa6faf93c" d="m86.53,371.67h45.31v-24.83h-45.31v24.83Zm2.6-22.23h40.12v19.63h-40.12v-19.63Z"/><path class="uuid-1d289821-b857-4e25-bdcf-1cdfa6faf93c" d="m55.5,393.89h45.31v-24.83h-45.31v24.83Zm2.6-22.23h40.12v19.63h-40.12v-19.63Z"/><path class="uuid-1d289821-b857-4e25-bdcf-1cdfa6faf93c" d="m198.27,158.31h45.31v-24.83h-45.31v24.83Zm2.6-22.23h40.12v19.63h-40.12v-19.63Z"/><path class="uuid-1d289821-b857-4e25-bdcf-1cdfa6faf93c" d="m434.64,407.49h45.31v-24.83h-45.31v24.83Zm2.6-22.23h40.12v19.63h-40.12v-19.63Z"/><path class="uuid-1d289821-b857-4e25-bdcf-1cdfa6faf93c" d="m277.9,432.38h45.31v-24.83h-45.31v24.83Zm2.6-22.23h40.12v19.63h-40.12v-19.63Z"/><path class="uuid-1d289821-b857-4e25-bdcf-1cdfa6faf93c" d="m235.14,432.38h45.31v-24.83h-45.31v24.83Zm2.59-22.23h40.12v19.63h-40.12v-19.63Z"/><path class="uuid-1d289821-b857-4e25-bdcf-1cdfa6faf93c" d="m256.54,454.61h45.31v-24.83h-45.31v24.83Zm2.6-22.23h40.12v19.63h-40.12v-19.63Z"/><path class="uuid-1d289821-b857-4e25-bdcf-1cdfa6faf93c" d="m343.6,289.59h45.31v-24.83h-45.31v24.83Zm2.6-22.23h40.12v19.63h-40.12v-19.63Z"/><path class="uuid-1d289821-b857-4e25-bdcf-1cdfa6faf93c" d="m374.63,311.82h45.31v-24.83h-45.31v24.83Zm2.6-22.23h40.11v19.63h-40.11v-19.63Z"/><path class="uuid-1d289821-b857-4e25-bdcf-1cdfa6faf93c" d="m419.32,187.47h45.31v-24.83h-45.31v24.83Zm2.6-22.23h40.11v19.63h-40.11v-19.63Z"/><path class="uuid-1d289821-b857-4e25-bdcf-1cdfa6faf93c" d="m376.56,187.47h45.31v-24.83h-45.31v24.83Zm2.6-22.23h40.12v19.63h-40.12v-19.63Z"/><path class="uuid-1d289821-b857-4e25-bdcf-1cdfa6faf93c" d="m397.96,209.7h45.31v-24.83h-45.31v24.83Zm2.6-22.23h40.12v19.63h-40.12v-19.63Z"/><path class="uuid-884ece26-70cd-482d-b240-48a2697497bf" d="m287.3,187.11c-38.85-10.79-78.19-4.69-110.42,13.83-32.13,18.48-57.16,49.35-67.39,88.2-20.48,77.79,25.92,158.65,103.48,180.25,8.76,2.43,17.55,4.03,26.28,4.77,68.59,6.09,133.44-37.7,151.63-106.77,1.98-7.53,3.33-15.11,4.1-22.61,7.13-70.34-37.58-138.2-107.68-157.67Zm51.35,151.24c-.47,4.6-1.31,9.21-2.52,13.82-11.11,42.19-50.73,68.97-92.65,65.24-5.34-.46-10.7-1.41-16.06-2.91-47.41-13.19-75.77-62.6-63.25-110.15,6.26-23.76,21.54-42.59,41.19-53.9,19.69-11.34,43.74-15.06,67.49-8.45,42.82,11.89,70.14,53.37,65.81,96.35Z"/><path class="uuid-1d289821-b857-4e25-bdcf-1cdfa6faf93c" d="m291.58,188.48c-38.52-11.94-78.05-7.05-110.82,10.48l27.01,50.35c20.02-10.74,44.18-13.72,67.73-6.42,42.47,13.18,68.55,55.43,62.94,98.25l56.12,8.13c9.22-70.08-33.45-139.23-102.98-160.79Z"/><path class="uuid-af6a7237-8308-4d1d-bc6e-d9a4c82275bc" d="m246.84,402.95l-3.75,86.18s146.34,13.71,168.09-139.65l-83.58-10.24s-18.49,65-80.76,63.72Z"/><polygon class="uuid-884ece26-70cd-482d-b240-48a2697497bf" points="208.99 530.84 318.17 529.89 277.62 388.78 208.99 530.84"/><polygon class="uuid-1d289821-b857-4e25-bdcf-1cdfa6faf93c" points="205.33 530.84 314.52 529.89 273.96 388.78 205.33 530.84"/><path class="uuid-884ece26-70cd-482d-b240-48a2697497bf" d="m317.23,528.96h-80.26c-.52,0-.94.42-.94.94s.43.94.94.94h80.26c.52,0,.94-.42.94-.94s-.42-.94-.94-.94Z"/><path class="uuid-884ece26-70cd-482d-b240-48a2697497bf" d="m271.74,384.58H90.83c-4.18,0-8.28,3.39-9.17,7.56l-27.87,131.13c-.88,4.18,1.78,7.56,5.96,7.56h180.91c4.17,0,8.28-3.39,9.17-7.56l27.87-131.13c.89-4.18-1.77-7.56-5.96-7.56Z"/><path class="uuid-17f14a1d-5102-4c3a-a92a-28b132ad019a" d="m266.84,383.77H85.93c-4.53,0-9.01,3.68-9.97,8.21l-27.87,131.13c-.49,2.29-.03,4.46,1.29,6.09,1.28,1.58,3.22,2.46,5.46,2.46h180.91c4.53,0,9-3.68,9.96-8.21l27.87-131.13c.49-2.29.03-4.46-1.29-6.09-1.28-1.58-3.22-2.46-5.46-2.46Z"/><path class="uuid-884ece26-70cd-482d-b240-48a2697497bf" d="m266.84,382.96H85.93c-4.98,0-9.71,3.89-10.76,8.85l-27.87,131.13c-.54,2.54-.02,4.94,1.45,6.77,1.44,1.78,3.61,2.76,6.1,2.76h180.91c4.98,0,9.71-3.89,10.76-8.85l27.87-131.13c.54-2.54.02-4.94-1.45-6.77-1.44-1.78-3.6-2.76-6.09-2.76Zm5.96,9.19l-27.87,131.13c-.89,4.18-4.99,7.56-9.17,7.56H54.85c-4.18,0-6.84-3.39-5.96-7.56l27.87-131.13c.89-4.18,5-7.56,9.17-7.56h180.91c4.18,0,6.84,3.39,5.96,7.56Z"/><polygon class="uuid-1d289821-b857-4e25-bdcf-1cdfa6faf93c" points="74.13 530.84 75.44 530.84 101.32 409.06 100.01 409.06 74.13 530.84"/><polygon class="uuid-1d289821-b857-4e25-bdcf-1cdfa6faf93c" points="67.29 436.7 263.33 436.7 263.6 435.38 67.57 435.38 67.29 436.7"/><polygon class="uuid-1d289821-b857-4e25-bdcf-1cdfa6faf93c" points="62.17 460.8 258.2 460.8 258.49 459.48 62.45 459.48 62.17 460.8"/><polygon class="uuid-1d289821-b857-4e25-bdcf-1cdfa6faf93c" points="57.05 484.89 253.08 484.89 253.36 483.57 57.33 483.57 57.05 484.89"/><polygon class="uuid-1d289821-b857-4e25-bdcf-1cdfa6faf93c" points="52 508.64 248.04 508.64 248.32 507.32 52.28 507.32 52 508.64"/><polygon class="uuid-1d289821-b857-4e25-bdcf-1cdfa6faf93c" points="102.27 530.84 103.58 530.84 129.46 409.06 128.15 409.06 102.27 530.84"/><polygon class="uuid-1d289821-b857-4e25-bdcf-1cdfa6faf93c" points="130.41 530.84 131.72 530.84 157.61 409.06 156.29 409.06 130.41 530.84"/><polygon class="uuid-1d289821-b857-4e25-bdcf-1cdfa6faf93c" points="158.55 530.84 159.86 530.84 185.75 409.06 184.44 409.06 158.55 530.84"/><polygon class="uuid-1d289821-b857-4e25-bdcf-1cdfa6faf93c" points="186.69 530.84 188.01 530.84 213.89 409.06 212.58 409.06 186.69 530.84"/><polygon class="uuid-1d289821-b857-4e25-bdcf-1cdfa6faf93c" points="215.28 530.84 216.6 530.84 242.48 409.06 241.16 409.06 215.28 530.84"/><path class="uuid-1d289821-b857-4e25-bdcf-1cdfa6faf93c" d="m266.84,384.58H85.93c-4.18,0-8.28,3.39-9.17,7.56l-4.15,19.54h196.03l4.15-19.54c.89-4.18-1.78-7.56-5.96-7.56Z"/><path class="uuid-311d9943-8bd3-4db5-9b98-1fef6276c2af" d="m226.14,418.2c.38,0,.67.11.86.35.19.23.26.58.22,1.06l2.39-.26c.04-1.02-.19-1.79-.7-2.33-.51-.53-1.25-.8-2.2-.8-1.36,0-2.58.51-3.65,1.53-1.07,1.02-1.85,2.68-2.34,4.99-.48,2.25-.41,3.87.2,4.85.61.99,1.55,1.48,2.82,1.48,1.18,0,2.24-.39,3.16-1.17.92-.78,1.52-1.81,1.79-3.1.26-1.22.11-2.2-.45-2.97-.56-.77-1.34-1.15-2.34-1.15-.89,0-1.72.36-2.47,1.06.4-1.44.83-2.4,1.28-2.86.45-.46.93-.69,1.44-.69Zm-2.29,4.81c.4-.36.83-.54,1.3-.54s.84.19,1.08.57c.24.38.27.98.1,1.8-.17.8-.44,1.37-.81,1.72-.37.35-.78.52-1.23.52s-.83-.21-1.1-.64c-.27-.43-.32-1.03-.16-1.82.15-.71.42-1.24.82-1.61Z"/><path class="uuid-1d289821-b857-4e25-bdcf-1cdfa6faf93c" d="m78.41,441.96c-1.2,0-2.2.31-2.99.92-.79.61-1.28,1.39-1.48,2.33-.12.55-.08,1.05.1,1.52.19.46.56.82,1.13,1.09-.79.31-1.42.75-1.88,1.31-.46.57-.76,1.2-.9,1.88-.26,1.24-.02,2.21.73,2.92.63.6,1.52.9,2.67.9,1.23,0,2.3-.36,3.19-1.09.89-.73,1.46-1.67,1.71-2.84.15-.7.1-1.32-.15-1.86-.25-.54-.69-.95-1.33-1.23.6-.24,1.1-.59,1.5-1.04.4-.45.66-.98.79-1.56.2-.94.03-1.72-.5-2.33-.53-.61-1.4-.92-2.59-.92Zm-.08,8.83c-.14.68-.41,1.2-.82,1.55-.4.36-.85.54-1.35.54s-.9-.19-1.16-.56c-.26-.37-.32-.89-.18-1.55.1-.48.34-.92.71-1.32.37-.41.85-.61,1.44-.61.51,0,.89.18,1.15.54.26.36.32.83.2,1.42Zm.87-5.42c-.1.48-.32.86-.65,1.13-.33.27-.73.41-1.19.41s-.78-.13-1-.4c-.21-.27-.27-.65-.17-1.13.1-.45.31-.82.64-1.09.33-.28.73-.41,1.19-.41s.78.14.99.41c.21.27.27.64.17,1.09Z"/><path class="uuid-311d9943-8bd3-4db5-9b98-1fef6276c2af" d="m250.32,418.68h5.49c-1.44,1.43-2.69,3.04-3.75,4.85-1.06,1.81-1.8,3.58-2.21,5.33h2.33c.23-1.11.68-2.37,1.35-3.79.67-1.41,1.49-2.74,2.46-3.99.97-1.26,1.87-2.22,2.69-2.89l.37-1.75h-8.25l-.48,2.24Z"/><path class="uuid-1d289821-b857-4e25-bdcf-1cdfa6faf93c" d="m170.21,416.33l-7.16,8-.45,2.11h5.15l-.54,2.53h2.34l.54-2.53h1.56l.45-2.12h-1.56l1.7-7.99h-2.03Zm-2.01,7.99h-2.89l3.81-4.3-.92,4.3Z"/><path class="uuid-1d289821-b857-4e25-bdcf-1cdfa6faf93c" d="m82.77,418.34c-.86.58-1.63.97-2.3,1.17l-.47,2.19c1.28-.39,2.45-1,3.51-1.83l-1.93,9.09h2.42l2.68-12.64h-1.96c-.44.77-1.09,1.44-1.95,2.01Z"/><path class="uuid-1d289821-b857-4e25-bdcf-1cdfa6faf93c" d="m112.14,416.33c-1.13,0-2.14.29-3.02.87-.88.58-1.53,1.53-1.96,2.86l2.35.24c.2-.71.48-1.21.84-1.51.36-.3.79-.46,1.3-.46s.88.15,1.11.43c.23.29.29.71.17,1.24-.1.49-.37.98-.81,1.48-.32.36-1.13,1.05-2.44,2.06-1.62,1.25-2.74,2.26-3.36,3.02-.62.76-1.06,1.56-1.33,2.41h8.46l.48-2.24h-4.79c.17-.22.38-.44.63-.67.26-.23.83-.69,1.75-1.39.91-.7,1.55-1.23,1.92-1.6.56-.56.99-1.1,1.31-1.61.31-.51.53-1.05.65-1.62.21-1,.03-1.83-.53-2.5-.57-.67-1.47-1-2.71-1Z"/><path class="uuid-1d289821-b857-4e25-bdcf-1cdfa6faf93c" d="m140.72,416.22c-.69,0-1.35.13-1.96.39-.61.26-1.12.62-1.53,1.07-.41.45-.77,1.06-1.09,1.82l2.14.38c.18-.55.44-.97.8-1.26.35-.28.73-.43,1.15-.43s.73.13.93.38c.2.25.25.59.16,1.01-.1.5-.36.9-.77,1.2-.4.3-.93.44-1.58.42l-.68,1.97c.45-.12.84-.18,1.14-.18.47,0,.83.18,1.08.53.25.36.31.84.19,1.44-.14.64-.42,1.15-.84,1.52-.42.38-.88.57-1.38.57-.46,0-.82-.15-1.08-.47-.26-.31-.37-.77-.31-1.37l-2.4.29c-.1,1.06.15,1.92.76,2.57.61.65,1.49.98,2.63.98,1.2,0,2.29-.39,3.26-1.17.97-.78,1.57-1.72,1.81-2.83.16-.76.08-1.41-.23-1.95-.32-.54-.82-.88-1.51-1.04,1.35-.66,2.14-1.54,2.37-2.65.16-.78.02-1.48-.44-2.09-.55-.76-1.42-1.13-2.61-1.13Z"/><path class="uuid-1d289821-b857-4e25-bdcf-1cdfa6faf93c" d="m192.09,422.88l1.9.29c.68-.62,1.37-.92,2.06-.92.55,0,.97.19,1.23.58.26.39.31.97.15,1.74-.17.83-.48,1.44-.92,1.85-.44.41-.91.61-1.41.61-.44,0-.8-.16-1.07-.47-.27-.32-.38-.75-.34-1.29l-2.46.25c-.08,1.05.18,1.89.78,2.52.6.63,1.48.94,2.65.94,1.45,0,2.71-.56,3.76-1.67.77-.82,1.27-1.74,1.49-2.78.27-1.24.11-2.25-.47-3.03-.58-.78-1.4-1.17-2.48-1.17-.56,0-1.14.13-1.73.4l.83-2.14h4.56l.48-2.26h-6.38l-2.63,6.56Z"/><path class="uuid-1d289821-b857-4e25-bdcf-1cdfa6faf93c" d="m106.29,441.96c-1.15,0-2.17.39-3.08,1.17-.91.78-1.49,1.81-1.76,3.09-.26,1.22-.12,2.22.41,2.99.54.76,1.3,1.14,2.26,1.14.89,0,1.71-.35,2.45-1.05-.4,1.44-.82,2.39-1.26,2.85-.43.46-.9.69-1.39.69-.38,0-.67-.11-.86-.34-.19-.23-.26-.58-.21-1.06l-2.34.26c-.05,1.04.16,1.83.64,2.35.48.52,1.2.79,2.17.79,1.34,0,2.53-.51,3.58-1.53,1.05-1.02,1.82-2.68,2.31-4.98.48-2.26.43-3.88-.16-4.88-.59-.99-1.51-1.48-2.76-1.48Zm.68,4.46c-.15.71-.42,1.25-.81,1.61-.39.37-.81.55-1.27.55s-.82-.19-1.05-.57c-.23-.38-.26-.98-.09-1.79.17-.8.44-1.38.8-1.73.36-.35.76-.53,1.2-.53.46,0,.82.22,1.07.65.26.43.31,1.03.14,1.81Z"/><path class="uuid-1d289821-b857-4e25-bdcf-1cdfa6faf93c" d="m128.37,443.99c-.86.58-1.62.96-2.29,1.17l-.46,2.18c1.27-.39,2.44-1,3.49-1.82l-1.93,9.05h2.4l2.67-12.58h-1.95c-.44.76-1.08,1.43-1.94,2Z"/><path class="uuid-1d289821-b857-4e25-bdcf-1cdfa6faf93c" d="m139.91,441.99c-1.22,0-2.25.42-3.11,1.28-1.04,1.04-1.81,2.73-2.32,5.09-.51,2.41-.49,4.08.05,5.02.55.94,1.43,1.4,2.65,1.4s2.25-.43,3.11-1.28c1.05-1.04,1.82-2.74,2.32-5.11.51-2.38.46-4.08-.14-5.1-.5-.87-1.36-1.3-2.57-1.3Zm.19,6.4c-.31,1.47-.62,2.51-.91,3.13-.23.48-.47.81-.74.99-.27.19-.55.28-.84.28s-.53-.09-.71-.27c-.19-.18-.3-.55-.33-1.1-.03-.55.11-1.56.42-3.03.32-1.47.62-2.51.92-3.14.23-.48.48-.81.74-1,.27-.18.55-.28.84-.28s.53.09.72.28c.19.18.29.55.33,1.1.03.55-.11,1.56-.42,3.03Z"/><path class="uuid-1d289821-b857-4e25-bdcf-1cdfa6faf93c" d="m158.27,444.1c-.86.57-1.62.96-2.29,1.17l-.47,2.18c1.28-.39,2.44-1,3.49-1.82l-1.93,9.05h2.4l2.67-12.59h-1.95c-.44.77-1.08,1.43-1.94,2.01Z"/><path class="uuid-1d289821-b857-4e25-bdcf-1cdfa6faf93c" d="m167.04,444.1c-.85.57-1.62.96-2.29,1.17l-.46,2.18c1.28-.39,2.44-1,3.49-1.82l-1.93,9.05h2.4l2.68-12.59h-1.95c-.43.77-1.08,1.43-1.94,2.01Z"/><path class="uuid-1d289821-b857-4e25-bdcf-1cdfa6faf93c" d="m184.96,444.1c-.86.57-1.62.96-2.29,1.17l-.46,2.18c1.27-.39,2.44-1,3.49-1.82l-1.93,9.05h2.4l2.67-12.59h-1.94c-.44.77-1.08,1.43-1.94,2.01Z"/><path class="uuid-1d289821-b857-4e25-bdcf-1cdfa6faf93c" d="m196.57,442.09c-1.13,0-2.13.29-3,.87-.87.57-1.52,1.52-1.95,2.84l2.34.24c.19-.7.47-1.2.83-1.5.36-.3.79-.45,1.3-.45s.87.14,1.1.43c.23.29.28.7.17,1.23-.1.48-.37.98-.81,1.47-.32.36-1.13,1.04-2.43,2.05-1.61,1.25-2.73,2.25-3.34,3-.62.75-1.06,1.56-1.33,2.4h8.42l.48-2.23h-4.77c.17-.22.38-.44.64-.67.25-.23.83-.69,1.74-1.38.9-.7,1.54-1.23,1.91-1.6.56-.56.99-1.09,1.3-1.6.31-.51.53-1.05.65-1.61.21-.99.03-1.82-.53-2.49-.56-.67-1.46-1-2.7-1Z"/><path class="uuid-311d9943-8bd3-4db5-9b98-1fef6276c2af" d="m213.79,443.99c-.86.58-1.62.96-2.29,1.17l-.46,2.18c1.28-.39,2.44-1,3.49-1.82l-1.92,9.05h2.4l2.67-12.58h-1.95c-.44.76-1.08,1.43-1.94,2Z"/><path class="uuid-311d9943-8bd3-4db5-9b98-1fef6276c2af" d="m225.22,441.99c-.69,0-1.34.13-1.95.39-.61.26-1.12.62-1.53,1.07-.4.45-.76,1.06-1.08,1.82l2.13.37c.18-.55.44-.96.79-1.25.35-.29.73-.43,1.14-.43s.72.13.92.37c.2.25.25.59.16,1.01-.11.5-.36.89-.77,1.19-.41.3-.93.44-1.58.43l-.68,1.96c.45-.12.83-.18,1.14-.18.47,0,.83.17,1.08.53.25.36.31.84.18,1.44-.13.64-.41,1.14-.83,1.52-.42.38-.88.56-1.37.56-.46,0-.82-.15-1.08-.47-.26-.31-.36-.76-.31-1.36l-2.39.28c-.1,1.06.15,1.91.75,2.56.61.66,1.48.98,2.61.98,1.2,0,2.28-.39,3.25-1.16.97-.77,1.57-1.71,1.8-2.81.16-.76.08-1.41-.23-1.94-.32-.54-.82-.88-1.5-1.04,1.34-.66,2.13-1.53,2.37-2.63.16-.77.02-1.47-.44-2.09-.55-.75-1.42-1.13-2.6-1.13Z"/><path class="uuid-311d9943-8bd3-4db5-9b98-1fef6276c2af" d="m242.24,444.1c-.86.57-1.62.96-2.29,1.17l-.46,2.18c1.28-.39,2.44-1,3.49-1.82l-1.92,9.05h2.4l2.67-12.59h-1.95c-.44.77-1.08,1.43-1.94,2.01Z"/><path class="uuid-311d9943-8bd3-4db5-9b98-1fef6276c2af" d="m254.74,442.09l-7.13,7.96-.45,2.1h5.13l-.54,2.52h2.33l.54-2.52h1.56l.45-2.11h-1.55l1.69-7.95h-2.02Zm-2,7.95h-2.88l3.79-4.28-.91,4.28Z"/><path class="uuid-1d289821-b857-4e25-bdcf-1cdfa6faf93c" d="m66.04,468.67c-.86.57-1.62.96-2.29,1.17l-.46,2.18c1.28-.39,2.44-1,3.49-1.82l-1.92,9.05h2.4l2.67-12.58h-1.95c-.44.76-1.08,1.43-1.94,2Z"/><path class="uuid-1d289821-b857-4e25-bdcf-1cdfa6faf93c" d="m72.41,473.41l1.89.28c.68-.61,1.36-.91,2.05-.91.55,0,.96.19,1.22.58.27.38.31.96.15,1.73-.18.82-.48,1.43-.92,1.84-.43.41-.9.61-1.4.61-.44,0-.79-.16-1.06-.47-.27-.32-.38-.75-.34-1.29l-2.45.25c-.08,1.05.18,1.88.78,2.5.6.62,1.47.93,2.63.93,1.44,0,2.69-.55,3.74-1.66.77-.81,1.26-1.73,1.48-2.76.26-1.24.1-2.24-.47-3.02-.58-.78-1.4-1.16-2.46-1.16-.56,0-1.13.13-1.73.4l.83-2.13h4.53l.48-2.25h-6.35l-2.62,6.52Z"/><path class="uuid-1d289821-b857-4e25-bdcf-1cdfa6faf93c" d="m94.09,468.67c-.86.57-1.62.96-2.29,1.17l-.46,2.18c1.28-.39,2.44-1,3.49-1.82l-1.92,9.05h2.4l2.67-12.58h-1.95c-.44.76-1.08,1.43-1.94,2Z"/><path class="uuid-1d289821-b857-4e25-bdcf-1cdfa6faf93c" d="m105.58,468.64c.38,0,.67.11.86.34.19.23.26.58.22,1.06l2.38-.26c.04-1.01-.19-1.79-.7-2.32-.51-.53-1.24-.8-2.19-.8-1.36,0-2.57.51-3.63,1.52-1.06,1.02-1.84,2.67-2.33,4.97-.48,2.24-.41,3.85.19,4.83.61.98,1.54,1.47,2.81,1.47,1.18,0,2.23-.39,3.15-1.16.92-.77,1.51-1.8,1.78-3.09.26-1.21.11-2.19-.44-2.96-.55-.76-1.33-1.14-2.33-1.14-.89,0-1.71.35-2.46,1.06.4-1.44.82-2.39,1.27-2.85.45-.45.92-.68,1.43-.68Zm-2.28,4.78c.39-.36.82-.54,1.29-.54s.83.19,1.07.57c.24.38.27.98.1,1.79-.17.79-.44,1.36-.81,1.71-.37.35-.78.52-1.22.52s-.83-.21-1.1-.64c-.27-.43-.32-1.03-.15-1.81.15-.71.42-1.24.82-1.6Z"/><path class="uuid-1d289821-b857-4e25-bdcf-1cdfa6faf93c" d="m123.06,468.78c-.86.57-1.62.96-2.29,1.17l-.46,2.18c1.27-.39,2.44-1,3.49-1.82l-1.92,9.05h2.4l2.68-12.58h-1.95c-.43.76-1.08,1.43-1.94,2Z"/><path class="uuid-1d289821-b857-4e25-bdcf-1cdfa6faf93c" d="m130.02,469.23h5.46c-1.43,1.42-2.67,3.03-3.73,4.83-1.06,1.8-1.79,3.57-2.2,5.3h2.32c.23-1.1.68-2.36,1.34-3.76.67-1.4,1.48-2.73,2.45-3.98.97-1.25,1.86-2.2,2.68-2.87l.37-1.74h-8.22l-.47,2.23Z"/><path class="uuid-1d289821-b857-4e25-bdcf-1cdfa6faf93c" d="m151.54,468.67c-.86.57-1.62.96-2.29,1.17l-.46,2.18c1.27-.39,2.44-1,3.49-1.82l-1.92,9.05h2.4l2.68-12.58h-1.95c-.43.76-1.08,1.43-1.94,2Z"/><path class="uuid-1d289821-b857-4e25-bdcf-1cdfa6faf93c" d="m163.06,466.67c-1.2,0-2.19.31-2.97.91-.78.61-1.28,1.38-1.47,2.32-.11.55-.08,1.05.1,1.51.18.46.56.82,1.12,1.08-.79.31-1.41.74-1.87,1.31-.46.57-.76,1.19-.9,1.87-.26,1.23-.02,2.2.72,2.9.63.6,1.52.9,2.66.9,1.22,0,2.28-.36,3.17-1.09.89-.72,1.46-1.66,1.71-2.82.15-.7.1-1.32-.15-1.85-.25-.53-.69-.94-1.33-1.22.6-.24,1.09-.59,1.49-1.04.4-.45.66-.97.79-1.55.2-.94.03-1.71-.5-2.32-.53-.61-1.39-.91-2.58-.91Zm-.08,8.8c-.14.67-.41,1.18-.81,1.54-.4.36-.85.54-1.34.54s-.89-.19-1.15-.56c-.26-.37-.32-.89-.18-1.55.1-.47.34-.91.71-1.32.37-.4.85-.6,1.44-.6.51,0,.88.18,1.14.53.26.36.32.83.19,1.42Zm.87-5.4c-.1.48-.32.86-.65,1.12-.33.27-.72.4-1.18.4s-.78-.13-1-.4c-.21-.27-.27-.64-.17-1.12.1-.45.31-.81.64-1.09.33-.27.73-.41,1.19-.41s.77.13.99.41c.21.27.27.63.17,1.08Z"/><path class="uuid-1d289821-b857-4e25-bdcf-1cdfa6faf93c" d="m179.7,468.67c-.86.57-1.62.96-2.29,1.17l-.46,2.18c1.28-.39,2.44-1,3.49-1.82l-1.93,9.05h2.4l2.68-12.58h-1.95c-.44.76-1.08,1.43-1.94,2Z"/><path class="uuid-1d289821-b857-4e25-bdcf-1cdfa6faf93c" d="m191.01,466.67c-1.17,0-2.21.39-3.13,1.16-.92.78-1.51,1.8-1.78,3.07-.26,1.22-.11,2.21.44,2.97.55.76,1.32,1.14,2.31,1.14.91,0,1.74-.35,2.49-1.05-.4,1.43-.82,2.38-1.27,2.84-.44.46-.91.68-1.41.68-.39,0-.69-.11-.88-.34-.19-.23-.26-.58-.22-1.06l-2.38.26c-.05,1.04.17,1.81.67,2.33.49.52,1.23.78,2.21.78,1.36,0,2.57-.51,3.64-1.52,1.06-1.01,1.84-2.67,2.32-4.96.48-2.25.42-3.87-.19-4.85-.6-.98-1.54-1.47-2.81-1.47Zm.71,4.43c-.15.71-.42,1.24-.81,1.61-.39.36-.82.55-1.28.55s-.84-.19-1.07-.57c-.24-.38-.27-.97-.1-1.78.17-.8.44-1.37.81-1.72.36-.35.77-.53,1.22-.53.47,0,.83.22,1.1.65.26.42.32,1.03.15,1.8Z"/><path class="uuid-311d9943-8bd3-4db5-9b98-1fef6276c2af" d="m210.95,466.67c-1.13,0-2.13.29-3.01.86-.88.58-1.52,1.53-1.95,2.85l2.35.24c.19-.7.47-1.2.83-1.5.36-.3.79-.45,1.29-.45s.87.14,1.1.43c.23.29.29.7.17,1.24-.1.48-.37.97-.81,1.47-.32.36-1.13,1.04-2.43,2.05-1.61,1.25-2.73,2.25-3.34,3.01-.62.75-1.06,1.55-1.33,2.4h8.42l.47-2.23h-4.77c.17-.22.38-.44.63-.67.25-.23.83-.69,1.74-1.39.91-.69,1.54-1.23,1.91-1.6.56-.56.99-1.09,1.3-1.6.31-.51.52-1.05.64-1.61.21-.99.03-1.82-.53-2.49-.56-.67-1.46-1-2.7-1Z"/><path class="uuid-311d9943-8bd3-4db5-9b98-1fef6276c2af" d="m220.61,466.67c-1.21,0-2.25.43-3.11,1.28-1.04,1.04-1.81,2.74-2.31,5.1-.51,2.41-.49,4.08.05,5.01.55.94,1.43,1.41,2.65,1.41s2.25-.43,3.11-1.28c1.04-1.04,1.81-2.74,2.32-5.11.51-2.38.46-4.08-.14-5.1-.5-.87-1.36-1.3-2.57-1.3Zm.2,6.4c-.31,1.47-.62,2.51-.91,3.13-.23.48-.48.81-.74,1-.27.18-.55.28-.84.28s-.53-.09-.72-.28c-.19-.18-.3-.55-.33-1.09-.03-.55.11-1.56.42-3.03.32-1.47.62-2.52.92-3.14.23-.48.47-.81.74-1,.27-.19.55-.28.84-.28s.53.09.72.28.3.55.33,1.1c.03.55-.11,1.56-.42,3.03Z"/><path class="uuid-311d9943-8bd3-4db5-9b98-1fef6276c2af" d="m240.57,466.77c-1.13,0-2.13.29-3.01.86-.88.58-1.52,1.53-1.95,2.85l2.34.24c.2-.7.47-1.2.83-1.5.36-.3.79-.45,1.29-.45s.87.14,1.1.43.28.7.17,1.24c-.1.49-.37.98-.81,1.47-.32.36-1.13,1.04-2.43,2.05-1.61,1.25-2.72,2.25-3.34,3.01-.62.76-1.06,1.55-1.33,2.4h8.42l.47-2.23h-4.77c.17-.22.38-.44.63-.67.25-.23.83-.69,1.74-1.39.91-.69,1.54-1.23,1.92-1.6.56-.56.99-1.09,1.3-1.6.31-.51.53-1.05.64-1.62.21-.99.03-1.82-.53-2.49-.57-.67-1.47-1-2.7-1Z"/><path class="uuid-311d9943-8bd3-4db5-9b98-1fef6276c2af" d="m248.43,468.78c-.86.57-1.62.96-2.29,1.17l-.47,2.18c1.28-.39,2.44-1,3.49-1.82l-1.93,9.05h2.4l2.68-12.58h-1.95c-.44.76-1.08,1.43-1.94,2Z"/><path class="uuid-1d289821-b857-4e25-bdcf-1cdfa6faf93c" d="m63.33,491.32c-1.13,0-2.13.29-3,.86-.87.57-1.53,1.52-1.95,2.84l2.34.24c.2-.7.47-1.21.84-1.51.36-.3.79-.45,1.29-.45s.88.14,1.1.43c.23.29.28.7.17,1.23-.1.48-.37.98-.81,1.47-.32.36-1.13,1.04-2.43,2.05-1.61,1.25-2.72,2.25-3.34,3-.61.76-1.06,1.56-1.33,2.4h8.42l.47-2.23h-4.77c.17-.21.38-.44.63-.67.25-.23.83-.69,1.74-1.38.91-.7,1.54-1.23,1.91-1.6.56-.56,1-1.09,1.3-1.6.31-.51.53-1.05.65-1.61.21-.99.03-1.82-.53-2.48-.56-.67-1.46-1-2.7-1Z"/><path class="uuid-1d289821-b857-4e25-bdcf-1cdfa6faf93c" d="m73.07,491.32c-1.13,0-2.13.29-3,.86-.87.57-1.53,1.52-1.95,2.84l2.34.24c.2-.7.47-1.21.84-1.51.36-.3.79-.45,1.29-.45s.88.14,1.1.43c.23.29.28.7.17,1.23-.1.48-.37.98-.81,1.47-.32.36-1.13,1.04-2.43,2.05-1.61,1.25-2.72,2.25-3.34,3-.62.76-1.06,1.56-1.33,2.4h8.42l.47-2.23h-4.77c.17-.21.38-.44.63-.67.25-.23.83-.69,1.74-1.38.91-.7,1.54-1.23,1.91-1.6.56-.56,1-1.09,1.3-1.6.31-.51.53-1.05.65-1.61.21-.99.03-1.82-.53-2.48-.57-.67-1.47-1-2.7-1Z"/><path class="uuid-1d289821-b857-4e25-bdcf-1cdfa6faf93c" d="m91.29,491.21c-1.13,0-2.13.29-3,.86-.88.58-1.52,1.52-1.95,2.85l2.34.24c.19-.7.47-1.2.83-1.51.36-.3.79-.45,1.3-.45s.87.14,1.1.43c.23.29.28.7.17,1.24-.1.49-.37.98-.81,1.47-.32.36-1.13,1.04-2.43,2.05-1.61,1.25-2.73,2.25-3.34,3.01-.62.75-1.06,1.55-1.33,2.4h8.42l.47-2.23h-4.77c.17-.21.38-.44.63-.67.25-.23.83-.69,1.74-1.39s1.54-1.23,1.91-1.6c.56-.56.99-1.09,1.3-1.6.31-.51.53-1.05.64-1.61.21-.99.04-1.82-.53-2.49-.56-.67-1.46-1-2.7-1Z"/><path class="uuid-1d289821-b857-4e25-bdcf-1cdfa6faf93c" d="m100.84,491.21c-.69,0-1.34.13-1.95.39-.61.26-1.12.62-1.53,1.07-.4.45-.77,1.06-1.08,1.82l2.13.37c.18-.55.45-.96.8-1.25.35-.29.73-.43,1.14-.43s.72.13.92.38c.2.25.25.59.16,1.01-.1.5-.36.89-.76,1.19-.41.3-.93.44-1.58.43l-.68,1.96c.45-.12.83-.18,1.14-.18.46,0,.82.17,1.07.53.25.35.31.83.18,1.43-.14.64-.41,1.14-.83,1.52-.42.38-.88.56-1.37.56-.46,0-.82-.15-1.08-.47-.26-.31-.36-.76-.31-1.36l-2.39.28c-.11,1.05.15,1.91.75,2.56.61.66,1.48.98,2.61.98,1.19,0,2.28-.39,3.25-1.16.97-.77,1.57-1.71,1.8-2.81.16-.76.08-1.41-.23-1.94-.32-.54-.82-.88-1.5-1.03,1.34-.66,2.13-1.53,2.36-2.63.16-.77.02-1.47-.44-2.09-.55-.75-1.42-1.13-2.6-1.13Z"/><path class="uuid-1d289821-b857-4e25-bdcf-1cdfa6faf93c" d="m120.01,491.32c-1.13,0-2.13.29-3.01.86-.87.57-1.52,1.52-1.95,2.84l2.34.24c.2-.7.47-1.21.83-1.51.36-.3.79-.45,1.3-.45s.87.14,1.1.43c.23.29.28.7.17,1.23-.1.48-.37.98-.81,1.47-.32.36-1.13,1.04-2.43,2.05-1.61,1.25-2.72,2.25-3.34,3-.62.76-1.06,1.56-1.33,2.4h8.42l.47-2.23h-4.77c.17-.21.38-.44.63-.67.25-.23.83-.69,1.74-1.38.91-.7,1.54-1.23,1.91-1.6.56-.56.99-1.09,1.3-1.6.31-.51.53-1.05.65-1.61.21-.99.03-1.82-.54-2.48-.56-.67-1.46-1-2.7-1Z"/><path class="uuid-1d289821-b857-4e25-bdcf-1cdfa6faf93c" d="m130.62,491.32l-7.13,7.96-.45,2.1h5.13l-.53,2.52h2.32l.54-2.52h1.56l.45-2.11h-1.56l1.69-7.95h-2.02Zm-2,7.95h-2.88l3.79-4.28-.91,4.28Z"/><path class="uuid-1d289821-b857-4e25-bdcf-1cdfa6faf93c" d="m148.55,491.21c-1.13,0-2.13.29-3.01.86-.87.58-1.52,1.52-1.95,2.85l2.34.24c.2-.7.47-1.2.83-1.51.36-.3.79-.45,1.29-.45s.87.14,1.1.43c.23.29.28.7.17,1.24-.1.49-.37.98-.81,1.47-.32.36-1.13,1.04-2.43,2.05-1.61,1.25-2.72,2.25-3.34,3.01-.61.75-1.06,1.55-1.33,2.4h8.42l.48-2.23h-4.77c.17-.21.38-.44.63-.67.25-.23.83-.69,1.74-1.39.91-.69,1.54-1.23,1.91-1.6.56-.56,1-1.09,1.3-1.6.31-.51.53-1.05.65-1.61.21-.99.03-1.82-.53-2.49-.56-.67-1.47-1-2.7-1Z"/><path class="uuid-1d289821-b857-4e25-bdcf-1cdfa6faf93c" d="m153.04,497.96l1.89.28c.68-.61,1.36-.91,2.05-.91.55,0,.96.19,1.22.57.26.39.31.96.15,1.73-.17.82-.47,1.43-.91,1.84-.43.4-.9.61-1.4.61-.44,0-.79-.16-1.06-.48-.27-.32-.38-.74-.34-1.29l-2.45.25c-.08,1.05.18,1.88.78,2.5.6.62,1.47.93,2.63.93,1.45,0,2.7-.55,3.75-1.66.77-.81,1.26-1.73,1.49-2.76.26-1.24.1-2.24-.47-3.02-.57-.77-1.4-1.16-2.46-1.16-.56,0-1.14.13-1.73.4l.83-2.13h4.53l.48-2.25h-6.35l-2.62,6.52Z"/><path class="uuid-1d289821-b857-4e25-bdcf-1cdfa6faf93c" d="m176.74,491.21c-1.13,0-2.13.29-3,.86-.88.58-1.53,1.52-1.95,2.85l2.34.24c.2-.7.47-1.2.84-1.51.36-.3.79-.45,1.29-.45s.88.14,1.1.43c.23.29.28.7.17,1.24-.1.49-.37.98-.81,1.47-.32.36-1.13,1.04-2.43,2.05-1.61,1.25-2.72,2.25-3.34,3.01-.61.75-1.06,1.55-1.33,2.4h8.42l.47-2.23h-4.77c.17-.21.38-.44.63-.67.25-.23.83-.69,1.74-1.39.91-.69,1.54-1.23,1.91-1.6.56-.56.99-1.09,1.3-1.6s.53-1.05.65-1.61c.21-.99.03-1.82-.53-2.49-.56-.67-1.46-1-2.7-1Z"/><path class="uuid-1d289821-b857-4e25-bdcf-1cdfa6faf93c" d="m186.36,493.18c.38,0,.67.11.86.34.19.23.27.58.22,1.06l2.38-.25c.04-1.02-.19-1.79-.69-2.32-.51-.53-1.25-.8-2.19-.8-1.36,0-2.57.51-3.63,1.52-1.06,1.02-1.84,2.67-2.33,4.97-.48,2.24-.41,3.85.19,4.84.61.98,1.54,1.47,2.81,1.47,1.18,0,2.23-.39,3.15-1.16.92-.77,1.51-1.8,1.78-3.08.26-1.21.11-2.19-.45-2.96-.55-.76-1.33-1.14-2.33-1.14-.89,0-1.71.35-2.46,1.06.4-1.44.82-2.39,1.27-2.85.45-.46.93-.69,1.43-.69Zm-2.28,4.79c.39-.36.82-.54,1.29-.54s.84.19,1.07.57c.24.38.27.97.1,1.79-.17.79-.44,1.36-.81,1.71-.37.34-.78.52-1.22.52s-.82-.21-1.09-.64c-.27-.42-.32-1.03-.15-1.8.15-.71.42-1.24.82-1.6Z"/><path class="uuid-311d9943-8bd3-4db5-9b98-1fef6276c2af" d="m205.67,491.32c-1.13,0-2.13.29-3.01.86-.87.57-1.52,1.52-1.95,2.84l2.34.24c.2-.7.47-1.21.83-1.51.36-.3.79-.45,1.29-.45s.87.14,1.1.43c.23.29.28.7.17,1.23-.1.48-.37.98-.8,1.47-.32.36-1.13,1.04-2.43,2.05-1.61,1.25-2.72,2.25-3.34,3-.61.76-1.06,1.56-1.33,2.4h8.42l.47-2.23h-4.77c.17-.21.38-.44.63-.67.25-.23.83-.69,1.74-1.38.91-.7,1.54-1.23,1.91-1.6.56-.56.99-1.09,1.3-1.6.31-.51.53-1.05.65-1.61.21-.99.03-1.82-.53-2.48-.57-.67-1.47-1-2.7-1Z"/><path class="uuid-311d9943-8bd3-4db5-9b98-1fef6276c2af" d="m210.74,493.77h5.46c-1.43,1.42-2.67,3.03-3.73,4.83-1.06,1.8-1.79,3.57-2.2,5.3h2.31c.23-1.1.68-2.36,1.34-3.77.67-1.4,1.48-2.73,2.45-3.98.97-1.25,1.86-2.21,2.68-2.88l.37-1.74h-8.21l-.48,2.23Z"/><path class="uuid-311d9943-8bd3-4db5-9b98-1fef6276c2af" d="m234.34,491.21c-1.13,0-2.12.29-3,.87-.88.57-1.52,1.52-1.95,2.84l2.34.24c.2-.7.47-1.2.83-1.51.36-.3.79-.45,1.29-.45s.88.14,1.1.43c.23.29.28.7.17,1.23-.1.48-.37.97-.81,1.47-.32.36-1.13,1.04-2.43,2.05-1.61,1.25-2.72,2.25-3.34,3-.62.75-1.06,1.56-1.33,2.4h8.42l.48-2.23h-4.77c.17-.22.38-.44.63-.67.25-.23.83-.69,1.74-1.39.91-.69,1.54-1.23,1.91-1.6.56-.56.99-1.09,1.3-1.6.31-.51.53-1.05.64-1.61.21-1,.03-1.82-.53-2.49-.56-.67-1.47-1-2.71-1Z"/><path class="uuid-311d9943-8bd3-4db5-9b98-1fef6276c2af" d="m243.99,491.21c-1.2,0-2.2.31-2.98.92-.78.61-1.27,1.38-1.47,2.32-.12.55-.08,1.04.1,1.51.19.46.56.82,1.13,1.08-.79.31-1.41.74-1.87,1.31-.46.57-.76,1.19-.9,1.86-.26,1.23-.02,2.2.72,2.91.63.6,1.52.9,2.65.9,1.23,0,2.28-.36,3.18-1.08.89-.72,1.46-1.66,1.71-2.82.15-.7.1-1.32-.15-1.85-.25-.54-.69-.94-1.33-1.22.6-.24,1.1-.59,1.5-1.04.4-.45.66-.97.78-1.55.2-.94.03-1.71-.49-2.32-.53-.61-1.39-.92-2.58-.92Zm-.08,8.8c-.14.67-.41,1.19-.81,1.54-.4.36-.85.53-1.35.53s-.89-.18-1.15-.55c-.26-.37-.32-.89-.18-1.55.1-.47.34-.91.71-1.32.37-.4.86-.61,1.44-.61.51,0,.89.18,1.14.54s.32.83.19,1.42Zm.87-5.4c-.1.48-.32.85-.65,1.12-.33.27-.72.41-1.18.41s-.78-.13-1-.4c-.22-.27-.27-.64-.17-1.12.09-.45.31-.81.64-1.08.33-.28.73-.41,1.19-.41s.77.13.99.41c.21.27.27.63.17,1.08Z"/><path class="uuid-1d289821-b857-4e25-bdcf-1cdfa6faf93c" d="m58.49,513.97c-1.13,0-2.13.29-3.01.87-.87.57-1.52,1.52-1.95,2.84l2.34.24c.19-.7.47-1.2.83-1.5.36-.3.79-.45,1.29-.45s.87.14,1.1.43c.22.29.28.7.17,1.23-.1.48-.37.97-.81,1.47-.32.36-1.13,1.04-2.43,2.05-1.61,1.25-2.72,2.25-3.34,3-.62.75-1.06,1.56-1.33,2.4h8.42l.48-2.23h-4.77c.17-.22.38-.44.64-.67.25-.23.83-.69,1.73-1.39.91-.69,1.54-1.23,1.91-1.6.56-.56.99-1.09,1.3-1.6.31-.51.53-1.05.65-1.61.21-.99.03-1.82-.53-2.49-.56-.67-1.47-1-2.7-1Z"/><path class="uuid-1d289821-b857-4e25-bdcf-1cdfa6faf93c" d="m67.91,513.97c-1.17,0-2.21.39-3.14,1.17-.92.78-1.52,1.8-1.78,3.07-.26,1.22-.11,2.21.44,2.97.55.76,1.32,1.14,2.31,1.14.9,0,1.73-.35,2.49-1.05-.4,1.43-.82,2.38-1.27,2.84-.44.46-.92.69-1.41.69-.4,0-.69-.11-.88-.34-.19-.23-.26-.58-.22-1.05l-2.38.26c-.05,1.04.17,1.82.67,2.34.49.52,1.23.78,2.21.78,1.36,0,2.57-.51,3.64-1.52,1.06-1.02,1.84-2.67,2.33-4.96.48-2.25.41-3.87-.19-4.85-.61-.98-1.54-1.47-2.81-1.47Zm.71,4.44c-.15.7-.42,1.24-.81,1.61-.39.36-.82.55-1.28.55s-.84-.19-1.08-.57c-.24-.38-.27-.97-.1-1.78.17-.8.44-1.37.81-1.72.36-.35.77-.53,1.22-.53s.83.21,1.1.64c.26.42.32,1.03.15,1.8Z"/><path class="uuid-1d289821-b857-4e25-bdcf-1cdfa6faf93c" d="m86.21,513.98c-.69,0-1.34.13-1.95.39-.61.26-1.12.62-1.52,1.07-.41.45-.77,1.06-1.08,1.81l2.13.38c.18-.55.45-.96.8-1.25.35-.29.73-.43,1.14-.43s.72.12.92.37c.2.25.25.59.16,1.01-.1.5-.36.89-.76,1.19-.41.3-.93.44-1.58.43l-.68,1.96c.45-.12.83-.18,1.14-.18.47,0,.82.17,1.08.53.25.35.31.83.18,1.43-.14.64-.41,1.14-.83,1.52-.42.38-.87.56-1.37.56-.46,0-.82-.16-1.08-.47-.26-.31-.36-.76-.31-1.36l-2.39.28c-.1,1.05.15,1.91.75,2.56.61.66,1.48.98,2.61.98,1.19,0,2.28-.39,3.25-1.16.97-.77,1.57-1.71,1.8-2.81.16-.76.08-1.41-.23-1.94-.32-.54-.82-.88-1.5-1.04,1.34-.66,2.13-1.53,2.36-2.63.16-.77.02-1.47-.44-2.09-.55-.75-1.42-1.13-2.6-1.13Z"/><path class="uuid-1d289821-b857-4e25-bdcf-1cdfa6faf93c" d="m96.05,513.98c-1.22,0-2.25.42-3.11,1.28-1.04,1.04-1.81,2.73-2.32,5.09-.51,2.41-.49,4.08.05,5.02.55.94,1.43,1.4,2.65,1.4s2.25-.43,3.11-1.28c1.04-1.04,1.81-2.74,2.31-5.11.51-2.38.46-4.08-.14-5.1-.5-.87-1.36-1.3-2.57-1.3Zm.19,6.4c-.31,1.47-.62,2.51-.91,3.13-.23.48-.47.81-.74.99-.27.19-.55.28-.84.28s-.53-.09-.72-.27c-.18-.18-.3-.55-.33-1.1-.03-.55.11-1.56.42-3.03.31-1.47.62-2.51.92-3.14.23-.48.47-.81.74-1,.27-.18.54-.28.83-.28s.53.09.72.28c.19.18.3.55.33,1.1.03.55-.11,1.56-.42,3.03Z"/><path class="uuid-1d289821-b857-4e25-bdcf-1cdfa6faf93c" d="m116.12,513.98c-.69,0-1.34.13-1.95.39-.61.26-1.12.62-1.53,1.07-.41.45-.77,1.06-1.08,1.81l2.13.38c.18-.55.45-.96.8-1.25.35-.29.73-.43,1.14-.43s.72.12.92.37c.2.25.25.59.16,1.01-.1.5-.36.89-.76,1.19-.41.3-.93.44-1.58.43l-.68,1.96c.45-.12.83-.18,1.14-.18.46,0,.82.17,1.07.53.25.35.31.83.18,1.43-.13.64-.41,1.14-.83,1.52-.42.38-.88.56-1.37.56-.46,0-.82-.16-1.08-.47-.26-.31-.36-.76-.31-1.36l-2.39.28c-.1,1.05.15,1.91.76,2.56.61.66,1.48.98,2.61.98,1.2,0,2.28-.39,3.25-1.16.97-.77,1.57-1.71,1.8-2.81.16-.76.08-1.41-.24-1.94-.32-.54-.81-.88-1.5-1.04,1.34-.66,2.13-1.53,2.37-2.63.16-.77.02-1.47-.44-2.09-.55-.75-1.42-1.13-2.6-1.13Z"/><path class="uuid-1d289821-b857-4e25-bdcf-1cdfa6faf93c" d="m124.16,515.98c-.86.57-1.62.96-2.29,1.17l-.46,2.18c1.27-.39,2.44-1,3.49-1.82l-1.93,9.05h2.4l2.67-12.58h-1.95c-.44.76-1.08,1.43-1.94,2Z"/><path class="uuid-884ece26-70cd-482d-b240-48a2697497bf" d="m264.5,90.16c-23.97,32.57-21.54,84.71,6.41,117.63,27.95,32.92,70.83,34.15,94.8,1.58,23.97-32.57,20.74-85.66-7.2-118.58-27.95-32.92-70.04-33.2-94-.62Z"/><path class="uuid-af6a7237-8308-4d1d-bc6e-d9a4c82275bc" d="m315.12,66.99c-17.11,0-32.69,8.37-43.87,23.57-23.33,31.7-20.17,83.56,7.04,115.61,13.25,15.61,30.13,24.21,47.51,24.21s32.69-8.37,43.87-23.57c23.33-31.7,20.17-83.57-7.04-115.61-13.25-15.61-30.12-24.21-47.51-24.21Z"/><path class="uuid-884ece26-70cd-482d-b240-48a2697497bf" d="m315.12,66.53h0v.92c17.25,0,34,8.54,47.16,24.05,27.08,31.89,30.23,83.5,7.02,115.04-11.09,15.08-26.54,23.38-43.5,23.38s-33.99-8.54-47.16-24.05c-27.08-31.9-30.23-83.5-7.02-115.04,11.09-15.08,26.54-23.38,43.5-23.38v-.92c-16.55,0-32.58,7.91-44.24,23.76-23.49,31.91-20.32,83.93,7.06,116.18,13.78,16.23,31.08,24.37,47.86,24.37s32.58-7.91,44.24-23.76c23.48-31.91,20.32-83.93-7.06-116.18-13.78-16.23-31.08-24.37-47.86-24.37Z"/><path class="uuid-17f14a1d-5102-4c3a-a92a-28b132ad019a" d="m315.89,78.72c-14.64,0-27.98,7.17-37.55,20.18-19.98,27.14-17.27,71.56,6.03,99.01,11.35,13.37,25.79,20.73,40.67,20.73s27.98-7.16,37.55-20.18c19.98-27.15,17.27-71.56-6.03-99.01-11.35-13.37-25.79-20.73-40.67-20.73Z"/><path class="uuid-884ece26-70cd-482d-b240-48a2697497bf" d="m315.89,78.26h0v.92c14.74,0,29.06,7.3,40.32,20.56,23.17,27.29,25.87,71.46,6.01,98.44-9.49,12.89-22.69,19.99-37.18,19.99s-29.06-7.3-40.32-20.56c-23.17-27.3-25.87-71.46-6.01-98.44,9.49-12.89,22.69-19.99,37.18-19.99v-.92c-14.18,0-27.92,6.78-37.92,20.36-20.13,27.35-17.42,71.94,6.05,99.58,11.82,13.92,26.64,20.89,41.02,20.89s27.93-6.78,37.92-20.36c20.13-27.35,17.42-71.94-6.05-99.58-11.82-13.92-26.64-20.89-41.02-20.89Z"/><path class="uuid-af6a7237-8308-4d1d-bc6e-d9a4c82275bc" d="m285.05,106.97c-16.77,22.79-14.51,59.95,5.04,82.98,19.56,23.04,49.01,23.24,65.79.44,16.78-22.8,14.52-59.95-5.04-82.99-19.56-23.04-49.01-23.23-65.79-.44Z"/><path class="uuid-884ece26-70cd-482d-b240-48a2697497bf" d="m315.35,89.56c-11.96.42-22.85,6.5-30.67,17.13-16.87,22.92-14.6,60.4,5.06,83.56,9.52,11.22,22.05,17.57,34.56,17.57.43,0,.85,0,1.28-.02,11.95-.42,22.85-6.5,30.67-17.14,16.87-22.92,14.6-60.4-5.06-83.55-9.85-11.6-22.91-18-35.83-17.55Zm40.16,100.56c-7.65,10.4-18.29,16.36-29.96,16.76-.42.01-.83.02-1.25.02-12.23,0-24.51-6.23-33.86-17.24-19.4-22.85-21.65-59.82-5.02-82.42,7.66-10.4,18.3-16.35,29.96-16.76.41-.01.83-.02,1.24-.02,12.23,0,24.51,6.23,33.86,17.25,19.4,22.85,21.65,59.82,5.02,82.41Z"/><path class="uuid-17f14a1d-5102-4c3a-a92a-28b132ad019a" d="m317.41,102.2c-9.71,0-18.56,4.75-24.91,13.39-13.28,18.04-11.48,47.57,4.01,65.82,7.54,8.87,17.12,13.76,27,13.76s18.56-4.75,24.91-13.39c13.28-18.05,11.48-47.57-4.01-65.82-7.54-8.87-17.12-13.76-27-13.76Z"/><path class="uuid-884ece26-70cd-482d-b240-48a2697497bf" d="m317.41,101.74c-9.45,0-18.62,4.52-25.28,13.57-13.42,18.24-11.61,47.96,4.03,66.39,7.88,9.28,17.76,13.92,27.35,13.92s18.62-4.52,25.28-13.57c13.42-18.24,11.61-47.96-4.03-66.39-7.88-9.28-17.76-13.92-27.35-13.92Zm30.64,79.77c-6.27,8.51-14.98,13.2-24.54,13.2s-19.2-4.83-26.65-13.6c-15.36-18.09-17.16-47.36-3.99-65.25,6.26-8.51,14.98-13.2,24.54-13.2s19.2,4.83,26.65,13.6c15.36,18.09,17.15,47.36,3.99,65.25Z"/><path class="uuid-af6a7237-8308-4d1d-bc6e-d9a4c82275bc" d="m299.21,123.66c-10.06,13.68-8.71,35.97,3.03,49.79,11.74,13.82,29.41,13.94,39.47.26,10.06-13.68,8.71-35.97-3.03-49.79-11.73-13.82-29.41-13.94-39.47-.26Z"/><path class="uuid-884ece26-70cd-482d-b240-48a2697497bf" d="m317.39,113.03c-7.23.25-13.82,3.93-18.55,10.36-10.17,13.82-8.8,36.41,3.05,50.36,5.75,6.77,13.32,10.61,20.87,10.61.26,0,.52,0,.78-.02,7.23-.25,13.81-3.93,18.54-10.35,10.17-13.82,8.8-36.41-3.05-50.36-5.95-7-13.79-10.84-21.64-10.59Zm23.95,60.41c-4.56,6.19-10.89,9.74-17.83,9.98-.25,0-.5.01-.74.01-7.29,0-14.6-3.72-20.17-10.28-11.59-13.65-12.94-35.73-3.01-49.22,4.56-6.2,10.9-9.74,17.84-9.98.25,0,.49-.01.74-.01,7.29,0,14.6,3.72,20.17,10.28,11.59,13.65,12.94,35.73,3.01,49.22Z"/><path class="uuid-17f14a1d-5102-4c3a-a92a-28b132ad019a" d="m318.94,125.67c-4.78,0-9.14,2.34-12.27,6.6-6.58,8.94-5.68,23.58,2,32.63,3.72,4.38,8.46,6.8,13.32,6.8s9.14-2.34,12.27-6.6c6.58-8.95,5.68-23.58-2-32.63-3.72-4.38-8.45-6.8-13.32-6.8Z"/><path class="uuid-884ece26-70cd-482d-b240-48a2697497bf" d="m318.94,125.21c-4.73,0-9.31,2.26-12.64,6.79-6.71,9.12-5.81,23.98,2.02,33.2,3.94,4.64,8.88,6.96,13.67,6.96s9.31-2.26,12.64-6.79c6.71-9.12,5.81-23.98-2.02-33.2-3.94-4.64-8.88-6.96-13.67-6.96Zm14.95,39.61c-3.04,4.13-7.27,6.41-11.9,6.41s-9.34-2.35-12.97-6.63c-7.55-8.9-8.44-23.28-1.98-32.06,3.05-4.13,7.27-6.41,11.9-6.41s9.34,2.36,12.97,6.64c7.55,8.89,8.44,23.28,1.98,32.06Z"/><path class="uuid-af6a7237-8308-4d1d-bc6e-d9a4c82275bc" d="m313.38,140.34c-3.36,4.56-2.9,11.99,1.01,16.6,3.91,4.61,9.8,4.65,13.16.09,3.35-4.56,2.9-11.99-1.01-16.6-3.91-4.61-9.8-4.65-13.16-.09Z"/><path class="uuid-884ece26-70cd-482d-b240-48a2697497bf" d="m319.43,136.49c-2.5.09-4.79,1.36-6.42,3.58-3.47,4.71-3.01,12.41,1.03,17.17,1.97,2.33,4.58,3.64,7.19,3.64.09,0,.18,0,.27,0,2.5-.09,4.79-1.36,6.42-3.58,3.47-4.71,3.01-12.42-1.03-17.17-2.04-2.41-4.75-3.71-7.46-3.64Zm7.75,20.26c-1.47,1.99-3.5,3.13-5.71,3.2-2.41.06-4.84-1.09-6.72-3.31-3.78-4.45-4.22-11.64-.99-16.03,1.46-1.99,3.49-3.13,5.71-3.2.08,0,.17,0,.25,0,2.36,0,4.65,1.17,6.48,3.32,3.78,4.44,4.22,11.63.99,16.03Z"/><path class="uuid-884ece26-70cd-482d-b240-48a2697497bf" d="m320.38,146.18c-.86.58-1.1,1.75-.52,2.61.58.87,1.75,1.1,2.61.52l76.39-51.06-2.09-3.13-76.39,51.06Z"/><polygon class="uuid-884ece26-70cd-482d-b240-48a2697497bf" points="406.97 74.14 386.54 87.79 376.51 109.16 378.08 111.49 401.65 110.4 422.08 96.75 403.23 93 406.97 74.14"/><path class="uuid-884ece26-70cd-482d-b240-48a2697497bf" d="m399.01,269.32c-3.85-1.45-7.81-2.54-11.66-4-.41.35-.79.73-1.13,1.12l-2.03,6.32c3.88.42,7.77.95,11.42,2.27,3.65,1.33,7.07,3.57,9.21,6.79l2.44-4.2c.04-1.77-.8-3.7-2.01-4.91-1.7-1.68-4-2.56-6.23-3.39Z"/><path class="uuid-bed6ebc7-fb66-42b0-ac95-75f8c9f21dbe" d="m417.86,232.49s23.16-34.98,15.72-43.59l-15.72,43.59Z"/><path class="uuid-17f14a1d-5102-4c3a-a92a-28b132ad019a" d="m379.11,489c-1.69,4.94-4.34,25.48-9.9,27.43-5.56,1.95-9.83,6.68-15.82,6.98-2.84.14-5.22.24-6.16.54-.02,0-.05.01-.08.02-2.73.88-1.96,4.98.91,4.95,13.03-.11,22.3-.42,38.32-.02,2.08.05,5.95-.69,5.94-4.56-.02-8.5-14.21-9.71,4.16-28.59,2.04-2.09-9.35-7.02-17.37-6.76Z"/><path class="uuid-884ece26-70cd-482d-b240-48a2697497bf" d="m379.11,488.69h-.21s-.07.21-.07.21c-.44,1.3-.96,3.67-1.55,6.41-1.67,7.75-4.21,19.44-8.16,20.83-2.23.78-4.25,2-6.22,3.19-3.07,1.85-5.96,3.59-9.52,3.77l-.66.03c-2.61.13-4.67.24-5.62.53h-.05c-1.55.52-2.05,1.93-1.86,3.11.2,1.19,1.16,2.47,2.85,2.47h.03c3.07-.03,5.93-.06,8.72-.1,8.93-.12,17.35-.23,29.59.08.76.04,3.37-.04,4.99-1.64.84-.82,1.27-1.91,1.26-3.23,0-2.65-1.35-4.62-2.64-6.53-2.93-4.33-5.97-8.81,6.71-21.84.34-.35.42-.81.21-1.29-1.13-2.56-10.89-6.21-17.81-5.99Zm17.16,6.85c-13.03,13.39-9.85,18.09-6.78,22.62,1.3,1.92,2.53,3.73,2.53,6.19,0,1.15-.36,2.08-1.08,2.79-1.46,1.42-3.85,1.5-4.54,1.46-12.25-.3-20.68-.19-29.61-.08-2.79.03-5.65.07-8.72.1h-.02c-1.33,0-2.08-.97-2.23-1.94-.14-.85.16-1.99,1.44-2.41l-.09-.3.17.27c.83-.26,2.96-.37,5.43-.49l.66-.03c3.71-.19,6.81-2.06,9.81-3.87,1.94-1.17,3.94-2.38,6.1-3.14,4.28-1.5,6.76-12.94,8.56-21.28.56-2.58,1.05-4.84,1.46-6.14.14,0,.29,0,.43,0,6.96,0,15.66,3.56,16.57,5.63.11.25.09.43-.08.61Z"/><path class="uuid-884ece26-70cd-482d-b240-48a2697497bf" d="m390.9,518.45c-.24-.38-.67-.52-1.06-.36-2.72,1.13-13.37,5.3-18.62,3.78-3.4-.99-4.77-2.39-5.33-3.43-.35-.65-1.07-.93-1.67-.55-2.2,1.38-6.66,3.98-9.03,4.06-3.24.11-6.39.73-9.01,2.31-1.2.72-1.49,2.49-1.5,3.97,0,1.31.95,2.38,2.14,2.38l44.1-.02c.73,0,1.38-.49,1.65-1.24.46-1.28,1.02-3.34.73-5.2-.34-2.18-1.7-4.58-2.4-5.69Z"/><path class="uuid-17f14a1d-5102-4c3a-a92a-28b132ad019a" d="m487.93,496.89c.52-3.22-7.44-4.54-13.41-4.27-1.28,5.61,1.94,23.26-4.02,26.09-12.19,5.79-4.9,10.32-.99,10.29,4.79-.03,9.82-.31,16.3.3,6.3.59,6.28-3.78,3.85-7.43-3.96-5.96-4.94-5.12-1.73-24.97Z"/><path class="uuid-884ece26-70cd-482d-b240-48a2697497bf" d="m488.97,520.3c-3.1-4.5-3.66-5.31-.73-23.36.11-.67-.09-1.29-.59-1.85-1.89-2.13-8.03-3.01-13.14-2.79h-.23s-.05.24-.05.24c-.42,1.85-.37,4.88-.3,8.4.13,6.97.3,15.65-3.55,17.48-6.34,3.01-7.22,5.59-6.85,7.22.54,2.37,3.85,3.66,5.96,3.66h.03c1,0,2.01-.02,3.04-.04,4-.07,8.12-.14,13.23.34.4.04.77.05,1.11.05,2.51,0,3.63-.92,4.12-1.75.9-1.5.49-3.83-1.1-6.22-.34-.51-.65-.97-.95-1.39Zm1.51,7.29c-.68,1.13-2.28,1.61-4.64,1.4-3.32-.31-6.23-.39-8.95-.39-1.49,0-2.93.02-4.35.05-1.03.01-2.04.03-3.03.04h-.03c-1.94,0-4.9-1.2-5.35-3.18-.45-1.99,1.86-4.31,6.51-6.52,4.21-2,4.04-10.9,3.91-18.05-.06-3.19-.12-6.2.24-8.01,4.78-.17,10.69.66,12.41,2.58.37.42.52.85.44,1.34-2.97,18.29-2.39,19.13.83,23.81.29.42.6.88.94,1.38,1.43,2.15,1.85,4.28,1.08,5.56Z"/><path class="uuid-884ece26-70cd-482d-b240-48a2697497bf" d="m425.72,292.72c-2.87,2.27-8.3,25.09-11.23,27.27-11.69,46.05-35.63,163.4-42.01,184.84,5.1,1.53,13.92,4.25,18.75,3.2,11.48-23.22,74.14-120.59,72.27-218.06-7.48-2.13-31.45-2.26-37.78,2.76Z"/><path class="uuid-884ece26-70cd-482d-b240-48a2697497bf" d="m454.24,294.64c-2.29,2.86-20.02,25.66-22.39,28.43,7.59,49.59,17.77,55.6,22.94,93.95.2,1.5.56,2.99,1.02,4.44,10.54,33.12,13.13,65.25,14.11,84.87,10.36-.89,10.74-.58,21.1-1.47,11.25-43.03,4.67-182.7-5.75-221.51-7.77-.4-25.97,4.97-31.03,11.29Z"/><path class="uuid-cf8783c9-3302-4808-a24b-a9ad6eaf773a" d="m478.59,268.18c-.29-5.03.48-15.07,1.59-25.84,1.97-19.17,5-40.69,5-40.69-.26-5.71-10.93-9.69-20.37-13.52-.27-.12-.53-.24-.79-.33-.94-.42-1.86-.79-2.74-1.15-.53-.21-1.06-.42-1.58-.62-.06-.01-.12-.04-.18-.06-5.44-2.09-9.62-3.36-9.62-3.36,0,0-2.92,1.17-7.03,3.07-1.3.59-2.73,1.27-4.21,2.01h-.05c-1.24.2-2.41.44-3.5.73-22.56,5.62-13.62,26.22-15.31,31.23-.42,1.27-3.08,27.31-5.38,50.83-1.5,15.13-2.86,29.23-3.39,35-.89,9.53,7.42,17.33,16.87,15.87,7.43-1.15,15.13-2.82,18.92-5.1,10.06-6.09,19.61-8.33,27.28-8.9,9.47-.7,16.58-8.91,16.04-18.37,0,0-11.1-12.92-11.56-20.78Z"/><path class="uuid-17f14a1d-5102-4c3a-a92a-28b132ad019a" d="m441.74,367.64c-.21.07-.33.31-.26.52l6.75,19.72c.06.17.22.28.39.28.04,0,.09,0,.13-.02.22-.07.33-.31.26-.52l-6.75-19.72c-.07-.21-.31-.33-.52-.25Z"/><path class="uuid-884ece26-70cd-482d-b240-48a2697497bf" d="m487.48,518.78c-1.63.71-3.56.56-5.31.11-1.97-.51-3.86-1.37-5.87-1.71-1.66-.28-3.5-.14-4.9.74-.6.38-1.25.66-1.94.81-2.13.47-4.15,1.89-5.57,3.52-1.4,1.6-2.16,4.14-2.25,6.4-.03.7.55,1.29,1.26,1.29h28.05c.76,0,1.37-.6,1.41-1.36.17-3.55-1.22-7.16-3.75-9.66-.3-.3-.75-.32-1.14-.15Z"/><path class="uuid-504f6b1d-52eb-4760-b4fc-b9afda815c6b" d="m480.64,327.67c-1.32-.56-4.2,2.86-5.15,3.65-1.97,1.64-3.94,3.29-5.92,4.93-.69.58-1.41,1.19-1.75,2.07-.34.88-.19,2.12.6,2.75.91.6,6.01-3.79,6.8-4.43.98-.8,9.11-7.39,5.41-8.97Z"/><path class="uuid-504f6b1d-52eb-4760-b4fc-b9afda815c6b" d="m474.78,328.27c-1.32-.56-4.2,2.86-5.15,3.65-1.97,1.65-3.95,3.29-5.92,4.93-.69.58-1.41,1.19-1.75,2.07-.34.88-.18,2.11.61,2.75.91.6,6.01-3.79,6.8-4.43.98-.8,9.11-7.39,5.41-8.97Z"/><path class="uuid-504f6b1d-52eb-4760-b4fc-b9afda815c6b" d="m472.29,325.25c-1.32-.56-4.2,2.86-5.14,3.65-1.97,1.64-3.95,3.29-5.92,4.93-.69.58-1.41,1.19-1.75,2.07-.34.88-.18,2.12.61,2.75.91.6,6.01-3.79,6.79-4.43.98-.8,9.12-7.39,5.41-8.97Z"/><path class="uuid-17f14a1d-5102-4c3a-a92a-28b132ad019a" d="m516.36,245.67c-10.71-16.99-27.55-36-27.55-36-11.36.2,1.26,21.45-7.15,28.29l14.82,23.38,1.09,1.73,2.41,3.79-19.79,46.68v.02c-3.64,1.3-7.58,5.07-11.45,9.39-1.13,1.26-3.14,2.31-3.57,3.44-.65,1.7,1.52,1.31,4.03.54-1.11,1.44-2.12,2.96-2.82,4.64-.54,1.29-.86,2.92.05,3.99.59.7,1.59.96,2.5.89.92-.07,1.78-.43,2.63-.78,1.64-.68,3.27-1.36,4.9-2.04-.24.2-.48.4-.71.6-.69.58-1.41,1.19-1.75,2.07-.34.88-.19,2.12.6,2.75.91.6,6.01-3.79,6.8-4.43.5-.41,2.89-2.35,4.59-4.35,1.75-1.67,3.8-4.98,4.09-7.85,0,0,0,0,.01-.02h0c6.92-8.39,31.61-39.18,34.76-54.78.62-3.06-.74-7.53-3.24-12.65-1.43-2.92-3.24-6.07-5.26-9.28Z"/><path class="uuid-884ece26-70cd-482d-b240-48a2697497bf" d="m516.62,245.5c-10.6-16.82-27.41-35.85-27.58-36.04l-.09-.11h-.14c-1.75.03-3.03.54-3.91,1.54-2,2.27-1.49,6.74-.96,11.46.65,5.73,1.38,12.23-2.47,15.36l-.21.17,14.98,23.61,3.41,5.38-19.69,46.42c-3.96,1.47-8.19,5.8-11.44,9.42-.44.49-1.04.96-1.61,1.42-.89.7-1.73,1.37-2.02,2.12-.21.55-.18.98.09,1.27.46.49,1.47.48,3.43-.05-1.04,1.43-1.78,2.7-2.31,3.97-.76,1.81-.72,3.34.1,4.3.6.72,1.63,1.07,2.77,1,.97-.08,1.87-.45,2.73-.81l3.09-1.29c-.43.42-.82.9-1.06,1.51-.37.94-.24,2.35.72,3.12.1.06.22.11.38.11.72,0,2.29-.82,6.46-4.29l.34-.28c2.41-1.96,3.84-3.46,4.59-4.35,1.8-1.72,3.86-5.08,4.18-7.96,7.42-8.99,31.62-39.2,34.78-54.84.59-2.88-.51-7.21-3.27-12.84-1.33-2.74-3.05-5.78-5.27-9.31Zm7.93,22.04c-3.22,15.93-29.47,48.3-34.7,54.62l-.08.2c-.28,2.76-2.26,6-4.02,7.68-.76.89-2.16,2.36-4.55,4.31l-.33.27c-4.97,4.14-5.92,4.22-6.08,4.16-.69-.55-.8-1.65-.51-2.4.32-.82,1.04-1.42,1.66-1.94l2.28-1.91-6.79,2.83c-.82.34-1.66.69-2.54.76-.94.09-1.77-.22-2.24-.78-.89-1.05-.38-2.75,0-3.67.6-1.43,1.48-2.88,2.79-4.57l.6-.77-.93.29c-2.65.81-3.48.71-3.69.48-.13-.13-.03-.45.03-.62.23-.59,1.01-1.2,1.82-1.85.59-.47,1.21-.96,1.69-1.49,3.24-3.6,7.45-7.92,11.32-9.3l.14-.07,19.85-46.8.06-.15-18.27-28.81c3.87-3.4,3.13-9.95,2.48-15.73-.52-4.59-1.01-8.92.81-10.98.74-.84,1.82-1.28,3.32-1.33,1.38,1.57,17.26,19.74,27.42,35.85,2.2,3.52,3.91,6.54,5.24,9.25,2.69,5.51,3.77,9.7,3.22,12.45Z"/><path class="uuid-884ece26-70cd-482d-b240-48a2697497bf" d="m475.21,330.48c-4.07-4.51-6.55-10.29-7-16.27-4.7-1.64-10.32,2.41-12.17,6.91-1.85,4.5-.91,9.55.69,14.07,1.84,5.18,4.62,10.2,9.02,13.69,4.4,3.49,10.62,5.21,16.13,3.45,5.51-1.77,10.41-7.49,9.14-12.83-6.12-1.31-11.74-4.51-15.81-9.02Z"/><path class="uuid-17f14a1d-5102-4c3a-a92a-28b132ad019a" d="m491.11,339.05c-6.03-1.29-11.56-4.44-15.56-8.88-4-4.44-6.45-10.12-6.88-16-.02-.25-.25-.42-.48-.42-.25.02-.44.24-.42.48.45,6.08,2.98,11.95,7.11,16.54,4.13,4.58,9.83,7.83,16.05,9.16.03,0,.06,0,.09,0,.21,0,.4-.15.44-.36.05-.25-.1-.48-.35-.54Z"/><path class="uuid-884ece26-70cd-482d-b240-48a2697497bf" d="m511.36,246.47c-3.62,1.11-6.88,3.19-9.66,5.76-1.61,1.5-3.08,3.16-4.06,5.13-.62,1.24-1.04,2.61-1.15,3.98l1.09,1.73c3.38-2.42,7.31-4.01,11.22-5.42,3.29-1.21,6.68-2.33,10.19-2.63.86-.08,1.74-.11,2.62-.06-1.42-2.92-3.24-6.07-5.26-9.28-1.68.03-3.38.32-5,.8Z"/><path class="uuid-cf8783c9-3302-4808-a24b-a9ad6eaf773a" d="m447.21,185.72c-.89-.46-2.44-.41-4.33-.05-2.27.41-5.07,1.3-7.92,2.36-6.03,2.26-12.31,5.32-14.34,6.45-5.06,2.82-13.93,27.12-23.25,45.07-6.5,12.49-14.63,17.9-15.85,27.56-.7,5.54,20.13,5.1,24.32,13.46,2.94-1.02,5.81-4.89,8.6-10.12,7.32-13.69,14.15-36.64,20.55-41.7,3.77-2.95,7.42-6.33,9.34-10.72,2.44-5.6,1.65-12.33-1.47-17.57-.94-1.59.26-3.97,1.75-6.38,2.2-3.56,5.03-7.18,2.59-8.39Z"/><path class="uuid-cf8783c9-3302-4808-a24b-a9ad6eaf773a" d="m511.03,234.03c-2.58-3.95-5.15-7.91-7.74-11.86-5.56-8.5-11.19-17.08-18.63-24.01-6.89-6.42-15.62-11.34-24.96-12.19-.06-.01-.12-.01-.18-.01-.65-.08-1.32-.11-1.99-.12.55.67,1.08,1.33,1.61,2.01,3.67,4.83,6.6,9.98,8.51,15.8,2,6.12,2.95,12.52,4.59,18.75,1.83,6.94,4.51,13.65,7.94,19.95,4.03,7.39,9.1,14.22,15.04,20.19.82.83,2.13.85,3.04.11,6.32-5.12,13.63-8.07,21.73-8.69,1.03-.08,1.59-1.24,1.05-2.13-3.51-5.82-6.27-12.07-10.01-17.78Z"/><path class="uuid-17f14a1d-5102-4c3a-a92a-28b132ad019a" d="m454.77,184.22l-.49-4.78-.54-5.25-12.18.18-.55,5.44-.66,6.46c-1.69.46-3.53,1.07-5.4,1.77v.02c.04.12.11.24.17.36.77,1.55,2.15,2.77,3.63,3.67,1.79,1.08,3.8,1.76,5.86,2.03,2.27.32,4.59.14,6.77-.54,1.94-.62,6.22-3.01,7.75-5.71.35-.61.55-1.21.56-1.83v-.04c-.06-.01-.12-.01-.18-.01-1.76-.68-3.36-1.25-4.75-1.74Z"/><path class="uuid-884ece26-70cd-482d-b240-48a2697497bf" d="m459.58,185.65c-1.42-.55-2.91-1.09-4.52-1.66l-1.04-10.12-12.74.19-1.22,11.97c-1.57.43-3.32,1.01-5.22,1.72l-.2.09v.22l.02.11c.05.13.11.27.18.39.91,1.82,2.54,3.06,3.75,3.79,1.78,1.07,3.85,1.79,5.98,2.07.73.1,1.47.15,2.21.15,1.6,0,3.19-.24,4.7-.71,1.9-.61,6.33-3.03,7.93-5.85.39-.68.59-1.33.6-2.03v-.25l-.24-.06c-.07-.02-.14-.02-.2-.02Zm-.71,2.05c-1.45,2.55-5.64,4.94-7.58,5.57-2.12.66-4.4.85-6.64.53-2.05-.27-4.03-.96-5.74-1.99-1.14-.69-2.68-1.86-3.52-3.54-.01-.02-.02-.04-.03-.06,1.84-.68,3.55-1.23,5.07-1.64l.2-.06,1.21-11.84,11.61-.17,1.02,9.95.19.07c1.69.59,3.23,1.16,4.71,1.73-.05.48-.21.96-.51,1.46Z"/><path class="uuid-884ece26-70cd-482d-b240-48a2697497bf" d="m478.5,292.48c-7.14,1.42-14.02,3.86-20.46,7.25-1.03.55-2.06,1.11-3.09,1.69-3.3,1.84-6.72,3.74-10.4,4.7-4.05,1.05-10.03.92-13.54-2.95-.17-.19-.45-.2-.64-.03-.18.17-.2.45-.03.64,2.55,2.81,6.19,3.83,9.67,3.83,1.67,0,3.3-.23,4.76-.62,3.79-.99,7.26-2.92,10.61-4.78,1.02-.57,2.04-1.13,3.07-1.68,6.36-3.35,13.16-5.76,20.21-7.17.25-.05.4-.29.36-.53-.05-.25-.29-.4-.53-.35Z"/><path class="uuid-884ece26-70cd-482d-b240-48a2697497bf" d="m487.31,141.35c-2.85-2.04-7.22-1.91-9.57.69,2.02-2.64,3.14-6.05,2.63-9.33-.51-3.28-2.8-6.33-5.96-7.34-3.16-1.01-7.03.34-8.54,3.3-.56-4.97-6.1-8.42-11.04-7.65-4.94.77-8.9,4.91-10.55,9.64-1.34-2-3.26-3.69-5.57-4.37-2.31-.68-5.02-.22-6.73,1.47-1.71,1.69-2.13,4.66-.68,6.58-2.84-1.29-6.53-.27-8.31,2.29-1.78,2.56-1.46,6.37.73,8.59-2.75.83-4.81,3.54-4.88,6.41s1.87,5.67,4.58,6.63c-1.99,1.68-2.82,4.62-2.01,7.1.81,2.48,3.21,4.36,5.81,4.55-1.4,1.94-.33,4.86,1.62,6.24,1.95,1.38,4.47,1.62,6.85,1.76,3.36.2,6.72.28,10.09.26,2.22-.02,3.84-.59,5.43-2.01,2.49,3.19,5.46,5.65,9.69,5.91,1.61.1,3.33-.17,4.55-1.22,1.22-1.05,1.71-3.04.74-4.32,5.1.72,10.59,1.37,15.14-1.05,1.79-.96,3.38-2.43,4.1-4.34.71-1.9.4-4.25-1.07-5.66-.86-.82-2.12-1.18-3.29-1.05-.7.4-1.42.75-2.17,1.06.56-.63,1.34-.97,2.17-1.06,2.09-1.18,3.97-2.73,5.58-4.51,2.34-2.6,4.15-5.81,4.48-9.3.34-3.48-.98-7.23-3.83-9.27Z"/><path class="uuid-884ece26-70cd-482d-b240-48a2697497bf" d="m481.08,164.42c-.83.1-1.61.43-2.17,1.06.74-.31,1.47-.67,2.17-1.06Z"/><path class="uuid-17f14a1d-5102-4c3a-a92a-28b132ad019a" d="m430.69,152.32c-2.32.2-4,2.79-3.74,5.79.26,2.99,4.28,6.89,6.61,6.69,2.32-.2,2.07-4.42,1.81-7.41-.26-2.99-2.35-5.26-4.68-5.06Z"/><path class="uuid-884ece26-70cd-482d-b240-48a2697497bf" d="m434.03,153.45c-.95-1.03-2.15-1.52-3.37-1.43-1.22.11-2.31.81-3.07,1.99-.74,1.15-1.08,2.62-.95,4.14.13,1.46,1.11,3.23,2.62,4.74,1.41,1.4,2.97,2.24,4.13,2.24.06,0,.13,0,.19,0,1.18-.1,1.91-1.09,2.15-2.93.19-1.41.08-3.15-.06-4.82-.13-1.52-.71-2.91-1.64-3.91Zm1.09,8.65c-.2,1.53-.72,2.32-1.59,2.39-.97.1-2.49-.72-3.83-2.05-1.39-1.39-2.33-3.05-2.44-4.35-.12-1.38.18-2.71.85-3.75.65-1.01,1.58-1.61,2.6-1.7.09,0,.17-.01.26-.01.94,0,1.85.43,2.6,1.24.84.9,1.36,2.16,1.48,3.55.14,1.63.25,3.33.07,4.68Z"/><path class="uuid-884ece26-70cd-482d-b240-48a2697497bf" d="m429.21,153.87c-.23-.02-.46.15-.49.4-.02.24.15.46.4.49.84.08,1.76.42,2.61,1.86-.57-.13-1.29-.06-2.2.23-.24.08-.37.33-.29.56.07.24.32.36.56.29.91-.29,1.58-.33,2-.11.47.25.67.86.89,1.57.13.41.26.84.47,1.24.08.15.24.24.4.24.05,0,.1,0,.16-.03.21-.08.33-.31.28-.53-1.31-5.18-3.15-6.05-4.78-6.21Z"/><path class="uuid-884ece26-70cd-482d-b240-48a2697497bf" d="m441.56,174.36l-.27,2.94c2.16,1.89,5.91,3.1,8.23,3.06,2.43-.04,4.2-.58,4.75-.93l-.54-5.26-12.18.18Z"/><path class="uuid-884ece26-70cd-482d-b240-48a2697497bf" d="m446.66,135.68c-8.79.13-15.82,6.9-15.7,15.12.12,8.22,7.35,14.78,16.14,14.65,8.79-.13,15.82-6.9,15.7-15.12-.12-8.22-7.35-14.78-16.14-14.65Z"/><path class="uuid-17f14a1d-5102-4c3a-a92a-28b132ad019a" d="m464.98,151.82c-2.33-.13-4.35,2.2-4.52,5.2-.17,3-.31,7.23,2.03,7.36,2.33.13,6.24-3.88,6.41-6.88.17-3-1.58-5.54-3.91-5.67Z"/><path class="uuid-884ece26-70cd-482d-b240-48a2697497bf" d="m465,151.5c-.07,0-.13,0-.2,0-2.41,0-4.47,2.41-4.64,5.5-.1,1.67-.15,3.41.08,4.82.3,1.83,1.05,2.8,2.24,2.86.04,0,.09,0,.13,0,2.59,0,6.43-4.13,6.6-7.17.18-3.17-1.71-5.86-4.21-6Zm-2.4,12.55s-.06,0-.09,0c-.87-.05-1.41-.82-1.66-2.34-.22-1.35-.16-3.05-.07-4.69.15-2.75,1.94-4.91,4.02-4.91.06,0,.11,0,.17,0,2.15.12,3.78,2.52,3.62,5.35-.16,2.87-3.91,6.59-5.98,6.59Z"/><path class="uuid-884ece26-70cd-482d-b240-48a2697497bf" d="m466.5,153.31c-1.62.21-3.44,1.13-4.59,6.35-.05.22.08.44.29.52.05.02.09.02.14.02.17,0,.33-.1.4-.26.19-.41.32-.84.43-1.25.2-.72.38-1.34.84-1.6.4-.23,1.08-.21,2,.05.24.07.48-.07.55-.31.07-.24-.07-.49-.31-.55-.92-.26-1.63-.31-2.2-.16.81-1.46,1.72-1.82,2.55-1.93.24-.03.42-.26.38-.5-.03-.25-.26-.41-.5-.39Z"/><path class="uuid-17f14a1d-5102-4c3a-a92a-28b132ad019a" d="m446.91,139.26c-8.49.13-15.24,9.1-15.08,20.04.16,10.94,7.18,19.71,15.66,19.58,8.49-.13,15.24-9.1,15.08-20.04-.16-10.94-7.17-19.71-15.66-19.58Z"/><path class="uuid-884ece26-70cd-482d-b240-48a2697497bf" d="m447.09,138.95c-.06,0-.12,0-.19,0-8.65.13-15.54,9.26-15.38,20.35.16,11.01,7.23,19.89,15.8,19.89.06,0,.12,0,.18,0,8.65-.13,15.54-9.26,15.38-20.35-.08-5.36-1.77-10.38-4.78-14.13-2.97-3.72-6.88-5.76-11.01-5.76Zm.4,39.62c-.06,0-.11,0-.17,0-8.22,0-15.02-8.6-15.17-19.28-.16-10.75,6.47-19.6,14.77-19.72.06,0,.12,0,.18,0,3.94,0,7.68,1.96,10.53,5.53,2.92,3.64,4.57,8.53,4.64,13.75.16,10.75-6.47,19.59-14.77,19.72Z"/><path class="uuid-884ece26-70cd-482d-b240-48a2697497bf" d="m446.87,157.09c-.02-.25-.24-.42-.49-.4-.25.02-.43.24-.4.49l.49,5.41c.03.34.05.8-.16.95-.12.08-.32.09-.49.09-.78,0-1.56-.21-2.24-.59-.21-.12-.49-.05-.61.17-.12.21-.05.49.17.61.82.47,1.75.71,2.68.71.3,0,.69-.03,1.01-.26.65-.47.56-1.37.53-1.76l-.49-5.41Z"/><path class="uuid-884ece26-70cd-482d-b240-48a2697497bf" d="m452.32,154.26c-.58,0-1.04.79-1.03,1.75.01.96.5,1.73,1.07,1.72.58,0,1.04-.79,1.03-1.75-.01-.96-.5-1.73-1.07-1.72Z"/><path class="uuid-884ece26-70cd-482d-b240-48a2697497bf" d="m440.29,154.44c-.58,0-1.04.79-1.03,1.75.01.96.5,1.73,1.08,1.72.58,0,1.04-.79,1.02-1.75-.01-.96-.5-1.73-1.07-1.72Z"/><path class="uuid-884ece26-70cd-482d-b240-48a2697497bf" d="m453.8,152.15c-.94-.81-2.13-.92-3.32-.73-.15.02-.29.22-.33.46-.04.3-.09.61-.13.91-.05.32.11.55.31.46.99-.47,2-.44,2.83.08.51.32.96.83,1.31,1.47.2.38.66-.14.53-.61-.24-.87-.66-1.57-1.2-2.04Z"/><path class="uuid-884ece26-70cd-482d-b240-48a2697497bf" d="m441.37,151.55c-1.2-.16-2.39-.01-3.3.83-.53.48-.93,1.2-1.14,2.08-.11.47.35.98.55.6.33-.65.76-1.17,1.26-1.51.82-.55,1.83-.6,2.84-.16.2.09.35-.15.3-.47-.05-.3-.11-.61-.16-.91-.04-.24-.19-.43-.34-.45Z"/><path class="uuid-884ece26-70cd-482d-b240-48a2697497bf" d="m456.02,142.18c-.97.01,1.27,5.58,1.36,11.64.09,6.06,5.03,7.95,5.03,7.95,0,0,.66-1.81-.18-9.37-.59-5.33-5.25-10.23-6.22-10.22Z"/><path class="uuid-884ece26-70cd-482d-b240-48a2697497bf" d="m431.28,154.19c.09,6.06.73,8.24.73,8.24,0,0,2.39-2.21,2.3-8.26-.09-6.06,1.38-11.68.68-11.67-.7,0-3.81,5.64-3.72,11.69Z"/><path class="uuid-884ece26-70cd-482d-b240-48a2697497bf" d="m457.22,140.85c-2.7-2.9-6.74-3.56-10.53-3.33-5.04.31-10.42,2.45-12.67,6.97-.49.99-.82,2.12-.55,3.19s1.31,1.99,2.4,1.83c2.09-.31,2.33-3.75,4.37-4.31.08.98.15,1.96.23,2.94.86.5,1.96-.16,2.5-1,.54-.83.79-1.85,1.43-2.6.65-.75,1.99-1.08,2.58-.28-.87.59-1.09,1.94-.46,2.77.64.83,2,.98,2.8.3.53-.46.78-1.17,1.27-1.67.49-.5,1.47-.68,1.79-.05-.42.6-.4,1.46.03,2.04.44.58,1.26.84,1.95.61.59-.2,1.03-.69,1.48-1.13,1.71-1.66,3.9.68,3.2-2.67-.28-1.35-.88-2.61-1.81-3.62Z"/><path class="uuid-884ece26-70cd-482d-b240-48a2697497bf" d="m443.57,170.62c1.08.55,1.71,1.07,2.87,1.42,1.79.53,3.89-.2,4.95-1.74.78-1.12,1.07-2.76,1.33-4.1-1.95,2.98-5.61,4.75-9.15,4.43Z"/><path class="uuid-884ece26-70cd-482d-b240-48a2697497bf" d="m450.85,153.41c-2.81.34-4.83,2.9-4.49,5.72.31,2.58,2.5,4.53,5.1,4.53.21,0,.41-.01.62-.04,2.81-.34,4.83-2.9,4.49-5.72-.34-2.78-2.87-4.84-5.72-4.49Zm1.12,9.31c-2.34.28-4.43-1.4-4.71-3.7-.28-2.32,1.38-4.43,3.7-4.71.17-.02.34-.03.51-.03,2.14,0,3.94,1.6,4.2,3.73.28,2.32-1.38,4.43-3.7,4.71Z"/><path class="uuid-884ece26-70cd-482d-b240-48a2697497bf" d="m438.21,153.5c-1.37.16-2.58.85-3.43,1.93-.85,1.08-1.22,2.43-1.06,3.79.31,2.58,2.5,4.53,5.1,4.53.21,0,.41-.01.62-.04,2.81-.34,4.83-2.9,4.49-5.72-.34-2.78-2.88-4.83-5.72-4.49Zm1.12,9.31c-2.35.28-4.43-1.4-4.71-3.7-.13-1.12.18-2.23.87-3.12s1.7-1.45,2.83-1.59c.17-.02.34-.03.51-.03,2.14,0,3.94,1.6,4.2,3.73.28,2.32-1.38,4.43-3.7,4.71Z"/><path class="uuid-884ece26-70cd-482d-b240-48a2697497bf" d="m442.96,157.86l.5.76c.89-.58,2.13-.66,3.07-.18l.41-.81c-1.25-.63-2.81-.54-3.98.23Z"/><path class="uuid-17f14a1d-5102-4c3a-a92a-28b132ad019a" d="m409.63,270.43l-2.4-2.18-4.46-4.06-35.26-32.13c-.74-.83-1.59-1.66-2.55-2.47-.1-.24-.17-.48-.31-.71-1.34-2.06-2.79-4.05-4.19-6.07-.25-.36-.5-.72-.88-.94-.37-.21-.9-.23-1.2.09-.32.34-.24.88-.15,1.34.11.54.17,1.08.25,1.62-1.48-1.12-3.42-2.63-4.54-3.25-.54-.4-1.2-.75-2.06-1.11-2.81-1.15-5.82-1.8-8.85-1.88-.62-.02-1.34.05-1.67.57-.26.42-.13,1,.18,1.4.31.39.76.64,1.2.88.04.02.09.05.13.07-.37.07-.72.2-.91.52-.27.42-.13,1,.18,1.4.31.39.76.64,1.2.88.67.36,1.34.73,2.02,1.09.06.21.13.43.21.65-.49.03-.97.16-1.22.56-.26.42-.13,1,.18,1.4.31.39.76.64,1.2.88.67.36,1.34.73,2.01,1.09,1.45,2.1,3.04,3.97,3.45,4.79,1.27,2.57,2.25,5.44,4.36,7.25,1.16,1,3.44,2.07,5.66,2.47v.03s21.46,30.1,21.46,30.1l2.6,3.64,1.09,1.53c1.15,1.41,2.36,2.74,3.66,4.02,2.28,2.27,4.8,4.3,7.46,6.11,7.29-2.64,13.65-11.26,13.1-18.71l-.95-.87Z"/><path class="uuid-884ece26-70cd-482d-b240-48a2697497bf" d="m410.88,271.16l-7.91-7.2-35.26-32.13c-.72-.81-1.56-1.63-2.49-2.42-.02-.04-.03-.09-.05-.13-.07-.18-.14-.37-.26-.56-.89-1.36-1.84-2.72-2.76-4.03-.48-.68-.96-1.36-1.43-2.05-.25-.36-.54-.78-.98-1.03-.47-.27-1.15-.31-1.58.14-.45.49-.31,1.22-.22,1.62.05.28.1.57.14.86-1.41-1.07-2.98-2.26-3.98-2.81-.53-.39-1.2-.76-2.09-1.12-2.88-1.18-5.9-1.82-8.96-1.9-.67-.03-1.52.04-1.94.72-.36.58-.16,1.3.19,1.75h0c.23.3.53.52.83.7-.18.11-.32.25-.42.42-.36.58-.16,1.3.2,1.75.36.45.86.72,1.3.96l1.9,1.03c.02.06.03.12.05.18-.5.1-.85.32-1.07.66-.36.58-.16,1.3.2,1.75.35.45.85.72,1.3.96.65.35,1.3.7,1.95,1.05.64.92,1.3,1.79,1.88,2.56.69.91,1.29,1.7,1.5,2.13.26.53.51,1.07.76,1.61.96,2.09,1.95,4.26,3.68,5.74,1.27,1.08,3.57,2.1,5.65,2.51l25.11,35.2c1.21,1.48,2.41,2.8,3.69,4.06,2.2,2.19,4.73,4.26,7.51,6.15l.13.09.15-.06c7.63-2.77,13.85-11.65,13.31-19.02v-.12Zm-13.36,18.5c-2.7-1.84-5.15-3.85-7.29-5.99-1.27-1.24-2.46-2.55-3.63-3.99l-25.06-35.12.07-.19-.35-.09c-2.36-.43-4.52-1.55-5.52-2.4-1.62-1.39-2.59-3.49-3.52-5.52-.25-.55-.5-1.1-.76-1.63-.24-.48-.82-1.25-1.56-2.22-.59-.78-1.26-1.66-1.91-2.6l-.11-.09c-.67-.37-1.34-.73-2.02-1.09-.39-.21-.83-.45-1.1-.8-.22-.28-.35-.73-.16-1.04.16-.25.47-.38.98-.42l.42-.03-.15-.39c-.08-.21-.14-.42-.2-.62l-.03-.13-2.13-1.15c-.39-.21-.83-.45-1.11-.8-.22-.28-.35-.73-.15-1.04.12-.19.34-.31.7-.38l.86-.15-.91-.5c-.38-.21-.82-.44-1.09-.8-.22-.28-.35-.73-.16-1.04.18-.29.58-.43,1.24-.43.05,0,.1,0,.15,0,2.99.08,5.93.71,8.74,1.86.84.35,1.48.69,2,1.07,1.02.57,2.7,1.85,4.05,2.88l1.09.83-.11-.76c-.03-.18-.05-.36-.08-.54-.05-.37-.1-.73-.17-1.1-.08-.39-.15-.84.07-1.07.19-.2.56-.17.81-.03.32.18.55.52.78.85.47.68.95,1.37,1.43,2.05.92,1.31,1.87,2.66,2.75,4.01.08.13.14.28.2.44.02.07.05.15.08.22l.08.12c.93.79,1.78,1.61,2.51,2.44l43.01,39.19c.45,7.04-5.47,15.48-12.76,18.21Z"/><path class="uuid-884ece26-70cd-482d-b240-48a2697497bf" d="m356.97,208.23c-1-3.82-4.91-6.11-8.73-5.11-3.82,1-6.11,4.91-5.12,8.73l11.59,46.61c1,3.82,4.91,6.11,8.73,5.11,3.82-1,6.11-4.91,5.11-8.73l-11.59-46.61Z"/><path class="uuid-884ece26-70cd-482d-b240-48a2697497bf" d="m367.43,154.74c-4.29-16.45-21.17-26.34-37.62-22.04-16.45,4.29-26.34,21.17-22.05,37.62,3.95,15.13,18.55,24.7,33.67,22.8l17.67,69.97,4.44-5.06-16.66-66.1c15.55-4.9,24.71-21.25,20.55-37.19Zm-23.17,33.31c-14.07,3.67-28.51-4.78-32.18-18.85-3.67-14.07,4.79-28.51,18.86-32.18,14.07-3.67,28.51,4.78,32.18,18.85,3.67,14.07-4.78,28.51-18.85,32.18Z"/><path class="uuid-884ece26-70cd-482d-b240-48a2697497bf" d="m367.59,154.7c-4.32-16.54-21.28-26.48-37.82-22.16-16.54,4.32-26.48,21.29-22.17,37.83,3.91,14.96,18.38,24.8,33.71,22.94l17.71,70.13,4.71-5.36-16.64-66.03c15.67-5.02,24.67-21.4,20.51-37.34Zm-20.76,37.07l-.15.05,16.67,66.17-4.18,4.75-17.59-69.66-.04-.14-.15.02c-15.21,1.92-29.61-7.83-33.48-22.67-4.27-16.36,5.57-33.15,21.93-37.42,16.36-4.27,33.15,5.56,37.42,21.93,4.13,15.83-4.85,32.07-20.44,36.99Z"/><path class="uuid-884ece26-70cd-482d-b240-48a2697497bf" d="m351.01,139.64c-6.12-3.59-13.27-4.58-20.11-2.79l.04.16-.04-.16c-6.85,1.79-12.6,6.15-16.18,12.27-3.59,6.12-4.58,13.27-2.79,20.11,1.48,5.66,4.69,10.42,8.92,13.86,6.34,5.16,14.97,7.34,23.47,5.12,6.85-1.79,12.6-6.15,16.18-12.27,3.59-6.12,4.58-13.27,2.79-20.11-1.79-6.85-6.14-12.59-12.27-16.18Zm9.19,36.13c-3.54,6.05-9.22,10.35-15.98,12.11-13.98,3.65-28.32-4.75-31.98-18.74-1.76-6.76-.79-13.82,2.76-19.86,3.54-6.05,9.22-10.35,15.98-12.11,6.76-1.76,13.81-.79,19.86,2.76,1.18.69,2.3,1.47,3.34,2.31,4.29,3.49,7.35,8.23,8.77,13.66,1.77,6.76.78,13.82-2.76,19.86Z"/><polygon class="uuid-884ece26-70cd-482d-b240-48a2697497bf" points="357.6 258.8 355.82 262.08 359.16 263.36 363.89 262.89 365.37 257.74 362.85 258.09 357.6 258.8"/><path class="uuid-20dabef4-4c35-4edb-a776-b1ca57329623" d="m365.46,153.48c-4.29-16.45-21.17-26.34-37.62-22.04-16.45,4.3-26.34,21.17-22.04,37.62,3.97,15.2,18.69,24.8,33.89,22.77l17.7,70.09,5.39-1.41-17.65-69.91c15.42-4.98,24.48-21.25,20.34-37.12Zm-23.17,33.3c-14.07,3.67-28.51-4.78-32.18-18.85-3.67-14.07,4.79-28.51,18.85-32.18,14.07-3.67,28.51,4.78,32.18,18.85,3.67,14.07-4.78,28.51-18.85,32.18Z"/><path class="uuid-884ece26-70cd-482d-b240-48a2697497bf" d="m328.9,135.49c-6.88,1.79-12.65,6.17-16.25,12.32-3.6,6.15-4.6,13.32-2.8,20.2,1.44,5.53,4.56,10.35,8.92,13.89,1.06.86,2.19,1.65,3.4,2.35,6.15,3.6,13.32,4.6,20.2,2.8,14.21-3.71,22.76-18.3,19.05-32.51-3.71-14.22-18.3-22.76-32.51-19.05Zm13.32,51.03c-6.73,1.76-13.76.78-19.78-2.74-6.02-3.53-10.31-9.18-12.06-15.91-1.76-6.73-.78-13.76,2.74-19.78,3.53-6.02,9.18-10.31,15.91-12.06,13.93-3.63,28.21,4.74,31.85,18.66,3.63,13.92-4.74,28.21-18.66,31.84Z"/><path class="uuid-884ece26-70cd-482d-b240-48a2697497bf" d="m365.73,153.41c-4.33-16.6-21.36-26.57-37.96-22.24-16.6,4.33-26.57,21.36-22.24,37.96,3.94,15.09,18.51,24.94,33.95,23l17.64,69.86.07.27,5.92-1.55-17.65-69.93c15.52-5.15,24.42-21.51,20.28-37.37Zm-20.69,36.93l-.24.08,17.65,69.9-4.87,1.27-17.63-69.83-.06-.24-.24.03c-15.26,2.03-29.69-7.67-33.58-22.57-4.26-16.3,5.54-33.03,21.85-37.29,16.3-4.26,33.03,5.54,37.29,21.85,4.09,15.66-4.77,31.82-20.16,36.79Z"/><path class="uuid-884ece26-70cd-482d-b240-48a2697497bf" d="m349.04,138.38c-6.12-3.59-13.27-4.58-20.11-2.79l.04.16-.04-.16c-14.16,3.7-22.67,18.22-18.98,32.38,1.48,5.66,4.69,10.42,8.91,13.86,6.34,5.16,14.97,7.33,23.47,5.12,6.85-1.79,12.59-6.14,16.18-12.27,3.59-6.12,4.58-13.27,2.79-20.11-1.79-6.85-6.14-12.59-12.27-16.18Zm9.19,36.13c-3.54,6.05-9.22,10.35-15.98,12.11-13.98,3.65-28.32-4.75-31.98-18.74-1.76-6.76-.79-13.81,2.76-19.86,3.54-6.05,9.22-10.35,15.98-12.11,6.76-1.77,13.81-.79,19.86,2.76,1.18.69,2.3,1.47,3.34,2.31,4.29,3.49,7.35,8.23,8.77,13.66,1.77,6.76.79,13.82-2.76,19.86Z"/><path class="uuid-884ece26-70cd-482d-b240-48a2697497bf" d="m365.63,153.44c-4.32-16.54-21.29-26.48-37.82-22.16-16.54,4.32-26.48,21.29-22.17,37.83,3.93,15.07,18.5,24.89,33.92,22.91l17.66,69.95.04.16,5.72-1.49-17.65-69.92c15.52-5.1,24.44-21.44,20.3-37.27Zm-20.55,37l-.15.05,17.65,69.91-5.07,1.33-17.66-69.93-.04-.14-.15.02c-15.31,2.04-29.8-7.7-33.7-22.65-4.27-16.36,5.56-33.15,21.93-37.42,16.36-4.27,33.15,5.56,37.42,21.93,4.1,15.71-4.78,31.93-20.23,36.92Z"/><path class="uuid-20dabef4-4c35-4edb-a776-b1ca57329623" d="m353.92,207.45c-1-3.82-4.91-6.11-8.73-5.11-3.83,1-6.11,4.91-5.12,8.73l11.59,46.22c1,3.82,4.9,6.11,8.73,5.11,3.82-1,6.11-4.91,5.11-8.73l-11.59-46.22Z"/><path class="uuid-884ece26-70cd-482d-b240-48a2697497bf" d="m354.18,207.38c-1.03-3.96-5.1-6.34-9.06-5.31-3.96,1.04-6.34,5.1-5.31,9.06l11.59,46.22c.41,1.58,1.31,2.92,2.49,3.88,1.78,1.44,4.19,2.05,6.57,1.43,3.96-1.04,6.34-5.1,5.31-9.06l-11.59-46.22Zm10.34,51.57c-.93,1.59-2.42,2.71-4.2,3.18-1.78.46-3.63.21-5.22-.72-1.58-.93-2.72-2.42-3.18-4.19l-11.59-46.22c-.96-3.67,1.25-7.44,4.92-8.4,2.2-.58,4.44,0,6.09,1.33,1.09.89,1.93,2.12,2.31,3.59l11.59,46.22c.46,1.78.21,3.63-.72,5.22Z"/><path class="uuid-884ece26-70cd-482d-b240-48a2697497bf" d="m354.08,207.41c-.49-1.89-1.7-3.48-3.38-4.47-1.69-.99-3.66-1.26-5.56-.77-1.89.49-3.48,1.7-4.47,3.38-.99,1.69-1.26,3.66-.77,5.55l11.59,46.22c.4,1.52,1.25,2.85,2.45,3.82.29.24.6.45.93.65,1.69.99,3.66,1.26,5.56.77,1.89-.49,3.48-1.7,4.47-3.39.99-1.69,1.26-3.66.77-5.55l-11.59-46.22Zm10.52,51.6c-.94,1.61-2.46,2.75-4.26,3.22-1.8.47-3.68.21-5.29-.73-1.61-.94-2.76-2.46-3.22-4.26l-11.59-46.22c-.47-1.8-.21-3.68.73-5.29s2.46-2.75,4.26-3.22c1.8-.47,3.68-.21,5.29.73.32.18.61.39.89.61,1.14.93,1.96,2.19,2.34,3.64l11.59,46.22c.47,1.8.21,3.68-.73,5.29Z"/><path class="uuid-81870690-5703-49c3-8e77-27585bb62c46" d="m345.08,136.65c-13.59-5.22-28.84,1.57-34.06,15.17-5.22,13.59,1.57,28.84,15.16,34.06,13.59,5.22,28.84-1.57,34.06-15.16,5.22-13.59-1.57-28.84-15.16-34.06Z"/><path class="uuid-81870690-5703-49c3-8e77-27585bb62c46" d="m345.29,136.39c-13.59-5.22-28.84,1.57-34.06,15.16-5.22,13.59,1.57,28.84,15.16,34.06,13.59,5.22,28.84-1.57,34.06-15.16,5.22-13.59-1.57-28.84-15.16-34.06Z"/><path class="uuid-17f14a1d-5102-4c3a-a92a-28b132ad019a" d="m357.13,220.26c-1.07.84-.21,3.42.63,5.31.85,1.93,2.54,3.45,4.63,3.78.02,0,.04,0,.06,0l-1.01-5.31s-2.49-5.22-4.31-3.8Z"/><path class="uuid-884ece26-70cd-482d-b240-48a2697497bf" d="m357.99,220.41c1.19.28,3.18,3.67,3.64,4.63l.95.27c-.19-.39-2.67-5.21-4.42-5.62-.46-.11-.89,0-1.26.28-1,.78-.82,2.72.52,5.75.96,2.16,2.79,3.66,4.96,4.01l.07-.36v-.37c-1.87-.3-3.5-1.63-4.35-3.57-1.14-2.57-1.41-4.35-.73-4.88.2-.16.4-.2.63-.15Z"/><path class="uuid-17f14a1d-5102-4c3a-a92a-28b132ad019a" d="m346.52,227.33c.06-.17.12-.32.16-.42.23-.57.42-1.15.44-1.73.02-.57-.15-1.14-.57-1.51-.33-.29-.79-.41-1.29-.41.02-.17.04-.34.04-.52-.03-.55-.22-1.11-.61-1.49-.17-.17-.39-.28-.61-.37.12-.38.21-.77.21-1.15,0-.45-.15-.9-.48-1.21-.49-.46-1.33-.49-1.96-.14-.63.35-1.04,1.01-1.13,1.69-.1.68.09,1.35.44,1.92.04.07.11.16.18.26-.1.25-.18.5-.21.77-.09.82.16,1.65.59,2.36.1.16.28.41.49.68-.1.79.1,1.57.5,2.21.1.17.31.44.56.72-.02.09-.05.18-.06.27-.08.82.17,1.65.59,2.36.3.5,1.38,1.92,2.1,1.69.61-.2,1.07-2.15,1.23-2.7.16-.53.28-1.07.25-1.62-.02-.55-.21-1.11-.61-1.49-.07-.07-.16-.11-.25-.16Z"/><path d="m346.9,227.21l.07-.18c.22-.54.44-1.17.47-1.83.02-.73-.22-1.35-.68-1.76-.3-.26-.69-.42-1.15-.47,0-.08,0-.16,0-.24-.03-.69-.28-1.29-.7-1.7-.13-.12-.28-.23-.45-.32.08-.3.15-.64.14-.98,0-.58-.21-1.09-.58-1.43-.56-.52-1.57-.6-2.32-.19-.68.37-1.18,1.11-1.29,1.92-.1.69.07,1.45.48,2.12.02.04.06.09.1.15-.09.25-.14.47-.16.69-.09.82.14,1.73.63,2.55.1.17.26.39.43.61-.07.78.13,1.59.55,2.28.09.15.26.39.48.64-.01.05-.02.1-.03.16-.09.83.14,1.73.63,2.55,0,.02,1.15,1.86,2.19,1.86.09,0,.18-.01.27-.04.58-.19.95-1.16,1.36-2.66l.07-.25c.15-.5.3-1.1.27-1.72-.03-.69-.28-1.29-.7-1.7-.03-.03-.05-.05-.08-.07Zm-.08,3.32l-.07.26c-.48,1.74-.78,2.17-.95,2.23-.39.12-1.32-.86-1.74-1.55-.42-.71-.62-1.48-.55-2.17,0-.04.02-.08.03-.12.01-.04.02-.09.03-.13l.03-.15-.11-.12c-.25-.27-.43-.53-.52-.67-.38-.62-.54-1.32-.45-2.01l.02-.13-.08-.1c-.22-.27-.38-.51-.46-.64-.42-.71-.62-1.48-.55-2.17.02-.2.08-.42.19-.68l.06-.16-.1-.14c-.07-.09-.13-.18-.17-.24-.34-.55-.48-1.16-.4-1.71.09-.62.46-1.18.98-1.46.23-.13.5-.2.77-.2.33,0,.63.1.83.29.24.22.37.57.38.98,0,.36-.09.72-.2,1.06l-.08.28.27.1c.22.08.38.18.5.3.31.3.49.76.52,1.28,0,.12,0,.24-.02.35l-.03.46h.34c.44,0,.82.12,1.06.33.43.37.48.95.47,1.27-.02.56-.22,1.13-.42,1.62l-.25.65.2.14s.07.04.1.06c.04.02.08.05.1.06.31.3.49.76.51,1.29.03.53-.11,1.07-.24,1.52Z"/></svg>