<?xml version="1.0" encoding="UTF-8"?><svg id="uuid-787c6e85-9c11-47d7-bb4d-2d9121a2205d" xmlns="http://www.w3.org/2000/svg" xmlns:xlink="http://www.w3.org/1999/xlink" viewBox="0 0 582.63 521.52"><defs><style>.uuid-091d51cc-4abf-41cc-90f2-62870a92c2d1,.uuid-06f1b445-2978-4ed8-9352-f208579138ea,.uuid-ab585081-a1c8-495c-a056-0c45df3e90b2{fill:#fff;}.uuid-2d438165-c48f-4211-98e6-3170e916009c{fill:#361e4d;}.uuid-15bd3941-2391-4175-b598-dab150675449{fill:#e6ebf0;}.uuid-06f1b445-2978-4ed8-9352-f208579138ea{opacity:.5;}.uuid-0af42fea-e03a-4f2e-ac7e-6521fb8b23f4{clip-path:url(#uuid-8c60934f-5cf5-43d0-8f3d-d0b8ba11adaf);}.uuid-0af42fea-e03a-4f2e-ac7e-6521fb8b23f4,.uuid-cd26144f-12bf-4b12-8aab-543f5564927f{fill:none;}.uuid-81feb848-590a-4017-a993-6feea2850dec{fill:#c6d0db;}.uuid-f515da3a-cb4d-429f-af9a-08b1419d1fa3{fill:#73cbe2;}.uuid-c4219b20-8b29-4b1c-81fc-d78109af7cce{fill:#001940;}.uuid-9932bbb8-4293-4f44-b57a-f48e1bf9f5db{fill:#f85a44;}.uuid-ab585081-a1c8-495c-a056-0c45df3e90b2{opacity:.35;}.uuid-24930aa9-b6a9-4d43-838d-07f72858f50f{fill:#ffab48;}.uuid-5c7615ad-ecc8-43f7-864f-1fedd38aff9c{fill:#aab6c2;}</style><clipPath id="uuid-8c60934f-5cf5-43d0-8f3d-d0b8ba11adaf"><path class="uuid-cd26144f-12bf-4b12-8aab-543f5564927f" d="m17.38,228.5C-.09,319.79,64.84,397.67,203.96,397.09c139.12-.58,50.83,113.19,166.99,120.31,116.16,7.11,172.8-64,158.39-221.86-14.41-157.86-16.95-343.06-256.34-284.44C122,48.07,33.75,142.99,17.38,228.5Z"/></clipPath></defs><rect class="uuid-c4219b20-8b29-4b1c-81fc-d78109af7cce" x="32.42" y="517.92" width="474.19" height="3.6"/><path class="uuid-15bd3941-2391-4175-b598-dab150675449" d="m17.38,228.5C-.09,319.79,64.84,397.67,203.96,397.09c139.12-.58,50.83,113.19,166.99,120.31,116.16,7.11,172.8-64,158.39-221.86-14.41-157.86-16.95-343.06-256.34-284.44C122,48.07,33.75,142.99,17.38,228.5Z"/><path class="uuid-15bd3941-2391-4175-b598-dab150675449" d="m114.06,421.23c43.13-10.48,127.9-19.3,155.05,20.97,27.15,40.27.15,55.05-48.72,35.59-48.87-19.45-165.89-42.08-106.33-56.56Z"/><g class="uuid-0af42fea-e03a-4f2e-ac7e-6521fb8b23f4"><polygon class="uuid-81feb848-590a-4017-a993-6feea2850dec" points="153.59 142.15 153.59 122.78 185.72 122.78 185.72 30.21 194.58 30.21 194.58 122.78 229.18 122.78 229.18 142.15 247.72 142.15 247.72 530.32 114.04 530.32 114.04 142.15 153.59 142.15"/><rect class="uuid-5c7615ad-ecc8-43f7-864f-1fedd38aff9c" x="114.04" y="142.15" width="18.54" height="349.17"/><rect class="uuid-81feb848-590a-4017-a993-6feea2850dec" x="180.88" y="234.62" width="133.68" height="295.7"/><rect class="uuid-5c7615ad-ecc8-43f7-864f-1fedd38aff9c" x="180.88" y="234.62" width="18.54" height="295.7"/><rect class="uuid-5c7615ad-ecc8-43f7-864f-1fedd38aff9c" x="276.73" y="247.22" width="19.18" height="7.96"/><rect class="uuid-5c7615ad-ecc8-43f7-864f-1fedd38aff9c" x="244.43" y="247.22" width="19.18" height="7.96"/><rect class="uuid-5c7615ad-ecc8-43f7-864f-1fedd38aff9c" x="276.73" y="276.2" width="19.18" height="7.96"/><rect class="uuid-5c7615ad-ecc8-43f7-864f-1fedd38aff9c" x="244.43" y="276.2" width="19.18" height="7.96"/><rect class="uuid-5c7615ad-ecc8-43f7-864f-1fedd38aff9c" x="212.13" y="276.2" width="19.18" height="7.96"/><rect class="uuid-5c7615ad-ecc8-43f7-864f-1fedd38aff9c" x="276.73" y="305.19" width="19.18" height="7.96"/><rect class="uuid-5c7615ad-ecc8-43f7-864f-1fedd38aff9c" x="212.13" y="305.19" width="19.18" height="7.96"/><rect class="uuid-5c7615ad-ecc8-43f7-864f-1fedd38aff9c" x="244.43" y="319.68" width="19.18" height="7.96"/><rect class="uuid-5c7615ad-ecc8-43f7-864f-1fedd38aff9c" x="276.73" y="334.18" width="19.18" height="7.96"/><rect class="uuid-5c7615ad-ecc8-43f7-864f-1fedd38aff9c" x="244.43" y="348.67" width="19.18" height="7.96"/><rect class="uuid-5c7615ad-ecc8-43f7-864f-1fedd38aff9c" x="276.73" y="363.17" width="19.18" height="7.96"/><rect class="uuid-5c7615ad-ecc8-43f7-864f-1fedd38aff9c" x="212.13" y="363.17" width="19.18" height="7.96"/><rect class="uuid-5c7615ad-ecc8-43f7-864f-1fedd38aff9c" x="276.73" y="389.96" width="19.18" height="7.96"/><rect class="uuid-5c7615ad-ecc8-43f7-864f-1fedd38aff9c" x="244.43" y="389.96" width="19.18" height="7.96"/><rect class="uuid-5c7615ad-ecc8-43f7-864f-1fedd38aff9c" x="276.73" y="418.94" width="19.18" height="7.96"/><rect class="uuid-5c7615ad-ecc8-43f7-864f-1fedd38aff9c" x="244.43" y="418.94" width="19.18" height="7.96"/><rect class="uuid-5c7615ad-ecc8-43f7-864f-1fedd38aff9c" x="212.13" y="418.94" width="19.18" height="7.96"/><rect class="uuid-5c7615ad-ecc8-43f7-864f-1fedd38aff9c" x="276.73" y="447.93" width="19.18" height="7.96"/><rect class="uuid-5c7615ad-ecc8-43f7-864f-1fedd38aff9c" x="212.13" y="447.93" width="19.18" height="7.96"/><rect class="uuid-5c7615ad-ecc8-43f7-864f-1fedd38aff9c" x="244.43" y="462.42" width="19.18" height="7.96"/><rect class="uuid-5c7615ad-ecc8-43f7-864f-1fedd38aff9c" x="212.13" y="462.42" width="19.18" height="7.96"/><rect class="uuid-5c7615ad-ecc8-43f7-864f-1fedd38aff9c" x="276.73" y="476.92" width="19.18" height="7.96"/><rect class="uuid-5c7615ad-ecc8-43f7-864f-1fedd38aff9c" x="244.43" y="491.41" width="19.18" height="7.96"/><rect class="uuid-5c7615ad-ecc8-43f7-864f-1fedd38aff9c" x="276.73" y="505.91" width="19.18" height="7.96"/><rect class="uuid-5c7615ad-ecc8-43f7-864f-1fedd38aff9c" x="212.13" y="505.91" width="19.18" height="7.96"/><rect class="uuid-81feb848-590a-4017-a993-6feea2850dec" x="500.74" y="234.62" width="133.68" height="295.7"/><rect class="uuid-5c7615ad-ecc8-43f7-864f-1fedd38aff9c" x="500.74" y="234.62" width="18.53" height="295.7"/><rect class="uuid-81feb848-590a-4017-a993-6feea2850dec" x="310.84" y="93.97" width="179.36" height="436.35"/><rect class="uuid-5c7615ad-ecc8-43f7-864f-1fedd38aff9c" x="310.84" y="93.97" width="18.54" height="436.35"/><rect class="uuid-5c7615ad-ecc8-43f7-864f-1fedd38aff9c" x="443.29" y="114.87" width="28.01" height="11.63"/><rect class="uuid-5c7615ad-ecc8-43f7-864f-1fedd38aff9c" x="396.13" y="114.87" width="28.01" height="11.63"/><rect class="uuid-5c7615ad-ecc8-43f7-864f-1fedd38aff9c" x="443.29" y="157.2" width="28.01" height="11.63"/><rect class="uuid-5c7615ad-ecc8-43f7-864f-1fedd38aff9c" x="396.13" y="157.2" width="28.01" height="11.63"/><rect class="uuid-5c7615ad-ecc8-43f7-864f-1fedd38aff9c" x="348.97" y="157.2" width="28.01" height="11.63"/><rect class="uuid-5c7615ad-ecc8-43f7-864f-1fedd38aff9c" x="443.29" y="199.53" width="28.01" height="11.63"/><rect class="uuid-5c7615ad-ecc8-43f7-864f-1fedd38aff9c" x="348.97" y="199.53" width="28.01" height="11.63"/><rect class="uuid-5c7615ad-ecc8-43f7-864f-1fedd38aff9c" x="396.13" y="220.7" width="28.01" height="11.63"/><rect class="uuid-5c7615ad-ecc8-43f7-864f-1fedd38aff9c" x="443.29" y="241.86" width="28.01" height="11.63"/><rect class="uuid-5c7615ad-ecc8-43f7-864f-1fedd38aff9c" x="396.13" y="263.03" width="28.01" height="11.63"/><rect class="uuid-5c7615ad-ecc8-43f7-864f-1fedd38aff9c" x="443.29" y="284.19" width="28.01" height="11.63"/><rect class="uuid-5c7615ad-ecc8-43f7-864f-1fedd38aff9c" x="348.97" y="284.19" width="28.01" height="11.63"/><rect class="uuid-5c7615ad-ecc8-43f7-864f-1fedd38aff9c" x="443.29" y="323.31" width="28.01" height="11.63"/><rect class="uuid-5c7615ad-ecc8-43f7-864f-1fedd38aff9c" x="396.13" y="323.31" width="28.01" height="11.63"/><rect class="uuid-5c7615ad-ecc8-43f7-864f-1fedd38aff9c" x="443.29" y="365.64" width="28.01" height="11.63"/><rect class="uuid-5c7615ad-ecc8-43f7-864f-1fedd38aff9c" x="396.13" y="365.64" width="28.01" height="11.63"/><rect class="uuid-5c7615ad-ecc8-43f7-864f-1fedd38aff9c" x="348.97" y="365.64" width="28.01" height="11.63"/><rect class="uuid-5c7615ad-ecc8-43f7-864f-1fedd38aff9c" x="443.29" y="407.97" width="28.01" height="11.63"/><rect class="uuid-5c7615ad-ecc8-43f7-864f-1fedd38aff9c" x="348.97" y="407.97" width="28.01" height="11.63"/><rect class="uuid-5c7615ad-ecc8-43f7-864f-1fedd38aff9c" x="396.13" y="429.14" width="28.01" height="11.63"/><rect class="uuid-5c7615ad-ecc8-43f7-864f-1fedd38aff9c" x="348.97" y="429.14" width="28.01" height="11.63"/><rect class="uuid-5c7615ad-ecc8-43f7-864f-1fedd38aff9c" x="443.29" y="450.3" width="28.01" height="11.63"/><rect class="uuid-5c7615ad-ecc8-43f7-864f-1fedd38aff9c" x="396.13" y="471.47" width="28.01" height="11.63"/><rect class="uuid-5c7615ad-ecc8-43f7-864f-1fedd38aff9c" x="443.29" y="492.63" width="28.01" height="11.63"/><rect class="uuid-5c7615ad-ecc8-43f7-864f-1fedd38aff9c" x="348.97" y="492.63" width="28.01" height="11.63"/><rect class="uuid-81feb848-590a-4017-a993-6feea2850dec" x="24.72" y="254.88" width="113.22" height="275.44"/><rect class="uuid-5c7615ad-ecc8-43f7-864f-1fedd38aff9c" x="24.72" y="254.88" width="11.7" height="275.44"/><rect class="uuid-5c7615ad-ecc8-43f7-864f-1fedd38aff9c" x="108.33" y="268.07" width="17.68" height="7.34"/><rect class="uuid-5c7615ad-ecc8-43f7-864f-1fedd38aff9c" x="78.56" y="268.07" width="17.68" height="7.34"/><rect class="uuid-5c7615ad-ecc8-43f7-864f-1fedd38aff9c" x="108.33" y="294.79" width="17.68" height="7.34"/><rect class="uuid-5c7615ad-ecc8-43f7-864f-1fedd38aff9c" x="78.56" y="294.79" width="17.68" height="7.34"/><rect class="uuid-5c7615ad-ecc8-43f7-864f-1fedd38aff9c" x="48.79" y="294.79" width="17.68" height="7.34"/><rect class="uuid-5c7615ad-ecc8-43f7-864f-1fedd38aff9c" x="108.33" y="321.51" width="17.68" height="7.34"/><rect class="uuid-5c7615ad-ecc8-43f7-864f-1fedd38aff9c" x="48.79" y="321.51" width="17.68" height="7.34"/><rect class="uuid-5c7615ad-ecc8-43f7-864f-1fedd38aff9c" x="78.56" y="334.87" width="17.68" height="7.34"/><rect class="uuid-5c7615ad-ecc8-43f7-864f-1fedd38aff9c" x="108.33" y="348.24" width="17.68" height="7.34"/><rect class="uuid-5c7615ad-ecc8-43f7-864f-1fedd38aff9c" x="78.56" y="361.6" width="17.68" height="7.34"/><rect class="uuid-5c7615ad-ecc8-43f7-864f-1fedd38aff9c" x="108.33" y="374.96" width="17.68" height="7.34"/><rect class="uuid-5c7615ad-ecc8-43f7-864f-1fedd38aff9c" x="48.79" y="374.96" width="17.68" height="7.34"/><rect class="uuid-5c7615ad-ecc8-43f7-864f-1fedd38aff9c" x="108.33" y="399.65" width="17.68" height="7.34"/><rect class="uuid-5c7615ad-ecc8-43f7-864f-1fedd38aff9c" x="78.56" y="399.65" width="17.68" height="7.34"/><rect class="uuid-5c7615ad-ecc8-43f7-864f-1fedd38aff9c" x="108.33" y="426.37" width="17.68" height="7.34"/><rect class="uuid-5c7615ad-ecc8-43f7-864f-1fedd38aff9c" x="78.56" y="426.37" width="17.68" height="7.34"/><rect class="uuid-5c7615ad-ecc8-43f7-864f-1fedd38aff9c" x="48.79" y="426.37" width="17.68" height="7.34"/><rect class="uuid-5c7615ad-ecc8-43f7-864f-1fedd38aff9c" x="108.33" y="453.09" width="17.68" height="7.34"/><rect class="uuid-5c7615ad-ecc8-43f7-864f-1fedd38aff9c" x="48.79" y="453.09" width="17.68" height="7.34"/><rect class="uuid-5c7615ad-ecc8-43f7-864f-1fedd38aff9c" x="78.56" y="466.45" width="17.68" height="7.34"/><rect class="uuid-5c7615ad-ecc8-43f7-864f-1fedd38aff9c" x="48.79" y="466.45" width="17.68" height="7.34"/><rect class="uuid-5c7615ad-ecc8-43f7-864f-1fedd38aff9c" x="108.33" y="479.81" width="17.68" height="7.34"/><rect class="uuid-5c7615ad-ecc8-43f7-864f-1fedd38aff9c" x="78.56" y="493.17" width="17.68" height="7.34"/><rect class="uuid-5c7615ad-ecc8-43f7-864f-1fedd38aff9c" x="108.33" y="506.53" width="17.68" height="7.34"/><rect class="uuid-5c7615ad-ecc8-43f7-864f-1fedd38aff9c" x="48.79" y="506.53" width="17.68" height="7.34"/><rect class="uuid-ab585081-a1c8-495c-a056-0c45df3e90b2" x="-46.23" y="-39.91" width="479.82" height="547.07"/><polygon class="uuid-06f1b445-2978-4ed8-9352-f208579138ea" points="118.96 497.28 81.72 497.28 281.35 -33.65 318.59 -33.65 118.96 497.28"/><polygon class="uuid-06f1b445-2978-4ed8-9352-f208579138ea" points="53.21 497.28 34.59 497.28 234.22 -33.65 252.83 -33.65 53.21 497.28"/><polygon class="uuid-06f1b445-2978-4ed8-9352-f208579138ea" points="275.53 497.28 256.91 497.28 428.06 23.35 428.06 61.53 275.53 497.28"/><rect class="uuid-ab585081-a1c8-495c-a056-0c45df3e90b2" x="436.11" y="-50.74" width="479.81" height="547.07"/><polygon class="uuid-06f1b445-2978-4ed8-9352-f208579138ea" points="515.47 497.28 478.23 497.28 677.85 -33.65 715.09 -33.65 515.47 497.28"/><polygon class="uuid-06f1b445-2978-4ed8-9352-f208579138ea" points="449.71 497.28 431.09 497.28 630.72 -33.65 649.34 -33.65 449.71 497.28"/><path class="uuid-091d51cc-4abf-41cc-90f2-62870a92c2d1" d="m935.94,58.77v-6.26h-17.24V-46.17h0s-479.86,0-479.86,0H-51.47v12.52h10.45v4.42h309.43V52.51H-51.47v6.26h319.88v160.66H-51.47v6.26h319.88v160.66H-51.47v6.26h319.88v104.68H-40.92v3.62h-10.55v14.48h970.18v-1.16h0v-121.62h17.24v-6.26h-17.24v-160.66h17.24v-6.26h-17.24V58.77h17.24Zm-497.06,166.92h149.44v160.66h-149.44v-160.66Zm0-6.26V58.77h149.44v160.66h-149.44Zm0-166.92V-29.23h149.44V52.51h-149.44Zm0,340.09h149.44v104.68h-149.39v3.62h-.05v-108.3Zm159.94,104.68v-104.68h149.44v104.68h-149.44Zm0-110.94v-160.66h149.44v160.66h-149.44Zm0-166.92V58.77h149.44v160.66h-149.44Zm0-166.92V-29.23h149.44V52.51h-149.44Zm159.94-81.74h149.44V52.51h-149.44V-29.23Zm-479.86,0h149.44V52.51h-149.44V-29.23Zm0,88h149.44v160.66h-149.44V58.77Zm0,166.92h149.44v160.66h-149.44v-160.66Zm0,166.92h149.44v108.3h-.06v-3.62h-149.39v-104.68Zm629.3,108.3h-.06v-3.62h-149.39v-104.68h149.44v108.3Zm0-114.56h-149.44v-160.66h149.44v160.66Zm0-166.92h-149.44V58.77h149.44v160.66Z"/></g><path class="uuid-24930aa9-b6a9-4d43-838d-07f72858f50f" d="m492.05,446.95l7.02-22.96-14.09-5.68c.57-7.17-.16-14.22-2.03-20.96l12.76-8.26-11.26-21.18-13.98,5.95c-4.54-5.31-9.98-9.86-16.24-13.4l3.17-14.86-22.96-7.02-5.68,14.09c-7.14-.56-14.23.16-20.96,2.03l-8.26-12.75-21.18,11.26,5.95,13.98c-5.31,4.54-9.86,9.98-13.4,16.24l-14.86-3.17-7.01,22.96,14.09,5.68c-.56,7.14.16,14.22,2.03,20.96l-12.75,8.26,11.26,21.17,13.98-5.95c4.54,5.31,10.01,9.87,16.24,13.4l-3.17,14.86,22.96,7.01,5.68-14.09c7.17.57,14.22-.16,20.95-2.02l8.26,12.75,21.18-11.26-5.95-13.98c5.31-4.54,9.87-10.01,13.4-16.24l14.86,3.17Zm-80.66,8.09c-22.88-6.99-35.76-31.21-28.77-54.1,6.99-22.88,31.21-35.76,54.09-28.76,22.88,6.99,35.76,31.21,28.77,54.09-6.99,22.88-31.21,35.76-54.09,28.77Z"/><polygon class="uuid-2d438165-c48f-4211-98e6-3170e916009c" points="358.41 407.59 348.38 403.54 353.67 386.23 354.69 386.54 349.68 402.92 358.81 406.6 358.41 407.59"/><path class="uuid-2d438165-c48f-4211-98e6-3170e916009c" d="m391.23,481.72l-1.04-.22,3.08-14.46c-7.15-3.64-12.64-9.68-12.7-9.74l.79-.71c.05.06,5.61,6.17,12.75,9.69l.37.18-3.25,15.27Z"/><path class="uuid-c4219b20-8b29-4b1c-81fc-d78109af7cce" d="m448.45,450.04l-.61-.87c27.89-19.58,16.7-49.41,16.59-49.71l.99-.39c.12.31,11.59,30.91-16.97,50.96Z"/><path class="uuid-2d438165-c48f-4211-98e6-3170e916009c" d="m484.6,408.96c-.78-6.26-2.15-11.42-2.17-11.47l-.1-.37,4.68-3.03.58.89-4.04,2.62c.33,1.31,1.43,5.88,2.1,11.24l-1.05.13Z"/><path class="uuid-c4219b20-8b29-4b1c-81fc-d78109af7cce" d="m420.23,487.57l-23.89-7.3,3.19-14.96c-1.8-1.01-10.13-5.89-15.82-13.04l-14.06,5.98-11.72-22.03,12.83-8.31c-.54-1.88-2.77-10.36-1.97-20.4l-14.18-5.72,7.3-23.89,14.96,3.19c1.11-1.93,6.69-11.28,13.02-15.85l-5.98-14.04,22.04-11.72,8.3,12.81c1.82-.64,9.45-2.99,20.42-1.95l5.72-14.18,23.89,7.3-3.19,14.96c1.83,1.02,10.35,5.97,15.82,13.04l14.05-5.98,11.72,22.04-12.83,8.3c.6,1.88,2.99,10.17,1.97,20.41l14.18,5.71-7.3,23.89-14.95-3.18c-.93,1.76-5.25,9.46-13.05,15.81l5.99,14.06-22.04,11.72-8.3-12.81c-1.87.67-9.96,3.22-20.41,1.96l-5.71,14.17Zm-22.66-8.02l22.05,6.74,5.66-14.03.4.05c11.83,1.54,20.61-1.96,20.7-1.99l.4-.17,8.24,12.72,20.34-10.82-5.92-13.91.31-.25c8.83-7.07,13.22-15.98,13.26-16.07l.18-.37,14.8,3.15,6.74-22.05-14.02-5.65.04-.4c1.24-11.56-1.97-20.65-2-20.74l-.14-.39,12.71-8.23-10.81-20.34-13.92,5.93-.25-.33c-5.97-7.9-15.98-13.2-16.08-13.26l-.35-.19,3.15-14.79-22.05-6.74-5.65,14.02-.39-.04c-12.33-1.25-20.64,1.96-20.72,2l-.4.16-8.24-12.71-20.33,10.81,5.93,13.94-.35.24c-6.87,4.74-13.18,15.97-13.24,16.08l-.19.34-14.78-3.15-6.74,22.05,14.01,5.65-.03.39c-.98,11.29,1.97,20.67,2,20.76l.12.38-12.69,8.22,10.81,20.33,13.91-5.92.25.32c6.23,8,15.98,13.21,16.08,13.27l.35.18-3.15,14.79Z"/><path class="uuid-c4219b20-8b29-4b1c-81fc-d78109af7cce" d="m430.31,455.75c-24.2,0-43.88-19.68-43.88-43.88s19.68-43.88,43.88-43.88,43.88,19.68,43.88,43.88-19.68,43.88-43.88,43.88Zm0-86.71c-23.62,0-42.83,19.21-42.83,42.83s19.21,42.83,42.83,42.83,42.83-19.21,42.83-42.83-19.21-42.83-42.83-42.83Z"/><path class="uuid-24930aa9-b6a9-4d43-838d-07f72858f50f" d="m388.41,216.05l8.29-27.13-16.66-6.71c.67-8.47-.19-16.81-2.4-24.77l15.08-9.76-13.31-25.03-16.52,7.04c-5.37-6.28-11.8-11.65-19.2-15.84l3.75-17.57-27.14-8.3-6.72,16.66c-8.44-.66-16.82.19-24.77,2.39l-9.77-15.07-25.03,13.31,7.04,16.52c-6.28,5.37-11.65,11.8-15.84,19.2l-17.57-3.75-8.29,27.13,16.65,6.72c-.66,8.44.19,16.81,2.39,24.77l-15.07,9.77,13.31,25.03,16.52-7.04c5.37,6.28,11.83,11.67,19.2,15.84l-3.75,17.57,27.14,8.29,6.71-16.66c8.47.67,16.81-.19,24.77-2.39l9.77,15.07,25.03-13.31-7.04-16.52c6.28-5.37,11.67-11.83,15.84-19.2l17.57,3.75Zm-95.35,9.57c-27.05-8.26-42.27-36.9-34-63.94,8.27-27.04,36.9-42.26,63.94-34,27.05,8.27,42.27,36.89,34,63.94-8.27,27.05-36.9,42.27-63.94,34Z"/><polygon class="uuid-2d438165-c48f-4211-98e6-3170e916009c" points="226.04 144.64 224.84 144.27 218.59 164.74 230.45 169.52 230.92 168.36 220.13 164 226.04 144.64"/><path class="uuid-2d438165-c48f-4211-98e6-3170e916009c" d="m257.57,227.44l-.93.84c.07.07,6.56,7.22,15.01,11.52l-3.64,17.09,1.23.26,3.85-18.04-.44-.21c-8.44-4.16-15.01-11.38-15.07-11.45Z"/><path class="uuid-c4219b20-8b29-4b1c-81fc-d78109af7cce" d="m355.76,159.92c.14.35,13.36,35.61-19.61,58.76l.72,1.03c33.76-23.7,20.2-59.88,20.06-60.24l-1.17.46Z"/><path class="uuid-2d438165-c48f-4211-98e6-3170e916009c" d="m382.46,153.56l-5.54,3.59.12.44c.02.06,1.64,6.17,2.56,13.57l1.24-.16c-.79-6.33-2.09-11.74-2.48-13.29l4.77-3.09-.68-1.05Z"/><path class="uuid-c4219b20-8b29-4b1c-81fc-d78109af7cce" d="m385.82,155.62l15.16-9.81-13.85-26.05-16.61,7.08c-6.47-8.35-16.54-14.21-18.7-15.41l3.77-17.68-28.24-8.63-6.76,16.76c-12.96-1.23-21.99,1.55-24.13,2.3l-9.81-15.14-26.05,13.85,7.07,16.59c-7.48,5.39-14.08,16.45-15.39,18.73l-17.69-3.77-8.63,28.24,16.77,6.76c-.94,11.87,1.68,21.89,2.32,24.11l-15.17,9.83,13.85,26.05,16.62-7.08c6.73,8.44,16.57,14.22,18.7,15.41l-3.77,17.68,28.24,8.63,6.75-16.75c12.36,1.49,21.92-1.53,24.13-2.32l9.81,15.14,26.05-13.85-7.08-16.62c9.22-7.51,14.33-16.61,15.42-18.69l17.67,3.77,8.63-28.24-16.76-6.75c1.21-12.11-1.61-21.91-2.32-24.13Zm17.56,31.61l-7.96,26.06-17.5-3.73-.21.44c-.05.1-5.23,10.63-15.67,18.99l-.37.29,7,16.44-24.04,12.78-9.74-15.03-.47.19c-.1.04-10.49,4.17-24.47,2.35l-.48-.06-6.69,16.58-26.06-7.96,3.73-17.48-.42-.22c-.12-.06-11.65-6.22-19.01-15.68l-.29-.38-16.45,7-12.78-24.03,15-9.72-.15-.45c-.04-.11-3.53-11.19-2.37-24.54l.04-.46-16.56-6.68,7.96-26.06,17.47,3.73.22-.4c.08-.13,7.54-13.4,15.66-19l.42-.29-7.02-16.47,24.04-12.78,9.73,15.03.47-.19c.1-.04,9.93-3.83,24.5-2.36l.46.05,6.68-16.57,26.06,7.97-3.73,17.48.42.22c.12.06,11.95,6.33,19,15.67l.29.39,16.46-7.01,12.78,24.04-15.02,9.72.17.46c.04.11,3.84,10.84,2.37,24.51l-.05.47,16.57,6.68Z"/><path class="uuid-c4219b20-8b29-4b1c-81fc-d78109af7cce" d="m315.43,122.72c-28.6,0-51.87,23.27-51.87,51.87s23.27,51.87,51.87,51.87,51.87-23.27,51.87-51.87-23.27-51.87-51.87-51.87Zm0,102.5c-27.92,0-50.63-22.71-50.63-50.63s22.71-50.63,50.63-50.63,50.63,22.71,50.63,50.63-22.71,50.63-50.63,50.63Z"/><rect class="uuid-5c7615ad-ecc8-43f7-864f-1fedd38aff9c" x="316.88" y="327.85" width="63.17" height="177.49"/><rect class="uuid-c4219b20-8b29-4b1c-81fc-d78109af7cce" x="316.88" y="407.92" width="63.17" height="29.65"/><path class="uuid-c4219b20-8b29-4b1c-81fc-d78109af7cce" d="m337.13,497.4c-54.18,0-98.65,9.25-103.42,21.07h206.84c-4.77-11.81-49.24-21.07-103.42-21.07Z"/><path class="uuid-c4219b20-8b29-4b1c-81fc-d78109af7cce" d="m567.15,152.01c-3.14-1.36-6.61-2.12-10.26-2.12H159.41c-.52,0-1.03.02-1.54.05-5.42.32-10.37,2.31-14.38,5.47-5.98,4.7-9.82,12.01-9.82,20.22v224.38c0,10.92,6.8,20.26,16.41,23.99,2.89,1.13,6.04,1.75,9.33,1.75h397.47c14.22,0,25.75-11.53,25.75-25.74v-224.38c0-10.57-6.38-19.65-15.48-23.62Z"/><path class="uuid-5c7615ad-ecc8-43f7-864f-1fedd38aff9c" d="m540.65,149.9H143.16c-.64,0-1.27.02-1.9.07-13.33.97-23.85,12.09-23.85,25.67v224.38c0,2.08.26,4.11.73,6.04,2.69,11.31,12.87,19.71,25.02,19.71h397.48c.15,0,.3,0,.44,0,14.02-.23,25.31-11.66,25.31-25.74v-224.38c0-14.21-11.53-25.74-25.75-25.74Z"/><rect class="uuid-091d51cc-4abf-41cc-90f2-62870a92c2d1" x="135.63" y="165.02" width="412.58" height="245.6" rx="22.83" ry="22.83"/><path class="uuid-c4219b20-8b29-4b1c-81fc-d78109af7cce" d="m525.38,164.4H158.45c-12.95,0-23.45,10.5-23.45,23.45v199.95c0,12.95,10.5,23.45,23.45,23.45h366.93c12.95,0,23.45-10.5,23.45-23.45v-199.95c0-12.95-10.5-23.45-23.45-23.45Zm22.2,223.4c0,12.24-9.96,22.2-22.2,22.2H158.45c-12.24,0-22.2-9.96-22.2-22.2v-199.95c0-12.24,9.96-22.2,22.2-22.2h366.93c12.24,0,22.2,9.96,22.2,22.2v199.95Z"/><path class="uuid-c4219b20-8b29-4b1c-81fc-d78109af7cce" d="m446.06,208.46l-1.52-.77-17,28.18,33.31.35v-.41c.27-11.58-5.69-21.78-14.8-27.35Z"/><path class="uuid-9932bbb8-4293-4f44-b57a-f48e1bf9f5db" d="m414.11,243.92l-1.86-.02-3.29-24.54-.09-.69-.03-.24-.25-1.87-.52-3.84-2.08.41c-13.77,1.99-24.77,13.28-26.72,26.9-.25,1.74-.3,2.99-.33,3.92-.01.55,0,1.09,0,1.62.06,2.04.32,4.05.75,5.99.72,3.26,1.96,6.37,3.6,9.18.57.99,1.19,1.93,1.87,2.84.09.12.18.24.28.36,4.77,6.28,11.8,10.65,19.9,11.52,4.33.46,8.23.38,11.74-.14.24-.03.47-.07.71-.11,15.55-2.62,22.92-14.07,25.03-24.8.05-.23.09-.47.13-.7.25-1.37.4-2.73.48-4.05.03-.47.05-.95.06-1.43l-28.67-.33h-.71Z"/><path class="uuid-5c7615ad-ecc8-43f7-864f-1fedd38aff9c" d="m413.76,205.67l-2.08.41s0,0-.01,0l4.45,33.75,18.25-29.97c-3.46-2.13-7.38-3.59-11.59-4.2-3.25-.48-6.22-.39-9.02,0Z"/><polygon class="uuid-c4219b20-8b29-4b1c-81fc-d78109af7cce" points="472.72 215.94 501.19 215.94 501.26 213.16 472.76 213.16 472.72 215.94"/><polygon class="uuid-c4219b20-8b29-4b1c-81fc-d78109af7cce" points="472.59 224.31 524.04 224.31 524.11 221.53 472.64 221.53 472.59 224.31"/><polygon class="uuid-c4219b20-8b29-4b1c-81fc-d78109af7cce" points="472.47 232.68 520.23 232.68 520.31 229.9 472.52 229.9 472.47 232.68"/><polygon class="uuid-c4219b20-8b29-4b1c-81fc-d78109af7cce" points="504.17 215.94 512.96 215.94 513.03 213.16 504.24 213.16 504.17 215.94"/><polygon class="uuid-c4219b20-8b29-4b1c-81fc-d78109af7cce" points="472.36 240.49 500.83 240.49 500.9 237.71 472.4 237.71 472.36 240.49"/><polygon class="uuid-c4219b20-8b29-4b1c-81fc-d78109af7cce" points="472.24 248.85 523.67 248.85 523.74 246.07 472.28 246.07 472.24 248.85"/><polygon class="uuid-c4219b20-8b29-4b1c-81fc-d78109af7cce" points="472.12 257.21 519.87 257.21 519.94 254.43 472.16 254.43 472.12 257.21"/><polygon class="uuid-c4219b20-8b29-4b1c-81fc-d78109af7cce" points="503.81 240.49 512.6 240.49 512.67 237.71 503.88 237.71 503.81 240.49"/><polygon class="uuid-c4219b20-8b29-4b1c-81fc-d78109af7cce" points="471.15 325.18 499.59 325.18 499.66 322.4 471.19 322.4 471.15 325.18"/><polygon class="uuid-c4219b20-8b29-4b1c-81fc-d78109af7cce" points="471.03 333.53 522.41 333.53 522.49 330.75 471.07 330.75 471.03 333.53"/><polygon class="uuid-c4219b20-8b29-4b1c-81fc-d78109af7cce" points="470.91 341.87 518.61 341.87 518.68 339.1 470.95 339.1 470.91 341.87"/><polygon class="uuid-c4219b20-8b29-4b1c-81fc-d78109af7cce" points="502.56 325.18 511.34 325.18 511.42 322.4 502.64 322.4 502.56 325.18"/><polygon class="uuid-c4219b20-8b29-4b1c-81fc-d78109af7cce" points="470.8 349.67 499.23 349.67 499.3 346.9 470.83 346.9 470.8 349.67"/><polygon class="uuid-c4219b20-8b29-4b1c-81fc-d78109af7cce" points="470.67 358.01 522.05 358.01 522.12 355.24 470.71 355.24 470.67 358.01"/><polygon class="uuid-c4219b20-8b29-4b1c-81fc-d78109af7cce" points="470.55 366.36 518.25 366.36 518.32 363.58 470.59 363.58 470.55 366.36"/><polygon class="uuid-c4219b20-8b29-4b1c-81fc-d78109af7cce" points="502.21 349.67 510.98 349.67 511.06 346.9 502.28 346.9 502.21 349.67"/><path class="uuid-c4219b20-8b29-4b1c-81fc-d78109af7cce" d="m410.92,306.07c-1.91,0-3.79.15-5.61.44-17.11,2.7-30.4,17.53-30.64,35.36-.13,9.88,3.77,18.82,10.17,25.31,6.38,6.46,15.26,10.47,25.11,10.47,19.71,0,35.98-16.04,36.26-35.77.03-2.23-.14-4.41-.51-6.53-2.84-16.63-17.26-29.27-34.76-29.27Zm-.79,57.66c-6.02,0-11.44-2.45-15.34-6.4-3.92-3.96-6.3-9.43-6.21-15.47.15-10.89,8.27-19.95,18.73-21.6,1.12-.18,2.26-.27,3.43-.27,10.69,0,19.51,7.72,21.24,17.89.23,1.29.33,2.62.31,3.98-.17,12.06-10.11,21.86-22.16,21.86Z"/><path class="uuid-5c7615ad-ecc8-43f7-864f-1fedd38aff9c" d="m374.72,340.77c-.43,9.88,3.2,18.94,9.4,25.61l10.24-9.54c-3.8-4.07-6.01-9.61-5.75-15.65.47-10.89,8.86-19.7,19.35-21.05l-1.57-13.81c-17.18,2.19-30.9,16.62-31.68,34.44Z"/><path class="uuid-9932bbb8-4293-4f44-b57a-f48e1bf9f5db" d="m405.41,302.38l2.79,20.45s16.56.32,20.14,15.16l20.66-4.49s-5.88-35.53-43.58-31.12Z"/><path class="uuid-9932bbb8-4293-4f44-b57a-f48e1bf9f5db" d="m255.14,196.19c-19.32,0-37.61,7.12-52.88,20.6-37.42,33.01-44.08,94.17-14.9,136.34,16.37,23.65,41.02,37.21,67.64,37.21,19.28,0,37.54-7.1,52.8-20.53,37.42-32.93,44.2-94.06,15.06-136.29-16.36-23.72-41.05-37.33-67.73-37.33Z"/><path class="uuid-c4219b20-8b29-4b1c-81fc-d78109af7cce" d="m255.11,195.61l.09,1.16c26.47,0,50.97,13.51,67.21,37.06,28.98,41.99,22.23,102.79-15,135.54-15.16,13.34-33.3,20.39-52.44,20.39-26.42,0-50.88-13.46-67.13-36.94-29.02-41.93-22.38-102.76,14.84-135.59,15.18-13.39,33.34-20.46,52.53-20.47l-.08-1.16h0c-18.63,0-37.42,6.77-53.24,20.73-37.68,33.24-44.36,94.62-14.97,137.09,17.04,24.62,42.46,37.49,68.16,37.49,18.6,0,37.35-6.74,53.16-20.66,37.68-33.15,44.48-94.5,15.13-137.04-17.03-24.69-42.49-37.61-68.23-37.61Z"/><path class="uuid-091d51cc-4abf-41cc-90f2-62870a92c2d1" d="m255.14,210.17c-16.54,0-32.2,6.1-45.27,17.63-32.05,28.26-37.76,80.64-12.77,116.75,14.01,20.26,35.12,31.87,57.91,31.87,16.51,0,32.14-6.08,45.21-17.58,32.04-28.2,37.84-80.56,12.89-116.72-14.01-20.31-35.14-31.95-57.97-31.95Z"/><path class="uuid-c4219b20-8b29-4b1c-81fc-d78109af7cce" d="m255.1,209.59l.09,1.16c22.62,0,43.57,11.55,57.46,31.68,24.79,35.93,19.02,87.94-12.82,115.97-12.97,11.42-28.48,17.45-44.86,17.45-22.59,0-43.51-11.51-57.4-31.6-24.82-35.87-19.14-87.92,12.71-116,12.98-11.45,28.51-17.5,44.92-17.5l-.08-1.16h0c-15.97,0-32.07,5.8-45.63,17.77-32.3,28.48-38.03,81.1-12.84,117.5,14.6,21.11,36.4,32.14,58.42,32.14,15.94,0,32.02-5.78,45.57-17.71,32.3-28.42,38.12-81.01,12.96-117.47-14.6-21.16-36.42-32.23-58.48-32.23Z"/><path class="uuid-9932bbb8-4293-4f44-b57a-f48e1bf9f5db" d="m217.07,238.36c-26.91,23.73-31.7,67.57-10.71,97.92,20.97,30.32,59.77,35.71,86.67,12.03,26.91-23.69,31.76-67.51,10.79-97.89-20.98-30.39-59.83-35.79-86.76-12.05Z"/><path class="uuid-c4219b20-8b29-4b1c-81fc-d78109af7cce" d="m264.08,223.72c-17.01-2.79-33.86,2.25-47.41,14.2-27.07,23.87-31.89,68.14-10.78,98.67,9.94,14.36,24.21,23.71,40.18,26.33,3.06.5,6.12.75,9.15.75,13.8,0,27.11-5.14,38.2-14.91,27.07-23.83,31.96-68.08,10.86-98.64-9.93-14.39-24.22-23.76-40.22-26.39Zm28.56,124.14l.4.45-.4-.45c-13.3,11.7-29.79,16.64-46.45,13.91-15.64-2.56-29.62-11.72-39.35-25.8-20.79-30.06-16.03-73.65,10.64-97.17,10.91-9.62,23.98-14.68,37.53-14.68,2.97,0,5.97.24,8.97.74,15.67,2.57,29.65,11.75,39.38,25.85,20.77,30.09,15.95,73.67-10.72,97.14Z"/><path class="uuid-091d51cc-4abf-41cc-90f2-62870a92c2d1" d="m255.13,238.11c-10.98,0-21.37,4.05-30.06,11.7-21.3,18.78-25.11,53.58-8.51,77.58,9.31,13.45,23.32,21.16,38.45,21.16,10.97,0,21.35-4.04,30.03-11.68,21.3-18.75,25.14-53.54,8.56-77.56-9.3-13.47-23.32-21.2-38.47-21.2Z"/><path class="uuid-c4219b20-8b29-4b1c-81fc-d78109af7cce" d="m255.09,237.53c-10.64,0-21.37,3.87-30.41,11.84-21.53,18.98-25.36,54.06-8.58,78.33,9.74,14.08,24.27,21.44,38.96,21.44,10.63,0,21.35-3.85,30.39-11.81,21.54-18.96,25.4-54.02,8.63-78.32-9.74-14.1-24.28-21.48-38.99-21.48Zm29.56,98.9c-8.58,7.55-18.84,11.55-29.67,11.55-14.93,0-28.75-7.61-37.93-20.89-16.44-23.77-12.65-58.23,8.44-76.83,8.59-7.57,18.86-11.57,29.7-11.57,14.94,0,28.78,7.63,37.96,20.93,16.42,23.79,12.61,58.24-8.49,76.82Z"/><path class="uuid-9932bbb8-4293-4f44-b57a-f48e1bf9f5db" d="m232.28,260.37c-16.15,14.23-19.03,40.54-6.44,58.75,12.59,18.21,35.87,21.43,52.02,7.22,16.15-14.22,19.05-40.52,6.47-58.74-12.59-18.23-35.89-21.47-52.05-7.23Z"/><path class="uuid-c4219b20-8b29-4b1c-81fc-d78109af7cce" d="m260.5,251.36c-10.29-1.69-20.45,1.35-28.63,8.56-16.32,14.39-19.24,41.08-6.5,59.5,6,8.68,14.62,14.33,24.28,15.91,1.85.3,3.7.45,5.54.45,8.34,0,16.37-3.1,23.07-9,16.32-14.37,19.26-41.06,6.54-59.49-6-8.69-14.63-14.35-24.29-15.93Zm16.96,74.53c-7.93,6.98-17.75,9.92-27.7,8.3-9.32-1.53-17.65-6.99-23.45-15.38-12.41-17.94-9.55-43.96,6.37-58,6.51-5.73,14.3-8.75,22.38-8.75,1.77,0,3.55.14,5.34.44,9.33,1.53,17.66,7,23.46,15.4,12.4,17.96,9.52,43.97-6.4,57.99Z"/><path class="uuid-091d51cc-4abf-41cc-90f2-62870a92c2d1" d="m255.13,266.04c-5.42,0-10.55,2-14.85,5.78-10.55,9.3-12.44,26.53-4.23,38.41,4.59,6.64,11.5,10.45,18.97,10.45,5.42,0,10.55-2,14.84-5.78,10.55-9.29,12.45-26.52,4.24-38.41-4.59-6.65-11.51-10.46-18.97-10.46Z"/><path class="uuid-c4219b20-8b29-4b1c-81fc-d78109af7cce" d="m255.08,265.46c-5.32,0-10.69,1.93-15.2,5.91-10.77,9.49-12.69,27.02-4.3,39.16,4.87,7.04,12.14,10.73,19.49,10.73,5.32,0,10.68-1.93,15.19-5.91,10.77-9.48,12.7-27.01,4.31-39.16-4.87-7.05-12.14-10.74-19.49-10.73Zm14.38,49c-4.19,3.69-9.2,5.64-14.48,5.64-7.26,0-13.99-3.71-18.46-10.17-8.05-11.65-6.19-28.55,4.16-37.67,4.2-3.7,9.21-5.65,14.49-5.65,7.26,0,14,3.71,18.46,10.18,8.05,11.65,6.18,28.55-4.17,37.66Z"/><path class="uuid-9932bbb8-4293-4f44-b57a-f48e1bf9f5db" d="m247.48,282.37c-5.39,4.74-6.34,13.51-2.15,19.58,4.2,6.07,11.96,7.15,17.34,2.41,5.38-4.74,6.35-13.51,2.15-19.58-4.19-6.08-11.96-7.15-17.34-2.41Z"/><path class="uuid-c4219b20-8b29-4b1c-81fc-d78109af7cce" d="m256.92,278.99c-3.52-.57-7.03.46-9.84,2.94-5.58,4.91-6.57,14.03-2.22,20.33,2.07,2.99,5.04,4.94,8.37,5.48.64.1,1.28.15,1.91.15,2.87,0,5.63-1.06,7.93-3.09,5.58-4.91,6.57-14.03,2.22-20.33-2.07-2.99-5.04-4.94-8.38-5.49Zm5.36,24.93c-2.56,2.26-5.74,3.22-8.93,2.69-3-.49-5.67-2.25-7.54-4.95-4.03-5.83-3.09-14.28,2.08-18.83,2.1-1.85,4.62-2.83,7.22-2.83.57,0,1.14.05,1.72.14,2.99.49,5.67,2.25,7.54,4.95,4.02,5.83,3.09,14.27-2.08,18.83Z"/><path class="uuid-c4219b20-8b29-4b1c-81fc-d78109af7cce" d="m255.48,292.63c-.92.55-1.3,1.68-.85,2.52.45.84,1.57,1.07,2.49.52l81.54-48.63-1.64-3.04-81.54,48.63Z"/><polygon class="uuid-c4219b20-8b29-4b1c-81fc-d78109af7cce" points="349.77 223.82 327.94 236.84 315.32 257.39 316.54 259.66 339.8 258.82 361.62 245.81 343.62 242.02 349.77 223.82"/><path class="uuid-091d51cc-4abf-41cc-90f2-62870a92c2d1" d="m157.86,512.71s-.05-.02-.08-.02c-.96-.3-3.36-.4-6.24-.54-6.07-.31-10.4-5.1-16.03-7.07-5.63-1.97,9.62-18.41,7.91-23.41-8.12-.27-14.85-8.05-15.48-5.16-6.63,30.59-15.82,27.98-15.84,36.59,0,3.91,3.9,4.66,6.01,4.61,16.22-.4,25.61-.09,38.81.02,2.9.02,3.69-4.13.92-5.02Z"/><path class="uuid-c4219b20-8b29-4b1c-81fc-d78109af7cce" d="m157.96,512.42l-.06-.02c-.96-.3-3.06-.4-5.73-.54l-.61-.03c-3.6-.18-6.53-1.95-9.64-3.83-1.99-1.2-4.05-2.44-6.3-3.23-.47-.17-.78-.45-.93-.86-.71-1.94,1.89-6.38,4.41-10.68,2.8-4.77,5.44-9.28,4.62-11.67l-.07-.2h-.21c-4.31-.15-8.21-2.44-11.06-4.11-2.02-1.18-3.35-1.96-4.15-1.61-.3.13-.49.4-.58.8-4.08,18.83-9.09,24.97-12.39,29.03-2.07,2.54-3.44,4.23-3.45,7.62,0,1.34.43,2.44,1.28,3.27,1.64,1.61,4.27,1.68,5.05,1.65,12.42-.31,20.97-.2,30.02-.08,2.81.04,5.69.07,8.78.1h.03c1.7,0,2.68-1.29,2.87-2.49.19-1.19-.31-2.62-1.88-3.13Zm1.27,3.03c-.16.99-.92,1.97-2.27,1.97h-.02c-3.09-.03-5.97-.06-8.78-.1-9.06-.11-17.62-.23-30.05.08-.72.01-3.13-.03-4.6-1.48-.73-.71-1.1-1.66-1.1-2.83,0-3.18,1.32-4.79,3.31-7.23,3.35-4.11,8.4-10.31,12.52-29.29.06-.3.19-.35.23-.37.5-.22,2.01.65,3.59,1.58,2.86,1.68,6.75,3.96,11.12,4.18.51,2.21-2.1,6.66-4.62,10.96-2.71,4.62-5.27,8.99-4.46,11.2.22.59.65,1,1.31,1.23,2.19.77,4.22,1.99,6.18,3.17,3.04,1.83,6.18,3.73,9.93,3.92l.61.03c2.52.12,4.7.24,5.55.5l.17-.27-.09.29c1.3.42,1.6,1.58,1.46,2.44Z"/><path class="uuid-c4219b20-8b29-4b1c-81fc-d78109af7cce" d="m159.26,512.52c-2.66-1.64-6.27-1.65-9.55-1.77-2.41-.09-6.92-2.78-9.15-4.2-.61-.39-1.34-.1-1.69.57-.56,1.08-1.96,2.53-5.4,3.55-5.31,1.57-16.1-2.75-18.85-3.92-.4-.17-.83-.02-1.07.37-.71,1.15-2.09,3.63-2.43,5.89-.29,1.93.27,4.06.74,5.39.27.77.93,1.28,1.67,1.28l44.67.03c1.21,0,2.18-1.1,2.17-2.46-.01-1.54.12-3.99-1.1-4.74Z"/><path class="uuid-091d51cc-4abf-41cc-90f2-62870a92c2d1" d="m100.43,507.37c-6.04-2.87-2.79-20.74-4.07-26.42-6.04-.27-14.11,1.06-13.58,4.33,3.26,20.11,2.27,19.25-1.75,25.29-2.46,3.71-2.49,8.12,3.89,7.53,6.57-.61,11.66-.33,16.51-.3,3.95.02,11.34-4.56-1-10.43Z"/><path class="uuid-c4219b20-8b29-4b1c-81fc-d78109af7cce" d="m100.56,507.09c-3.9-1.85-3.74-10.65-3.61-17.71.07-3.55.13-6.62-.3-8.5l-.05-.23h-.23c-5.16-.23-11.4.66-13.31,2.81-.5.56-.7,1.19-.59,1.86,2.96,18.28,2.4,19.1-.74,23.66-.3.43-.62.9-.96,1.41-1.61,2.42-2.02,4.77-1.11,6.29.5.84,1.63,1.77,4.17,1.77.35,0,.72-.02,1.12-.05,5.18-.49,9.36-.41,13.4-.34,1.04.02,2.07.04,3.08.04h.03c2.13,0,5.48-1.31,6.03-3.71.38-1.65-.52-4.26-6.93-7.3Zm6.33,7.17c-.46,2.01-3.46,3.23-5.43,3.23h-.03c-1.01,0-2.03-.02-3.07-.04-1.44-.02-2.91-.05-4.42-.05-2.75,0-5.69.08-9.05.4-2.4.23-4.02-.27-4.71-1.42-.77-1.29-.35-3.45,1.1-5.63.34-.51.66-.97.95-1.4,3.26-4.73,3.85-5.59.84-24.11-.08-.49.07-.93.45-1.36,1.74-1.96,7.76-2.8,12.58-2.62.36,1.83.3,4.89.24,8.12-.14,7.24-.3,16.26,3.96,18.28,4.72,2.24,7.06,4.59,6.6,6.61Z"/><path class="uuid-c4219b20-8b29-4b1c-81fc-d78109af7cce" d="m157.15,306.11c-2.97-2.21-8.47-25.31-11.37-27.62-6.42-5.09-30.69-4.96-38.27-2.8,3.18,89.54,11.26,87.52,27.38,125.69,2.9,6.87-15.42,69.22-13.21,91.89,4.89,1.06,11.34,3.57,17.51,4.42,7.74-9.77,30.79-58.57,33.7-93.64.13-1.53.14-3.08,0-4.61-3.56-39.03-3.9-46.69-15.74-93.33Z"/><path class="uuid-c4219b20-8b29-4b1c-81fc-d78109af7cce" d="m85.46,269.01c-10.54,39.3-17.21,180.76-5.82,224.34,10.49.9,10.87.59,21.37,1.49.99-19.88,3.62-52.42,14.29-85.96.47-1.46.83-2.97,1.03-4.5,5.24-38.84,15.55-44.92,23.24-95.15-2.4-2.81-20.36-25.9-22.68-28.8-5.12-6.39-23.56-11.84-31.43-11.43Z"/><path class="uuid-f515da3a-cb4d-429f-af9a-08b1419d1fa3" d="m156.21,242.12c-.19-2.37-.38-4.72-.59-7.03-.03-.37-.05-.63-.06-.76-.1-.85-.16-1.75-.24-2.68v-.11c-.34-3.63-.67-7.08-1.01-10.26-.08-.83-.18-1.65-.26-2.44,0-.03-.02-.05-.02-.08-.77-6.92-1.56-12.17-2.26-14.29-1.8-5.33-4.46-24.01-14.21-29.73-.11-.06-.22-.13-.32-.19,0,0-.15-.08-.21-.11-1.52-.88-2.99-1.67-4.32-2.33-.11-.05-.21-.1-.31-.15-6.13-3.03-11.12-5.01-11.12-5.01,0,0-5.17,1.57-11.51,4.09-.9.37-1.83.74-2.78,1.16-.26.1-.53.22-.8.34-9.34,4.03-19.63,9.74-19.89,15.52l-8.36,123.2s15.07-5.36,43.55-.86c10.09,1.59,40.87-.81,40.87-.81,0,0-4.26-44.46-6.14-67.36,0-.03,0-.06-.02-.11Z"/><path class="uuid-091d51cc-4abf-41cc-90f2-62870a92c2d1" d="m128.66,169.95l-.84-7.2-.7-5.98h-13.41l-.51,5.79-.64,7.31c-.9.41-1.83.81-2.79,1.19-.9.37-1.83.74-2.78,1.16-.18.66,15.13,8.05,15.13,8.05,0,0,10.78-7.46,10.58-8.15-.11-.05-.21-.1-.31-.15-1.33-.66-2.58-1.35-3.74-2.03Z"/><path class="uuid-c4219b20-8b29-4b1c-81fc-d78109af7cce" d="m132.96,171.9l-.13-.06c-.09-.04-.17-.08-.25-.12-1.18-.58-2.36-1.22-3.64-1.96l-1.55-13.3h-13.97l-.03.28-1.13,12.92c-.97.44-1.81.79-2.62,1.11h0s-.68.28-.68.28c-.69.28-1.39.57-2.1.88l-.13.06-.04.14c-.08.29-.24.9,15.29,8.41l.16.08.15-.1c10.96-7.59,10.77-8.24,10.7-8.49l-.04-.14Zm-10.87,8.02c-5.14-2.49-13.07-6.47-14.59-7.59.57-.25,1.14-.48,1.69-.7l.68-.28c.86-.34,1.75-.72,2.81-1.2l.16-.07.02-.18,1.12-12.82h12.86l1.52,13.07.13.08c1.34.78,2.57,1.45,3.76,2.03,0,0,.01,0,.02,0-.86.99-5.7,4.54-10.19,7.66Z"/><path class="uuid-091d51cc-4abf-41cc-90f2-62870a92c2d1" d="m129.55,354.38c-.22-.08-.45.04-.53.26l-6.84,19.97c-.07.22.04.46.26.53.04.01.09.02.13.02.17,0,.33-.11.39-.28l6.84-19.97c.07-.22-.04-.45-.26-.53Z"/><path class="uuid-c4219b20-8b29-4b1c-81fc-d78109af7cce" d="m101.47,507.41c-.7-.16-1.36-.44-1.96-.82-1.41-.9-3.27-1.04-4.96-.75-2.04.34-3.94,1.22-5.94,1.73-1.77.45-3.73.6-5.38-.12-.39-.17-.85-.14-1.15.16-2.56,2.53-3.97,6.19-3.8,9.79.04.76.66,1.37,1.42,1.37h28.41c.71,0,1.3-.59,1.27-1.3-.09-2.3-.86-4.86-2.27-6.48-1.44-1.65-3.48-3.09-5.64-3.56Z"/><polygon class="uuid-f515da3a-cb4d-429f-af9a-08b1419d1fa3" points="102.1 168.23 107.43 180.9 113.77 183.73 112.6 189.73 127.37 196.82 112.93 169.9 102.1 168.23"/><polygon class="uuid-f515da3a-cb4d-429f-af9a-08b1419d1fa3" points="135.93 167.73 126.93 169.73 127.37 196.82 134.76 181.23 130.93 182.06 133.93 177.56 135.93 167.73"/><polygon class="uuid-c4219b20-8b29-4b1c-81fc-d78109af7cce" points="117.12 177.35 116.98 182.35 122.12 187.07 126.15 186.8 129.21 181.24 127.12 176.94 117.12 177.35"/><polygon class="uuid-c4219b20-8b29-4b1c-81fc-d78109af7cce" points="121.79 184.2 120.74 193.33 127.76 219.92 131.16 192.98 126.59 183.85 121.79 184.2"/><path class="uuid-c4219b20-8b29-4b1c-81fc-d78109af7cce" d="m137.57,110.77c-1.37-.61-2.93-.03-4.42.15-2.47.29-4.91-.57-7.37-.94-2.46-.36-5.34-.04-6.82,1.96.44-.89-.58-1.92-1.57-1.9-.99.02-1.82.7-2.58,1.33-5.44,4.62-11.24,9.87-12.33,16.92-.25,1.58-.25,5.17,1.24,5.78,1.23.51,2.87-1.87,3.79-2.84,2.55-2.7,3.22-6.82,5.92-9.38,2.42-2.28,6.07-2.86,9.35-2.26,5.34.98,13.14,5.77,14.51,12.71,2.37,1.42,1.88-5.03,2.15-7.65.29-2.87.39-5.77.35-8.66-.03-2-.39-4.41-2.22-5.22Z"/><path class="uuid-091d51cc-4abf-41cc-90f2-62870a92c2d1" d="m138.73,132.32c-2.56-.18-4.83,2.35-5.07,5.65-.23,3.3-.45,7.95,2.11,8.13,2.56.18,6.93-4.17,7.17-7.47s-1.65-6.13-4.21-6.31Z"/><path class="uuid-c4219b20-8b29-4b1c-81fc-d78109af7cce" d="m138.76,132.01c-1.32-.1-2.64.48-3.66,1.62-1,1.12-1.62,2.65-1.74,4.31-.12,1.71-.23,3.68,0,5.3.3,2.01,1.1,3.07,2.39,3.16.06,0,.12,0,.19,0,2.84,0,7.07-4.44,7.31-7.76.12-1.67-.28-3.27-1.11-4.52-.85-1.27-2.05-2.03-3.39-2.12Zm-2.82,13.79s-.09,0-.14,0c-.97-.07-1.57-.93-1.82-2.63-.22-1.49-.13-3.37,0-5.17.11-1.53.67-2.93,1.58-3.95.83-.92,1.86-1.42,2.92-1.42.08,0,.16,0,.24,0,1.14.08,2.18.74,2.92,1.85.76,1.13,1.12,2.6,1.01,4.13-.22,3.16-4.39,7.19-6.7,7.19Z"/><path class="uuid-c4219b20-8b29-4b1c-81fc-d78109af7cce" d="m140.39,133.99c-1.79.21-3.8,1.19-5.16,6.92-.06.24.08.49.31.58.05.02.11.03.17.03.18,0,.36-.1.44-.27.22-.45.36-.92.49-1.37.24-.79.44-1.47.96-1.75.45-.24,1.19-.21,2.2.09.26.07.53-.07.61-.33.08-.26-.07-.54-.33-.61-1.01-.3-1.79-.38-2.43-.21.92-1.59,1.92-1.98,2.85-2.09.27-.03.46-.28.43-.55-.03-.27-.26-.48-.55-.43Z"/><path class="uuid-c4219b20-8b29-4b1c-81fc-d78109af7cce" d="m120.88,114.25c-9.68,0-17.53,7.34-17.53,16.39s7.85,16.4,17.53,16.4,17.54-7.34,17.54-16.4-7.85-16.39-17.54-16.39Z"/><path class="uuid-091d51cc-4abf-41cc-90f2-62870a92c2d1" d="m120.66,118.2c-9.35,0-16.93,9.77-16.93,21.82s7.58,21.82,16.93,21.82,16.93-9.77,16.93-21.82-7.58-21.82-16.93-21.82Z"/><path class="uuid-c4219b20-8b29-4b1c-81fc-d78109af7cce" d="m120.66,117.89c-9.5,0-17.24,9.93-17.24,22.13s7.73,22.12,17.24,22.12,17.23-9.93,17.23-22.12-7.73-22.13-17.23-22.13Zm0,43.63c-9.17,0-16.62-9.65-16.62-21.51s7.46-21.51,16.62-21.51,16.62,9.65,16.62,21.51-7.46,21.51-16.62,21.51Z"/><path class="uuid-091d51cc-4abf-41cc-90f2-62870a92c2d1" d="m100.96,132.32c-2.56.18-4.45,3.01-4.21,6.31.23,3.3,4.61,7.65,7.17,7.47,2.56-.18,2.35-4.83,2.11-8.13-.24-3.3-2.5-5.83-5.07-5.65Z"/><path class="uuid-c4219b20-8b29-4b1c-81fc-d78109af7cce" d="m100.94,132.01c-1.34.1-2.54.85-3.39,2.12-.83,1.25-1.23,2.85-1.11,4.52.24,3.32,4.47,7.76,7.31,7.76.06,0,.12,0,.18,0,1.29-.09,2.09-1.15,2.39-3.16.24-1.62.13-3.59,0-5.3-.25-3.47-2.69-6.14-5.39-5.93Zm4.78,11.15c-.25,1.7-.85,2.57-1.82,2.63-2.27.14-6.61-3.96-6.84-7.19-.11-1.53.25-3,1.01-4.13.74-1.11,1.78-1.77,2.92-1.85.08,0,.16,0,.24,0,2.29,0,4.28,2.35,4.5,5.37.13,1.8.22,3.68,0,5.17Z"/><path class="uuid-c4219b20-8b29-4b1c-81fc-d78109af7cce" d="m99.31,133.99c-.29-.04-.51.16-.54.43-.03.27.16.51.43.55.92.11,1.92.5,2.84,2.08-.63-.16-1.42-.09-2.42.22-.26.08-.41.35-.33.61.08.26.36.41.61.33,1.01-.3,1.75-.33,2.2-.09.52.28.72.96.96,1.75.14.46.28.92.49,1.37.09.17.26.28.44.28.05,0,.11,0,.17-.03.24-.08.37-.33.31-.58-1.36-5.73-3.37-6.71-5.16-6.92Z"/><path class="uuid-c4219b20-8b29-4b1c-81fc-d78109af7cce" d="m124.72,144.31c-.74.44-1.6.68-2.46.69-.17,0-.41,0-.54-.1-.24-.16-.22-.68-.2-1.05l.46-5.97c.02-.27-.18-.51-.45-.53-.31-.03-.51.18-.53.45l-.46,5.97c-.03.43-.11,1.42.61,1.92.33.24.73.28,1.05.28.02,0,.05,0,.07,0,1.03-.02,2.05-.3,2.94-.83.23-.14.31-.44.17-.67-.14-.24-.44-.31-.67-.17Z"/><path class="uuid-c4219b20-8b29-4b1c-81fc-d78109af7cce" d="m114.95,134.8c-.64,0-1.16.86-1.16,1.91s.52,1.91,1.16,1.91,1.16-.86,1.16-1.91-.52-1.91-1.16-1.91Z"/><path class="uuid-c4219b20-8b29-4b1c-81fc-d78109af7cce" d="m128.2,134.8c-.64,0-1.16.86-1.16,1.91s.52,1.91,1.16,1.91,1.16-.86,1.16-1.91-.52-1.91-1.16-1.91Z"/><path class="uuid-c4219b20-8b29-4b1c-81fc-d78109af7cce" d="m116.93,131.64c-1.31-.2-2.63-.05-3.65.86-.59.53-1.05,1.31-1.29,2.27-.13.52.37,1.08.59.67.37-.71.86-1.28,1.42-1.64.91-.59,2.03-.63,3.12-.14.22.1.39-.16.33-.51-.05-.33-.11-.68-.16-1-.04-.26-.2-.48-.36-.5Z"/><path class="uuid-c4219b20-8b29-4b1c-81fc-d78109af7cce" d="m126.96,131.64c-.16.03-.32.24-.36.5-.05.33-.11.67-.16,1-.06.35.11.61.34.51,1.09-.5,2.21-.45,3.12.14.56.36,1.04.92,1.42,1.64.22.42.72-.15.59-.67-.25-.96-.7-1.74-1.29-2.27-1.02-.91-2.33-1.05-3.65-.86Z"/><path class="uuid-c4219b20-8b29-4b1c-81fc-d78109af7cce" d="m110.67,121.56c-1.06,0-7.93,5.59-6.68,11.36,1.42,6.52,1.96,10.75,1.96,10.75,0,0,3.4-2.59,3.4-9.26s2.38-12.84,1.31-12.84Z"/><path class="uuid-c4219b20-8b29-4b1c-81fc-d78109af7cce" d="m133.82,121.56c-.76,0,.94,6.17.94,12.84s2.44,9.26,2.44,9.26c0,0,.32-2.59.32-9.26s-2.95-12.84-3.71-12.84Z"/><path class="uuid-c4219b20-8b29-4b1c-81fc-d78109af7cce" d="m120.88,116.27c-3.46-.16-7.09.36-9.9,2.38-1.78,1.28-3.14,3.27-3.57,5.43-.74,3.77,1.64,1.13,3.56,2.94.5.47.99,1.01,1.64,1.21.76.24,1.67-.05,2.14-.7.47-.65.47-1.6,0-2.25.34-.69,1.43-.52,1.98.03.54.54.83,1.32,1.42,1.82.89.74,2.39.56,3.07-.37.69-.93.42-2.42-.55-3.05.63-.89,2.12-.56,2.84.26.73.82,1.02,1.93,1.62,2.84.61.91,1.84,1.62,2.77,1.06.07-1.08.14-2.16.21-3.24,2.25.59,2.57,4.37,4.88,4.68,1.2.16,2.33-.88,2.61-2.06.28-1.18-.1-2.43-.66-3.5-2.56-4.94-8.51-7.21-14.07-7.47Z"/><path class="uuid-c4219b20-8b29-4b1c-81fc-d78109af7cce" d="m115.55,151c.81,1.14,1.78,2.53,2.99,3.24,1.65.97,3.91.76,5.34-.5.93-.82,1.29-1.57,2.06-2.54-3.15,1.81-7.3,1.74-10.39-.19Z"/><path class="uuid-f515da3a-cb4d-429f-af9a-08b1419d1fa3" d="m77.94,229.74c3.48,8.05,11.15,6.4,11.15,6.4l-2.48-49.62s-12.14,35.16-8.66,43.22Z"/><path class="uuid-c4219b20-8b29-4b1c-81fc-d78109af7cce" d="m115.92,132.74c-1.37-.13-2.73.31-3.8,1.21-1.06.9-1.72,2.15-1.83,3.54-.12,1.39.31,2.73,1.21,3.8.9,1.06,2.15,1.71,3.54,1.83.15.01.3.02.44.02,2.67,0,4.95-2.06,5.18-4.76.24-2.86-1.89-5.39-4.75-5.63Zm-.8,9.46c-1.14-.1-2.18-.63-2.92-1.51-.74-.87-1.09-1.99-.99-3.13.1-1.14.63-2.18,1.51-2.91.78-.66,1.75-1.01,2.76-1.01.12,0,.25,0,.37.02,2.36.2,4.11,2.28,3.91,4.64-.2,2.36-2.28,4.12-4.64,3.91Z"/><path class="uuid-c4219b20-8b29-4b1c-81fc-d78109af7cce" d="m128.72,132.39c-1.38-.13-2.73.31-3.8,1.21-1.06.9-1.72,2.15-1.83,3.54-.12,1.39.31,2.74,1.21,3.8.9,1.06,2.15,1.71,3.54,1.83.15.01.3.02.45.02,2.67,0,4.95-2.05,5.18-4.76.24-2.86-1.89-5.39-4.75-5.63Zm2.32,8.47c-.88.74-1.99,1.09-3.13.99-1.14-.1-2.18-.63-2.92-1.51-.74-.88-1.09-1.99-.99-3.13.1-1.14.63-2.18,1.51-2.92.78-.66,1.75-1.01,2.76-1.01.12,0,.25,0,.37.02,2.36.2,4.11,2.28,3.91,4.64-.1,1.14-.63,2.18-1.51,2.92Z"/><path class="uuid-c4219b20-8b29-4b1c-81fc-d78109af7cce" d="m120.03,136.88l.44.8c.95-.52,2.2-.49,3.12.07l.48-.78c-1.21-.74-2.79-.77-4.03-.09Z"/><path class="uuid-091d51cc-4abf-41cc-90f2-62870a92c2d1" d="m131.63,153.38c-.6-.48-1.54-.4-2.14,0-.21.14-.37.31-.53.49.8-1.59,1.82-3.83,1.41-4.23-.6-.49-1.54-.4-2.14,0-.6.4-.94,1.03-1.25,1.63-.91,1.73-1.81,3.46-2.72,5.2,0,0,0,0,0,0-.41.44-.89.95-1.46,1.56-.17.19-.56.42-1.02.68-1.25.08-2.96.98-3.86,1.1-1.95.26-3.96.03-5.78-.72-.57-.23-1.28-.49-1.74-.09-.36.32-.35.88-.2,1.33.6,1.83,2.77,2.74,3.48,4.53.3.74.35,1.61.58,2.36-.06.11-.1.22-.15.34h0s-29.24,41.99-31.3,45.53c-5.59,9.62-1.66,16.8,1.5,20.44,3.85,3.74,9.04,5.43,17.44-1.35,0,0,3.38-3.51,4.11-5.61l16.83-50.29c1.58-.97,3.02-2.49,3.73-3.69,1.18-1.57,2.2-3.58,2.42-4.01.35-.69,2.79-5.19,2.2-5.77-.3-.24-.68-.34-1.06-.33.81-1.59,2.03-4.16,1.59-4.59-.37-.3-.87-.36-1.34-.29.79-1.59,1.8-3.81,1.4-4.2Z"/><path class="uuid-c4219b20-8b29-4b1c-81fc-d78109af7cce" d="m131.84,153.16c-.61-.49-1.42-.51-2.08-.27,1.19-2.56,1.11-3.2.82-3.48-.76-.62-1.87-.48-2.53-.05-.67.45-1.04,1.14-1.36,1.75l-2.7,5.17c-.41.43-.88.93-1.43,1.53-.15.16-.57.41-.89.59-.72.04-1.61.38-2.37.66-.56.2-1.08.39-1.43.44-1.96.26-3.89.01-5.63-.7-.5-.21-1.43-.59-2.06-.03-.4.36-.51.98-.28,1.66.33,1.02,1.1,1.75,1.84,2.47.68.66,1.32,1.27,1.64,2.07.16.39.25.85.33,1.29.06.31.12.63.2.93-.02.04-.03.07-.05.11l-.04.09c-1.34,1.93-29.26,42.04-31.3,45.54-5.77,9.92-1.52,17.29,1.53,20.8,2.57,2.5,5.31,3.62,8.33,3.33,2.89-.27,6.04-1.82,9.54-4.65.17-.17,3.46-3.61,4.2-5.75l16.79-50.19c1.68-1.05,3.08-2.63,3.74-3.74.51-.68,1.37-1.96,2.41-4l.15-.3c2.25-4.29,2.43-5.45,2.01-5.86-.24-.19-.5-.32-.8-.38,1.71-3.44,1.66-4.22,1.33-4.54-.29-.24-.65-.37-1.05-.4,1.49-3.07,1.42-3.79,1.11-4.09Zm-1.89,4.29l-.26.53.59-.09s.08-.01.12-.02c.27-.03.67,0,.97.24,0,.02.16.6-1.67,4.21l-.23.46h.51c.24-.01.58.03.86.25.03.1.07.88-2.14,5.12l-.14.27c-1.04,2.03-1.87,3.28-2.39,3.97-.65,1.09-2.01,2.62-3.64,3.61l-.1.06-.04.11-16.83,50.29c-.7,2.01-4,5.46-4.04,5.5-9.01,7.28-14.02,4.25-17.01,1.35-2.92-3.37-7.02-10.48-1.45-20.07,1.97-3.4,29.49-42.93,31.2-45.4h.04s.14-.3.14-.3c.03-.06.06-.13.09-.19l.05-.11-.04-.12c-.09-.31-.16-.63-.23-.98-.09-.47-.18-.95-.36-1.4-.37-.92-1.09-1.62-1.79-2.29-.72-.69-1.4-1.35-1.69-2.22-.11-.33-.14-.78.11-1.01.32-.28.89-.07,1.41.14,1.84.76,3.9,1.01,5.94.74.42-.06.97-.26,1.56-.47.75-.27,1.59-.58,2.27-.63h.07s.06-.04.06-.04c.61-.34.93-.55,1.1-.74.56-.61,1.04-1.12,1.45-1.56l.1-.1v-.06s2.67-5.11,2.67-5.11c.29-.54.61-1.16,1.15-1.52.49-.32,1.29-.41,1.78-.01,0,.05.12.62-1.5,3.85l-1.16,2.32,1.67-1.99c.16-.19.31-.33.46-.43.48-.32,1.29-.41,1.78-.01,0,.04.12.62-1.48,3.83Z"/><path class="uuid-f515da3a-cb4d-429f-af9a-08b1419d1fa3" d="m79.68,216.46c-1.74,5.26-2.6,12.71,1.57,15.56,4.17,2.86,11.44,10.82,16.63,7.09,5.2-3.72,12.01-16,15.91-26.2,2.65-6.92,9.3-33.32,9.3-33.32l-12.15-11.86s-30.17,45.44-31.26,48.73Z"/><path class="uuid-091d51cc-4abf-41cc-90f2-62870a92c2d1" d="m162.56,216.8c-.93-.05-1.89-.05-2.88,0-4.13.22-47.94,14.06-47.94,14.06h0c-.27-2.18-.72-4.51-1.26-6.89-.38-1.66-.07-3.92-.75-4.93-1.69-2.54-3.19,4.72-4.28,7.79-1.09,3.09-15.15,4.53-14.94,7.72.03.42.17.87.4,1.34-.18.09-.35.19-.51.32-.74.59-1.24,1.74-.87,2.7.13.26.69.36,1.45.37-.66.62-1.08,1.67-.74,2.56.13.26.72.37,1.52.37-.6.63-.97,1.61-.65,2.45.12.23.59.34,1.25.37-.31.57-.44,1.25-.21,1.85.49.98,7.15-.24,8.15-.39.77-.12,4.99-.77,7.58-2,.01,0,.01,0,.03,0,0-.02.03-.01.03-.01,3.91.05,28.88.21,48.34-2.76,4.55-.7,8.78-1.56,12.39-2.63h.01c10.96-3.52,11.48-10.58,7.88-16.89l-13.99-5.42Z"/><path class="uuid-c4219b20-8b29-4b1c-81fc-d78109af7cce" d="m176.12,221.96c1.38,2.42,2.91,6.45,1.57,9.9-1.19,3.06-4.25,5.4-9.11,6.95-3.35,1-7.39,1.86-12.36,2.63-19.65,3-45.09,2.79-48.23,2.76l-.21-.09-.09.15c-1.63.77-4.26,1.46-7.42,1.95l-.44.07c-6.45,1.08-7.3.65-7.41.49-.23-.6.03-1.24.21-1.57l.23-.43-.49-.02c-.86-.04-.98-.2-.98-.2-.28-.72.1-1.58.59-2.1l.49-.51h-.71c-1.09-.02-1.24-.21-1.25-.21-.28-.75.12-1.68.68-2.19l.56-.52h-.76c-1.04-.03-1.18-.22-1.18-.22-.3-.8.16-1.82.79-2.31.13-.1.27-.19.46-.29l.27-.14-.13-.27c-.22-.45-.35-.87-.37-1.23-.09-1.42,3.79-2.64,7.23-3.72,3.67-1.16,7.13-2.25,7.7-3.87.23-.65.47-1.48.74-2.37.66-2.24,1.66-5.62,2.49-5.75.16-.04.37.2.5.39.35.53.41,1.52.46,2.58.04.76.08,1.55.24,2.25.6,2.64,1.01,4.88,1.26,6.86l.05.37.36-.12c.44-.14,43.82-13.83,47.87-14.05.97-.05,1.93-.06,2.85,0l.03-.62c-.94-.05-1.92-.04-2.91,0-3.98.22-43.26,12.58-47.68,13.97-.25-1.91-.65-4.06-1.22-6.55-.15-.65-.19-1.41-.23-2.14-.06-1.14-.12-2.22-.56-2.89-.33-.5-.71-.71-1.1-.66-1.13.17-1.95,2.67-2.99,6.18-.26.87-.5,1.7-.73,2.33-.47,1.34-4.1,2.48-7.3,3.49-4,1.26-7.78,2.45-7.66,4.35.03.37.13.77.31,1.19-.1.06-.2.13-.31.21-.79.63-1.4,1.91-.97,3.04.15.3.5.46,1.1.54-.45.66-.71,1.56-.39,2.39.15.32.52.48,1.2.55-.41.65-.63,1.5-.32,2.28.14.29.48.46,1.07.53-.22.59-.24,1.18-.04,1.69.16.32.57.57,1.92.57,1.18,0,3.08-.19,6.15-.71l.41-.07c3.23-.5,5.92-1.21,7.6-2h.13c3.48.04,28.71.21,48.25-2.77,5-.77,9.06-1.63,12.43-2.64,5.06-1.62,8.26-4.09,9.51-7.32,1.13-2.91.63-6.37-1.44-10.01l-.7-.11Z"/><path class="uuid-f515da3a-cb4d-429f-af9a-08b1419d1fa3" d="m126.12,169.84l10.25,35.77,8.56,11.75s-27.9,5.19-29.63,7.89c-1.73,2.69.07,22.34.07,22.34,0,0,69.36,13.38,63.47-23.93-5.89-37.31-52.73-53.82-52.73-53.82Z"/><path class="uuid-c4219b20-8b29-4b1c-81fc-d78109af7cce" d="m123.16,179.29c-.17-.03-.33.06-.37.23-.06.26-5.99,25.65-9.28,33.27-.07.15,0,.34.16.4.04.02.08.03.12.03.12,0,.23-.07.28-.19,3.31-7.67,9.26-33.12,9.32-33.38.04-.17-.06-.33-.23-.37Z"/><path class="uuid-c4219b20-8b29-4b1c-81fc-d78109af7cce" d="m90.35,198.57c-.57.74-13.85,18.22-12.36,27.34.02.15.15.26.3.26.02,0,.03,0,.05,0,.17-.03.28-.19.25-.35-1.44-8.87,12.11-26.69,12.24-26.87.1-.14.08-.33-.06-.43-.13-.1-.32-.08-.43.06Z"/><path class="uuid-c4219b20-8b29-4b1c-81fc-d78109af7cce" d="m150.8,249.17c-.22.02-22.48,2.17-35.33-1.87-.15-.05-.33.04-.38.2-.05.16.04.34.2.39,6.29,1.98,14.79,2.49,21.9,2.49,7.56,0,13.56-.58,13.67-.59.17-.02.29-.17.27-.34-.01-.17-.13-.29-.34-.28Z"/><path class="uuid-c4219b20-8b29-4b1c-81fc-d78109af7cce" d="m149.64,208.25c-.12.12-.13.31-.01.43.05.06,5.39,5.68,5.19,9.23-.04.74-.32,1.32-.86,1.77-3.6,2.99-20.73,5.86-20.9,5.88-.17.03-.28.19-.25.35.02.15.15.26.3.26.02,0,.03,0,.05,0,.71-.12,17.47-2.92,21.2-6.02.66-.55,1.03-1.3,1.08-2.21.22-3.81-5.13-9.45-5.36-9.69-.12-.12-.32-.12-.44,0Z"/><polygon class="uuid-091d51cc-4abf-41cc-90f2-62870a92c2d1" points="78.52 88.05 .5 81.84 1.39 136.51 65.91 136.96 85.02 149.89 74.13 121.97 78.52 88.05"/><path class="uuid-c4219b20-8b29-4b1c-81fc-d78109af7cce" d="m79.07,87.6L0,81.31l.91,55.69,64.85.45,20.29,13.73-11.41-29.26,4.43-34.31Zm4.92,61l-17.68-11.96-.25-.17h-.3s-63.89-.44-63.89-.44l-.88-53.66,76.96,6.12-4.3,33.29-.03.25.09.23,10.27,26.33Z"/><path class="uuid-9932bbb8-4293-4f44-b57a-f48e1bf9f5db" d="m17.89,91.7c-5.34,3.23-8.88,9.15-8.83,15.86v.23s19.36-.2,19.36-.2l-9.64-16.34-.89.45Z"/><path class="uuid-c4219b20-8b29-4b1c-81fc-d78109af7cce" d="m41.14,94.41l-1.21-.24-.33,2.23-.16,1.09-.02.14-.06.4-2.11,14.23h-1.08s-.41.01-.41.01l-16.66.19c0,.28.01.56.03.83.03.76.11,1.55.25,2.35.02.13.04.27.07.41,1.14,6.23,5.33,12.87,14.35,14.39.14.02.27.04.41.06,2.03.3,4.3.35,6.82.08,4.71-.5,8.84-3.04,11.66-6.69.06-.07.11-.14.17-.21.4-.53.77-1.08,1.11-1.65.98-1.63,1.72-3.44,2.16-5.33.27-1.13.43-2.29.48-3.47.01-.31.02-.62.02-.94,0-.54-.03-1.27-.16-2.28-1.03-7.9-7.33-14.45-15.31-15.61Z"/><path class="uuid-5c7615ad-ecc8-43f7-864f-1fedd38aff9c" d="m36.68,90.08c-1.62-.23-3.35-.28-5.24,0-2.45.35-4.74,1.2-6.76,2.43l10.36,17.39,2.86-19.58h0l-1.21-.24Z"/></svg>