<?xml version="1.0" encoding="UTF-8"?><svg xmlns="http://www.w3.org/2000/svg" xmlns:xlink="http://www.w3.org/1999/xlink" viewBox="0 0 544.13 541.07"><defs><style>.uuid-0f68e898-3bf9-48a9-bd6a-21db58b96b82{fill:#c1e0ff;}.uuid-5242709b-1e0d-4f26-8625-8e49840b93d9{clip-path:url(#uuid-74656e38-ef1b-4fd2-8ea9-aadd1030a86b);}.uuid-5242709b-1e0d-4f26-8625-8e49840b93d9,.uuid-09f699bc-bcef-4e95-8b7d-095645c8f581,.uuid-0a00b8d4-bde4-4736-af3f-5d301c459296,.uuid-f20abf14-c125-4c85-a5df-6c16eac70444,.uuid-b37df98f-9848-4e67-a57a-0ef2e4dc38d5,.uuid-da0780b4-c658-42b8-9569-f79c1975dae3,.uuid-1a7efd0a-c58a-4ef6-a1b7-57ca81d80549,.uuid-3d2dbabf-7850-4e37-92e6-671cfc0b0a0c,.uuid-4883b0b3-3e10-4a20-89ae-4dac9c671dd1,.uuid-5c81099b-0a18-47ef-8f55-e9d52f184ca7,.uuid-ca95b2e1-cf2a-4aa1-9a45-d1c45886c3e9{fill:none;}.uuid-f03cce75-f305-4f49-9e52-6e00e494f36e{fill:#a8d5ff;}.uuid-783dca7e-82c6-469f-a62f-716c9661905b{fill:#9aceff;}.uuid-83de69f5-b862-4f21-a6bc-e978843d5216{fill:#9ed0ff;}.uuid-212be8d3-83b5-4182-8e94-6e06cea07f13{fill:#fff;}.uuid-fbcc38ce-b933-4085-bb1b-a851554f5237{fill:#c2e0ff;}.uuid-578f5beb-5b66-4bfb-847a-42f50f2b62d2{fill:#cbe5ff;}.uuid-f6167661-ef13-43c3-812d-6f2af20eb67a{fill:#b5daff;}.uuid-6aa73d77-60d7-49b4-8a41-61e1daf90d89{fill:#9dd0ff;}.uuid-09f699bc-bcef-4e95-8b7d-095645c8f581{clip-path:url(#uuid-7bcf9d72-86fa-43f0-a248-885b8d47db23);}.uuid-0a00b8d4-bde4-4736-af3f-5d301c459296{clip-path:url(#uuid-3b670cae-dd07-4aae-a39e-a2b70ab4402a);}.uuid-361443c2-0900-4291-87e0-b9f563cc5f55{fill:#d5e9ff;}.uuid-dbc7442d-be1d-4dca-85e2-dcbadfdde468{fill:#b2d9ff;}.uuid-64457cb9-288e-4838-96d0-f77da3005da1{fill:#a1d2ff;}.uuid-1f4f8347-1e55-4ce6-bf17-3de01d91d2a9{fill:#c9e4ff;}.uuid-f20abf14-c125-4c85-a5df-6c16eac70444{mix-blend-mode:multiply;}.uuid-dd918456-ac4d-41da-be03-f9d395dc5680{fill:#e6ebf0;}.uuid-08f198e2-c901-4116-9282-6e4538c85e5b{fill:#9ccfff;}.uuid-ecbf5fb9-abe1-4661-b171-042865dab4c9{fill:#cee6ff;}.uuid-d5f6fc69-d240-45f9-95c4-3c3b6c83b9b3{fill:#acd7ff;}.uuid-932aeda4-b08f-4d6f-b2ac-0ac0ccb167f4{fill:#99ceff;}.uuid-d5cd13d7-ee8e-4281-b76f-6eed96c89725{fill:#e8f0fc;}.uuid-fec2a2eb-fb2b-4d4f-bc71-6e58d5ec21e5{fill:#d2e8ff;}.uuid-e4400b70-dd2a-4f6b-a32a-72b1d386256b{fill:#b3daff;}.uuid-99daa128-9e69-43f5-bd88-4bce73835e1a{fill:#afd8ff;}.uuid-1f802f93-af70-4eb4-960f-b33cf3e15490{fill:#a5d4ff;}.uuid-35e98ee5-5f9b-432d-adb1-faf1674ae574{fill:#a4d3ff;}.uuid-cc61dda1-a940-4399-81a0-6b495dade9fa{fill:#bcdeff;}.uuid-7015348f-2c28-4046-972a-e8a82b9e5cee{fill:#baddff;}.uuid-b37df98f-9848-4e67-a57a-0ef2e4dc38d5{clip-path:url(#uuid-616f6c8b-8085-455c-a178-a6aedfce66bd);}.uuid-2e19e4de-352b-4f36-99e5-39f7b2b0995a{fill:#bedfff;}.uuid-ec4a3ac0-e8af-4072-8966-c5d1540c98f3{fill:#bddeff;}.uuid-cd11a3b4-09e4-429f-9390-6c2da1f6482e{fill:#e6e6e6;}.uuid-dbbb3aaa-9ee7-4e2e-b8ec-caf2ccd6565c{fill:#a9d5ff;}.uuid-559598fa-066e-4bb3-988a-61e3b327e18f{fill:#9fd1ff;}.uuid-27585876-f1f3-42b0-aa6e-99e8836e3e36{fill:#c4e1ff;}.uuid-5932bd59-a7fd-4fb4-a342-d7fc3e70169e{fill:#d1e7ff;}.uuid-c13c8428-d267-454f-801a-2a75faacc60f{fill:#cde5ff;}.uuid-7f7dc584-fc62-4bad-a306-d5ff4bfd68b0{fill:#cfe6ff;}.uuid-63bdf857-aa05-4f26-aa68-77a96ba30797{fill:#73cbe2;}.uuid-f98b2446-6cff-4da7-91a7-473ebd54f25f{fill:#b9dcff;}.uuid-3589f0ab-655a-44d4-947a-470b99fddce0{fill:#a6d4ff;}.uuid-a658918f-3f9f-44f1-bc6e-27054d02f7d3{fill:#b6dbff;}.uuid-c2e1b1a5-9a1a-420c-a0f1-3c48d115f809{fill:#aed8ff;}.uuid-484d203e-e74d-40ad-a450-167f699d5b08{fill:#c5e2ff;}.uuid-1d2f82eb-5168-4a46-ba61-a086e5781670{fill:#a0d1ff;}.uuid-97d246d0-4792-4911-8b7e-5eae9fecfdf8{fill:#c6e2ff;}.uuid-ee1d3273-6714-4b44-90e5-7b2763a049d1{fill:#a7d4ff;}.uuid-da0780b4-c658-42b8-9569-f79c1975dae3{isolation:isolate;}.uuid-a4d7b282-f644-4c94-bfe6-6b4b5e2d61fb{fill:#d3e8ff;}.uuid-1a7efd0a-c58a-4ef6-a1b7-57ca81d80549{clip-path:url(#uuid-a6ad5fcf-2d56-4df2-994c-3fbc41cd0873);}.uuid-13dec321-8e09-418c-8c43-726fe34b54d8{fill:#e9e5e6;}.uuid-5e8967bb-2473-4e12-bfc6-af74e91073dd{fill:#bfdfff;}.uuid-22366015-0c80-4248-93ee-e27221f0d254{fill:#b0d9ff;}.uuid-496fb9e6-b681-4314-b8fb-d8545751c110{fill:#abd6ff;}.uuid-d865ef75-6edc-407f-a646-f2deb5cf9376{fill:#a3d3ff;}.uuid-28b33ed5-7824-4dbd-bd13-477f388ea09a{fill:#a2d2ff;}.uuid-0c728650-b1be-4211-9ca9-07b4db44237c{fill:#c0e0ff;}.uuid-3d2dbabf-7850-4e37-92e6-671cfc0b0a0c{opacity:.5;}.uuid-1b60c121-3764-4a6f-ad84-994b1498502d{fill:#d0e7ff;}.uuid-ee2b0338-7ec1-40b5-a6f1-3b9f8341618c{fill:#b8dcff;}.uuid-952982db-028c-48e4-a158-f4a695d6c27c{fill:#001940;}.uuid-278c4c5e-eb12-4ca7-a78a-45f0c907df6b{fill:#f85a44;}.uuid-2860d69f-4e5c-4bf9-9a9d-e4697ae4cd65{fill:#b1d9ff;}.uuid-68866733-d611-4b86-a11f-4923d5d9d132{fill:#cae4ff;}.uuid-d41fcf55-2e73-4413-b093-84a7bf06c7d9{fill:#add7ff;}.uuid-a871513d-fb54-48ac-ae70-cb1ac1831584{fill:#b7dbff;}.uuid-602574a4-c5b0-4513-b2f3-e5dcc33e0292{fill:#ffab48;}.uuid-ba96a3c2-c801-4541-9024-8ad4ce458ecf{fill:#c7e3ff;}.uuid-f4d38570-eb2b-40ee-b5ef-9d458b381dc7{fill:#bdf;}.uuid-d275c226-79d4-4dfd-931b-dc6ed0f802de{fill:#c8e3ff;}.uuid-4a7311dd-e422-4da0-a8cb-59c3fd6e12d1{fill:#c3e1ff;}.uuid-dee32eda-7136-459a-8905-5228a883b68a{fill:#aab6c2;}.uuid-e4511d80-9137-4c27-999b-f1f01a3e4ade{fill:#aad6ff;}.uuid-aca9e715-99ac-497f-8e75-ea7ac2b11181{fill:#d4e9ff;}.uuid-5c81099b-0a18-47ef-8f55-e9d52f184ca7{clip-path:url(#uuid-755db17e-2005-4e59-81f9-1df9a18a3c4a);}.uuid-c7648953-1502-4e3b-b982-e063b2ade7fd{fill:#9bcfff;}.uuid-ca95b2e1-cf2a-4aa1-9a45-d1c45886c3e9{clip-path:url(#uuid-b7642e98-dc68-466e-b0ef-0fad3ca2550c);}</style><clipPath id="uuid-755db17e-2005-4e59-81f9-1df9a18a3c4a"><path class="uuid-4883b0b3-3e10-4a20-89ae-4dac9c671dd1" d="m389.25,393.69h-7.07c-.4,0-.79.28-.88.63l-.12.48h8.1l.22-.83c.04-.15-.07-.28-.25-.28Z"/></clipPath><clipPath id="uuid-7bcf9d72-86fa-43f0-a248-885b8d47db23"><path class="uuid-4883b0b3-3e10-4a20-89ae-4dac9c671dd1" d="m379.47,393.69h-7.07c-.4,0-.79.28-.86.63l-.11.48h8.1l.2-.83c.04-.15-.08-.28-.25-.28Z"/></clipPath><clipPath id="uuid-3b670cae-dd07-4aae-a39e-a2b70ab4402a"><path class="uuid-4883b0b3-3e10-4a20-89ae-4dac9c671dd1" d="m369.69,393.69h-7.07c-.4,0-.78.28-.85.63l-.1.48h8.1l.18-.83c.03-.15-.08-.28-.26-.28Z"/></clipPath><clipPath id="uuid-a6ad5fcf-2d56-4df2-994c-3fbc41cd0873"><path class="uuid-4883b0b3-3e10-4a20-89ae-4dac9c671dd1" d="m359.92,393.69h-7.07c-.4,0-.77.28-.83.63l-.09.48h8.1l.16-.83c.03-.15-.09-.28-.27-.28Z"/></clipPath><clipPath id="uuid-616f6c8b-8085-455c-a178-a6aedfce66bd"><path class="uuid-4883b0b3-3e10-4a20-89ae-4dac9c671dd1" d="m348.41,393.69h-3.7c-.4,0-.77.28-.82.63l-.08.48h4.73l.14-.83c.03-.15-.1-.28-.27-.28Z"/></clipPath><clipPath id="uuid-b7642e98-dc68-466e-b0ef-0fad3ca2550c"><path class="uuid-4883b0b3-3e10-4a20-89ae-4dac9c671dd1" d="m342.64,393.69h-3.7c-.4,0-.76.28-.81.63l-.07.48h4.73l.13-.83c.02-.15-.1-.28-.28-.28Z"/></clipPath><clipPath id="uuid-74656e38-ef1b-4fd2-8ea9-aadd1030a86b"><path class="uuid-4883b0b3-3e10-4a20-89ae-4dac9c671dd1" d="m337.21,393.69h-3.7c-.4,0-.76.28-.81.63l-.06.48h4.73l.12-.83c.02-.15-.1-.28-.28-.28Z"/></clipPath></defs><g class="uuid-da0780b4-c658-42b8-9569-f79c1975dae3"><g id="uuid-ae4312e1-4897-46f9-94cb-38abd65a2d1a"><path class="uuid-dd918456-ac4d-41da-be03-f9d395dc5680" d="m340.93,11.09C154.69-50.91,227.69,164.42,84.39,227.59c-25.45,11.22-58.36,25.79-71.36,50.6-25.94,49.51-6.89,96.39,3.74,122.62,21.91,54.08,95.43,123.39,271.68,135.48,226.97,15.58,261.41-181.73,255-266.71-6.41-84.98-16.27-196.49-202.5-258.5Z"/><path class="uuid-dd918456-ac4d-41da-be03-f9d395dc5680" d="m13.02,278.2c-25.94,49.51-6.89,96.39,3.74,122.62,21.91,54.08,95.43,123.39,271.68,135.48,226.97,15.58,261.41-181.73,255-266.71-6.41-84.98-16.27-196.49-202.5-258.5C154.69-50.91,227.69,164.42,84.39,227.59c-25.45,11.22-58.36,25.79-71.36,50.6Z"/><path class="uuid-dd918456-ac4d-41da-be03-f9d395dc5680" d="m158.87,63.58c-38.12,3.57-101.1,39.75-123.93,77.61-14.02,23.26-12.05,38.76-8.44,47.26,2.17,5.12,6.9,8.56,12.3,9.09,21.29,2.09,52.01-6.93,83.76-46.85,35.51-44.63,74.42-90.66,36.3-87.1Z"/><path class="uuid-dd918456-ac4d-41da-be03-f9d395dc5680" d="m13.02,278.2c-25.94,49.51-6.89,96.39,3.74,122.62,21.91,54.08,95.43,123.39,271.68,135.48,226.97,15.58,261.41-181.73,255-266.71-6.41-84.98-16.27-196.49-202.5-258.5C154.69-50.91,227.69,164.42,84.39,227.59c-25.45,11.22-58.36,25.79-71.36,50.6Z"/><rect class="uuid-952982db-028c-48e4-a158-f4a695d6c27c" x="19.49" y="537.23" width="505.15" height="3.84"/><path class="uuid-dee32eda-7136-459a-8905-5228a883b68a" d="m82.32,365.65h47.44v-25.99h-47.44v25.99Zm2.72-23.27h42v20.56h-42v-20.56Z"/><path class="uuid-dee32eda-7136-459a-8905-5228a883b68a" d="m49.83,388.92h47.44v-25.99h-47.44v25.99Zm2.72-23.27h42v20.56h-42v-20.56Z"/><path class="uuid-dee32eda-7136-459a-8905-5228a883b68a" d="m199.31,142.26h47.44v-25.99h-47.44v25.99Zm2.72-23.27h42v20.56h-42v-20.56Z"/><path class="uuid-dee32eda-7136-459a-8905-5228a883b68a" d="m282.69,429.22h47.44v-25.99h-47.44v25.99Zm2.72-23.27h42v20.56h-42v-20.56Z"/><path class="uuid-dee32eda-7136-459a-8905-5228a883b68a" d="m237.92,429.22h47.44v-25.99h-47.44v25.99Zm2.72-23.27h42v20.56h-42v-20.56Z"/><path class="uuid-dee32eda-7136-459a-8905-5228a883b68a" d="m260.33,452.5h47.44v-25.99h-47.44v25.99Zm2.72-23.27h42v20.56h-42v-20.56Z"/><path class="uuid-dee32eda-7136-459a-8905-5228a883b68a" d="m244.03,260.86h47.44v-25.99h-47.44v25.99Zm2.72-23.27h42v20.56h-42v-20.56Z"/><path class="uuid-dee32eda-7136-459a-8905-5228a883b68a" d="m276.52,284.13h47.44v-25.99h-47.44v25.99Zm2.72-23.27h42v20.56h-42v-20.56Z"/><path class="uuid-dee32eda-7136-459a-8905-5228a883b68a" d="m430.76,172.79h47.44v-25.99h-47.44v25.99Zm2.72-23.27h42v20.56h-42v-20.56Z"/><path class="uuid-dee32eda-7136-459a-8905-5228a883b68a" d="m385.99,172.79h47.44v-25.99h-47.44v25.99Zm2.72-23.27h42v20.56h-42v-20.56Z"/><path class="uuid-dee32eda-7136-459a-8905-5228a883b68a" d="m408.4,196.07h47.44v-25.99h-47.44v25.99Zm2.72-23.27h42v20.56h-42v-20.56Z"/><path class="uuid-602574a4-c5b0-4513-b2f3-e5dcc33e0292" d="m258.86,433.88c-7.71-13.98-20.41-25.27-36.68-30.93-34.97-12.18-73.19,6.27-85.41,41.2-12.25,34.97,6.28,73.39,41.27,85.57,16.3,5.67,33.28,4.7,48.03-1.49,18.27-7.67,39.27-10.45,57.99-3.94l1.88.65,17.84-51.25-1.68-.59c-18.79-6.54-33.62-21.81-43.24-39.23Z"/><path class="uuid-952982db-028c-48e4-a158-f4a695d6c27c" d="m226.59,451.18c-7.59-4.18-13.18-6.9-17.33-8.61.13-1.29,0-2.7-.4-4.18-3.33-12.2-20.57-8.14-21.3-7.96-.6.15-1.01,1.01-.89,1.92.11.91.67,1.53,1.26,1.39,4.51-1.11,16.7-2.19,18.92,5.91.21.77.3,1.45.28,2.08-8.57-3.21-9.61-1.28-10.21-.16-.97,1.81-1.04,3.79-.18,5.29,1.75,3.09,7.26,3.31,10.33.41.51-.48.93-1.03,1.27-1.64,10.45,4.35,27.55,13.93,43.2,23.94.56.36,1.19-.04,1.41-.89.06-.22.08-.44.08-.67-.01-.65-.27-1.26-.69-1.53-.13-.09-12.8-8.16-25.76-15.3Zm-28.22-6.5s-.04-.07-.04-.17c0-.14.05-.37.27-.79.65-.96,3.22-.56,7.1.87-2.39,2.01-6.47,1.59-7.33.09Z"/><path class="uuid-952982db-028c-48e4-a158-f4a695d6c27c" d="m242.42,495.76c-18.48-1.87-37.84-4.96-48.73-8.04.11-.69.13-1.38.02-2.07-.61-4.18-5.06-7.42-8.35-6.09-1.61.65-2.79,2.24-3.15,4.26-.22,1.25-.61,3.42,8.11,6.22-.37.5-.87.99-1.51,1.46-6.76,4.98-15.65-3.44-18.5-7.1-.37-.48-1.21-.35-1.85.31-.66.64-.87,1.57-.5,2.05.47.59,11.46,14.47,21.65,6.97,1.23-.91,2.22-1.94,2.91-3.03,4.31,1.22,10.39,2.57,18.93,4,14.59,2.45,29.54,3.96,29.69,3.98.49.05,1.07-.27,1.48-.77.14-.17.26-.37.35-.57.35-.81.1-1.52-.56-1.59Zm-57.54-12.58c.08-.47.19-.68.27-.79.06-.07.11-.09.14-.1,1.6-.65,5.07,1.56,5.69,4.62-3.93-1.3-6.19-2.57-6.11-3.73Z"/><path class="uuid-952982db-028c-48e4-a158-f4a695d6c27c" d="m248.93,467.04c-9.86,6.01-14.11,18.23-10.12,29.06l.73,1.97,51.23,17.83,11.19-32.13-51.22-17.83-1.8,1.09Zm48.98,18.69l-9.1,26.14-46.81-16.3-.21-.57c-3.48-9.41.22-20.03,8.79-25.25l.52-.32,46.81,16.3Z"/><path class="uuid-952982db-028c-48e4-a158-f4a695d6c27c" d="m305.47,468.85c-2.16-.75-4.53.39-5.28,2.55l-18.49,53.12c-.75,2.16.39,4.52,2.55,5.28h0c2.16.75,4.52-.39,5.27-2.55l18.5-53.12c.75-2.16-.39-4.53-2.55-5.28Z"/><path class="uuid-dee32eda-7136-459a-8905-5228a883b68a" d="m312.18,474.84c-2.16-.75-4.46.2-5.13,2.13l-16.51,47.44c-.67,1.93.53,4.11,2.7,4.86,2.16.75,4.45-.2,5.13-2.13l16.51-47.44c.67-1.93-.54-4.11-2.7-4.86Z"/><path class="uuid-952982db-028c-48e4-a158-f4a695d6c27c" d="m320.03,477.57c-2.16-.75-4.46.2-5.13,2.14l-16.51,47.44c-.68,1.93.53,4.1,2.69,4.86,2.17.76,4.46-.2,5.13-2.13l16.52-47.44c.67-1.93-.54-4.1-2.7-4.86Z"/><path class="uuid-dee32eda-7136-459a-8905-5228a883b68a" d="m327.88,480.3c-2.17-.75-4.46.2-5.13,2.14l-16.52,47.43c-.67,1.94.54,4.11,2.7,4.86,2.16.76,4.46-.2,5.13-2.13l16.51-47.44c.67-1.93-.54-4.11-2.7-4.86Z"/><path class="uuid-952982db-028c-48e4-a158-f4a695d6c27c" d="m335.73,483.03c-2.16-.76-4.46.2-5.13,2.13l-16.51,47.43c-.68,1.93.53,4.1,2.69,4.86h0c2.16.75,4.46-.2,5.13-2.13l16.52-47.43c.67-1.93-.54-4.11-2.7-4.86Z"/><path class="uuid-dee32eda-7136-459a-8905-5228a883b68a" d="m337.28,491.24l-14.18,40.75c4.33,1.51,9.05-.78,10.56-5.11l8.73-25.08c1.5-4.33-.78-9.06-5.11-10.56Z"/><rect class="uuid-952982db-028c-48e4-a158-f4a695d6c27c" x="160.47" y="25.97" width="7.66" height="63.17"/><polygon class="uuid-952982db-028c-48e4-a158-f4a695d6c27c" points="174.32 378.94 231.74 538.96 235.57 538.96 178.15 378.94 174.32 378.94"/><rect class="uuid-952982db-028c-48e4-a158-f4a695d6c27c" x="162.43" y="378.94" width="3.66" height="160.02"/><polygon class="uuid-952982db-028c-48e4-a158-f4a695d6c27c" points="92.6 538.96 96.43 538.96 153.86 378.94 150.03 378.94 92.6 538.96"/><polygon class="uuid-952982db-028c-48e4-a158-f4a695d6c27c" points="172.64 378.94 198.84 451.97 206.5 451.97 180.3 378.94 172.64 378.94"/><rect class="uuid-952982db-028c-48e4-a158-f4a695d6c27c" x="160.44" y="378.94" width="7.65" height="67.29"/><polygon class="uuid-952982db-028c-48e4-a158-f4a695d6c27c" points="122.04 451.97 129.69 451.97 155.89 378.94 148.24 378.94 122.04 451.97"/><rect class="uuid-952982db-028c-48e4-a158-f4a695d6c27c" x="148.23" y="370.8" width="32.07" height="8.14"/><rect class="uuid-952982db-028c-48e4-a158-f4a695d6c27c" x="149.95" y="32.41" width="28.71" height="8.14"/><rect class="uuid-952982db-028c-48e4-a158-f4a695d6c27c" x="130.71" y="376.43" width="67.12" height="8.13"/><polygon class="uuid-952982db-028c-48e4-a158-f4a695d6c27c" points="164.83 469.93 215.59 490.03 215.59 486.8 164.83 466.7 164.83 469.93"/><polygon class="uuid-952982db-028c-48e4-a158-f4a695d6c27c" points="112.23 490.03 163.7 469.93 163.7 466.7 112.23 486.8 112.23 490.03"/><path class="uuid-952982db-028c-48e4-a158-f4a695d6c27c" d="m310.6,366.81H24.66c-.7,0-1.27.57-1.27,1.27v7.07c0,.7.57,1.28,1.27,1.28h285.94c.72,0,1.29-.57,1.29-1.28v-7.07c0-.7-.57-1.27-1.29-1.27Z"/><path class="uuid-952982db-028c-48e4-a158-f4a695d6c27c" d="m25.77,40.55h283.73c1.32,0,2.38,1.07,2.38,2.38v4.86c0,1.32-1.07,2.39-2.39,2.39H25.77c-1.32,0-2.39-1.07-2.39-2.39v-4.86c0-1.32,1.07-2.38,2.38-2.38Z"/><rect class="uuid-212be8d3-83b5-4182-8e94-6e06cea07f13" x="32.05" y="46.03" width="268.7" height="329.73"/><path class="uuid-952982db-028c-48e4-a158-f4a695d6c27c" d="m31.39,376.43h270.03V45.37H31.39v331.06Zm1.33-329.73h267.37v328.4H32.72V46.7Z"/><path class="uuid-dee32eda-7136-459a-8905-5228a883b68a" d="m306.72,366.81H20.78c-.72,0-1.29.57-1.29,1.27v7.07c0,.7.57,1.28,1.29,1.28h285.94c.7,0,1.27-.57,1.27-1.28v-7.07c0-.7-.57-1.27-1.27-1.27Z"/><path class="uuid-dee32eda-7136-459a-8905-5228a883b68a" d="m21.88,40.55h283.73c1.32,0,2.39,1.07,2.39,2.39v4.86c0,1.32-1.07,2.39-2.39,2.39H21.88c-1.32,0-2.39-1.07-2.39-2.39v-4.86c0-1.32,1.07-2.38,2.38-2.38Z"/><g class="uuid-3d2dbabf-7850-4e37-92e6-671cfc0b0a0c"><path class="uuid-952982db-028c-48e4-a158-f4a695d6c27c" d="m288.54,69.03H44.16l.07,283.28v.47h244.43l-.11-283.28v-.47ZM44.77,351.91l-.07-282.02h243.29l.12,282.02H44.77Z"/><polygon class="uuid-952982db-028c-48e4-a158-f4a695d6c27c" points="44.47 304.76 44.51 305.62 288.38 305.62 288.33 304.76 44.47 304.76"/><polygon class="uuid-952982db-028c-48e4-a158-f4a695d6c27c" points="44.45 257.6 44.5 258.47 288.36 258.47 288.32 257.6 44.45 257.6"/><polygon class="uuid-952982db-028c-48e4-a158-f4a695d6c27c" points="44.44 210.45 44.49 211.31 288.34 211.31 288.3 210.45 44.44 210.45"/><polygon class="uuid-952982db-028c-48e4-a158-f4a695d6c27c" points="44.43 163.31 44.48 164.17 288.32 164.17 288.28 163.31 44.43 163.31"/><polygon class="uuid-952982db-028c-48e4-a158-f4a695d6c27c" points="44.42 116.17 44.47 117.03 288.31 117.03 288.26 116.17 44.42 116.17"/><polygon class="uuid-952982db-028c-48e4-a158-f4a695d6c27c" points="247.35 69.42 247.46 352.3 248.01 352.38 247.9 69.49 247.35 69.42"/><polygon class="uuid-952982db-028c-48e4-a158-f4a695d6c27c" points="206.71 69.42 206.81 352.3 207.36 352.38 207.26 69.49 206.71 69.42"/><polygon class="uuid-952982db-028c-48e4-a158-f4a695d6c27c" points="166.07 69.42 166.17 352.3 166.71 352.38 166.62 69.49 166.07 69.42"/><polygon class="uuid-952982db-028c-48e4-a158-f4a695d6c27c" points="125.43 69.42 125.52 352.3 126.07 352.38 125.98 69.49 125.43 69.42"/><polygon class="uuid-952982db-028c-48e4-a158-f4a695d6c27c" points="84.79 69.42 84.87 352.3 85.42 352.38 85.34 69.49 84.79 69.42"/></g><polygon class="uuid-dee32eda-7136-459a-8905-5228a883b68a" points="116.81 298.54 117.42 352.34 154.44 352.34 153.82 298.54 116.81 298.54"/><polygon class="uuid-278c4c5e-eb12-4ca7-a78a-45f0c907df6b" points="63.81 319.1 64.18 352.34 101.2 352.34 100.82 319.1 63.81 319.1"/><polygon class="uuid-952982db-028c-48e4-a158-f4a695d6c27c" points="167.1 264.49 168.11 352.34 205.12 352.34 204.12 264.49 167.1 264.49"/><polygon class="uuid-278c4c5e-eb12-4ca7-a78a-45f0c907df6b" points="217.4 231.05 218.79 352.34 255.81 352.34 254.42 231.05 217.4 231.05"/><path class="uuid-278c4c5e-eb12-4ca7-a78a-45f0c907df6b" d="m243.35,136.49l-18.73,46.19-28.72-20.53c-.66-.47-1.42-.53-2.1-.14-.68.38-1.22,1.17-1.5,2.18l-17.25,63.16-30.95-34.49c-.62-.68-1.38-.94-2.13-.71-.75.23-1.39.92-1.76,1.91l-23.47,61.8-30.99-18.83c-1.14-.69-2.44-.13-3.15,1.34l-25.41,52.75c-.85,1.76-.57,4.2.62,5.47.54.57,1.18.8,1.79.72.74-.1,1.44-.65,1.91-1.61l24.2-50.24,31.21,18.96c1.23.75,2.65.03,3.3-1.69l23.14-60.93,31.28,34.86c.66.73,1.51.98,2.3.65.79-.32,1.43-1.17,1.74-2.29l17.48-64.01,28.36,20.27c1.23.88,2.72.23,3.42-1.51l19.96-49.26c.75-1.85.33-4.26-.93-5.37-1.26-1.11-2.88-.51-3.63,1.35Z"/><path class="uuid-278c4c5e-eb12-4ca7-a78a-45f0c907df6b" d="m250.67,130.37c-.19-1.06-.66-1.96-1.32-2.49-.65-.52-1.42-.62-2.12-.27l-18.53,9.36c-1.39.69-2.12,2.92-1.64,4.97.48,2.05,1.99,3.13,3.37,2.44l15.82-7.99,3.56,20.59c.33,1.9,1.54,3.12,2.82,2.95.14-.02.27-.05.41-.1,1.41-.53,2.27-2.66,1.9-4.75l-4.28-24.72Z"/><path class="uuid-63bdf857-aa05-4f26-aa68-77a96ba30797" d="m448.24,293.82c-22.9-32.01-48.34-15.49-54.82-6.39-58.99,82.75-147.47,99.34-156.22,150.96-4.73,27.92,15.61,97.89,137.65,98.89,127.36,1.04,157.1-84.42,128-139.04-29.07-54.56-31.7-72.38-54.61-104.42Z"/><g class="uuid-f20abf14-c125-4c85-a5df-6c16eac70444"><path class="uuid-13dec321-8e09-418c-8c43-726fe34b54d8" d="m437.37,353.22c-5.56-49.97-33.47-43.6-73.45-8.9-39.93,34.65-51.96,51.7-78.22,53.04-26.23,1.33-26.51,18.83-21.77,23.25,26.1,24.4,97.07,28.37,143.23,20.01,23.88-4.32,46.75-35.41,64.89-33.23,0,0-30.18-13.72-34.68-54.17Z"/></g><path class="uuid-952982db-028c-48e4-a158-f4a695d6c27c" d="m424.34,282.33c.28.78,27.38,78.44,10.37,125.3-10.24,28.18-28.46,30.36-47.76,32.66-12.55,1.5-25.53,3.05-35.76,12.55-11.96,11.12-14.22,30.87-5.76,50.33,6.62,15.22,21.18,31.49,42.18,31.49v-1.05c-20.45,0-34.66-15.93-41.15-30.84-8.29-19.05-6.12-38.36,5.51-49.18,9.96-9.26,22.75-10.78,35.12-12.26,18.78-2.24,38.21-4.56,48.67-33.36,17.14-47.19-10.09-125.19-10.37-125.97l-1.06.33Z"/><path class="uuid-952982db-028c-48e4-a158-f4a695d6c27c" d="m369.72,392.05c-25.92,21.81-39.49,22-55.2,22.23-8.68.12-18.52.26-31.46,4.19-18.79,5.7-25.86,26.63-26.21,44.32-.41,20.43,8.4,45.59,28.68,52.54l.38-.99c-19.78-6.78-28.35-31.47-27.95-51.54.35-17.33,7.21-37.81,25.44-43.34,12.78-3.88,22.12-4.01,31.14-4.14,15.93-.23,29.69-.42,55.92-22.49,40.3-33.91,40.66-108.53,40.66-109.27h-1.12c0,.75-.35,74.89-40.29,108.49Z"/><path class="uuid-952982db-028c-48e4-a158-f4a695d6c27c" d="m499.04,427.37c-1.25-10.24-3.66-20.32-6.88-30.15-3.2-9.84-7.11-19.45-11.51-28.85-4.43-9.39-9.35-18.57-14.57-27.58,5.06,9.09,9.81,18.34,14.07,27.78,4.29,9.42,8.11,19.05,11.19,28.88,1.57,4.9,2.86,9.88,4.06,14.88,1.08,5.02,2.07,10.06,2.63,15.15.36,2.54.5,5.09.71,7.64.08,2.56.25,5.11.17,7.66.02,2.56-.18,5.11-.34,7.66l-.42,3.81c-.13,1.27-.39,2.52-.58,3.79-1.7,10.07-5.23,19.91-10.78,28.68-5.51,8.79-12.98,16.43-21.53,22.7-8.59,6.25-18.25,11.15-28.37,14.88-5.06,1.87-10.24,3.46-15.5,4.77-5.26,1.3-10.6,2.36-16.01,2.97,5.42-.52,10.78-1.5,16.08-2.72,5.29-1.23,10.51-2.74,15.63-4.54,10.2-3.65,19.96-8.49,28.69-14.72,8.71-6.23,16.26-13.97,21.88-22.85,5.65-8.87,9.26-18.82,11.01-29,.19-1.28.44-2.55.57-3.83l.42-3.85c.15-2.58.34-5.15.32-7.73.08-2.58-.1-5.15-.19-7.73-.22-2.57-.37-5.14-.74-7.69Z"/><path class="uuid-952982db-028c-48e4-a158-f4a695d6c27c" d="m401.04,289.27c-.93-3.51.94-7.21.45-10.8-.59-4.41-4.47-7.56-8.16-10.05-3.69-2.49-7.76-5.14-9.14-9.37-1.49-4.54.59-9.39.91-14.15.54-8.01-5.03-21.33-13-24.57-3.37-1.38-8.2-1.78-11.77-2.06-4.66-.38-9.7.51-13.25,3.75-2.81,2.57-4.3,6.24-5.69,9.78-2.47,6.26-4.94,12.51-7.4,18.77-1.32,3.35-2.64,6.71-3.53,10.2-.65,2.56-1.11,5.29-2.71,7.39-1.36,1.79-3.38,2.93-5.02,4.47-2.28,2.15-3.72,5.02-5.12,7.83-2.79,5.59-5.58,11.18-8.36,16.77-1.07,2.14-2.15,4.34-2.46,6.71-.31,2.37.3,5.01,2.14,6.54,2.75,2.3,6.85,1.35,10.32.44,17.78-4.64,36.74-4.64,54.52-.01,4.78,1.24,9.51,2.82,14.43,3.3,4.91.48,10.17-.28,14.09-3.28,3.92-3,6.06-8.62,4.04-13.12-1.38-3.07-4.42-5.28-5.28-8.54Z"/><path class="uuid-212be8d3-83b5-4182-8e94-6e06cea07f13" d="m361.03,358.52c-.31-2.1-2.91-2.92-4.41-1.42l-7.69,6.01c-1.03,1.03-2.27,1.88-3.69,2.27-5.49,1.52-8.32-4.05-10.43-8.48-2.64-5.54-6.22-10.8-10.49-15.46l18.55-30.41,10.13-7.45-7.08-5.81-1.62-23.52s-8.34,2.61-11.07,3.63c-7.95,2.97-13.88,5.73-17.54,8.91-.39.28-.72.54-.95.78l-15.81,18.92c-4.91,5.13-8.93,11.08-11.52,17.69-.8,2.04-1.4,4.07-1.65,6.06-.21.96-.28,2.04-.18,3.26.76,8.73,7.93,14.67,14.44,19.56,11.46,8.6,23.38,16.6,35.77,23.78,6.45,3.74,14.69,2.32,19.54-3.34,3.25-3.78,6.01-7.99,8.17-12.49,1.23-2.57-2.08.2-2.48-2.5Zm-47.08-26.2l6.83-5.03c.28,3.94.41,7.8.47,11.02-2.28-2.18-4.73-4.19-7.3-5.99Z"/><path class="uuid-952982db-028c-48e4-a158-f4a695d6c27c" d="m321.11,327.27l-.04-.6-7.69,5.66.38.27c2.52,1.76,4.96,3.76,7.26,5.95l.58.55-.02-.8c-.07-3.91-.23-7.63-.47-11.03Zm-6.6,5.05l5.97-4.4c.2,3,.34,6.22.41,9.6-2.04-1.9-4.18-3.64-6.38-5.21Z"/><path class="uuid-952982db-028c-48e4-a158-f4a695d6c27c" d="m362.9,359.48c-.87.04-1.4,0-1.55-1.01-.16-1.1-.89-1.96-1.95-2.32-1.07-.36-2.23-.09-2.99.68l-7.72,6.03c-1.1,1.11-2.3,1.85-3.53,2.19-4.97,1.38-7.69-3.35-10.04-8.3-2.62-5.5-6.11-10.67-10.38-15.36l18.39-30.14,10.42-7.67-7.3-5.99-1.64-23.8-.4.13c-.08.03-8.38,2.63-11.09,3.64-9,3.36-14.27,6.05-17.61,8.96-.45.31-.77.58-1.01.84l-15.8,18.91c-5.17,5.41-9.07,11.4-11.59,17.8-.89,2.26-1.44,4.27-1.66,6.11-.23,1.06-.29,2.16-.18,3.36.76,8.75,7.92,14.8,14.57,19.79,11.86,8.9,23.91,16.91,35.8,23.81,2.47,1.43,5.21,2.13,7.91,2.13,4.5,0,8.94-1.92,12.05-5.54,3.29-3.83,6.05-8.05,8.21-12.56.34-.69.39-1.09.2-1.38-.22-.34-.64-.31-1.1-.3Zm.3,1.39c-2.14,4.46-4.87,8.63-8.12,12.42-4.77,5.55-12.81,6.92-19.13,3.27-11.87-6.89-23.89-14.88-35.73-23.76-6.84-5.13-13.57-10.84-14.31-19.32-.1-1.13-.04-2.17.17-3.19.22-1.81.75-3.77,1.62-5.98,2.48-6.32,6.34-12.23,11.46-17.6l15.8-18.91c.19-.2.5-.45.93-.76,3.3-2.87,8.52-5.52,17.43-8.86,2.34-.88,8.95-2.97,10.65-3.5l1.59,23.1v.14s6.87,5.63,6.87,5.63l-9.78,7.2-18.77,30.71.17.18c4.3,4.69,7.81,9.87,10.43,15.38,1.95,4.1,4.9,10.3,10.82,8.66,1.35-.38,2.64-1.17,3.8-2.33l7.72-6.04c.61-.62,1.51-.83,2.34-.55.82.27,1.38.94,1.5,1.78.25,1.68,1.54,1.62,2.24,1.58.18-.01.46-.03.51-.01,0,0,.04.16-.24.74Z"/><path class="uuid-212be8d3-83b5-4182-8e94-6e06cea07f13" d="m436.92,323.85c-2.79-6.53-6.99-12.36-12.04-17.34l-17.13-17.39c-.75-1.01-1.69-1.98-2.86-2.9l-.05-.05c-.38-.38-.92-.74-1.51-1.09-3.67-2.49-8.82-4.78-15.32-7.21-2.73-1.02-11.07-3.63-11.07-3.63l-1.87,27.19-4.32,3.77,7.03,4.86,21.66,35.49c-3.25,4.44-5.92,9.27-7.86,14.26-1.78,4.57-4.19,10.33-9.78,9.22-1.43-.29-2.73-1.04-3.84-2l-11.05-9.07c-1.61-1.39-4.15-.38-4.3,1.74-.19,2.73-.76,3.84.65,6.32,2.48,4.33,5.54,8.32,9.06,11.85,5.26,5.28,13.58,6.1,19.73,1.9,11.83-8.08,23.13-16.93,33.93-26.34,6.14-5.35,12.85-11.8,12.96-20.56,0-.12-.01-.23-.02-.35.11-2.84-.75-5.74-2-8.67Zm-36.97,21c-.03-3.27,0-11.14.62-19.03l10.7,7.39c-4.24,3.35-8.05,7.3-11.31,11.64Z"/><path class="uuid-952982db-028c-48e4-a158-f4a695d6c27c" d="m439.25,332.52c.1-2.55-.55-5.35-2.03-8.81-2.71-6.32-6.78-12.19-12.11-17.44l-17.1-17.36c-.78-1.04-1.76-2.04-2.94-2.98-.36-.36-.88-.73-1.56-1.13-3.39-2.3-8.14-4.53-15.39-7.25-2.71-1.01-11-3.61-11.09-3.64l-.4-.13-1.89,27.48-4.54,3.96,7.32,5.06,21.5,35.24c-3.25,4.48-5.86,9.24-7.77,14.15-1.99,5.11-4.35,10.03-9.4,9.02-1.26-.25-2.5-.9-3.7-1.93l-11.04-9.06c-.85-.73-2.02-.92-3.06-.49-1.04.43-1.7,1.35-1.78,2.46-.04.56-.1,1.06-.15,1.5-.2,1.77-.34,2.94.84,5,2.49,4.34,5.55,8.35,9.11,11.92,3.07,3.09,7.16,4.68,11.26,4.68,3.09,0,6.2-.9,8.9-2.75,11.36-7.75,22.78-16.62,33.96-26.37,6.27-5.46,12.97-12.02,13.08-20.8,0-.08,0-.15,0-.22,0-.04,0-.09,0-.13Zm-13.5,20.65c-11.16,9.73-22.57,18.58-33.9,26.32-6.03,4.11-14.15,3.33-19.31-1.86-3.52-3.53-6.55-7.5-9.01-11.78-1.07-1.87-.95-2.89-.76-4.59.05-.46.11-.96.15-1.53.06-.85.57-1.56,1.37-1.89.29-.12.59-.18.89-.18.54,0,1.07.19,1.49.56l11.04,9.06c1.28,1.1,2.63,1.8,4,2.07,6.02,1.2,8.51-5.2,10.15-9.43,1.92-4.92,4.55-9.69,7.82-14.18l.13-.18h0s.39-.52.39-.52c3.3-4.4,7.09-8.29,11.25-11.58l.35-.28-11.54-7.98-.05.58c-.63,7.97-.64,15.98-.62,19.06v.38s-21.56-35.34-21.56-35.34l-6.77-4.71,4.1-3.58,1.86-26.91c1.7.53,8.3,2.62,10.65,3.5,7.21,2.69,11.91,4.9,15.27,7.18.65.38,1.13.72,1.44,1.03l.08.08c1.11.89,2.06,1.84,2.83,2.87l17.14,17.4c5.27,5.19,9.3,10.99,11.97,17.23,1.45,3.37,2.07,6.08,1.98,8.53h0c0,.08,0,.14,0,.2,0,.05,0,.1,0,.16-.11,8.51-6.41,14.7-12.85,20.31Zm-25.48-9.31c-.01-3.47.05-10.43.57-17.45l9.85,6.81c-3.83,3.07-7.33,6.64-10.43,10.64Z"/><path class="uuid-952982db-028c-48e4-a158-f4a695d6c27c" d="m401.95,380.79c-26.52-.18-52.48-1.53-78.99-1.17-4.43,14.15-7.99,28.58-10.65,43.17-.85,4.65-1.47,9.94,1.42,13.69,2.15,2.8,5.73,4.02,9.14,4.91,9.75,2.56,19.9,2.72,29.97,2.92,14.14.28,28.48.53,42.2-2.9,5.43-1.36,11.19-3.68,13.85-8.61,2.05-3.8,1.81-8.38,1.37-12.68-1.35-13.35-4.15-26.56-8.31-39.32Z"/><path class="uuid-212be8d3-83b5-4182-8e94-6e06cea07f13" d="m254.81,377.66c-6.96,4.01-7.66,13.93-3.69,19.48,3.97,5.54,9.81,8.51,15.49,11.35,15.98,7.97,31.96,15.94,47.94,23.91,3.87-11.9,6.98-25.6,7.48-38.99-14.66-8.08-57.8-21.17-67.22-15.74Z"/><path class="uuid-952982db-028c-48e4-a158-f4a695d6c27c" d="m254.65,377.37c-3.03,1.74-5.13,4.74-5.93,8.43-.87,4.05-.05,8.47,2.14,11.53,4.08,5.7,10.21,8.76,15.61,11.45l47.94,23.91.35.17.12-.37c4.46-13.69,7.05-27.21,7.49-39.08v-.21s-.17-.1-.17-.1c-15.24-8.4-58.05-21.21-67.55-15.74Zm59.71,54.55l-47.59-23.73c-5.33-2.66-11.38-5.68-15.37-11.24-2.09-2.92-2.87-7.13-2.03-11,.76-3.51,2.75-6.35,5.61-8,9.1-5.24,51.81,7.51,66.71,15.64-.46,11.66-2.99,24.9-7.33,38.33Z"/><path class="uuid-212be8d3-83b5-4182-8e94-6e06cea07f13" d="m473.78,385.56c-8.5-6.77-53.11-.25-68.81,5.56-1.5,13.32-.47,27.33,1.59,39.67,16.99-5.5,33.98-11,50.96-16.51,6.04-1.95,12.25-4.02,17.01-8.91,4.75-4.89,5.54-14.81-.75-19.81Z"/><path class="uuid-952982db-028c-48e4-a158-f4a695d6c27c" d="m473.99,385.3c-8.58-6.83-52.82-.53-69.14,5.51l-.19.07-.02.2c-1.33,11.8-.78,25.55,1.59,39.77l.06.38,51.33-16.62c5.74-1.86,12.25-3.97,17.14-9,2.63-2.7,4.1-6.95,3.83-11.08-.24-3.77-1.88-7.05-4.61-9.22Zm.3,19.84c-4.77,4.91-11.2,6.99-16.87,8.83l-50.6,16.39c-2.3-13.94-2.83-27.41-1.55-38.99,15.95-5.82,60.08-12.08,68.3-5.54,2.58,2.06,4.13,5.16,4.36,8.74.25,3.95-1.15,8.01-3.65,10.58Z"/><path class="uuid-952982db-028c-48e4-a158-f4a695d6c27c" d="m382.55,283.18c.08-2.26-.22-4.94.09-7.2-.81-.39-1.15-.35-1.98-.72-.38-.16-.75-.33-1.11-.49-1.86-.81-3.68-1.56-5.42-2.26-.44-.18-.86-.34-1.28-.5-6.62-2.57-11.75-4.18-11.75-4.18,0,0-4.74,1.51-10.9,3.95-.68.28-1.4.57-2.12.86-.02,0-.02.02-.03.02-1.23.5-2.69.93-3.97,1.5-.59.24-.99.36-1.58.63-2.31,23.75-8.29,47.7-21.72,66.52l-1.17,48.99s5.19-2.23,11.76-2.94c8.46-.91,14.37,4.54,19.42,4.54,17.65,0,25.23-.69,39.49-7.05,6.53-2.91,14.29,4.06,14.29,4.06l-2.22-50.65c-12.33-16.97-20.66-34.43-19.81-55.08Z"/><path class="uuid-212be8d3-83b5-4182-8e94-6e06cea07f13" d="m344.38,236.85c-2.42.17-4.2,2.84-3.97,5.95.22,3.11,4.34,7.22,6.76,7.05,2.42-.17,2.21-4.56,1.99-7.67-.22-3.11-2.36-5.5-4.78-5.33Z"/><path class="uuid-952982db-028c-48e4-a158-f4a695d6c27c" d="m347.84,238.06c-.97-1.09-2.21-1.63-3.48-1.54-2.59.18-4.52,3.01-4.28,6.31.23,3.15,4.24,7.36,6.94,7.36.06,0,.12,0,.17,0,1.23-.09,2.01-1.1,2.29-3.01.22-1.47.13-3.27,0-5.01-.11-1.58-.7-3.03-1.65-4.09Zm.99,9.01c-.24,1.58-.78,2.38-1.68,2.45-.04,0-.08,0-.12,0-2.16,0-6.07-3.78-6.28-6.74-.21-2.93,1.44-5.44,3.66-5.6,1.11-.07,2.11.4,2.94,1.32.85.95,1.38,2.26,1.48,3.7.12,1.7.21,3.46,0,4.87Z"/><path class="uuid-952982db-028c-48e4-a158-f4a695d6c27c" d="m342.83,238.43c-.27-.04-.49.16-.51.41-.03.25.15.48.41.51.87.1,1.81.47,2.68,1.97-.6-.15-1.34-.08-2.29.2-.24.07-.38.33-.31.58.08.24.33.38.58.31.95-.29,1.65-.31,2.07-.09.49.27.68.91.9,1.65.13.43.26.87.47,1.29.08.16.24.26.42.26.05,0,.1,0,.16-.03.22-.08.35-.31.29-.54-1.28-5.4-3.18-6.33-4.86-6.53Z"/><path class="uuid-212be8d3-83b5-4182-8e94-6e06cea07f13" d="m368.91,270.52l-.45-5.15-.48-5.46h-12.65l-.66,5.64-.55,4.72c-1.21.45-2.53.95-3.93,1.5-.78,1.64-1.22,3.48-1.22,5.42,0,3.82,24.99,3.99,24.99,0,0-1.85-.41-3.61-1.12-5.19-1.4-.54-2.7-1.03-3.93-1.48Z"/><path class="uuid-952982db-028c-48e4-a158-f4a695d6c27c" d="m373.09,271.74l-.13-.05c-1.32-.51-2.57-.98-3.74-1.41l-.94-10.71h-13.25l-1.22,10.45c-1.16.43-2.41.91-3.74,1.44l-.12.05-.06.12c-.83,1.75-1.25,3.62-1.25,5.56,0,1.09,1.43,1.93,4.24,2.51,2.34.48,5.46.75,8.78.75,5.83,0,12.63-.86,12.63-3.26,0-1.85-.39-3.64-1.15-5.33l-.06-.12Zm-11.43,8.05c-6.93,0-12.36-1.14-12.36-2.6,0-1.8.38-3.53,1.13-5.16,1.35-.54,2.62-1.02,3.8-1.46l.19-.07,1.2-10.27h12.05l.9,10.31.02.21.2.07c1.19.44,2.45.91,3.8,1.43.69,1.56,1.04,3.22,1.04,4.93,0,1.48-5.15,2.6-11.97,2.6Z"/><path class="uuid-952982db-028c-48e4-a158-f4a695d6c27c" d="m355.34,259.9l-.33,3.05c2.21,2,6.09,3.31,8.5,3.31s4.37-.54,4.95-.89l-.48-5.47h-12.65Z"/><path class="uuid-952982db-028c-48e4-a158-f4a695d6c27c" d="m361.22,219.81c-9.13,0-16.54,6.92-16.54,15.46s7.41,15.46,16.54,15.46,16.54-6.92,16.54-15.46-7.4-15.46-16.54-15.46Z"/><path class="uuid-212be8d3-83b5-4182-8e94-6e06cea07f13" d="m361.43,223.54c-8.82,0-15.97,9.21-15.97,20.58s7.15,20.58,15.97,20.58,15.97-9.21,15.97-20.58-7.15-20.58-15.97-20.58Z"/><path class="uuid-952982db-028c-48e4-a158-f4a695d6c27c" d="m361.43,223.2c-8.99,0-16.3,9.38-16.3,20.91s7.31,20.91,16.3,20.91,16.3-9.38,16.3-20.91-7.31-20.91-16.3-20.91Zm0,41.15c-8.62,0-15.63-9.08-15.63-20.24s7.01-20.24,15.63-20.24,15.63,9.08,15.63,20.24-7.01,20.24-15.63,20.24Z"/><path class="uuid-212be8d3-83b5-4182-8e94-6e06cea07f13" d="m380.01,236.85c-2.41-.17-4.56,2.21-4.78,5.33s-.43,7.5,1.99,7.67c2.42.17,6.54-3.93,6.76-7.05.22-3.11-1.56-5.78-3.97-5.95Z"/><path class="uuid-952982db-028c-48e4-a158-f4a695d6c27c" d="m380.03,236.52c-1.27-.09-2.51.46-3.48,1.54-.95,1.06-1.54,2.52-1.65,4.09-.12,1.74-.21,3.55,0,5.01.29,1.91,1.06,2.93,2.29,3.01.06,0,.12,0,.17,0,2.7,0,6.72-4.22,6.94-7.36.23-3.29-1.69-6.12-4.28-6.31Zm-2.66,13s-.08,0-.12,0c-.9-.06-1.45-.87-1.68-2.45-.21-1.41-.12-3.17,0-4.87.1-1.43.63-2.74,1.48-3.7.77-.86,1.73-1.33,2.72-1.33.07,0,.15,0,.22,0,2.23.16,3.87,2.67,3.66,5.6-.21,2.96-4.12,6.74-6.28,6.74Z"/><path class="uuid-952982db-028c-48e4-a158-f4a695d6c27c" d="m381.56,238.43c-1.69.19-3.59,1.12-4.87,6.53-.05.23.07.47.29.54.05.02.11.03.16.03.17,0,.34-.1.42-.26.21-.42.34-.87.47-1.29.22-.74.41-1.38.9-1.65.43-.23,1.12-.2,2.07.09.25.08.5-.06.58-.31.07-.24-.07-.5-.31-.58-.95-.29-1.69-.35-2.29-.2.87-1.5,1.81-1.87,2.68-1.97.25-.03.44-.26.41-.51-.03-.25-.24-.45-.51-.41Z"/><path class="uuid-952982db-028c-48e4-a158-f4a695d6c27c" d="m361.11,242.04c-.02-.26-.25-.46-.5-.43-.25.02-.45.24-.43.5l.43,5.62c.03.35.04.83-.18.99-.12.09-.33.09-.51.09-.81-.01-1.62-.24-2.32-.65-.22-.13-.5-.06-.64.16-.13.22-.06.5.17.63.84.5,1.8.77,2.78.78h.06c.31,0,.68-.04,1-.26.68-.48.61-1.42.58-1.82l-.43-5.62Z"/><path class="uuid-952982db-028c-48e4-a158-f4a695d6c27c" d="m363.21,255.16c-3.38.8-7.19-.42-9.49-3.03-.17-.19-.46-.21-.65-.04-.2.17-.21.46-.04.65,2,2.27,5.06,3.58,8.09,3.58.78,0,1.55-.09,2.31-.26.25-.06.4-.31.34-.56-.06-.25-.3-.4-.56-.35Z"/><path class="uuid-952982db-028c-48e4-a158-f4a695d6c27c" d="m361.95,257.59c-1.41.96-3.5.88-4.84-.17-.2-.16-.5-.12-.65.08-.16.2-.12.5.08.65.89.69,2,1.04,3.12,1.04.99,0,1.99-.28,2.81-.84.21-.14.27-.43.12-.64-.14-.21-.43-.27-.64-.12Z"/><path class="uuid-952982db-028c-48e4-a158-f4a695d6c27c" d="m366.81,239.19c-.6,0-1.09.81-1.09,1.8s.49,1.81,1.09,1.81,1.09-.81,1.09-1.81-.49-1.8-1.09-1.8Z"/><path class="uuid-952982db-028c-48e4-a158-f4a695d6c27c" d="m354.32,239.19c-.6,0-1.09.81-1.09,1.8s.49,1.81,1.09,1.81,1.09-.81,1.09-1.81-.49-1.8-1.09-1.8Z"/><path class="uuid-952982db-028c-48e4-a158-f4a695d6c27c" d="m364.94,236.21c-.15.02-.3.23-.34.47-.05.31-.1.63-.15.95-.05.33.11.58.32.48,1.03-.47,2.08-.43,2.94.13.53.34.98.87,1.34,1.54.21.39.68-.14.56-.63-.23-.9-.66-1.64-1.22-2.14-.96-.86-2.2-.99-3.44-.81Z"/><path class="uuid-952982db-028c-48e4-a158-f4a695d6c27c" d="m355.49,236.21c-1.24-.19-2.48-.05-3.44.81-.56.5-.99,1.23-1.22,2.14-.12.49.35,1.02.56.63.35-.67.81-1.2,1.34-1.54.86-.56,1.91-.6,2.94-.13.21.1.37-.15.32-.48-.05-.31-.1-.64-.15-.95-.04-.25-.19-.45-.35-.47Z"/><path class="uuid-952982db-028c-48e4-a158-f4a695d6c27c" d="m370.85,226.7c-1,0,1.24,5.82,1.24,12.11s3.21,8.73,3.21,8.73c0,0,.51-3.99,1.85-10.14,1.19-5.44-5.29-10.71-6.3-10.71Z"/><path class="uuid-952982db-028c-48e4-a158-f4a695d6c27c" d="m349.01,226.7c-.69-.21-3.5,5.82-3.5,12.11s.31,8.73.31,8.73c0,0,2.31-2.44,2.31-8.73s5.28-10.75.89-12.11Z"/><path class="uuid-952982db-028c-48e4-a158-f4a695d6c27c" d="m426.8,405.09c.87-7.09,3.21-13.92,4.41-20.96-5.99.08-11.97.67-17.86,1.74-3.06.56-8.09.66-10.71,2.46-3.31,2.26-5.85,7.25-7.76,10.66-4.47,7.97-7.36,16.71-10.19,25.37-.95,2.92-1.92,6-1.26,9,.85,3.91,4.46,6.83,8.36,7.66,3.91.83,8.03-.18,11.6-1.97,3.36-1.69,6.35-4.04,9.64-5.87,2.41-1.33,4.97-2.37,7.52-3.4,3.56-1.44,7.12-2.88,10.68-4.32-4.47-5.57-5.3-13.29-4.43-20.38Z"/><path class="uuid-952982db-028c-48e4-a158-f4a695d6c27c" d="m327.73,399.5c-1.64-3.55-3.79-8.72-6.91-11.24-2.48-1.99-7.48-2.49-10.49-3.28-5.79-1.53-11.7-2.58-17.66-3.13.64,7.11,2.45,14.1,2.76,21.24.31,7.13-1.11,14.77-6.01,19.97,3.44,1.71,6.87,3.43,10.31,5.14,2.46,1.23,4.93,2.46,7.23,3.97,3.14,2.07,5.93,4.66,9.15,6.6,3.42,2.06,7.45,3.38,11.41,2.86,3.96-.52,7.78-3.16,8.94-6.98.89-2.94.17-6.09-.55-9.07-2.14-8.85-4.35-17.79-8.18-26.08Z"/><path class="uuid-212be8d3-83b5-4182-8e94-6e06cea07f13" d="m421.97,388.41c-12.12,3.61-32.73,20.48-44.46,24.16-2.03.64-3.93.96-5.64,1.23-2.96-.86-5.71-2.39-8.54-3.64-3.37-1.51-7.2-2.61-10.74-1.57-3.73,1.1-6.62,4.43-10.07,5.97-.98.45-2.02.75-3.14.81-2.5.11-4.93-1.04-7.42-.92-2.85.16-5.32,1.96-7.57,3.69-2.53,1.94-5.05,3.92-7.56,5.89-1.07.84-2.19,1.83-2.96,2.97-.57.89-.92,1.85-.82,2.91.22,2.27,2.43,3.81,4.57,4.57,4.99,1.74,10.46.93,15.67.09,1.18-.19,2.38-.37,3.56-.56,3.2-.5,6.4-1.01,9.62-1.53.19-.03.39-.06.58-.09,5.78-.91,11.57-1.88,17.35-2.78.84-.14,1.69-.27,2.53-.39,4.58-.23,10.93-.61,18.27-1.18,30.39-2.41,77.92-8.36,89.3-22.56l-25.65-18.79c-10.09-.17-21.42.09-26.89,1.72Z"/><path class="uuid-952982db-028c-48e4-a158-f4a695d6c27c" d="m385.17,427.71c-7.64.6-14.15.97-18.29,1.19l-.35.05c-.73.11-1.46.22-2.18.34-3.32.52-6.63,1.06-9.95,1.59-2.47.4-4.94.8-7.41,1.19l-1.87.3c-2.78.44-5.55.89-8.32,1.32l-3.56.56c-4.65.75-10.45,1.69-15.51-.08-.96-.34-4.1-1.65-4.35-4.29-.08-.89.17-1.77.77-2.69.8-1.2,2.03-2.22,2.88-2.89,2.06-1.62,4.77-3.76,7.55-5.89,2.47-1.89,4.74-3.47,7.38-3.62,1.21-.06,2.38.19,3.63.45,1.22.26,2.49.52,3.78.47,1.1-.06,2.17-.34,3.26-.84,1.54-.69,2.98-1.73,4.38-2.74,1.77-1.28,3.61-2.61,5.66-3.22,2.9-.86,6.24-.36,10.51,1.55.84.37,1.67.77,2.51,1.16,1.95.93,3.97,1.88,6.07,2.49l.07.02h.07c1.65-.27,3.58-.59,5.69-1.25,5.79-1.82,13.49-6.68,21.66-11.82,8.19-5.16,16.66-10.51,22.8-12.33,4.45-1.33,13.7-1.92,26.78-1.7v-.67c-13.31-.21-22.39.36-26.97,1.73-6.24,1.85-14.74,7.22-22.97,12.41-7.76,4.9-15.79,9.96-21.5,11.75-2.03.63-3.91.96-5.52,1.21-2.02-.6-3.99-1.53-5.9-2.44-.84-.4-1.68-.8-2.52-1.17-4.43-1.98-7.91-2.48-10.97-1.59-2.16.64-4.04,2-5.86,3.32-1.43,1.03-2.78,2.01-4.26,2.67-1.01.47-2,.72-3.02.78-1.2.06-2.43-.2-3.61-.45-1.24-.26-2.51-.53-3.81-.46-3.07.17-5.78,2.24-7.76,3.75-2.78,2.13-5.5,4.27-7.56,5.89-.89.7-2.17,1.77-3.03,3.05-.68,1.05-.97,2.07-.88,3.12.2,2.04,1.99,3.85,4.79,4.85,2.22.77,4.55,1.04,6.87,1.04,3.14,0,6.24-.5,8.96-.94l3.56-.56c2.77-.43,5.54-.87,8.33-1.32l1.87-.3c2.47-.39,4.94-.79,7.41-1.19,3.31-.54,6.63-1.07,9.95-1.59.72-.12,1.45-.23,2.17-.34l.32-.05c4.12-.21,10.63-.58,18.28-1.18,34.76-2.76,78.51-8.93,89.53-22.68l-.52-.42c-11.45,14.28-60.72,20.18-89.06,22.43Z"/><path class="uuid-212be8d3-83b5-4182-8e94-6e06cea07f13" d="m401.2,434.88c-1.96-2.02-4.1-4.12-6.97-4.78-2.51-.58-5.22.06-7.73-.5-5.05-1.13-7.51-6.47-12.12-8.65-3.4-1.61-7.51-1.28-11.25-.5-3.15.65-6.28,1.54-9.48,1.8-1.68-.55-3.51-1.19-5.43-2.13-11.22-5.53-28.83-24.87-40.46-30.4-4.22-2.01-12.48-3.88-20.92-5.41l-36,11.68c10.86,18.85,80.97,36.08,104.77,41.45,6.75,2.21,13.49,4.49,20.23,6.73,4.33,1.44,8.67,2.89,13,4.33,5.15,1.71,10.56,3.45,15.98,2.74,2.34-.31,4.89-1.33,5.56-3.39.72-2.2-1.02-4.38-2.67-6.12-2.15-2.28-4.33-4.56-6.52-6.82Z"/><path class="uuid-952982db-028c-48e4-a158-f4a695d6c27c" d="m401.44,434.65c-2.13-2.19-4.28-4.22-7.14-4.87-1.31-.3-2.66-.28-3.97-.27-1.26.01-2.56.03-3.77-.24-2.74-.61-4.68-2.5-6.73-4.5-1.59-1.55-3.24-3.15-5.31-4.13-2.91-1.38-6.55-1.54-11.46-.53-.86.18-1.73.37-2.59.57-2.22.5-4.51,1.03-6.79,1.21-1.57-.52-3.41-1.15-5.32-2.1-5.46-2.69-12.63-8.84-19.57-14.78-7.34-6.28-14.92-12.78-20.89-15.63-3.68-1.75-10.74-3.58-21-5.44l-.12.65c10.2,1.85,17.21,3.66,20.83,5.38,5.89,2.81,13.44,9.28,20.74,15.53,7.29,6.25,14.18,12.14,19.71,14.87,1.98.98,3.87,1.62,5.48,2.15l.06.02h.07c2.35-.19,4.69-.72,6.94-1.24.86-.19,1.72-.39,2.58-.57,4.76-.99,8.27-.83,11.04.48,1.97.93,3.58,2.5,5.13,4.01,2.03,1.98,4.13,4.02,7.05,4.67,1.29.29,2.63.27,3.93.25,1.26-.02,2.58-.03,3.81.25,2.68.61,4.75,2.57,6.81,4.69,2.27,2.34,4.46,4.64,6.52,6.82,1.65,1.75,3.24,3.8,2.59,5.79-.78,2.4-4.25,3.03-5.29,3.17-5.47.71-10.98-1.12-15.84-2.73l-13-4.32c-2.3-.76-4.59-1.53-6.88-2.3-4.45-1.49-8.89-2.97-13.38-4.44-21.78-4.91-93.68-22.42-104.55-41.29l-.58.33c10.71,18.59,76.99,35.29,104.95,41.6,4.46,1.46,8.9,2.95,13.35,4.43,2.29.77,4.59,1.53,6.88,2.3l13,4.32c4.16,1.39,8.8,2.92,13.53,2.92.87,0,1.73-.05,2.6-.16,3.04-.4,5.23-1.75,5.84-3.62.76-2.32-.96-4.56-2.74-6.45-2.05-2.18-4.25-4.48-6.52-6.82Z"/><path class="uuid-d5cd13d7-ee8e-4281-b76f-6eed96c89725" d="m374.16,376.35l-1.09.46c-5.23,2.21-10.65,4.49-15.94,3.12-3.11-.81-5.8-2.84-8.29-4.86l-.57-.46c-2.38-1.93-4.83-3.92-7.74-5.06-2.83-1.1-6.89-1.44-9.83.9-.19.15-.22.43-.07.62.15.19.43.23.62.07,2.64-2.11,6.36-1.78,8.95-.76,2.78,1.08,5.17,3.03,7.5,4.92l.57.46c2.56,2.08,5.34,4.17,8.62,5.03,1.2.31,2.39.45,3.59.45,4.37,0,8.7-1.83,12.91-3.61l1.08-.46c4.74-1.99,11.65-4.25,16.9-1.07.21.12.48.06.61-.15.13-.21.06-.48-.15-.61-5.59-3.4-12.78-1.06-17.71,1.01Z"/><path class="uuid-952982db-028c-48e4-a158-f4a695d6c27c" d="m300.31,324.83c-.24-.08-.51.05-.59.29-.08.24.05.51.29.59,14.28,4.82,27.46,16.85,34.38,31.39.04.09.11.16.19.2.13.07.29.08.43.02.23-.11.33-.39.22-.62-7.03-14.76-20.41-26.97-34.92-31.87Z"/><path class="uuid-952982db-028c-48e4-a158-f4a695d6c27c" d="m423.62,325.3c-14.13,5.95-26.57,19.11-32.49,34.34-.09.24.02.51.26.6.15.05.3.03.42-.05.08-.05.14-.12.18-.22,5.84-15.01,18.09-27.97,31.99-33.83.24-.1.35-.37.25-.61-.1-.24-.37-.35-.61-.25Z"/><path class="uuid-952982db-028c-48e4-a158-f4a695d6c27c" d="m372.86,272l6.53,27.32,15.53,38.2,7.45.73-1.52-11.84,3.75,6.38,31.19-16.55c-25.54-40.47-62.93-44.24-62.93-44.24Z"/><path class="uuid-952982db-028c-48e4-a158-f4a695d6c27c" d="m286.78,316.24l31.19,16.55,2.52-4.88.3,13.39,6.86-3.79,15.53-38.2,6.53-27.32s-37.39,3.77-62.93,44.24Z"/><path class="uuid-952982db-028c-48e4-a158-f4a695d6c27c" d="m365.68,223.13c-6.38-1.59-12.83.19-17.72,4.59.23,3.06,2.72,5.55,5.5,6.86,2.78,1.3,5.89,1.69,8.88,2.38,2.99.69,6.06,1.8,8.06,4.14,1.43,1.68,2.51,4.09,4.69,4.43.64-2.95.92-6.16.91-9.18,0-3.02-.73-6.13-2.57-8.53-1.87-2.44-4.76-3.95-7.75-4.69Z"/><g class="uuid-5c81099b-0a18-47ef-8f55-e9d52f184ca7"><rect class="uuid-932aeda4-b08f-4d6f-b2ac-0ac0ccb167f4" x="381.18" y="393.69" width=".14" height="1.11"/><rect class="uuid-783dca7e-82c6-469f-a62f-716c9661905b" x="381.32" y="393.69" width=".14" height="1.11"/><rect class="uuid-c7648953-1502-4e3b-b982-e063b2ade7fd" x="381.46" y="393.69" width=".14" height="1.11"/><rect class="uuid-08f198e2-c901-4116-9282-6e4538c85e5b" x="381.6" y="393.69" width=".14" height="1.11"/><rect class="uuid-6aa73d77-60d7-49b4-8a41-61e1daf90d89" x="381.74" y="393.69" width=".14" height="1.11"/><rect class="uuid-83de69f5-b862-4f21-a6bc-e978843d5216" x="381.87" y="393.69" width=".14" height="1.11"/><rect class="uuid-83de69f5-b862-4f21-a6bc-e978843d5216" x="382.01" y="393.69" width=".14" height="1.11"/><rect class="uuid-559598fa-066e-4bb3-988a-61e3b327e18f" x="382.15" y="393.69" width=".14" height="1.11"/><rect class="uuid-1d2f82eb-5168-4a46-ba61-a086e5781670" x="382.29" y="393.69" width=".14" height="1.11"/><rect class="uuid-64457cb9-288e-4838-96d0-f77da3005da1" x="382.43" y="393.69" width=".14" height="1.11"/><rect class="uuid-28b33ed5-7824-4dbd-bd13-477f388ea09a" x="382.57" y="393.69" width=".14" height="1.11"/><rect class="uuid-d865ef75-6edc-407f-a646-f2deb5cf9376" x="382.71" y="393.69" width=".14" height="1.11"/><rect class="uuid-35e98ee5-5f9b-432d-adb1-faf1674ae574" x="382.85" y="393.69" width=".14" height="1.11"/><rect class="uuid-1f802f93-af70-4eb4-960f-b33cf3e15490" x="382.98" y="393.69" width=".14" height="1.11"/><rect class="uuid-3589f0ab-655a-44d4-947a-470b99fddce0" x="383.12" y="393.69" width=".14" height="1.11"/><rect class="uuid-ee1d3273-6714-4b44-90e5-7b2763a049d1" x="383.26" y="393.69" width=".14" height="1.11"/><rect class="uuid-f03cce75-f305-4f49-9e52-6e00e494f36e" x="383.4" y="393.69" width=".14" height="1.11"/><rect class="uuid-dbbb3aaa-9ee7-4e2e-b8ec-caf2ccd6565c" x="383.54" y="393.69" width=".14" height="1.11"/><rect class="uuid-e4511d80-9137-4c27-999b-f1f01a3e4ade" x="383.68" y="393.69" width=".14" height="1.11"/><rect class="uuid-496fb9e6-b681-4314-b8fb-d8545751c110" x="383.82" y="393.69" width=".14" height="1.11"/><rect class="uuid-d5f6fc69-d240-45f9-95c4-3c3b6c83b9b3" x="383.96" y="393.69" width=".14" height="1.11"/><rect class="uuid-d41fcf55-2e73-4413-b093-84a7bf06c7d9" x="384.09" y="393.69" width=".14" height="1.11"/><rect class="uuid-c2e1b1a5-9a1a-420c-a0f1-3c48d115f809" x="384.23" y="393.69" width=".14" height="1.11"/><rect class="uuid-99daa128-9e69-43f5-bd88-4bce73835e1a" x="384.37" y="393.69" width=".14" height="1.11"/><rect class="uuid-22366015-0c80-4248-93ee-e27221f0d254" x="384.51" y="393.69" width=".14" height="1.11"/><rect class="uuid-2860d69f-4e5c-4bf9-9a9d-e4697ae4cd65" x="384.65" y="393.69" width=".14" height="1.11"/><rect class="uuid-dbc7442d-be1d-4dca-85e2-dcbadfdde468" x="384.79" y="393.69" width=".14" height="1.11"/><rect class="uuid-e4400b70-dd2a-4f6b-a32a-72b1d386256b" x="384.93" y="393.69" width=".14" height="1.11"/><rect class="uuid-f6167661-ef13-43c3-812d-6f2af20eb67a" x="385.07" y="393.69" width=".14" height="1.11"/><rect class="uuid-a658918f-3f9f-44f1-bc6e-27054d02f7d3" x="385.2" y="393.69" width=".14" height="1.11"/><rect class="uuid-a871513d-fb54-48ac-ae70-cb1ac1831584" x="385.34" y="393.69" width=".14" height="1.11"/><rect class="uuid-ee2b0338-7ec1-40b5-a6f1-3b9f8341618c" x="385.48" y="393.69" width=".14" height="1.11"/><rect class="uuid-f98b2446-6cff-4da7-91a7-473ebd54f25f" x="385.62" y="393.69" width=".14" height="1.11"/><rect class="uuid-7015348f-2c28-4046-972a-e8a82b9e5cee" x="385.76" y="393.69" width=".14" height="1.11"/><rect class="uuid-f4d38570-eb2b-40ee-b5ef-9d458b381dc7" x="385.9" y="393.69" width=".14" height="1.11"/><rect class="uuid-cc61dda1-a940-4399-81a0-6b495dade9fa" x="386.04" y="393.69" width=".14" height="1.11"/><rect class="uuid-ec4a3ac0-e8af-4072-8966-c5d1540c98f3" x="386.18" y="393.69" width=".14" height="1.11"/><rect class="uuid-2e19e4de-352b-4f36-99e5-39f7b2b0995a" x="386.31" y="393.69" width=".14" height="1.11"/><rect class="uuid-5e8967bb-2473-4e12-bfc6-af74e91073dd" x="386.45" y="393.69" width=".14" height="1.11"/><rect class="uuid-0c728650-b1be-4211-9ca9-07b4db44237c" x="386.59" y="393.69" width=".14" height="1.11"/><rect class="uuid-0f68e898-3bf9-48a9-bd6a-21db58b96b82" x="386.73" y="393.69" width=".14" height="1.11"/><rect class="uuid-fbcc38ce-b933-4085-bb1b-a851554f5237" x="386.87" y="393.69" width=".14" height="1.11"/><rect class="uuid-4a7311dd-e422-4da0-a8cb-59c3fd6e12d1" x="387.01" y="393.69" width=".14" height="1.11"/><rect class="uuid-27585876-f1f3-42b0-aa6e-99e8836e3e36" x="387.15" y="393.69" width=".14" height="1.11"/><rect class="uuid-484d203e-e74d-40ad-a450-167f699d5b08" x="387.29" y="393.69" width=".14" height="1.11"/><rect class="uuid-97d246d0-4792-4911-8b7e-5eae9fecfdf8" x="387.42" y="393.69" width=".14" height="1.11"/><rect class="uuid-ba96a3c2-c801-4541-9024-8ad4ce458ecf" x="387.56" y="393.69" width=".14" height="1.11"/><rect class="uuid-d275c226-79d4-4dfd-931b-dc6ed0f802de" x="387.7" y="393.69" width=".14" height="1.11"/><rect class="uuid-1f4f8347-1e55-4ce6-bf17-3de01d91d2a9" x="387.84" y="393.69" width=".14" height="1.11"/><rect class="uuid-68866733-d611-4b86-a11f-4923d5d9d132" x="387.98" y="393.69" width=".14" height="1.11"/><rect class="uuid-578f5beb-5b66-4bfb-847a-42f50f2b62d2" x="388.12" y="393.69" width=".14" height="1.11"/><rect class="uuid-c13c8428-d267-454f-801a-2a75faacc60f" x="388.26" y="393.69" width=".14" height="1.11"/><rect class="uuid-ecbf5fb9-abe1-4661-b171-042865dab4c9" x="388.4" y="393.69" width=".14" height="1.11"/><rect class="uuid-7f7dc584-fc62-4bad-a306-d5ff4bfd68b0" x="388.53" y="393.69" width=".14" height="1.11"/><rect class="uuid-1b60c121-3764-4a6f-ad84-994b1498502d" x="388.67" y="393.69" width=".14" height="1.11"/><rect class="uuid-5932bd59-a7fd-4fb4-a342-d7fc3e70169e" x="388.81" y="393.69" width=".14" height="1.11"/><rect class="uuid-fec2a2eb-fb2b-4d4f-bc71-6e58d5ec21e5" x="388.95" y="393.69" width=".14" height="1.11"/><rect class="uuid-a4d7b282-f644-4c94-bfe6-6b4b5e2d61fb" x="389.09" y="393.69" width=".14" height="1.11"/><rect class="uuid-aca9e715-99ac-497f-8e75-ea7ac2b11181" x="389.23" y="393.69" width=".14" height="1.11"/><rect class="uuid-361443c2-0900-4291-87e0-b9f563cc5f55" x="389.37" y="393.69" width=".14" height="1.11"/><rect class="uuid-361443c2-0900-4291-87e0-b9f563cc5f55" x="389.51" y="393.69" width=".03" height="1.11"/></g><g class="uuid-09f699bc-bcef-4e95-8b7d-095645c8f581"><rect class="uuid-932aeda4-b08f-4d6f-b2ac-0ac0ccb167f4" x="371.43" y="393.69" width=".14" height="1.11"/><rect class="uuid-783dca7e-82c6-469f-a62f-716c9661905b" x="371.57" y="393.69" width=".14" height="1.11"/><rect class="uuid-c7648953-1502-4e3b-b982-e063b2ade7fd" x="371.71" y="393.69" width=".14" height="1.11"/><rect class="uuid-08f198e2-c901-4116-9282-6e4538c85e5b" x="371.84" y="393.69" width=".14" height="1.11"/><rect class="uuid-6aa73d77-60d7-49b4-8a41-61e1daf90d89" x="371.98" y="393.69" width=".14" height="1.11"/><rect class="uuid-83de69f5-b862-4f21-a6bc-e978843d5216" x="372.12" y="393.69" width=".14" height="1.11"/><rect class="uuid-83de69f5-b862-4f21-a6bc-e978843d5216" x="372.26" y="393.69" width=".14" height="1.11"/><rect class="uuid-559598fa-066e-4bb3-988a-61e3b327e18f" x="372.4" y="393.69" width=".14" height="1.11"/><rect class="uuid-1d2f82eb-5168-4a46-ba61-a086e5781670" x="372.54" y="393.69" width=".14" height="1.11"/><rect class="uuid-64457cb9-288e-4838-96d0-f77da3005da1" x="372.67" y="393.69" width=".14" height="1.11"/><rect class="uuid-28b33ed5-7824-4dbd-bd13-477f388ea09a" x="372.81" y="393.69" width=".14" height="1.11"/><rect class="uuid-d865ef75-6edc-407f-a646-f2deb5cf9376" x="372.95" y="393.69" width=".14" height="1.11"/><rect class="uuid-35e98ee5-5f9b-432d-adb1-faf1674ae574" x="373.09" y="393.69" width=".14" height="1.11"/><rect class="uuid-1f802f93-af70-4eb4-960f-b33cf3e15490" x="373.23" y="393.69" width=".14" height="1.11"/><rect class="uuid-3589f0ab-655a-44d4-947a-470b99fddce0" x="373.37" y="393.69" width=".14" height="1.11"/><rect class="uuid-ee1d3273-6714-4b44-90e5-7b2763a049d1" x="373.51" y="393.69" width=".14" height="1.11"/><rect class="uuid-f03cce75-f305-4f49-9e52-6e00e494f36e" x="373.64" y="393.69" width=".14" height="1.11"/><rect class="uuid-dbbb3aaa-9ee7-4e2e-b8ec-caf2ccd6565c" x="373.78" y="393.69" width=".14" height="1.11"/><rect class="uuid-e4511d80-9137-4c27-999b-f1f01a3e4ade" x="373.92" y="393.69" width=".14" height="1.11"/><rect class="uuid-496fb9e6-b681-4314-b8fb-d8545751c110" x="374.06" y="393.69" width=".14" height="1.11"/><rect class="uuid-d5f6fc69-d240-45f9-95c4-3c3b6c83b9b3" x="374.2" y="393.69" width=".14" height="1.11"/><rect class="uuid-d41fcf55-2e73-4413-b093-84a7bf06c7d9" x="374.33" y="393.69" width=".14" height="1.11"/><rect class="uuid-c2e1b1a5-9a1a-420c-a0f1-3c48d115f809" x="374.47" y="393.69" width=".14" height="1.11"/><rect class="uuid-99daa128-9e69-43f5-bd88-4bce73835e1a" x="374.61" y="393.69" width=".14" height="1.11"/><rect class="uuid-22366015-0c80-4248-93ee-e27221f0d254" x="374.75" y="393.69" width=".14" height="1.11"/><rect class="uuid-2860d69f-4e5c-4bf9-9a9d-e4697ae4cd65" x="374.89" y="393.69" width=".14" height="1.11"/><rect class="uuid-dbc7442d-be1d-4dca-85e2-dcbadfdde468" x="375.03" y="393.69" width=".14" height="1.11"/><rect class="uuid-e4400b70-dd2a-4f6b-a32a-72b1d386256b" x="375.17" y="393.69" width=".14" height="1.11"/><rect class="uuid-f6167661-ef13-43c3-812d-6f2af20eb67a" x="375.3" y="393.69" width=".14" height="1.11"/><rect class="uuid-a658918f-3f9f-44f1-bc6e-27054d02f7d3" x="375.44" y="393.69" width=".14" height="1.11"/><rect class="uuid-a871513d-fb54-48ac-ae70-cb1ac1831584" x="375.58" y="393.69" width=".14" height="1.11"/><rect class="uuid-ee2b0338-7ec1-40b5-a6f1-3b9f8341618c" x="375.72" y="393.69" width=".14" height="1.11"/><rect class="uuid-f98b2446-6cff-4da7-91a7-473ebd54f25f" x="375.86" y="393.69" width=".14" height="1.11"/><rect class="uuid-7015348f-2c28-4046-972a-e8a82b9e5cee" x="375.99" y="393.69" width=".14" height="1.11"/><rect class="uuid-f4d38570-eb2b-40ee-b5ef-9d458b381dc7" x="376.14" y="393.69" width=".14" height="1.11"/><rect class="uuid-cc61dda1-a940-4399-81a0-6b495dade9fa" x="376.27" y="393.69" width=".14" height="1.11"/><rect class="uuid-ec4a3ac0-e8af-4072-8966-c5d1540c98f3" x="376.41" y="393.69" width=".14" height="1.11"/><rect class="uuid-2e19e4de-352b-4f36-99e5-39f7b2b0995a" x="376.55" y="393.69" width=".14" height="1.11"/><rect class="uuid-5e8967bb-2473-4e12-bfc6-af74e91073dd" x="376.69" y="393.69" width=".14" height="1.11"/><rect class="uuid-0c728650-b1be-4211-9ca9-07b4db44237c" x="376.83" y="393.69" width=".14" height="1.11"/><rect class="uuid-0f68e898-3bf9-48a9-bd6a-21db58b96b82" x="376.96" y="393.69" width=".14" height="1.11"/><rect class="uuid-fbcc38ce-b933-4085-bb1b-a851554f5237" x="377.1" y="393.69" width=".14" height="1.11"/><rect class="uuid-4a7311dd-e422-4da0-a8cb-59c3fd6e12d1" x="377.24" y="393.69" width=".14" height="1.11"/><rect class="uuid-27585876-f1f3-42b0-aa6e-99e8836e3e36" x="377.38" y="393.69" width=".14" height="1.11"/><rect class="uuid-484d203e-e74d-40ad-a450-167f699d5b08" x="377.52" y="393.69" width=".14" height="1.11"/><rect class="uuid-97d246d0-4792-4911-8b7e-5eae9fecfdf8" x="377.66" y="393.69" width=".14" height="1.11"/><rect class="uuid-ba96a3c2-c801-4541-9024-8ad4ce458ecf" x="377.79" y="393.69" width=".14" height="1.11"/><rect class="uuid-d275c226-79d4-4dfd-931b-dc6ed0f802de" x="377.93" y="393.69" width=".14" height="1.11"/><rect class="uuid-1f4f8347-1e55-4ce6-bf17-3de01d91d2a9" x="378.07" y="393.69" width=".14" height="1.11"/><rect class="uuid-68866733-d611-4b86-a11f-4923d5d9d132" x="378.21" y="393.69" width=".14" height="1.11"/><rect class="uuid-578f5beb-5b66-4bfb-847a-42f50f2b62d2" x="378.35" y="393.69" width=".14" height="1.11"/><rect class="uuid-c13c8428-d267-454f-801a-2a75faacc60f" x="378.49" y="393.69" width=".14" height="1.11"/><rect class="uuid-ecbf5fb9-abe1-4661-b171-042865dab4c9" x="378.63" y="393.69" width=".14" height="1.11"/><rect class="uuid-7f7dc584-fc62-4bad-a306-d5ff4bfd68b0" x="378.76" y="393.69" width=".14" height="1.11"/><rect class="uuid-1b60c121-3764-4a6f-ad84-994b1498502d" x="378.9" y="393.69" width=".14" height="1.11"/><rect class="uuid-5932bd59-a7fd-4fb4-a342-d7fc3e70169e" x="379.04" y="393.69" width=".14" height="1.11"/><rect class="uuid-fec2a2eb-fb2b-4d4f-bc71-6e58d5ec21e5" x="379.18" y="393.69" width=".14" height="1.11"/><rect class="uuid-a4d7b282-f644-4c94-bfe6-6b4b5e2d61fb" x="379.32" y="393.69" width=".14" height="1.11"/><rect class="uuid-aca9e715-99ac-497f-8e75-ea7ac2b11181" x="379.45" y="393.69" width=".14" height="1.11"/><rect class="uuid-361443c2-0900-4291-87e0-b9f563cc5f55" x="379.59" y="393.69" width=".14" height="1.11"/><rect class="uuid-361443c2-0900-4291-87e0-b9f563cc5f55" x="379.73" y="393.69" width=".03" height="1.11"/></g><g class="uuid-0a00b8d4-bde4-4736-af3f-5d301c459296"><rect class="uuid-932aeda4-b08f-4d6f-b2ac-0ac0ccb167f4" x="361.68" y="393.69" width=".14" height="1.11"/><rect class="uuid-783dca7e-82c6-469f-a62f-716c9661905b" x="361.81" y="393.69" width=".14" height="1.11"/><rect class="uuid-c7648953-1502-4e3b-b982-e063b2ade7fd" x="361.95" y="393.69" width=".14" height="1.11"/><rect class="uuid-08f198e2-c901-4116-9282-6e4538c85e5b" x="362.09" y="393.69" width=".14" height="1.11"/><rect class="uuid-6aa73d77-60d7-49b4-8a41-61e1daf90d89" x="362.23" y="393.69" width=".14" height="1.11"/><rect class="uuid-83de69f5-b862-4f21-a6bc-e978843d5216" x="362.37" y="393.69" width=".14" height="1.11"/><rect class="uuid-83de69f5-b862-4f21-a6bc-e978843d5216" x="362.51" y="393.69" width=".14" height="1.11"/><rect class="uuid-559598fa-066e-4bb3-988a-61e3b327e18f" x="362.64" y="393.69" width=".14" height="1.11"/><rect class="uuid-1d2f82eb-5168-4a46-ba61-a086e5781670" x="362.78" y="393.69" width=".14" height="1.11"/><rect class="uuid-64457cb9-288e-4838-96d0-f77da3005da1" x="362.92" y="393.69" width=".14" height="1.11"/><rect class="uuid-28b33ed5-7824-4dbd-bd13-477f388ea09a" x="363.06" y="393.69" width=".14" height="1.11"/><rect class="uuid-d865ef75-6edc-407f-a646-f2deb5cf9376" x="363.19" y="393.69" width=".14" height="1.11"/><rect class="uuid-35e98ee5-5f9b-432d-adb1-faf1674ae574" x="363.33" y="393.69" width=".14" height="1.11"/><rect class="uuid-1f802f93-af70-4eb4-960f-b33cf3e15490" x="363.47" y="393.69" width=".14" height="1.11"/><rect class="uuid-3589f0ab-655a-44d4-947a-470b99fddce0" x="363.61" y="393.69" width=".14" height="1.11"/><rect class="uuid-ee1d3273-6714-4b44-90e5-7b2763a049d1" x="363.75" y="393.69" width=".14" height="1.11"/><rect class="uuid-f03cce75-f305-4f49-9e52-6e00e494f36e" x="363.89" y="393.69" width=".14" height="1.11"/><rect class="uuid-dbbb3aaa-9ee7-4e2e-b8ec-caf2ccd6565c" x="364.02" y="393.69" width=".14" height="1.11"/><rect class="uuid-e4511d80-9137-4c27-999b-f1f01a3e4ade" x="364.16" y="393.69" width=".14" height="1.11"/><rect class="uuid-496fb9e6-b681-4314-b8fb-d8545751c110" x="364.3" y="393.69" width=".14" height="1.11"/><rect class="uuid-d5f6fc69-d240-45f9-95c4-3c3b6c83b9b3" x="364.44" y="393.69" width=".14" height="1.11"/><rect class="uuid-d41fcf55-2e73-4413-b093-84a7bf06c7d9" x="364.57" y="393.69" width=".14" height="1.11"/><rect class="uuid-c2e1b1a5-9a1a-420c-a0f1-3c48d115f809" x="364.71" y="393.69" width=".14" height="1.11"/><rect class="uuid-99daa128-9e69-43f5-bd88-4bce73835e1a" x="364.85" y="393.69" width=".14" height="1.11"/><rect class="uuid-22366015-0c80-4248-93ee-e27221f0d254" x="364.99" y="393.69" width=".14" height="1.11"/><rect class="uuid-2860d69f-4e5c-4bf9-9a9d-e4697ae4cd65" x="365.13" y="393.69" width=".14" height="1.11"/><rect class="uuid-dbc7442d-be1d-4dca-85e2-dcbadfdde468" x="365.27" y="393.69" width=".14" height="1.11"/><rect class="uuid-e4400b70-dd2a-4f6b-a32a-72b1d386256b" x="365.4" y="393.69" width=".14" height="1.11"/><rect class="uuid-f6167661-ef13-43c3-812d-6f2af20eb67a" x="365.54" y="393.69" width=".14" height="1.11"/><rect class="uuid-a658918f-3f9f-44f1-bc6e-27054d02f7d3" x="365.68" y="393.69" width=".14" height="1.11"/><rect class="uuid-a871513d-fb54-48ac-ae70-cb1ac1831584" x="365.82" y="393.69" width=".14" height="1.11"/><rect class="uuid-ee2b0338-7ec1-40b5-a6f1-3b9f8341618c" x="365.95" y="393.69" width=".14" height="1.11"/><rect class="uuid-f98b2446-6cff-4da7-91a7-473ebd54f25f" x="366.09" y="393.69" width=".14" height="1.11"/><rect class="uuid-7015348f-2c28-4046-972a-e8a82b9e5cee" x="366.23" y="393.69" width=".14" height="1.11"/><rect class="uuid-f4d38570-eb2b-40ee-b5ef-9d458b381dc7" x="366.37" y="393.69" width=".14" height="1.11"/><rect class="uuid-cc61dda1-a940-4399-81a0-6b495dade9fa" x="366.51" y="393.69" width=".14" height="1.11"/><rect class="uuid-ec4a3ac0-e8af-4072-8966-c5d1540c98f3" x="366.65" y="393.69" width=".14" height="1.11"/><rect class="uuid-2e19e4de-352b-4f36-99e5-39f7b2b0995a" x="366.78" y="393.69" width=".14" height="1.11"/><rect class="uuid-5e8967bb-2473-4e12-bfc6-af74e91073dd" x="366.92" y="393.69" width=".14" height="1.11"/><rect class="uuid-0c728650-b1be-4211-9ca9-07b4db44237c" x="367.06" y="393.69" width=".14" height="1.11"/><rect class="uuid-0f68e898-3bf9-48a9-bd6a-21db58b96b82" x="367.2" y="393.69" width=".14" height="1.11"/><rect class="uuid-fbcc38ce-b933-4085-bb1b-a851554f5237" x="367.33" y="393.69" width=".14" height="1.11"/><rect class="uuid-4a7311dd-e422-4da0-a8cb-59c3fd6e12d1" x="367.47" y="393.69" width=".14" height="1.11"/><rect class="uuid-27585876-f1f3-42b0-aa6e-99e8836e3e36" x="367.61" y="393.69" width=".14" height="1.11"/><rect class="uuid-484d203e-e74d-40ad-a450-167f699d5b08" x="367.75" y="393.69" width=".14" height="1.11"/><rect class="uuid-97d246d0-4792-4911-8b7e-5eae9fecfdf8" x="367.89" y="393.69" width=".14" height="1.11"/><rect class="uuid-ba96a3c2-c801-4541-9024-8ad4ce458ecf" x="368.03" y="393.69" width=".14" height="1.11"/><rect class="uuid-d275c226-79d4-4dfd-931b-dc6ed0f802de" x="368.16" y="393.69" width=".14" height="1.11"/><rect class="uuid-1f4f8347-1e55-4ce6-bf17-3de01d91d2a9" x="368.3" y="393.69" width=".14" height="1.11"/><rect class="uuid-68866733-d611-4b86-a11f-4923d5d9d132" x="368.44" y="393.69" width=".14" height="1.11"/><rect class="uuid-578f5beb-5b66-4bfb-847a-42f50f2b62d2" x="368.58" y="393.69" width=".14" height="1.11"/><rect class="uuid-c13c8428-d267-454f-801a-2a75faacc60f" x="368.72" y="393.69" width=".14" height="1.11"/><rect class="uuid-ecbf5fb9-abe1-4661-b171-042865dab4c9" x="368.86" y="393.69" width=".14" height="1.11"/><rect class="uuid-7f7dc584-fc62-4bad-a306-d5ff4bfd68b0" x="368.99" y="393.69" width=".14" height="1.11"/><rect class="uuid-1b60c121-3764-4a6f-ad84-994b1498502d" x="369.13" y="393.69" width=".14" height="1.11"/><rect class="uuid-5932bd59-a7fd-4fb4-a342-d7fc3e70169e" x="369.27" y="393.69" width=".14" height="1.11"/><rect class="uuid-fec2a2eb-fb2b-4d4f-bc71-6e58d5ec21e5" x="369.41" y="393.69" width=".14" height="1.11"/><rect class="uuid-a4d7b282-f644-4c94-bfe6-6b4b5e2d61fb" x="369.54" y="393.69" width=".14" height="1.11"/><rect class="uuid-aca9e715-99ac-497f-8e75-ea7ac2b11181" x="369.68" y="393.69" width=".14" height="1.11"/><rect class="uuid-361443c2-0900-4291-87e0-b9f563cc5f55" x="369.82" y="393.69" width=".14" height="1.11"/><rect class="uuid-361443c2-0900-4291-87e0-b9f563cc5f55" x="369.96" y="393.69" width=".03" height="1.11"/></g><g class="uuid-1a7efd0a-c58a-4ef6-a1b7-57ca81d80549"><rect class="uuid-932aeda4-b08f-4d6f-b2ac-0ac0ccb167f4" x="351.92" y="393.69" width=".14" height="1.11"/><rect class="uuid-783dca7e-82c6-469f-a62f-716c9661905b" x="352.06" y="393.69" width=".14" height="1.11"/><rect class="uuid-c7648953-1502-4e3b-b982-e063b2ade7fd" x="352.2" y="393.69" width=".14" height="1.11"/><rect class="uuid-08f198e2-c901-4116-9282-6e4538c85e5b" x="352.34" y="393.69" width=".14" height="1.11"/><rect class="uuid-6aa73d77-60d7-49b4-8a41-61e1daf90d89" x="352.47" y="393.69" width=".14" height="1.11"/><rect class="uuid-83de69f5-b862-4f21-a6bc-e978843d5216" x="352.61" y="393.69" width=".14" height="1.11"/><rect class="uuid-83de69f5-b862-4f21-a6bc-e978843d5216" x="352.75" y="393.69" width=".14" height="1.11"/><rect class="uuid-559598fa-066e-4bb3-988a-61e3b327e18f" x="352.89" y="393.69" width=".14" height="1.11"/><rect class="uuid-1d2f82eb-5168-4a46-ba61-a086e5781670" x="353.02" y="393.69" width=".14" height="1.11"/><rect class="uuid-64457cb9-288e-4838-96d0-f77da3005da1" x="353.16" y="393.69" width=".14" height="1.11"/><rect class="uuid-28b33ed5-7824-4dbd-bd13-477f388ea09a" x="353.3" y="393.69" width=".14" height="1.11"/><rect class="uuid-d865ef75-6edc-407f-a646-f2deb5cf9376" x="353.44" y="393.69" width=".14" height="1.11"/><rect class="uuid-35e98ee5-5f9b-432d-adb1-faf1674ae574" x="353.58" y="393.69" width=".14" height="1.11"/><rect class="uuid-1f802f93-af70-4eb4-960f-b33cf3e15490" x="353.71" y="393.69" width=".14" height="1.11"/><rect class="uuid-3589f0ab-655a-44d4-947a-470b99fddce0" x="353.85" y="393.69" width=".14" height="1.11"/><rect class="uuid-ee1d3273-6714-4b44-90e5-7b2763a049d1" x="353.99" y="393.69" width=".14" height="1.11"/><rect class="uuid-f03cce75-f305-4f49-9e52-6e00e494f36e" x="354.13" y="393.69" width=".14" height="1.11"/><rect class="uuid-dbbb3aaa-9ee7-4e2e-b8ec-caf2ccd6565c" x="354.26" y="393.69" width=".14" height="1.11"/><rect class="uuid-e4511d80-9137-4c27-999b-f1f01a3e4ade" x="354.4" y="393.69" width=".14" height="1.11"/><rect class="uuid-496fb9e6-b681-4314-b8fb-d8545751c110" x="354.54" y="393.69" width=".14" height="1.11"/><rect class="uuid-d5f6fc69-d240-45f9-95c4-3c3b6c83b9b3" x="354.68" y="393.69" width=".14" height="1.11"/><rect class="uuid-d41fcf55-2e73-4413-b093-84a7bf06c7d9" x="354.81" y="393.69" width=".14" height="1.11"/><rect class="uuid-c2e1b1a5-9a1a-420c-a0f1-3c48d115f809" x="354.95" y="393.69" width=".14" height="1.11"/><rect class="uuid-99daa128-9e69-43f5-bd88-4bce73835e1a" x="355.09" y="393.69" width=".14" height="1.11"/><rect class="uuid-22366015-0c80-4248-93ee-e27221f0d254" x="355.23" y="393.69" width=".14" height="1.11"/><rect class="uuid-2860d69f-4e5c-4bf9-9a9d-e4697ae4cd65" x="355.37" y="393.69" width=".14" height="1.11"/><rect class="uuid-dbc7442d-be1d-4dca-85e2-dcbadfdde468" x="355.5" y="393.69" width=".14" height="1.11"/><rect class="uuid-e4400b70-dd2a-4f6b-a32a-72b1d386256b" x="355.64" y="393.69" width=".14" height="1.11"/><rect class="uuid-f6167661-ef13-43c3-812d-6f2af20eb67a" x="355.78" y="393.69" width=".14" height="1.11"/><rect class="uuid-a658918f-3f9f-44f1-bc6e-27054d02f7d3" x="355.92" y="393.69" width=".14" height="1.11"/><rect class="uuid-a871513d-fb54-48ac-ae70-cb1ac1831584" x="356.05" y="393.69" width=".14" height="1.11"/><rect class="uuid-ee2b0338-7ec1-40b5-a6f1-3b9f8341618c" x="356.19" y="393.69" width=".14" height="1.11"/><rect class="uuid-f98b2446-6cff-4da7-91a7-473ebd54f25f" x="356.33" y="393.69" width=".14" height="1.11"/><rect class="uuid-7015348f-2c28-4046-972a-e8a82b9e5cee" x="356.47" y="393.69" width=".14" height="1.11"/><rect class="uuid-f4d38570-eb2b-40ee-b5ef-9d458b381dc7" x="356.61" y="393.69" width=".14" height="1.11"/><rect class="uuid-cc61dda1-a940-4399-81a0-6b495dade9fa" x="356.74" y="393.69" width=".14" height="1.11"/><rect class="uuid-ec4a3ac0-e8af-4072-8966-c5d1540c98f3" x="356.88" y="393.69" width=".14" height="1.11"/><rect class="uuid-2e19e4de-352b-4f36-99e5-39f7b2b0995a" x="357.02" y="393.69" width=".14" height="1.11"/><rect class="uuid-5e8967bb-2473-4e12-bfc6-af74e91073dd" x="357.16" y="393.69" width=".14" height="1.11"/><rect class="uuid-0c728650-b1be-4211-9ca9-07b4db44237c" x="357.29" y="393.69" width=".14" height="1.11"/><rect class="uuid-0f68e898-3bf9-48a9-bd6a-21db58b96b82" x="357.43" y="393.69" width=".14" height="1.11"/><rect class="uuid-fbcc38ce-b933-4085-bb1b-a851554f5237" x="357.57" y="393.69" width=".14" height="1.11"/><rect class="uuid-4a7311dd-e422-4da0-a8cb-59c3fd6e12d1" x="357.71" y="393.69" width=".14" height="1.11"/><rect class="uuid-27585876-f1f3-42b0-aa6e-99e8836e3e36" x="357.85" y="393.69" width=".14" height="1.11"/><rect class="uuid-484d203e-e74d-40ad-a450-167f699d5b08" x="357.98" y="393.69" width=".14" height="1.11"/><rect class="uuid-97d246d0-4792-4911-8b7e-5eae9fecfdf8" x="358.12" y="393.69" width=".14" height="1.11"/><rect class="uuid-ba96a3c2-c801-4541-9024-8ad4ce458ecf" x="358.26" y="393.69" width=".14" height="1.11"/><rect class="uuid-d275c226-79d4-4dfd-931b-dc6ed0f802de" x="358.4" y="393.69" width=".14" height="1.11"/><rect class="uuid-1f4f8347-1e55-4ce6-bf17-3de01d91d2a9" x="358.53" y="393.69" width=".14" height="1.11"/><rect class="uuid-68866733-d611-4b86-a11f-4923d5d9d132" x="358.67" y="393.69" width=".14" height="1.11"/><rect class="uuid-578f5beb-5b66-4bfb-847a-42f50f2b62d2" x="358.81" y="393.69" width=".14" height="1.11"/><rect class="uuid-c13c8428-d267-454f-801a-2a75faacc60f" x="358.95" y="393.69" width=".14" height="1.11"/><rect class="uuid-ecbf5fb9-abe1-4661-b171-042865dab4c9" x="359.09" y="393.69" width=".14" height="1.11"/><rect class="uuid-7f7dc584-fc62-4bad-a306-d5ff4bfd68b0" x="359.22" y="393.69" width=".14" height="1.11"/><rect class="uuid-1b60c121-3764-4a6f-ad84-994b1498502d" x="359.36" y="393.69" width=".14" height="1.11"/><rect class="uuid-5932bd59-a7fd-4fb4-a342-d7fc3e70169e" x="359.5" y="393.69" width=".14" height="1.11"/><rect class="uuid-fec2a2eb-fb2b-4d4f-bc71-6e58d5ec21e5" x="359.64" y="393.69" width=".14" height="1.11"/><rect class="uuid-a4d7b282-f644-4c94-bfe6-6b4b5e2d61fb" x="359.77" y="393.69" width=".14" height="1.11"/><rect class="uuid-aca9e715-99ac-497f-8e75-ea7ac2b11181" x="359.91" y="393.69" width=".14" height="1.11"/><rect class="uuid-361443c2-0900-4291-87e0-b9f563cc5f55" x="360.05" y="393.69" width=".14" height="1.11"/><rect class="uuid-361443c2-0900-4291-87e0-b9f563cc5f55" x="360.19" y="393.69" width=".02" height="1.11"/></g><g class="uuid-b37df98f-9848-4e67-a57a-0ef2e4dc38d5"><rect class="uuid-932aeda4-b08f-4d6f-b2ac-0ac0ccb167f4" x="343.81" y="393.69" width=".08" height="1.11"/><rect class="uuid-783dca7e-82c6-469f-a62f-716c9661905b" x="343.89" y="393.69" width=".08" height="1.11"/><rect class="uuid-c7648953-1502-4e3b-b982-e063b2ade7fd" x="343.97" y="393.69" width=".08" height="1.11"/><rect class="uuid-08f198e2-c901-4116-9282-6e4538c85e5b" x="344.05" y="393.69" width=".08" height="1.11"/><rect class="uuid-6aa73d77-60d7-49b4-8a41-61e1daf90d89" x="344.13" y="393.69" width=".08" height="1.11"/><rect class="uuid-83de69f5-b862-4f21-a6bc-e978843d5216" x="344.21" y="393.69" width=".08" height="1.11"/><rect class="uuid-83de69f5-b862-4f21-a6bc-e978843d5216" x="344.29" y="393.69" width=".08" height="1.11"/><rect class="uuid-559598fa-066e-4bb3-988a-61e3b327e18f" x="344.37" y="393.69" width=".08" height="1.11"/><rect class="uuid-1d2f82eb-5168-4a46-ba61-a086e5781670" x="344.45" y="393.69" width=".08" height="1.11"/><rect class="uuid-64457cb9-288e-4838-96d0-f77da3005da1" x="344.54" y="393.69" width=".08" height="1.11"/><rect class="uuid-28b33ed5-7824-4dbd-bd13-477f388ea09a" x="344.62" y="393.69" width=".08" height="1.11"/><rect class="uuid-d865ef75-6edc-407f-a646-f2deb5cf9376" x="344.7" y="393.69" width=".08" height="1.11"/><rect class="uuid-35e98ee5-5f9b-432d-adb1-faf1674ae574" x="344.78" y="393.69" width=".08" height="1.11"/><rect class="uuid-1f802f93-af70-4eb4-960f-b33cf3e15490" x="344.86" y="393.69" width=".08" height="1.11"/><rect class="uuid-3589f0ab-655a-44d4-947a-470b99fddce0" x="344.94" y="393.69" width=".08" height="1.11"/><rect class="uuid-ee1d3273-6714-4b44-90e5-7b2763a049d1" x="345.02" y="393.69" width=".08" height="1.11"/><rect class="uuid-f03cce75-f305-4f49-9e52-6e00e494f36e" x="345.1" y="393.69" width=".08" height="1.11"/><rect class="uuid-dbbb3aaa-9ee7-4e2e-b8ec-caf2ccd6565c" x="345.19" y="393.69" width=".08" height="1.11"/><rect class="uuid-e4511d80-9137-4c27-999b-f1f01a3e4ade" x="345.27" y="393.69" width=".08" height="1.11"/><rect class="uuid-496fb9e6-b681-4314-b8fb-d8545751c110" x="345.35" y="393.69" width=".08" height="1.11"/><rect class="uuid-d5f6fc69-d240-45f9-95c4-3c3b6c83b9b3" x="345.43" y="393.69" width=".08" height="1.11"/><rect class="uuid-d41fcf55-2e73-4413-b093-84a7bf06c7d9" x="345.51" y="393.69" width=".08" height="1.11"/><rect class="uuid-c2e1b1a5-9a1a-420c-a0f1-3c48d115f809" x="345.59" y="393.69" width=".08" height="1.11"/><rect class="uuid-99daa128-9e69-43f5-bd88-4bce73835e1a" x="345.67" y="393.69" width=".08" height="1.11"/><rect class="uuid-22366015-0c80-4248-93ee-e27221f0d254" x="345.75" y="393.69" width=".08" height="1.11"/><rect class="uuid-2860d69f-4e5c-4bf9-9a9d-e4697ae4cd65" x="345.84" y="393.69" width=".08" height="1.11"/><rect class="uuid-dbc7442d-be1d-4dca-85e2-dcbadfdde468" x="345.92" y="393.69" width=".08" height="1.11"/><rect class="uuid-e4400b70-dd2a-4f6b-a32a-72b1d386256b" x="346" y="393.69" width=".08" height="1.11"/><rect class="uuid-f6167661-ef13-43c3-812d-6f2af20eb67a" x="346.08" y="393.69" width=".08" height="1.11"/><rect class="uuid-a658918f-3f9f-44f1-bc6e-27054d02f7d3" x="346.16" y="393.69" width=".08" height="1.11"/><rect class="uuid-a871513d-fb54-48ac-ae70-cb1ac1831584" x="346.24" y="393.69" width=".08" height="1.11"/><rect class="uuid-ee2b0338-7ec1-40b5-a6f1-3b9f8341618c" x="346.32" y="393.69" width=".08" height="1.11"/><rect class="uuid-f98b2446-6cff-4da7-91a7-473ebd54f25f" x="346.4" y="393.69" width=".08" height="1.11"/><rect class="uuid-7015348f-2c28-4046-972a-e8a82b9e5cee" x="346.49" y="393.69" width=".08" height="1.11"/><rect class="uuid-f4d38570-eb2b-40ee-b5ef-9d458b381dc7" x="346.57" y="393.69" width=".08" height="1.11"/><rect class="uuid-cc61dda1-a940-4399-81a0-6b495dade9fa" x="346.65" y="393.69" width=".08" height="1.11"/><rect class="uuid-ec4a3ac0-e8af-4072-8966-c5d1540c98f3" x="346.73" y="393.69" width=".08" height="1.11"/><rect class="uuid-2e19e4de-352b-4f36-99e5-39f7b2b0995a" x="346.81" y="393.69" width=".08" height="1.11"/><rect class="uuid-5e8967bb-2473-4e12-bfc6-af74e91073dd" x="346.89" y="393.69" width=".08" height="1.11"/><rect class="uuid-0c728650-b1be-4211-9ca9-07b4db44237c" x="346.97" y="393.69" width=".08" height="1.11"/><rect class="uuid-0f68e898-3bf9-48a9-bd6a-21db58b96b82" x="347.05" y="393.69" width=".08" height="1.11"/><rect class="uuid-fbcc38ce-b933-4085-bb1b-a851554f5237" x="347.14" y="393.69" width=".08" height="1.11"/><rect class="uuid-4a7311dd-e422-4da0-a8cb-59c3fd6e12d1" x="347.22" y="393.69" width=".08" height="1.11"/><rect class="uuid-27585876-f1f3-42b0-aa6e-99e8836e3e36" x="347.3" y="393.69" width=".08" height="1.11"/><rect class="uuid-484d203e-e74d-40ad-a450-167f699d5b08" x="347.38" y="393.69" width=".08" height="1.11"/><rect class="uuid-97d246d0-4792-4911-8b7e-5eae9fecfdf8" x="347.46" y="393.69" width=".08" height="1.11"/><rect class="uuid-ba96a3c2-c801-4541-9024-8ad4ce458ecf" x="347.54" y="393.69" width=".08" height="1.11"/><rect class="uuid-d275c226-79d4-4dfd-931b-dc6ed0f802de" x="347.62" y="393.69" width=".08" height="1.11"/><rect class="uuid-1f4f8347-1e55-4ce6-bf17-3de01d91d2a9" x="347.7" y="393.69" width=".08" height="1.11"/><rect class="uuid-68866733-d611-4b86-a11f-4923d5d9d132" x="347.79" y="393.69" width=".08" height="1.11"/><rect class="uuid-578f5beb-5b66-4bfb-847a-42f50f2b62d2" x="347.87" y="393.69" width=".08" height="1.11"/><rect class="uuid-c13c8428-d267-454f-801a-2a75faacc60f" x="347.95" y="393.69" width=".08" height="1.11"/><rect class="uuid-ecbf5fb9-abe1-4661-b171-042865dab4c9" x="348.03" y="393.69" width=".08" height="1.11"/><rect class="uuid-7f7dc584-fc62-4bad-a306-d5ff4bfd68b0" x="348.11" y="393.69" width=".08" height="1.11"/><rect class="uuid-1b60c121-3764-4a6f-ad84-994b1498502d" x="348.19" y="393.69" width=".08" height="1.11"/><rect class="uuid-5932bd59-a7fd-4fb4-a342-d7fc3e70169e" x="348.27" y="393.69" width=".08" height="1.11"/><rect class="uuid-fec2a2eb-fb2b-4d4f-bc71-6e58d5ec21e5" x="348.35" y="393.69" width=".08" height="1.11"/><rect class="uuid-a4d7b282-f644-4c94-bfe6-6b4b5e2d61fb" x="348.44" y="393.69" width=".08" height="1.11"/><rect class="uuid-aca9e715-99ac-497f-8e75-ea7ac2b11181" x="348.52" y="393.69" width=".08" height="1.11"/><rect class="uuid-361443c2-0900-4291-87e0-b9f563cc5f55" x="348.6" y="393.69" width=".08" height="1.11"/><rect class="uuid-361443c2-0900-4291-87e0-b9f563cc5f55" x="348.68" y="393.69" width=".02" height="1.11"/></g><g class="uuid-ca95b2e1-cf2a-4aa1-9a45-d1c45886c3e9"><rect class="uuid-932aeda4-b08f-4d6f-b2ac-0ac0ccb167f4" x="338.06" y="393.69" width=".08" height="1.11"/><rect class="uuid-783dca7e-82c6-469f-a62f-716c9661905b" x="338.14" y="393.69" width=".08" height="1.11"/><rect class="uuid-c7648953-1502-4e3b-b982-e063b2ade7fd" x="338.22" y="393.69" width=".08" height="1.11"/><rect class="uuid-08f198e2-c901-4116-9282-6e4538c85e5b" x="338.3" y="393.69" width=".08" height="1.11"/><rect class="uuid-6aa73d77-60d7-49b4-8a41-61e1daf90d89" x="338.38" y="393.69" width=".08" height="1.11"/><rect class="uuid-83de69f5-b862-4f21-a6bc-e978843d5216" x="338.46" y="393.69" width=".08" height="1.11"/><rect class="uuid-83de69f5-b862-4f21-a6bc-e978843d5216" x="338.54" y="393.69" width=".08" height="1.11"/><rect class="uuid-559598fa-066e-4bb3-988a-61e3b327e18f" x="338.62" y="393.69" width=".08" height="1.11"/><rect class="uuid-1d2f82eb-5168-4a46-ba61-a086e5781670" x="338.7" y="393.69" width=".08" height="1.11"/><rect class="uuid-64457cb9-288e-4838-96d0-f77da3005da1" x="338.78" y="393.69" width=".08" height="1.11"/><rect class="uuid-28b33ed5-7824-4dbd-bd13-477f388ea09a" x="338.86" y="393.69" width=".08" height="1.11"/><rect class="uuid-d865ef75-6edc-407f-a646-f2deb5cf9376" x="338.95" y="393.69" width=".08" height="1.11"/><rect class="uuid-35e98ee5-5f9b-432d-adb1-faf1674ae574" x="339.03" y="393.69" width=".08" height="1.11"/><rect class="uuid-1f802f93-af70-4eb4-960f-b33cf3e15490" x="339.11" y="393.69" width=".08" height="1.11"/><rect class="uuid-3589f0ab-655a-44d4-947a-470b99fddce0" x="339.19" y="393.69" width=".08" height="1.11"/><rect class="uuid-ee1d3273-6714-4b44-90e5-7b2763a049d1" x="339.27" y="393.69" width=".08" height="1.11"/><rect class="uuid-f03cce75-f305-4f49-9e52-6e00e494f36e" x="339.35" y="393.69" width=".08" height="1.11"/><rect class="uuid-dbbb3aaa-9ee7-4e2e-b8ec-caf2ccd6565c" x="339.43" y="393.69" width=".08" height="1.11"/><rect class="uuid-e4511d80-9137-4c27-999b-f1f01a3e4ade" x="339.51" y="393.69" width=".08" height="1.11"/><rect class="uuid-496fb9e6-b681-4314-b8fb-d8545751c110" x="339.59" y="393.69" width=".08" height="1.11"/><rect class="uuid-d5f6fc69-d240-45f9-95c4-3c3b6c83b9b3" x="339.67" y="393.69" width=".08" height="1.11"/><rect class="uuid-d41fcf55-2e73-4413-b093-84a7bf06c7d9" x="339.76" y="393.69" width=".08" height="1.11"/><rect class="uuid-c2e1b1a5-9a1a-420c-a0f1-3c48d115f809" x="339.84" y="393.69" width=".08" height="1.11"/><rect class="uuid-99daa128-9e69-43f5-bd88-4bce73835e1a" x="339.92" y="393.69" width=".08" height="1.11"/><rect class="uuid-22366015-0c80-4248-93ee-e27221f0d254" x="340" y="393.69" width=".08" height="1.11"/><rect class="uuid-2860d69f-4e5c-4bf9-9a9d-e4697ae4cd65" x="340.08" y="393.69" width=".08" height="1.11"/><rect class="uuid-dbc7442d-be1d-4dca-85e2-dcbadfdde468" x="340.16" y="393.69" width=".08" height="1.11"/><rect class="uuid-e4400b70-dd2a-4f6b-a32a-72b1d386256b" x="340.24" y="393.69" width=".08" height="1.11"/><rect class="uuid-f6167661-ef13-43c3-812d-6f2af20eb67a" x="340.32" y="393.69" width=".08" height="1.11"/><rect class="uuid-a658918f-3f9f-44f1-bc6e-27054d02f7d3" x="340.41" y="393.69" width=".08" height="1.11"/><rect class="uuid-a871513d-fb54-48ac-ae70-cb1ac1831584" x="340.49" y="393.69" width=".08" height="1.11"/><rect class="uuid-ee2b0338-7ec1-40b5-a6f1-3b9f8341618c" x="340.57" y="393.69" width=".08" height="1.11"/><rect class="uuid-f98b2446-6cff-4da7-91a7-473ebd54f25f" x="340.65" y="393.69" width=".08" height="1.11"/><rect class="uuid-7015348f-2c28-4046-972a-e8a82b9e5cee" x="340.73" y="393.69" width=".08" height="1.11"/><rect class="uuid-f4d38570-eb2b-40ee-b5ef-9d458b381dc7" x="340.81" y="393.69" width=".08" height="1.11"/><rect class="uuid-cc61dda1-a940-4399-81a0-6b495dade9fa" x="340.89" y="393.69" width=".08" height="1.11"/><rect class="uuid-ec4a3ac0-e8af-4072-8966-c5d1540c98f3" x="340.97" y="393.69" width=".08" height="1.11"/><rect class="uuid-2e19e4de-352b-4f36-99e5-39f7b2b0995a" x="341.05" y="393.69" width=".08" height="1.11"/><rect class="uuid-5e8967bb-2473-4e12-bfc6-af74e91073dd" x="341.14" y="393.69" width=".08" height="1.11"/><rect class="uuid-0c728650-b1be-4211-9ca9-07b4db44237c" x="341.22" y="393.69" width=".08" height="1.11"/><rect class="uuid-0f68e898-3bf9-48a9-bd6a-21db58b96b82" x="341.3" y="393.69" width=".08" height="1.11"/><rect class="uuid-fbcc38ce-b933-4085-bb1b-a851554f5237" x="341.38" y="393.69" width=".08" height="1.11"/><rect class="uuid-4a7311dd-e422-4da0-a8cb-59c3fd6e12d1" x="341.46" y="393.69" width=".08" height="1.11"/><rect class="uuid-27585876-f1f3-42b0-aa6e-99e8836e3e36" x="341.54" y="393.69" width=".08" height="1.11"/><rect class="uuid-484d203e-e74d-40ad-a450-167f699d5b08" x="341.62" y="393.69" width=".08" height="1.11"/><rect class="uuid-97d246d0-4792-4911-8b7e-5eae9fecfdf8" x="341.7" y="393.69" width=".08" height="1.11"/><rect class="uuid-ba96a3c2-c801-4541-9024-8ad4ce458ecf" x="341.78" y="393.69" width=".08" height="1.11"/><rect class="uuid-d275c226-79d4-4dfd-931b-dc6ed0f802de" x="341.86" y="393.69" width=".08" height="1.11"/><rect class="uuid-1f4f8347-1e55-4ce6-bf17-3de01d91d2a9" x="341.95" y="393.69" width=".08" height="1.11"/><rect class="uuid-68866733-d611-4b86-a11f-4923d5d9d132" x="342.03" y="393.69" width=".08" height="1.11"/><rect class="uuid-578f5beb-5b66-4bfb-847a-42f50f2b62d2" x="342.11" y="393.69" width=".08" height="1.11"/><rect class="uuid-c13c8428-d267-454f-801a-2a75faacc60f" x="342.19" y="393.69" width=".08" height="1.11"/><rect class="uuid-ecbf5fb9-abe1-4661-b171-042865dab4c9" x="342.27" y="393.69" width=".08" height="1.11"/><rect class="uuid-7f7dc584-fc62-4bad-a306-d5ff4bfd68b0" x="342.35" y="393.69" width=".08" height="1.11"/><rect class="uuid-1b60c121-3764-4a6f-ad84-994b1498502d" x="342.43" y="393.69" width=".08" height="1.11"/><rect class="uuid-5932bd59-a7fd-4fb4-a342-d7fc3e70169e" x="342.51" y="393.69" width=".08" height="1.11"/><rect class="uuid-fec2a2eb-fb2b-4d4f-bc71-6e58d5ec21e5" x="342.59" y="393.69" width=".08" height="1.11"/><rect class="uuid-a4d7b282-f644-4c94-bfe6-6b4b5e2d61fb" x="342.67" y="393.69" width=".08" height="1.11"/><rect class="uuid-aca9e715-99ac-497f-8e75-ea7ac2b11181" x="342.76" y="393.69" width=".08" height="1.11"/><rect class="uuid-361443c2-0900-4291-87e0-b9f563cc5f55" x="342.84" y="393.69" width=".08" height="1.11"/><rect class="uuid-361443c2-0900-4291-87e0-b9f563cc5f55" x="342.92" y="393.69" width=".02" height="1.11"/></g><g class="uuid-5242709b-1e0d-4f26-8625-8e49840b93d9"><rect class="uuid-932aeda4-b08f-4d6f-b2ac-0ac0ccb167f4" x="332.64" y="393.69" width=".08" height="1.11"/><rect class="uuid-783dca7e-82c6-469f-a62f-716c9661905b" x="332.72" y="393.69" width=".08" height="1.11"/><rect class="uuid-c7648953-1502-4e3b-b982-e063b2ade7fd" x="332.81" y="393.69" width=".08" height="1.11"/><rect class="uuid-08f198e2-c901-4116-9282-6e4538c85e5b" x="332.89" y="393.69" width=".08" height="1.11"/><rect class="uuid-6aa73d77-60d7-49b4-8a41-61e1daf90d89" x="332.97" y="393.69" width=".08" height="1.11"/><rect class="uuid-83de69f5-b862-4f21-a6bc-e978843d5216" x="333.05" y="393.69" width=".08" height="1.11"/><rect class="uuid-83de69f5-b862-4f21-a6bc-e978843d5216" x="333.13" y="393.69" width=".08" height="1.11"/><rect class="uuid-559598fa-066e-4bb3-988a-61e3b327e18f" x="333.21" y="393.69" width=".08" height="1.11"/><rect class="uuid-1d2f82eb-5168-4a46-ba61-a086e5781670" x="333.29" y="393.69" width=".08" height="1.11"/><rect class="uuid-64457cb9-288e-4838-96d0-f77da3005da1" x="333.37" y="393.69" width=".08" height="1.11"/><rect class="uuid-28b33ed5-7824-4dbd-bd13-477f388ea09a" x="333.45" y="393.69" width=".08" height="1.11"/><rect class="uuid-d865ef75-6edc-407f-a646-f2deb5cf9376" x="333.53" y="393.69" width=".08" height="1.11"/><rect class="uuid-35e98ee5-5f9b-432d-adb1-faf1674ae574" x="333.61" y="393.69" width=".08" height="1.11"/><rect class="uuid-1f802f93-af70-4eb4-960f-b33cf3e15490" x="333.69" y="393.69" width=".08" height="1.11"/><rect class="uuid-3589f0ab-655a-44d4-947a-470b99fddce0" x="333.77" y="393.69" width=".08" height="1.11"/><rect class="uuid-ee1d3273-6714-4b44-90e5-7b2763a049d1" x="333.86" y="393.69" width=".08" height="1.11"/><rect class="uuid-f03cce75-f305-4f49-9e52-6e00e494f36e" x="333.94" y="393.69" width=".08" height="1.11"/><rect class="uuid-dbbb3aaa-9ee7-4e2e-b8ec-caf2ccd6565c" x="334.02" y="393.69" width=".08" height="1.11"/><rect class="uuid-e4511d80-9137-4c27-999b-f1f01a3e4ade" x="334.1" y="393.69" width=".08" height="1.11"/><rect class="uuid-496fb9e6-b681-4314-b8fb-d8545751c110" x="334.18" y="393.69" width=".08" height="1.11"/><rect class="uuid-d5f6fc69-d240-45f9-95c4-3c3b6c83b9b3" x="334.26" y="393.69" width=".08" height="1.11"/><rect class="uuid-d41fcf55-2e73-4413-b093-84a7bf06c7d9" x="334.34" y="393.69" width=".08" height="1.11"/><rect class="uuid-c2e1b1a5-9a1a-420c-a0f1-3c48d115f809" x="334.42" y="393.69" width=".08" height="1.11"/><rect class="uuid-99daa128-9e69-43f5-bd88-4bce73835e1a" x="334.5" y="393.69" width=".08" height="1.11"/><rect class="uuid-22366015-0c80-4248-93ee-e27221f0d254" x="334.58" y="393.69" width=".08" height="1.11"/><rect class="uuid-2860d69f-4e5c-4bf9-9a9d-e4697ae4cd65" x="334.66" y="393.69" width=".08" height="1.11"/><rect class="uuid-dbc7442d-be1d-4dca-85e2-dcbadfdde468" x="334.74" y="393.69" width=".08" height="1.11"/><rect class="uuid-e4400b70-dd2a-4f6b-a32a-72b1d386256b" x="334.83" y="393.69" width=".08" height="1.11"/><rect class="uuid-f6167661-ef13-43c3-812d-6f2af20eb67a" x="334.91" y="393.69" width=".08" height="1.11"/><rect class="uuid-a658918f-3f9f-44f1-bc6e-27054d02f7d3" x="334.99" y="393.69" width=".08" height="1.11"/><rect class="uuid-a871513d-fb54-48ac-ae70-cb1ac1831584" x="335.07" y="393.69" width=".08" height="1.11"/><rect class="uuid-ee2b0338-7ec1-40b5-a6f1-3b9f8341618c" x="335.15" y="393.69" width=".08" height="1.11"/><rect class="uuid-f98b2446-6cff-4da7-91a7-473ebd54f25f" x="335.23" y="393.69" width=".08" height="1.11"/><rect class="uuid-7015348f-2c28-4046-972a-e8a82b9e5cee" x="335.31" y="393.69" width=".08" height="1.11"/><rect class="uuid-f4d38570-eb2b-40ee-b5ef-9d458b381dc7" x="335.39" y="393.69" width=".08" height="1.11"/><rect class="uuid-cc61dda1-a940-4399-81a0-6b495dade9fa" x="335.47" y="393.69" width=".08" height="1.11"/><rect class="uuid-ec4a3ac0-e8af-4072-8966-c5d1540c98f3" x="335.55" y="393.69" width=".08" height="1.11"/><rect class="uuid-2e19e4de-352b-4f36-99e5-39f7b2b0995a" x="335.64" y="393.69" width=".08" height="1.11"/><rect class="uuid-5e8967bb-2473-4e12-bfc6-af74e91073dd" x="335.72" y="393.69" width=".08" height="1.11"/><rect class="uuid-0c728650-b1be-4211-9ca9-07b4db44237c" x="335.8" y="393.69" width=".08" height="1.11"/><rect class="uuid-0f68e898-3bf9-48a9-bd6a-21db58b96b82" x="335.88" y="393.69" width=".08" height="1.11"/><rect class="uuid-fbcc38ce-b933-4085-bb1b-a851554f5237" x="335.96" y="393.69" width=".08" height="1.11"/><rect class="uuid-4a7311dd-e422-4da0-a8cb-59c3fd6e12d1" x="336.04" y="393.69" width=".08" height="1.11"/><rect class="uuid-27585876-f1f3-42b0-aa6e-99e8836e3e36" x="336.12" y="393.69" width=".08" height="1.11"/><rect class="uuid-484d203e-e74d-40ad-a450-167f699d5b08" x="336.2" y="393.69" width=".08" height="1.11"/><rect class="uuid-97d246d0-4792-4911-8b7e-5eae9fecfdf8" x="336.28" y="393.69" width=".08" height="1.11"/><rect class="uuid-ba96a3c2-c801-4541-9024-8ad4ce458ecf" x="336.36" y="393.69" width=".08" height="1.11"/><rect class="uuid-d275c226-79d4-4dfd-931b-dc6ed0f802de" x="336.44" y="393.69" width=".08" height="1.11"/><rect class="uuid-1f4f8347-1e55-4ce6-bf17-3de01d91d2a9" x="336.52" y="393.69" width=".08" height="1.11"/><rect class="uuid-68866733-d611-4b86-a11f-4923d5d9d132" x="336.61" y="393.69" width=".08" height="1.11"/><rect class="uuid-578f5beb-5b66-4bfb-847a-42f50f2b62d2" x="336.69" y="393.69" width=".08" height="1.11"/><rect class="uuid-c13c8428-d267-454f-801a-2a75faacc60f" x="336.77" y="393.69" width=".08" height="1.11"/><rect class="uuid-ecbf5fb9-abe1-4661-b171-042865dab4c9" x="336.85" y="393.69" width=".08" height="1.11"/><rect class="uuid-7f7dc584-fc62-4bad-a306-d5ff4bfd68b0" x="336.93" y="393.69" width=".08" height="1.11"/><rect class="uuid-1b60c121-3764-4a6f-ad84-994b1498502d" x="337.01" y="393.69" width=".08" height="1.11"/><rect class="uuid-5932bd59-a7fd-4fb4-a342-d7fc3e70169e" x="337.09" y="393.69" width=".08" height="1.11"/><rect class="uuid-fec2a2eb-fb2b-4d4f-bc71-6e58d5ec21e5" x="337.17" y="393.69" width=".08" height="1.11"/><rect class="uuid-a4d7b282-f644-4c94-bfe6-6b4b5e2d61fb" x="337.25" y="393.69" width=".08" height="1.11"/><rect class="uuid-aca9e715-99ac-497f-8e75-ea7ac2b11181" x="337.33" y="393.69" width=".08" height="1.11"/><rect class="uuid-361443c2-0900-4291-87e0-b9f563cc5f55" x="337.41" y="393.69" width=".08" height="1.11"/><rect class="uuid-361443c2-0900-4291-87e0-b9f563cc5f55" x="337.49" y="393.69" width=".02" height="1.11"/></g><path class="uuid-602574a4-c5b0-4513-b2f3-e5dcc33e0292" d="m415.27,328.71h-108.4c-1.4,0-2.52,1.32-2.27,2.66l11.69,62.92h91.52l9.76-63.29c.04-1.34-.91-2.29-2.31-2.29Z"/><path class="uuid-cd11a3b4-09e4-429f-9390-6c2da1f6482e" d="m316.63,397.17c-.02.22.17.41.43.41h89.08c.52,0,1.06-.36,1.2-.81l.48-2.49h-91.55l.36,2.9Z"/><path class="uuid-952982db-028c-48e4-a158-f4a695d6c27c" d="m316.27,397.19c0,.18.05.35.18.49.15.16.37.26.61.26h89.08c.67,0,1.35-.46,1.53-1.06l.57-2.95h-92.38l.41,3.26Zm91.11-2.56l-.4,2.07c-.09.26-.49.52-.85.52h-89.08v-.04s-.08-.05-.08-.05l-.31-2.5h90.72Z"/><rect class="uuid-952982db-028c-48e4-a158-f4a695d6c27c" x="311.15" y="328.26" width="99.84" height=".77"/></g></g></svg>