<?xml version="1.0" encoding="UTF-8"?><svg id="uuid-127a3aa9-a7ed-428a-977e-5b0f6fdeecc8" xmlns="http://www.w3.org/2000/svg" xmlns:xlink="http://www.w3.org/1999/xlink" viewBox="0 0 565.94 507.02"><defs><style>.uuid-f9295898-6569-43e1-8498-bca04d77b78e,.uuid-24083ace-238c-4c5c-a825-74dba8745f94,.uuid-96f1607e-0724-48dd-9665-065f2f77e7ed{fill:#fff;}.uuid-cd77bbfc-d11d-4c72-a9ed-c1e569ae713d{fill:#e6ebf0;}.uuid-24083ace-238c-4c5c-a825-74dba8745f94{opacity:.5;}.uuid-368c6ff2-9bd1-4c4d-97ac-519c3bc341f8{fill:#050000;}.uuid-098e5936-774d-4dbb-8688-69a9d988cfe2{fill:#c6d0db;}.uuid-5bb74f58-90b8-487b-a483-319f140ec5da{fill:#73cbe2;}.uuid-d18927cb-e460-4b0f-aa4f-ecdbe505a291{clip-path:url(#uuid-98d6c58b-e3b0-48d0-a4f4-8317f66903b1);}.uuid-d18927cb-e460-4b0f-aa4f-ecdbe505a291,.uuid-1f8cbc6f-ea8e-43ad-b1d1-e73602ee0df8{fill:none;}.uuid-850c52c7-0ef8-41ef-b2fe-61677b5ef73f{fill:#001940;}.uuid-f06e6777-30c2-4863-b2f3-440a22e1fe41{fill:#f85a44;}.uuid-96f1607e-0724-48dd-9665-065f2f77e7ed{opacity:.35;}.uuid-8cd1f365-c970-43c9-98d1-770f09889bc9{fill:#fbb7a3;}.uuid-85daa93b-9dad-440b-bb7f-e4c804e84744{fill:#ffab48;}.uuid-50ffc6d5-ecc8-4a75-8ece-ff4685ce4e52{fill:#aab6c2;}</style><clipPath id="uuid-98d6c58b-e3b0-48d0-a4f4-8317f66903b1"><path class="uuid-1f8cbc6f-ea8e-43ad-b1d1-e73602ee0df8" d="m467.42,161.5c-61.79-18.76-115.05-45.27-175.41-118.83C231.65-30.88,69.44-8.25,22.29,102.09c-47.15,110.34-13.2,212.19,43.38,231.05,56.58,18.86,80.87,37.33,112.11,109.7,25.06,58.06,164.39,86.01,207.56,30.03,78.96-102.4,81.14-62.4,118.86-138.79,37.72-76.39,26.68-153.32-36.78-172.58Z"/></clipPath></defs><path class="uuid-cd77bbfc-d11d-4c72-a9ed-c1e569ae713d" d="m467.42,161.5c-61.79-18.76-115.05-45.27-175.41-118.83C231.65-30.88,69.44-8.25,22.29,102.09c-47.15,110.34-13.2,212.19,43.38,231.05,56.58,18.86,80.87,37.33,112.11,109.7,25.06,58.06,164.39,86.01,207.56,30.03,78.96-102.4,81.14-62.4,118.86-138.79,37.72-76.39,26.68-153.32-36.78-172.58Z"/><path class="uuid-cd77bbfc-d11d-4c72-a9ed-c1e569ae713d" d="m325.09,3.94c-46.4,10.01,29,90.54,105.86,130.03,76.86,39.49,49.81-20.35-1.59-78.43C387.38,8.11,371.5-6.07,325.09,3.94Z"/><rect class="uuid-850c52c7-0ef8-41ef-b2fe-61677b5ef73f" x="14.18" y="503.34" width="497.51" height="3.68"/><g class="uuid-d18927cb-e460-4b0f-aa4f-ecdbe505a291"><polygon class="uuid-098e5936-774d-4dbb-8688-69a9d988cfe2" points="152.99 127.15 117.69 127.15 117.69 32.71 108.65 32.71 108.65 127.15 75.88 127.15 75.88 146.91 35.53 146.91 35.53 542.89 171.9 542.89 171.9 146.91 152.99 146.91 152.99 127.15"/><rect class="uuid-50ffc6d5-ecc8-4a75-8ece-ff4685ce4e52" x="35.53" y="146.91" width="18.91" height="356.2"/><rect class="uuid-098e5936-774d-4dbb-8688-69a9d988cfe2" x="103.72" y="241.24" width="136.37" height="301.65"/><rect class="uuid-50ffc6d5-ecc8-4a75-8ece-ff4685ce4e52" x="103.72" y="241.24" width="18.91" height="301.65"/><rect class="uuid-50ffc6d5-ecc8-4a75-8ece-ff4685ce4e52" x="201.49" y="254.09" width="19.57" height="8.12"/><rect class="uuid-50ffc6d5-ecc8-4a75-8ece-ff4685ce4e52" x="168.54" y="254.09" width="19.57" height="8.12"/><rect class="uuid-50ffc6d5-ecc8-4a75-8ece-ff4685ce4e52" x="201.49" y="283.66" width="19.57" height="8.12"/><rect class="uuid-50ffc6d5-ecc8-4a75-8ece-ff4685ce4e52" x="168.54" y="283.66" width="19.57" height="8.12"/><rect class="uuid-50ffc6d5-ecc8-4a75-8ece-ff4685ce4e52" x="135.6" y="283.66" width="19.57" height="8.12"/><rect class="uuid-50ffc6d5-ecc8-4a75-8ece-ff4685ce4e52" x="201.49" y="313.23" width="19.57" height="8.12"/><rect class="uuid-50ffc6d5-ecc8-4a75-8ece-ff4685ce4e52" x="135.6" y="313.23" width="19.57" height="8.12"/><rect class="uuid-50ffc6d5-ecc8-4a75-8ece-ff4685ce4e52" x="168.54" y="328.02" width="19.57" height="8.12"/><rect class="uuid-50ffc6d5-ecc8-4a75-8ece-ff4685ce4e52" x="201.49" y="342.8" width="19.57" height="8.12"/><rect class="uuid-50ffc6d5-ecc8-4a75-8ece-ff4685ce4e52" x="168.54" y="357.59" width="19.57" height="8.12"/><rect class="uuid-50ffc6d5-ecc8-4a75-8ece-ff4685ce4e52" x="201.49" y="372.38" width="19.57" height="8.12"/><rect class="uuid-50ffc6d5-ecc8-4a75-8ece-ff4685ce4e52" x="135.6" y="372.38" width="19.57" height="8.12"/><rect class="uuid-50ffc6d5-ecc8-4a75-8ece-ff4685ce4e52" x="201.49" y="399.7" width="19.57" height="8.12"/><rect class="uuid-50ffc6d5-ecc8-4a75-8ece-ff4685ce4e52" x="168.54" y="399.7" width="19.57" height="8.12"/><rect class="uuid-50ffc6d5-ecc8-4a75-8ece-ff4685ce4e52" x="201.49" y="429.27" width="19.57" height="8.12"/><rect class="uuid-50ffc6d5-ecc8-4a75-8ece-ff4685ce4e52" x="168.54" y="429.27" width="19.57" height="8.12"/><rect class="uuid-50ffc6d5-ecc8-4a75-8ece-ff4685ce4e52" x="135.6" y="429.27" width="19.57" height="8.12"/><rect class="uuid-50ffc6d5-ecc8-4a75-8ece-ff4685ce4e52" x="201.49" y="458.85" width="19.57" height="8.12"/><rect class="uuid-50ffc6d5-ecc8-4a75-8ece-ff4685ce4e52" x="135.6" y="458.85" width="19.57" height="8.12"/><rect class="uuid-50ffc6d5-ecc8-4a75-8ece-ff4685ce4e52" x="168.54" y="473.63" width="19.57" height="8.12"/><rect class="uuid-50ffc6d5-ecc8-4a75-8ece-ff4685ce4e52" x="135.6" y="473.63" width="19.57" height="8.12"/><rect class="uuid-50ffc6d5-ecc8-4a75-8ece-ff4685ce4e52" x="201.49" y="488.42" width="19.57" height="8.12"/><rect class="uuid-50ffc6d5-ecc8-4a75-8ece-ff4685ce4e52" x="168.54" y="503.2" width="19.57" height="8.12"/><rect class="uuid-098e5936-774d-4dbb-8688-69a9d988cfe2" x="430.01" y="241.24" width="136.37" height="301.65"/><rect class="uuid-50ffc6d5-ecc8-4a75-8ece-ff4685ce4e52" x="430.01" y="241.24" width="18.91" height="301.65"/><rect class="uuid-098e5936-774d-4dbb-8688-69a9d988cfe2" x="236.29" y="97.76" width="182.97" height="445.13"/><rect class="uuid-50ffc6d5-ecc8-4a75-8ece-ff4685ce4e52" x="236.29" y="97.76" width="18.91" height="445.13"/><rect class="uuid-50ffc6d5-ecc8-4a75-8ece-ff4685ce4e52" x="371.41" y="119.08" width="28.58" height="11.86"/><rect class="uuid-50ffc6d5-ecc8-4a75-8ece-ff4685ce4e52" x="323.3" y="119.08" width="28.58" height="11.86"/><rect class="uuid-50ffc6d5-ecc8-4a75-8ece-ff4685ce4e52" x="371.41" y="162.26" width="28.58" height="11.86"/><rect class="uuid-50ffc6d5-ecc8-4a75-8ece-ff4685ce4e52" x="323.3" y="162.26" width="28.58" height="11.86"/><rect class="uuid-50ffc6d5-ecc8-4a75-8ece-ff4685ce4e52" x="275.19" y="162.26" width="28.58" height="11.86"/><rect class="uuid-50ffc6d5-ecc8-4a75-8ece-ff4685ce4e52" x="371.41" y="205.44" width="28.58" height="11.86"/><rect class="uuid-50ffc6d5-ecc8-4a75-8ece-ff4685ce4e52" x="275.19" y="205.44" width="28.58" height="11.86"/><rect class="uuid-50ffc6d5-ecc8-4a75-8ece-ff4685ce4e52" x="323.3" y="227.04" width="28.58" height="11.86"/><rect class="uuid-50ffc6d5-ecc8-4a75-8ece-ff4685ce4e52" x="371.41" y="248.63" width="28.58" height="11.86"/><rect class="uuid-50ffc6d5-ecc8-4a75-8ece-ff4685ce4e52" x="323.3" y="270.22" width="28.58" height="11.86"/><rect class="uuid-50ffc6d5-ecc8-4a75-8ece-ff4685ce4e52" x="371.41" y="291.81" width="28.58" height="11.86"/><rect class="uuid-50ffc6d5-ecc8-4a75-8ece-ff4685ce4e52" x="275.19" y="291.81" width="28.58" height="11.86"/><rect class="uuid-50ffc6d5-ecc8-4a75-8ece-ff4685ce4e52" x="371.41" y="331.71" width="28.58" height="11.86"/><rect class="uuid-50ffc6d5-ecc8-4a75-8ece-ff4685ce4e52" x="323.3" y="331.71" width="28.58" height="11.86"/><rect class="uuid-50ffc6d5-ecc8-4a75-8ece-ff4685ce4e52" x="371.41" y="374.9" width="28.58" height="11.86"/><rect class="uuid-50ffc6d5-ecc8-4a75-8ece-ff4685ce4e52" x="323.3" y="374.9" width="28.58" height="11.86"/><rect class="uuid-50ffc6d5-ecc8-4a75-8ece-ff4685ce4e52" x="275.19" y="374.9" width="28.58" height="11.86"/><rect class="uuid-50ffc6d5-ecc8-4a75-8ece-ff4685ce4e52" x="371.41" y="418.08" width="28.58" height="11.86"/><rect class="uuid-50ffc6d5-ecc8-4a75-8ece-ff4685ce4e52" x="275.19" y="418.08" width="28.58" height="11.86"/><rect class="uuid-50ffc6d5-ecc8-4a75-8ece-ff4685ce4e52" x="323.3" y="439.67" width="28.58" height="11.86"/><rect class="uuid-50ffc6d5-ecc8-4a75-8ece-ff4685ce4e52" x="275.19" y="439.67" width="28.58" height="11.86"/><rect class="uuid-50ffc6d5-ecc8-4a75-8ece-ff4685ce4e52" x="371.41" y="461.26" width="28.58" height="11.86"/><rect class="uuid-50ffc6d5-ecc8-4a75-8ece-ff4685ce4e52" x="323.3" y="482.86" width="28.58" height="11.86"/><rect class="uuid-50ffc6d5-ecc8-4a75-8ece-ff4685ce4e52" x="371.41" y="504.45" width="28.58" height="11.86"/><rect class="uuid-50ffc6d5-ecc8-4a75-8ece-ff4685ce4e52" x="275.19" y="504.45" width="28.58" height="11.86"/><rect class="uuid-098e5936-774d-4dbb-8688-69a9d988cfe2" x="523.96" y="130.94" width="179.33" height="411.95"/><rect class="uuid-50ffc6d5-ecc8-4a75-8ece-ff4685ce4e52" x="523.96" y="130.94" width="18.53" height="411.95"/><rect class="uuid-50ffc6d5-ecc8-4a75-8ece-ff4685ce4e52" x="562.09" y="190.63" width="28.01" height="10.98"/><rect class="uuid-50ffc6d5-ecc8-4a75-8ece-ff4685ce4e52" x="562.09" y="230.6" width="28.01" height="10.98"/><rect class="uuid-50ffc6d5-ecc8-4a75-8ece-ff4685ce4e52" x="562.09" y="310.53" width="28.01" height="10.97"/><rect class="uuid-50ffc6d5-ecc8-4a75-8ece-ff4685ce4e52" x="562.09" y="387.42" width="28.01" height="10.98"/><rect class="uuid-50ffc6d5-ecc8-4a75-8ece-ff4685ce4e52" x="562.09" y="427.39" width="28.01" height="10.97"/><rect class="uuid-50ffc6d5-ecc8-4a75-8ece-ff4685ce4e52" x="562.09" y="447.37" width="28.01" height="10.98"/><rect class="uuid-098e5936-774d-4dbb-8688-69a9d988cfe2" x="-55.59" y="261.91" width="115.5" height="280.98"/><rect class="uuid-50ffc6d5-ecc8-4a75-8ece-ff4685ce4e52" x="29.7" y="275.37" width="18.04" height="7.49"/><rect class="uuid-50ffc6d5-ecc8-4a75-8ece-ff4685ce4e52" x="-.67" y="275.37" width="18.04" height="7.49"/><rect class="uuid-50ffc6d5-ecc8-4a75-8ece-ff4685ce4e52" x="29.7" y="302.62" width="18.04" height="7.49"/><rect class="uuid-50ffc6d5-ecc8-4a75-8ece-ff4685ce4e52" x="-.67" y="302.62" width="18.04" height="7.49"/><rect class="uuid-50ffc6d5-ecc8-4a75-8ece-ff4685ce4e52" x="29.7" y="329.88" width="18.04" height="7.49"/><rect class="uuid-50ffc6d5-ecc8-4a75-8ece-ff4685ce4e52" x="-.67" y="343.51" width="18.04" height="7.49"/><rect class="uuid-50ffc6d5-ecc8-4a75-8ece-ff4685ce4e52" x="29.7" y="357.14" width="18.04" height="7.49"/><rect class="uuid-50ffc6d5-ecc8-4a75-8ece-ff4685ce4e52" x="-.67" y="370.77" width="18.04" height="7.49"/><rect class="uuid-50ffc6d5-ecc8-4a75-8ece-ff4685ce4e52" x="29.7" y="384.4" width="18.04" height="7.49"/><rect class="uuid-50ffc6d5-ecc8-4a75-8ece-ff4685ce4e52" x="29.7" y="409.59" width="18.04" height="7.49"/><rect class="uuid-50ffc6d5-ecc8-4a75-8ece-ff4685ce4e52" x="-.67" y="409.59" width="18.04" height="7.49"/><rect class="uuid-50ffc6d5-ecc8-4a75-8ece-ff4685ce4e52" x="29.7" y="436.85" width="18.04" height="7.49"/><rect class="uuid-50ffc6d5-ecc8-4a75-8ece-ff4685ce4e52" x="-.67" y="436.85" width="18.04" height="7.49"/><rect class="uuid-50ffc6d5-ecc8-4a75-8ece-ff4685ce4e52" x="29.7" y="464.11" width="18.04" height="7.48"/><rect class="uuid-50ffc6d5-ecc8-4a75-8ece-ff4685ce4e52" x="-.67" y="477.74" width="18.04" height="7.49"/><rect class="uuid-50ffc6d5-ecc8-4a75-8ece-ff4685ce4e52" x="29.7" y="491.37" width="18.04" height="7.49"/><rect class="uuid-50ffc6d5-ecc8-4a75-8ece-ff4685ce4e52" x="-.67" y="504.99" width="18.04" height="7.49"/><rect class="uuid-96f1607e-0724-48dd-9665-065f2f77e7ed" x="-127.96" y="-38.82" width="489.47" height="558.08"/><polygon class="uuid-24083ace-238c-4c5c-a825-74dba8745f94" points="2.56 509.19 40.55 509.19 244.2 -32.43 206.21 -32.43 2.56 509.19"/><polygon class="uuid-24083ace-238c-4c5c-a825-74dba8745f94" points="-45.52 509.19 -26.53 509.19 177.12 -32.43 158.12 -32.43 -45.52 509.19"/><polygon class="uuid-24083ace-238c-4c5c-a825-74dba8745f94" points="200.27 509.19 355.87 64.67 355.87 25.72 181.28 509.19 200.27 509.19"/><rect class="uuid-96f1607e-0724-48dd-9665-065f2f77e7ed" x="364.09" y="-49.86" width="489.47" height="558.09"/><polygon class="uuid-24083ace-238c-4c5c-a825-74dba8745f94" points="407.05 509.19 445.04 509.19 648.68 -32.43 610.69 -32.43 407.05 509.19"/><polygon class="uuid-24083ace-238c-4c5c-a825-74dba8745f94" points="358.96 509.19 377.96 509.19 581.6 -32.43 562.61 -32.43 358.96 509.19"/><path class="uuid-f9295898-6569-43e1-8498-bca04d77b78e" d="m856.39-45.2h0s-489.52,0-489.52,0H-133.32v12.77h10.66v4.51H193V55.46H-133.32v6.38H193v163.89H-133.32v6.39H193v163.89H-133.32v6.38H193v106.79H-122.55v3.69h-10.76v14.78h989.7v-1.19h0v-124.07h17.58v-6.38h-17.58v-163.89h17.58v-6.39h-17.58V61.84h17.58v-6.38h-17.58V-45.2Zm-500.23,558.08h-.06v-3.69h-152.39v-106.79h152.45v110.48Zm0-116.87h-152.45v-163.89h152.45v163.89Zm0-170.28h-152.45V61.84h152.45v163.89Zm0-170.28h-152.45V-27.92h152.45V55.46Zm163.2,453.73h-152.4v3.69h-.05v-110.48h152.45v106.79Zm0-113.18h-152.45v-163.89h152.45v163.89Zm0-170.28h-152.45V61.84h152.45v163.89Zm0-170.28h-152.45V-27.92h152.45V55.46Zm163.16,453.73h-152.45v-106.79h152.45v106.79Zm0-113.18h-152.45v-163.89h152.45v163.89Zm0-170.28h-152.45V61.84h152.45v163.89Zm0-170.28h-152.45V-27.92h152.45V55.46Zm163.16,457.42h-.06v-3.69h-152.39v-106.79h152.45v110.48Zm0-116.87h-152.45v-163.89h152.45v163.89Zm0-170.28h-152.45V61.84h152.45v163.89Zm0-170.28h-152.45V-27.92h152.45V55.46Z"/></g><path class="uuid-50ffc6d5-ecc8-4a75-8ece-ff4685ce4e52" d="m425.1,142.09H51.12c-9.99,0-17.95,8.37-17.45,18.35l16.11,323.47h376.67l16.11-323.47c.5-9.98-7.46-18.35-17.45-18.35Z"/><polygon class="uuid-f9295898-6569-43e1-8498-bca04d77b78e" points="67.74 465.02 408.48 465.02 423.62 160.98 52.6 160.98 67.74 465.02"/><path class="uuid-368c6ff2-9bd1-4c4d-97ac-519c3bc341f8" d="m67.14,465.66h341.95l15.2-305.32H51.93l15.2,305.32Zm340.74-1.27H68.35l-15.08-302.77h369.68l-15.08,302.77Z"/><path class="uuid-368c6ff2-9bd1-4c4d-97ac-519c3bc341f8" d="m59.7,475.75h36.18c2.28,0,4.13,1.85,4.13,4.13v3.15c0,2.28-1.85,4.13-4.13,4.13h-36.18c-2.28,0-4.13-1.85-4.13-4.13v-3.15c0-2.28,1.85-4.13,4.13-4.13Z"/><path class="uuid-368c6ff2-9bd1-4c4d-97ac-519c3bc341f8" d="m118.67,475.75h20.83c2.28,0,4.13,1.85,4.13,4.13v3.15c0,2.28-1.85,4.13-4.13,4.13h-20.83c-2.28,0-4.13-1.85-4.13-4.13v-3.15c0-2.28,1.85-4.13,4.13-4.13Z"/><path class="uuid-368c6ff2-9bd1-4c4d-97ac-519c3bc341f8" d="m156.38,475.75h47.76c2.28,0,4.13,1.85,4.13,4.13v3.15c0,2.28-1.85,4.13-4.13,4.13h-47.76c-2.28,0-4.13-1.85-4.13-4.13v-3.15c0-2.28,1.85-4.13,4.13-4.13Z"/><path class="uuid-368c6ff2-9bd1-4c4d-97ac-519c3bc341f8" d="m227.98,475.75h41.59c2.28,0,4.13,1.85,4.13,4.13v3.15c0,2.28-1.85,4.13-4.13,4.13h-41.59c-2.28,0-4.13-1.85-4.13-4.13v-3.15c0-2.28,1.85-4.13,4.13-4.13Z"/><path class="uuid-368c6ff2-9bd1-4c4d-97ac-519c3bc341f8" d="m289.66,475.75h20.83c2.28,0,4.13,1.85,4.13,4.13v3.15c0,2.28-1.85,4.13-4.13,4.13h-20.83c-2.28,0-4.13-1.85-4.13-4.13v-3.15c0-2.28,1.85-4.13,4.13-4.13Z"/><rect class="uuid-368c6ff2-9bd1-4c4d-97ac-519c3bc341f8" x="391.57" y="475.75" width="29.08" height="11.4" rx="4.13" ry="4.13"/><path class="uuid-368c6ff2-9bd1-4c4d-97ac-519c3bc341f8" d="m327.36,475.75h47.76c2.28,0,4.13,1.85,4.13,4.13v3.15c0,2.28-1.85,4.13-4.13,4.13h-47.76c-2.28,0-4.13-1.85-4.13-4.13v-3.15c0-2.28,1.85-4.13,4.13-4.13Z"/><path class="uuid-50ffc6d5-ecc8-4a75-8ece-ff4685ce4e52" d="m26,483.91h424.22c2.59,0,4.7,2.1,4.7,4.7v10.23c0,2.59-2.1,4.7-4.7,4.7H26c-2.59,0-4.7-2.11-4.7-4.7v-10.23c0-2.59,2.11-4.7,4.7-4.7Z"/><path class="uuid-f9295898-6569-43e1-8498-bca04d77b78e" d="m367.46,176.55H13.76c-6.18,0-11.2,5.03-11.2,11.21v257.66c0,4.78,3.88,8.66,8.65,8.66h358.81c4.78,0,8.66-3.89,8.66-8.66V187.75c0-6.18-5.03-11.2-11.22-11.2Z"/><path class="uuid-850c52c7-0ef8-41ef-b2fe-61677b5ef73f" d="m367.46,175.99H13.76c-6.49,0-11.77,5.27-11.77,11.78v257.66c0,5.09,4.12,9.23,9.21,9.23h358.81c5.09,0,9.23-4.14,9.23-9.23V187.75c0-6.49-5.27-11.77-11.78-11.77Zm10.65,269.44c0,4.46-3.63,8.09-8.09,8.09H11.21c-4.45,0-8.08-3.63-8.08-8.09V187.77c0-5.87,4.77-10.65,10.63-10.65h353.7c5.87,0,10.65,4.77,10.65,10.63v257.68Z"/><path class="uuid-850c52c7-0ef8-41ef-b2fe-61677b5ef73f" d="m367.46,175.98H13.77c-6.51,0-11.78,5.27-11.78,11.77v28.79h377.25v-28.79c0-6.5-5.27-11.77-11.78-11.77Z"/><path class="uuid-50ffc6d5-ecc8-4a75-8ece-ff4685ce4e52" d="m73.11,190.03c-3.44,0-6.23,2.79-6.23,6.23s2.79,6.23,6.23,6.23,6.23-2.79,6.23-6.23-2.79-6.23-6.23-6.23Z"/><path class="uuid-f06e6777-30c2-4863-b2f3-440a22e1fe41" d="m49.13,190.03c-3.44,0-6.23,2.79-6.23,6.23s2.79,6.23,6.23,6.23,6.23-2.79,6.23-6.23-2.79-6.23-6.23-6.23Z"/><circle class="uuid-f9295898-6569-43e1-8498-bca04d77b78e" cx="25.16" cy="196.26" r="5.66"/><path class="uuid-850c52c7-0ef8-41ef-b2fe-61677b5ef73f" d="m25.16,190.03c-3.44,0-6.23,2.79-6.23,6.23s2.79,6.23,6.23,6.23,6.23-2.79,6.23-6.23-2.79-6.23-6.23-6.23Zm0,11.32c-2.81,0-5.09-2.28-5.09-5.09s2.28-5.09,5.09-5.09,5.09,2.28,5.09,5.09-2.28,5.09-5.09,5.09Z"/><polygon class="uuid-f9295898-6569-43e1-8498-bca04d77b78e" points="361.45 189.43 357.05 193.83 352.64 189.43 350.36 191.71 354.77 196.11 350.36 200.52 352.64 202.8 357.05 198.39 361.45 202.8 363.73 200.52 359.33 196.11 363.73 191.71 361.45 189.43"/><path class="uuid-850c52c7-0ef8-41ef-b2fe-61677b5ef73f" d="m361.45,188.62l-4.4,4.41-4.41-4.41-3.08,3.08,4.4,4.41-4.4,4.41,3.08,3.08,4.41-4.41,4.4,4.41,3.08-3.08-4.41-4.41,4.41-4.41-3.08-3.08Zm-2.13,8.29l3.6,3.6-1.48,1.48-3.6-3.6-.8-.8-.8.8-3.6,3.6-1.48-1.48,3.6-3.6.8-.8-.8-.8-3.6-3.6,1.48-1.48,3.6,3.6.8.8.8-.8,3.6-3.6,1.48,1.48-3.6,3.6-.8.8.8.8Z"/><path class="uuid-f9295898-6569-43e1-8498-bca04d77b78e" d="m381.02,289.31H95.2c-6.11,0-11.08,4.12-11.08,9.18v62.74c0,5.06,4.97,9.18,11.08,9.18h285.82c6.11,0,11.08-4.12,11.08-9.18v-62.74c0-5.06-4.97-9.18-11.08-9.18Z"/><path class="uuid-850c52c7-0ef8-41ef-b2fe-61677b5ef73f" d="m381.02,288.67H95.2c-6.54,0-11.85,4.4-11.85,9.82v62.74c0,5.42,5.31,9.82,11.85,9.82h285.83c6.54,0,11.85-4.4,11.85-9.82v-62.74c0-5.42-5.3-9.82-11.85-9.82Zm10.31,72.56c0,4.71-4.62,8.54-10.31,8.54H95.2c-5.69,0-10.31-3.83-10.31-8.54v-62.74c0-4.71,4.62-8.54,10.31-8.54h285.83c5.69,0,10.31,3.83,10.31,8.54v62.74Z"/><rect class="uuid-50ffc6d5-ecc8-4a75-8ece-ff4685ce4e52" x="106.32" y="304.13" width="52.25" height="54.16" rx="5.42" ry="5.42"/><path class="uuid-f06e6777-30c2-4863-b2f3-440a22e1fe41" d="m163.64,301.44c-1.94-1.23-4.51-.65-5.75,1.29-.81,1.28-17.46,27.56-23.24,37.06-3.15-2.95-8.58-9.62-12.81-15.51-1.34-1.86-3.94-2.29-5.81-.95-1.87,1.34-2.29,3.94-.95,5.81,13.11,18.27,17.99,20.17,20.22,20.29.29.02.54,0,.75-.01,1.75-.11,3.31-1.1,4.15-2.65,1.76-3.23,18.45-29.66,24.73-39.57,1.23-1.94.65-4.51-1.29-5.75Z"/><polygon class="uuid-850c52c7-0ef8-41ef-b2fe-61677b5ef73f" points="177.41 311.01 289.16 311.01 289.29 307.29 177.41 307.29 177.41 311.01"/><polygon class="uuid-850c52c7-0ef8-41ef-b2fe-61677b5ef73f" points="177.41 322.23 379.31 322.23 379.44 318.5 177.41 318.5 177.41 322.23"/><polygon class="uuid-850c52c7-0ef8-41ef-b2fe-61677b5ef73f" points="177.41 333.44 364.86 333.44 365 329.72 177.41 329.72 177.41 333.44"/><polygon class="uuid-850c52c7-0ef8-41ef-b2fe-61677b5ef73f" points="300.85 311.01 335.35 311.01 335.48 307.29 300.98 307.29 300.85 311.01"/><polygon class="uuid-850c52c7-0ef8-41ef-b2fe-61677b5ef73f" points="177.41 343.92 289.16 343.92 289.29 340.2 177.41 340.2 177.41 343.92"/><polygon class="uuid-850c52c7-0ef8-41ef-b2fe-61677b5ef73f" points="177.41 355.14 379.31 355.14 379.44 351.41 177.41 351.41 177.41 355.14"/><polygon class="uuid-850c52c7-0ef8-41ef-b2fe-61677b5ef73f" points="300.85 343.92 335.35 343.92 335.48 340.2 300.98 340.2 300.85 343.92"/><rect class="uuid-50ffc6d5-ecc8-4a75-8ece-ff4685ce4e52" x="20.69" y="226.06" width="45.66" height="47.34" rx="4.73" ry="4.73"/><path class="uuid-f06e6777-30c2-4863-b2f3-440a22e1fe41" d="m70.79,223.71c-1.7-1.08-3.95-.57-5.02,1.13-.71,1.12-15.27,24.09-20.32,32.39-2.75-2.58-7.5-8.41-11.2-13.55-1.17-1.63-3.44-2.01-5.08-.83-1.63,1.17-2.01,3.45-.83,5.08,11.46,15.97,15.73,17.63,17.67,17.73.25.01.47,0,.65-.01,1.53-.09,2.89-.96,3.63-2.32,1.54-2.82,16.13-25.92,21.62-34.58,1.08-1.7.57-3.95-1.13-5.02Z"/><polygon class="uuid-850c52c7-0ef8-41ef-b2fe-61677b5ef73f" points="90.75 232.08 219.34 232.08 219.49 228.82 90.75 228.82 90.75 232.08"/><polygon class="uuid-850c52c7-0ef8-41ef-b2fe-61677b5ef73f" points="90.75 241.88 323.09 241.88 323.24 238.62 90.75 238.62 90.75 241.88"/><polygon class="uuid-850c52c7-0ef8-41ef-b2fe-61677b5ef73f" points="90.75 251.68 306.46 251.68 306.61 248.43 90.75 248.43 90.75 251.68"/><polygon class="uuid-850c52c7-0ef8-41ef-b2fe-61677b5ef73f" points="232.8 232.08 272.5 232.08 272.65 228.82 232.95 228.82 232.8 232.08"/><polygon class="uuid-850c52c7-0ef8-41ef-b2fe-61677b5ef73f" points="90.75 260.84 219.34 260.84 219.49 257.58 90.75 257.58 90.75 260.84"/><polygon class="uuid-850c52c7-0ef8-41ef-b2fe-61677b5ef73f" points="90.75 270.64 323.08 270.64 323.24 267.39 90.75 267.39 90.75 270.64"/><polygon class="uuid-850c52c7-0ef8-41ef-b2fe-61677b5ef73f" points="232.8 260.84 272.5 260.84 272.65 257.58 232.95 257.58 232.8 260.84"/><path class="uuid-50ffc6d5-ecc8-4a75-8ece-ff4685ce4e52" d="m23.87,393.13h36.19c2.61,0,4.73,2.12,4.73,4.73v37.87c0,2.61-2.12,4.73-4.73,4.73H23.87c-2.61,0-4.73-2.12-4.73-4.73v-37.87c0-2.61,2.12-4.74,4.74-4.74Z"/><path class="uuid-f06e6777-30c2-4863-b2f3-440a22e1fe41" d="m69.23,390.78c-1.7-1.08-3.95-.57-5.02,1.12-.71,1.12-15.27,24.09-20.32,32.39-2.75-2.58-7.5-8.4-11.2-13.55-1.17-1.63-3.44-2.01-5.08-.83s-2.01,3.44-.83,5.08c11.46,15.97,15.73,17.63,17.67,17.74.25.01.47,0,.65,0,1.53-.09,2.89-.96,3.63-2.32,1.54-2.82,16.13-25.92,21.62-34.59,1.08-1.69.57-3.94-1.13-5.02Z"/><polygon class="uuid-850c52c7-0ef8-41ef-b2fe-61677b5ef73f" points="89.19 399.14 221.77 399.14 221.92 395.89 89.19 395.89 89.19 399.14"/><polygon class="uuid-850c52c7-0ef8-41ef-b2fe-61677b5ef73f" points="89.19 408.95 328.72 408.95 328.87 405.69 89.19 405.69 89.19 408.95"/><polygon class="uuid-850c52c7-0ef8-41ef-b2fe-61677b5ef73f" points="89.19 418.75 311.58 418.75 311.73 415.49 89.19 415.49 89.19 418.75"/><polygon class="uuid-850c52c7-0ef8-41ef-b2fe-61677b5ef73f" points="235.64 399.14 276.56 399.14 276.72 395.89 235.79 395.89 235.64 399.14"/><polygon class="uuid-850c52c7-0ef8-41ef-b2fe-61677b5ef73f" points="89.19 427.91 221.77 427.91 221.92 424.65 89.19 424.65 89.19 427.91"/><polygon class="uuid-850c52c7-0ef8-41ef-b2fe-61677b5ef73f" points="89.19 437.71 328.71 437.71 328.87 434.45 89.19 434.45 89.19 437.71"/><polygon class="uuid-850c52c7-0ef8-41ef-b2fe-61677b5ef73f" points="235.64 427.91 276.56 427.91 276.72 424.65 235.79 424.65 235.64 427.91"/><path class="uuid-850c52c7-0ef8-41ef-b2fe-61677b5ef73f" d="m472.04,358.41c-1.83-.27-3.53,1.02-3.79,2.85l-16.91,140.43c-.26,1.83,1.02,3.53,2.85,3.79.16.02.31.03.47.03,1.64,0,3.08-1.21,3.31-2.89l16.91-140.43c.26-1.83-1.02-3.53-2.85-3.79Z"/><path class="uuid-850c52c7-0ef8-41ef-b2fe-61677b5ef73f" d="m418.46,358.41c-1.83-.27-3.53,1.02-3.79,2.85l-16.91,140.43c-.25,1.83,1.02,3.53,2.85,3.79.16.02.32.03.47.03,1.64,0,3.08-1.21,3.31-2.89l16.91-140.43c.26-1.83-1.02-3.53-2.85-3.79Z"/><path class="uuid-850c52c7-0ef8-41ef-b2fe-61677b5ef73f" d="m457.75,454.66h-47.11c-1.85,0-3.35,1.5-3.35,3.36s1.5,3.35,3.35,3.35h47.11c1.85,0,3.36-1.5,3.36-3.35s-1.5-3.36-3.36-3.36Z"/><path class="uuid-850c52c7-0ef8-41ef-b2fe-61677b5ef73f" d="m426.56,362.23c-1.83.26-3.11,1.95-2.85,3.79l16.91,136.61c.24,1.67,1.67,2.89,3.32,2.89.16,0,.31,0,.47-.03,1.83-.26,3.11-1.95,2.85-3.79l-16.91-136.61c-.26-1.83-1.94-3.12-3.79-2.85Z"/><path class="uuid-850c52c7-0ef8-41ef-b2fe-61677b5ef73f" d="m480.14,362.23c-1.83.26-3.11,1.95-2.85,3.79l16.91,136.61c.24,1.67,1.67,2.89,3.32,2.89.16,0,.31,0,.47-.03,1.83-.26,3.11-1.95,2.85-3.79l-16.91-136.61c-.26-1.83-1.95-3.12-3.79-2.85Z"/><path class="uuid-850c52c7-0ef8-41ef-b2fe-61677b5ef73f" d="m487.96,454.66h-47.12c-1.85,0-3.35,1.5-3.35,3.36s1.5,3.35,3.35,3.35h47.12c1.85,0,3.35-1.5,3.35-3.35s-1.5-3.36-3.35-3.36Z"/><path class="uuid-50ffc6d5-ecc8-4a75-8ece-ff4685ce4e52" d="m490.38,343.47h-85.8c-3.21,0-5.8,2.6-5.8,5.8v12.39c0,3.21,2.6,5.8,5.8,5.8h85.8c3.2,0,5.8-2.6,5.8-5.8v-12.39c0-3.21-2.6-5.8-5.8-5.8Z"/><path class="uuid-8cd1f365-c970-43c9-98d1-770f09889bc9" d="m492.44,253.19c-2.6-6.71-3.13-11.27-7.26-21.41-5.85-.71-11.85,1.17-17.28,3.45,1.56,5,3.12,10,4.68,14.99,1.14,3.64,2.3,7.33,4.34,10.56,2.05,3.22,5.13,5.97,8.86,6.78,2.85.62,6.18-.14,7.83-2.54,1.15-1.68,1.31-3.89.87-5.88-.44-1.99-1.3-4.05-2.04-5.95Z"/><path class="uuid-f9295898-6569-43e1-8498-bca04d77b78e" d="m507.63,299.79l-9.78-30.35-1.67-5.18-2.17-6.76-2.71-7.02s-10.03-16.27-17.83-13.11c-1.68.74-3.03,1.79-4.09,3.03-.15,2.02-.17,4.06-.06,6.07.26,4.87,1.27,9.69,2.97,14.25.57,1.6,1.24,3.16,2,4.67l.88,1.53,2.09,3.61,1.67,2.89,2,3.44,13.58,23.49s0,.01,0,.01l.06.11h.01l7.26.38,6.25.32-.45-1.38s0-.01-.01-.02Z"/><path class="uuid-850c52c7-0ef8-41ef-b2fe-61677b5ef73f" d="m491.58,250.32c-.41-.67-10.28-16.45-18.23-13.24-1.65.73-3.07,1.78-4.2,3.12l-.07.08v.1c-.16,2.07-.18,4.12-.07,6.12.27,4.91,1.27,9.74,2.99,14.34.56,1.57,1.24,3.15,2.02,4.72l20.13,34.83-.02.06.26.35,14.14.74-14.22-44.15-2.73-7.07Zm3.2,49.86l-20.19-34.92c-.76-1.53-1.43-3.09-1.99-4.64-1.7-4.54-2.69-9.31-2.95-14.15-.11-1.93-.09-3.93.05-5.93,1.06-1.22,2.37-2.19,3.9-2.86,7.45-3.01,17.34,12.83,17.41,12.93l2.7,7,13.93,43.25-12.87-.68Z"/><path class="uuid-8cd1f365-c970-43c9-98d1-770f09889bc9" d="m505.87,296.84c-2.36-2.92-5.01-1.53-8.74-.04-2.92,1.16-3.34,6.96-2.62,9.46.72,2.5,2.79,4.45,4.49,6.52,1.68,2.05,7.54,17.89,12.27,3.46.31-.94-1.19-6.3-1.36-7.68-.62-4.95-2-9.22-4.03-11.73Z"/><path class="uuid-8cd1f365-c970-43c9-98d1-770f09889bc9" d="m508.79,312.08c-.44-.36-.98-.72-1.54-.58-.89.21-1.03,1.42-.96,2.33.26,3.77.52,7.54.78,11.3.03.47.07.95.28,1.36s.66.75,1.12.69c.57-.07.91-.67,1.13-1.2,1.1-2.61,1.72-5.43,1.83-8.26.11-2.75-.45-3.86-2.64-5.64Z"/><path class="uuid-8cd1f365-c970-43c9-98d1-770f09889bc9" d="m505.96,312.7c-.44-.36-.98-.72-1.54-.58-.89.21-1.03,1.42-.96,2.33.26,3.77.52,7.54.78,11.3.03.47.07.95.28,1.36.21.42.66.75,1.12.69.57-.07.91-.67,1.13-1.2,1.1-2.62,1.72-5.43,1.83-8.26.11-2.75-.45-3.86-2.64-5.64Z"/><path class="uuid-8cd1f365-c970-43c9-98d1-770f09889bc9" d="m503.24,311.33c-.44-.36-.98-.72-1.54-.58-.89.21-1.03,1.42-.96,2.33.26,3.77.52,7.54.78,11.3.03.47.07.95.28,1.36s.66.75,1.12.69c.57-.07.91-.67,1.13-1.2,1.1-2.61,1.72-5.43,1.83-8.26.11-2.75-.45-3.86-2.64-5.64Z"/><path class="uuid-8cd1f365-c970-43c9-98d1-770f09889bc9" d="m500.25,298.56c-1.16-.57-2.53-.97-3.72-.48-1.45.59-2.12,2.25-2.48,3.77-.42,1.75-1.37,3.42-1,5.2.47,2.24,1.07,4.47,1.59,6.7.09.39.19.8.45,1.12.25.32.71.51,1.07.33.4-.19.51-.69.58-1.12.67-3.85,2.08-7.58,4.12-10.91.65-1.06,1.39-2.37.79-3.46-.29-.54-.85-.87-1.4-1.14Z"/><path class="uuid-f9295898-6569-43e1-8498-bca04d77b78e" d="m464.74,197.08c-.32-.09-.47-.06-.47-.06l2.18,40.77,24.08-3.1s-15.75-33.21-25.79-37.6Z"/><path class="uuid-850c52c7-0ef8-41ef-b2fe-61677b5ef73f" d="m497.62,203.55c-1.25-2.84-2.54-5.74-4.69-7.98-1.54-1.6-.65-1.08-1.9-2.91-1.48-2.16-.48-5.45-1-8.02-.71-3.49-.27-9.12-1.42-12.49-2.14-6.31-4.29-12.61-6.43-18.92-1.21-3.57-2.51-7.27-5.17-9.94-3.36-3.37-8.31-4.49-12.93-4.34-3.55.12-8.34.28-11.74,1.48-8.04,2.84-14.18,15.74-14.03,23.68.09,4.72,1.92,9.62.23,14.04-1.57,4.12-5.72,6.54-9.49,8.83-3.77,2.29-7.75,5.21-8.54,9.54-.65,3.53,1.02,7.29-.06,10.71-1.01,3.17-4.12,5.22-5.63,8.19-2.22,4.36-.37,10.02,3.37,13.17,3.74,3.15,8.9,4.15,13.78,3.91s9.64-1.57,14.42-2.58c17.8-3.74,30.8-1.76,48.15,3.67,3.39,1.06,7.39,2.2,10.22.05,1.89-1.43,2.62-4,2.43-6.37-.19-2.36-1.16-4.58-2.11-6.75-2.49-5.66-4.98-11.32-7.47-16.99Z"/><path class="uuid-f9295898-6569-43e1-8498-bca04d77b78e" d="m480.22,162.85c-2.42-.12-4.51,2.31-4.67,5.43-.16,3.12-.27,7.51,2.15,7.63,2.42.12,6.46-4.07,6.62-7.19.16-3.12-1.68-5.75-4.1-5.87Z"/><path class="uuid-850c52c7-0ef8-41ef-b2fe-61677b5ef73f" d="m480.24,162.53c-.06,0-.13,0-.19,0-2.51,0-4.65,2.52-4.82,5.73-.14,2.73-.39,7.82,2.45,7.97.04,0,.08,0,.12,0,2.7,0,6.67-4.33,6.83-7.49.16-3.29-1.81-6.08-4.4-6.2Zm-2.44,13.06s-.06,0-.08,0c-1.94-.1-2.04-3.57-1.85-7.3.15-2.87,2-5.13,4.18-5.13.06,0,.11,0,.16,0h0c2.24.11,3.94,2.6,3.79,5.54-.15,2.99-4.04,6.89-6.2,6.89Z"/><path class="uuid-850c52c7-0ef8-41ef-b2fe-61677b5ef73f" d="m481.81,164.39c-1.69.23-3.56,1.2-4.73,6.63-.05.23.08.46.31.54.05.02.1.02.15.02.18,0,.34-.1.42-.27.2-.43.32-.87.44-1.3.21-.75.38-1.39.87-1.67.42-.24,1.12-.22,2.08.04.24.07.5-.07.57-.32.07-.25-.08-.5-.32-.57-.95-.27-1.7-.32-2.29-.16.84-1.52,1.78-1.9,2.64-2.02.25-.03.43-.27.4-.52-.03-.25-.27-.44-.52-.4Z"/><path class="uuid-850c52c7-0ef8-41ef-b2fe-61677b5ef73f" d="m473.11,146.57c-4.56-2.48-9.86-3.87-15.22-3.98-3.86-.08-7.95.57-10.88,2.81-2.09,1.6-3.4,3.86-4.3,6.17-2.15,5.48-2.24,11.57-.27,17.08,1.12,3.13,2.91,6.06,5.21,8.63,1.05,1.17,2.48,2.95,3.98,3.67,1.94.93,2.25.07,3.73-1.19,5.29-4.5,12.15-6.85,18.4-10.08,3.05-1.58,6.07-3.52,7.6-6.34,1.64-3.03,1.27-6.71-.43-9.69-1.7-2.99-4.6-5.33-7.82-7.08Z"/><path class="uuid-5bb74f58-90b8-487b-a483-319f140ec5da" d="m472.84,204.94c-7.46-10.66-16.17-10.93-16.17-10.93,0,0-1.46-.55-5.57,1.31-4.38,1.99-8.04,5.26-10.81,9.19-21.05,29.94-20.05,62.32-24.12,97.6-.67,3.33-3.06,12.59-3.85,17.14,4.46.47,10.58-5.49,12.03-5.18,6.21,1.33,18.67-1.44,28.23,1.57,6,1.89,16.97,5.71,14.82,2.63-21.13-30.22-1.78-44.67,5.82-56.74,4.96-7.88,14.09-13.76,12.45-24.1-.43-2.69-6.01-22.76-12.82-32.5Z"/><polygon class="uuid-f9295898-6569-43e1-8498-bca04d77b78e" points="450.83 187.6 447.5 197.38 463.05 200.72 464.35 190.32 465.03 184.87 452.65 182.22 450.83 187.6"/><path class="uuid-850c52c7-0ef8-41ef-b2fe-61677b5ef73f" d="m447.08,197.61l16.24,3.48,1.34-10.74.72-5.74-12.94-2.78-5.36,15.77Zm17.59-12.49l-1.9,15.21-14.86-3.19,4.95-14.56,11.81,2.54Z"/><path class="uuid-850c52c7-0ef8-41ef-b2fe-61677b5ef73f" d="m451.69,185.13c1.75,2.42,5.27,4.51,7.62,5.02,2.47.53,4.39.39,5.03.17l.68-5.45-12.37-2.66-.96,2.92Z"/><path class="uuid-850c52c7-0ef8-41ef-b2fe-61677b5ef73f" d="m463.96,145.51c-9.14.19-16.4,7.26-16.23,15.8.18,8.54,7.72,15.32,16.86,15.13,9.14-.19,16.4-7.26,16.23-15.81-.17-8.54-7.72-15.31-16.86-15.13Z"/><path class="uuid-f9295898-6569-43e1-8498-bca04d77b78e" d="m464.24,149.23c-8.82.18-15.78,9.54-15.55,20.91.23,11.37,7.57,20.44,16.39,20.26,8.82-.18,15.78-9.54,15.55-20.91-.23-11.37-7.57-20.44-16.39-20.26Z"/><path class="uuid-850c52c7-0ef8-41ef-b2fe-61677b5ef73f" d="m464.23,148.91c-8.98.18-16.09,9.71-15.86,21.24.11,5.57,1.91,10.77,5.05,14.65,3.1,3.83,7.13,5.92,11.4,5.92.09,0,.18,0,.27,0,4.37-.09,8.42-2.36,11.42-6.39,2.98-4.01,4.56-9.28,4.44-14.85-.12-5.57-1.91-10.77-5.04-14.65-3.16-3.91-7.32-6.02-11.67-5.92Zm11.77,35.03c-2.88,3.87-6.76,6.05-10.92,6.13-4.16.08-8.13-1.93-11.16-5.68-3.05-3.77-4.79-8.84-4.91-14.26-.23-11.18,6.61-20.41,15.24-20.59.08,0,.17,0,.25,0,4.07,0,7.94,2.01,10.91,5.68,3.05,3.77,4.79,8.84,4.9,14.26.11,5.43-1.42,10.56-4.32,14.45Z"/><path class="uuid-f9295898-6569-43e1-8498-bca04d77b78e" d="m445.83,162.93c-2.41.22-4.14,2.92-3.85,6.04.29,3.11,4.49,7.13,6.91,6.91,2.41-.22,2.12-4.6,1.83-7.72-.29-3.11-2.47-5.45-4.89-5.23Z"/><path class="uuid-850c52c7-0ef8-41ef-b2fe-61677b5ef73f" d="m449.31,164.08c-.99-1.07-2.25-1.59-3.51-1.47-1.27.12-2.4.85-3.18,2.08-.76,1.2-1.11,2.73-.96,4.3.14,1.52,1.17,3.35,2.75,4.91,1.47,1.44,3.08,2.3,4.29,2.3.07,0,.14,0,.22,0,1.23-.11,1.97-1.14,2.22-3.05.2-1.54.05-3.39-.09-5.01-.14-1.58-.76-3.02-1.73-4.05Zm1.19,8.98c-.2,1.6-.74,2.41-1.64,2.5-.98.09-2.59-.73-4-2.12-1.46-1.43-2.44-3.16-2.56-4.51-.13-1.43.18-2.82.86-3.9.68-1.06,1.63-1.69,2.7-1.79.09,0,.19-.01.29-.01.97,0,1.92.45,2.69,1.28.88.94,1.43,2.24,1.56,3.68.16,1.7.27,3.46.09,4.87Z"/><path class="uuid-850c52c7-0ef8-41ef-b2fe-61677b5ef73f" d="m444.31,164.54c-.25-.03-.48.16-.51.42-.02.26.16.48.42.51.87.08,1.83.43,2.73,1.91-.6-.13-1.34-.05-2.28.25-.24.08-.38.34-.3.58s.34.39.58.3c.95-.3,1.64-.34,2.07-.13.49.25.7.89.94,1.63.14.43.28.87.49,1.28.08.16.24.25.41.25.06,0,.11,0,.17-.03.22-.08.34-.32.28-.55-1.39-5.38-3.31-6.27-5-6.43Z"/><path class="uuid-850c52c7-0ef8-41ef-b2fe-61677b5ef73f" d="m467.55,167.68c-.02-.26-.25-.44-.51-.42-.26.02-.44.25-.42.51l.55,5.62c.03.35.05.83-.16.99-.12.09-.37.11-.53.1-.81,0-1.61-.21-2.31-.6-.22-.12-.51-.04-.63.18-.13.22-.05.51.18.63.84.47,1.8.72,2.77.72.31-.02.73-.02,1.08-.28.67-.49.58-1.43.54-1.83l-.55-5.62Z"/><path class="uuid-850c52c7-0ef8-41ef-b2fe-61677b5ef73f" d="m461.04,179.12c.68,1.3,1.51,2.65,2.7,3.51,1.56,1.12,3.84,1.11,5.39-.03.89-.65,1.67-1.45,2.29-2.36-3.32,1.53-7.46,1.09-10.38-1.12Z"/><path class="uuid-850c52c7-0ef8-41ef-b2fe-61677b5ef73f" d="m473.2,164.71c-.6.01-1.07.83-1.05,1.83.02,1,.53,1.79,1.13,1.78.6-.01,1.07-.83,1.05-1.83-.02-1-.53-1.8-1.13-1.78Z"/><path class="uuid-850c52c7-0ef8-41ef-b2fe-61677b5ef73f" d="m459.07,165c-.6.01-1.07.83-1.05,1.83.02,1,.53,1.79,1.13,1.78s1.07-.83,1.05-1.83c-.02-1-.53-1.8-1.13-1.78Z"/><path class="uuid-850c52c7-0ef8-41ef-b2fe-61677b5ef73f" d="m459.41,160.82c-.78.1-1.72.81-2.32,1.29-.34.27-.68.62-.72,1.05-.06.58.43,1.06.87,1.44.63-.91,1.54-1.61,2.58-1.99.26-.09.55-.2.64-.46.18-.53-.55-1.4-1.05-1.33Z"/><path class="uuid-850c52c7-0ef8-41ef-b2fe-61677b5ef73f" d="m472.95,160.5c-.49-.07-1.24.79-1.06,1.32.09.26.38.37.64.46,1.03.39,1.94,1.11,2.56,2.02.45-.38.93-.85.88-1.43-.04-.44-.37-.78-.71-1.06-.59-.49-1.53-1.21-2.31-1.32Z"/><path class="uuid-850c52c7-0ef8-41ef-b2fe-61677b5ef73f" d="m475.78,152.16c-.92.02,1.21,3.97,1.3,8.28.09,4.32,3.06,5.93,3.06,5.93,0,0,.35-1.68.27-6-.09-4.32-3.7-8.24-4.62-8.22Z"/><path class="uuid-850c52c7-0ef8-41ef-b2fe-61677b5ef73f" d="m455.57,152.58c-.92.02-7.17,3.47-7.08,7.79.09,4.31.16,7.64.16,7.64,0,0,6.05-2.78,5.97-7.1-.09-4.32,1.88-8.35.96-8.33Z"/><path class="uuid-850c52c7-0ef8-41ef-b2fe-61677b5ef73f" d="m466.96,147.73c-2.03-.78-4.2-1.27-6.37-1.16-2.17.12-4.34.88-5.95,2.34-1.32,1.21-2.21,2.84-2.77,4.54s-.83,3.49-1.08,5.26c-.04.26-.06.55.12.73.31.31.82,0,1.18-.26,1.34-.95,3.09-1,4.73-1.1,2.81-.18,5.63-.62,8.22-1.72,2.59-1.1,4.94-2.91,6.33-5.35l.45.63c-.86-1.96-2.87-3.15-4.86-3.92Z"/><path class="uuid-850c52c7-0ef8-41ef-b2fe-61677b5ef73f" d="m473.64,151.26c-.86-.61-1.79-1.14-2.76-1.57-.33-.15-.72-.28-1.05-.13-.33.15-.34,1.01,0,1.12-.13,1.61.57,3.2,1.57,4.46,1,1.27,2.29,2.27,3.54,3.29,1.25,1.02,2.5,2.09,3.38,3.44.7-1.86.11-4.44-.76-6.22-.87-1.79-2.31-3.25-3.93-4.4Z"/><path class="uuid-850c52c7-0ef8-41ef-b2fe-61677b5ef73f" d="m503.67,435.83c.16-5.72-3.93-12.89-8.06-16.72-2.54-2.35-6.21-3.79-9.51-2.77-2.45.76-4.39,2.79-5.34,5.17-.95,2.38-.97,5.06-.39,7.56,1.05,4.51,3.94,8.39,5.3,12.83,1.1,3.59,1.16,7.44,2.27,11.04,1.74,5.62,6.16,10.36,11.65,12.48,1.44.56,2.99.95,4.53.77,1.54-.18,3.06-1,3.78-2.37,1.03-1.96.2-4.34-.54-6.44-2.46-6.91-3.9-14.22-3.69-21.56Z"/><path class="uuid-f9295898-6569-43e1-8498-bca04d77b78e" d="m510.55,314.83c-8.48-9.33-21.84-9.7-34.2-10.46-15.34-.95-30.8.07-45.87,3.09-4.94.99-10.15,2.36-13.57,6.06-4.73,5.1-4.55,13.38-1.24,19.49,3.93,7.27,11.52,12.06,19.52,14.14,8,2.09,16.43,1.75,24.64.8,8.42-.97,16.76-2.58,24.94-4.77-.06,2.51.1,5.04.18,7.55.22,7.54,1.46,15,2.5,22.46,1.02,7.33,2.04,14.66,3.06,21.99.67,6.79,2.32,14.32.36,19.12-1.06,2.58-3.56,2.19-4.91,4.62-1.36,2.43-2.26,5.38-1.3,7.99,1.35,3.69,5.56,8.1,7.68,11.4,2.26,3.52,1.09,5.21,3.29,8.78,4.13,6.74,7.88,4.8,7.88.72,0-8.17.54-12.56,1.09-20.71.49-7.41,2.74-28.61,3.09-36.53,2.56-22.45,10.61-50.6,7.85-67.31-.38-2.32-2.73-6.43-4.95-8.42Z"/><path class="uuid-850c52c7-0ef8-41ef-b2fe-61677b5ef73f" d="m510.78,314.61c-8.16-8.98-20.61-9.73-32.64-10.46l-1.77-.11c-15.45-.96-30.9.09-45.95,3.1-4.78.96-10.17,2.3-13.75,6.15-5.22,5.63-4.33,14.24-1.29,19.86,3.66,6.77,10.85,11.99,19.72,14.3,8.63,2.25,17.76,1.62,24.75.81,8.19-.94,16.46-2.51,24.58-4.67-.03,1.65.04,3.32.1,4.95.03.73.06,1.46.08,2.2.18,6.29,1.09,12.61,1.97,18.72.18,1.26.36,2.52.54,3.78l3.05,21.98c.14,1.45.33,2.96.52,4.42.68,5.33,1.38,10.85-.14,14.54-.51,1.24-1.39,1.75-2.33,2.28-.92.53-1.88,1.07-2.57,2.31-1.2,2.15-2.4,5.32-1.32,8.26.89,2.45,2.96,5.13,4.97,7.72,1.04,1.34,2.01,2.61,2.74,3.74,1.12,1.73,1.37,2.99,1.64,4.32.26,1.31.54,2.66,1.65,4.47,1.82,2.96,3.78,4.58,5.5,4.58.24,0,.48-.03.72-.1,1.37-.39,2.25-1.93,2.25-3.93,0-6.05.29-10,.67-14.99.13-1.73.27-3.59.41-5.7.2-3.08.72-8.6,1.26-14.45.76-8.18,1.62-17.46,1.83-22.07.86-7.57,2.38-15.92,3.84-24,2.87-15.87,5.84-32.27,4.01-43.4-.41-2.47-2.86-6.65-5.03-8.58Zm.4,51.87c-1.47,8.09-2.98,16.46-3.85,24.07-.21,4.62-1.07,13.89-1.83,22.06-.54,5.85-1.06,11.38-1.26,14.46-.14,2.11-.28,3.96-.41,5.69-.38,5.01-.68,8.97-.67,15.04,0,1.71-.7,3.01-1.78,3.32-1.56.41-3.61-1.13-5.5-4.21-1.05-1.71-1.3-2.95-1.57-4.26-.27-1.33-.55-2.7-1.72-4.53-.74-1.16-1.73-2.43-2.78-3.79-1.88-2.43-4.01-5.19-4.87-7.55-.99-2.71.15-5.7,1.28-7.73.6-1.08,1.44-1.56,2.33-2.06.99-.56,2.01-1.14,2.6-2.59,1.58-3.85.87-9.45.18-14.86-.18-1.46-.37-2.96-.52-4.42l-3.06-21.99c-.17-1.26-.36-2.52-.54-3.78-.87-6.1-1.78-12.4-1.96-18.65-.02-.73-.05-1.47-.08-2.2-.07-1.75-.14-3.56-.1-5.33v-.43s-.4.11-.4.11c-8.22,2.21-16.59,3.81-24.9,4.77-6.93.79-15.98,1.43-24.52-.8-8.7-2.27-15.74-7.36-19.32-13.99-2.94-5.42-3.82-13.72,1.19-19.12,3.45-3.71,8.73-5.02,13.4-5.96,15-3,30.41-4.04,45.78-3.09l1.77.11c11.91.72,24.23,1.46,32.24,10.28,2.1,1.88,4.46,5.88,4.85,8.23,1.82,11.02-1.14,27.37-4.01,43.18Z"/><path class="uuid-850c52c7-0ef8-41ef-b2fe-61677b5ef73f" d="m562.53,405.22c-5.33-5.04-9.95-10.89-13.1-17.52-2.46-5.17-9.37-9.69-14.79-11.21-3.33-.94-7.25-.55-9.73,1.87-1.84,1.79-2.64,4.49-2.4,7.04.24,2.55,1.44,4.95,3.1,6.91,2.99,3.54,7.33,5.68,10.56,9.01,2.62,2.7,4.42,6.1,7.05,8.79,4.11,4.22,10.2,6.42,16.05,5.81,1.54-.16,3.1-.52,4.39-1.38,1.29-.86,2.27-2.28,2.29-3.83.03-2.22-1.8-3.96-3.41-5.48Z"/><path class="uuid-f9295898-6569-43e1-8498-bca04d77b78e" d="m546.25,379.53c-2.93-6.82-10.59-26.72-13.88-33.94-7.93-21.15-13.58-49.88-23.65-63.51-1.4-1.89-5.36-4.49-8.24-5.24-11.79-4.45-23.86,1.31-35.22,6.25-14.09,6.13-27.39,14.08-39.43,23.63-3.95,3.13-7.96,6.72-9.33,11.57-1.89,6.69,2.04,13.98,7.77,17.92,6.81,4.68,15.75,5.49,23.82,3.71,8.07-1.78,15.42-5.92,22.3-10.5,7.05-4.69,13.75-9.92,20.04-15.6,1.09,2.27,2.39,4.44,3.59,6.64,3.63,6.62,8.13,12.69,12.45,18.87,4.24,6.06,8.49,12.13,12.73,18.19,3.69,5.74,8.58,11.7,9.02,16.86.23,2.77-2.17,3.57-2.27,6.35-.1,2.78.44,5.81,2.48,7.71,2.88,2.67,8.64,4.68,12.03,6.65,3.61,2.1,3.35,4.14,6.92,6.33,6.75,4.12,9.21.69,7.34-2.95-3.73-7.27-5.23-11.43-8.46-18.94Z"/><path class="uuid-850c52c7-0ef8-41ef-b2fe-61677b5ef73f" d="m548.77,384.67c-.67-1.61-1.39-3.33-2.23-5.27-1.22-2.84-3.29-8.01-5.47-13.48-3.04-7.62-6.49-16.25-8.4-20.44-2.68-7.13-5.13-15.25-7.5-23.11-4.66-15.44-9.49-31.4-16.19-40.47-1.49-2.01-5.58-4.62-8.39-5.35-11.34-4.28-22.78.72-33.84,5.55l-1.62.71c-14.17,6.16-27.46,14.13-39.5,23.67-3.82,3.02-8.01,6.67-9.44,11.73-2.09,7.39,2.63,14.65,7.89,18.27,6.35,4.36,15.11,5.73,24.07,3.76,8.71-1.93,16.55-6.65,22.41-10.54,6.87-4.57,13.52-9.73,19.76-15.35.73,1.49,1.56,2.95,2.35,4.37.36.63.71,1.27,1.06,1.91,3.03,5.53,6.72,10.75,10.29,15.8.73,1.03,1.45,2.06,2.17,3.09,4.24,6.07,8.48,12.13,12.72,18.18.79,1.23,1.65,2.48,2.48,3.7,3.03,4.44,6.16,9.03,6.49,13.01.11,1.34-.45,2.19-1.04,3.09-.58.89-1.19,1.8-1.24,3.22-.09,2.45.29,5.83,2.58,7.96,1.91,1.77,4.97,3.21,7.93,4.61,1.54.72,2.99,1.41,4.16,2.09,1.78,1.04,2.57,2.04,3.42,3.1.83,1.04,1.68,2.12,3.5,3.23,2.09,1.27,3.94,1.92,5.39,1.92.9,0,1.65-.25,2.2-.76,1.04-.97,1.12-2.74.21-4.52-2.76-5.38-4.29-9.03-6.22-13.65Zm5.58,17.71c-1.19,1.1-3.74.64-6.82-1.24-1.72-1.05-2.5-2.03-3.33-3.08-.84-1.06-1.72-2.16-3.6-3.25-1.19-.69-2.66-1.38-4.2-2.11-2.91-1.37-5.93-2.79-7.76-4.5-2.12-1.96-2.46-5.14-2.38-7.46.04-1.24.58-2.04,1.13-2.9.63-.95,1.27-1.93,1.14-3.49-.35-4.15-3.53-8.81-6.6-13.32-.83-1.21-1.68-2.46-2.47-3.69-4.24-6.06-8.49-12.13-12.73-18.19-.72-1.03-1.45-2.06-2.18-3.09-3.56-5.04-7.24-10.25-10.25-15.74-.35-.64-.71-1.27-1.07-1.91-.86-1.53-1.75-3.11-2.52-4.71l-.18-.39-.32.29c-6.31,5.7-13.04,10.94-20,15.57-5.82,3.87-13.59,8.55-22.2,10.45-8.77,1.94-17.37.61-23.57-3.66-5.08-3.5-9.64-10.49-7.64-17.57,1.38-4.88,5.48-8.44,9.22-11.41,12-9.51,25.25-17.44,39.36-23.59l1.62-.71c10.94-4.78,22.25-9.73,33.39-5.53,2.73.71,6.65,3.2,8.06,5.12,6.64,8.98,11.44,24.89,16.09,40.28,2.38,7.87,4.83,16,7.53,23.17,1.92,4.2,5.36,12.83,8.39,20.44,2.19,5.48,4.25,10.65,5.48,13.49.84,1.94,1.55,3.66,2.23,5.26,1.94,4.63,3.47,8.29,6.24,13.69.78,1.52.75,3-.07,3.77Z"/><path class="uuid-f9295898-6569-43e1-8498-bca04d77b78e" d="m494.55,312.4l-.72.15c.18.89,4.67,21.8,16.84,28.56l.36-.65c-11.88-6.6-16.43-27.85-16.48-28.06Z"/><path class="uuid-f9295898-6569-43e1-8498-bca04d77b78e" d="m423.91,263.59l19.72-28.89c-10.57-.2-8.53-17.01-17.36-10.33,0,0-40.64,44.92-30.02,54,13.73,11.74,58.93-3.66,58.93-3.66l-22.51-6.92-8.75-4.21Z"/><path class="uuid-850c52c7-0ef8-41ef-b2fe-61677b5ef73f" d="m424.38,263.47l19.51-28.58.33-.49h-.59c-4.86-.1-6.95-3.83-8.79-7.12-1.31-2.32-2.43-4.33-4.32-4.73-1.25-.26-2.71.25-4.49,1.61-1.34,1.48-32.75,36.37-31.86,50.36.11,1.76.74,3.14,1.87,4.1,3.88,3.32,10.18,4.52,17.24,4.52,17.86,0,40.67-7.67,42-8.12l.93-.32-23.41-7.19-8.42-4.04Zm-27.93,14.67c-.99-.85-1.54-2.08-1.64-3.66-.88-13.72,31.37-49.53,31.65-49.85,1.33-1.01,2.45-1.5,3.41-1.5.18,0,.36.02.53.05,1.61.34,2.66,2.22,3.89,4.41,1.76,3.14,3.94,7.03,8.76,7.41l-19.61,28.72,9.13,4.38,21.56,6.62c-6.58,2.12-45.33,13.96-57.67,3.41Z"/><path class="uuid-5bb74f58-90b8-487b-a483-319f140ec5da" d="m447.5,197.38c-26.06-3.44-39.12,45.45-39.12,45.45l36.04,17.6,3.42-30.88s7.63-31.11-.34-32.17Z"/><path class="uuid-850c52c7-0ef8-41ef-b2fe-61677b5ef73f" d="m498.69,228.42l-68.43-.21c-1.73,0-3.48,1.31-3.92,2.94l-10.12,37.93c-.44,1.63.61,2.96,2.34,2.96l68.43.21c1.73,0,3.48-1.31,3.92-2.94l10.12-37.93c.44-1.63-.61-2.96-2.34-2.96Z"/><path class="uuid-850c52c7-0ef8-41ef-b2fe-61677b5ef73f" d="m438.77,266.16h-44.18c-1.58,0-2.85,1.28-2.85,2.85s1.28,2.85,2.85,2.85h44.18c1.58,0,2.85-1.28,2.85-2.85s-1.28-2.85-2.85-2.85Z"/><path class="uuid-f9295898-6569-43e1-8498-bca04d77b78e" d="m463.06,262.64c-.64.24-2.29,2.55-2.29,2.55,0,0,2.36-3.42,2.07-4.14-.29-.72-.86-1.43-1.64-1.04-.79.4-1.71,1.35-2.36,2.31-.64.95-1.71,2.15-1.71,2.15l2.36-3.58s1.36-1.67.86-2.31c-.5-.64-1.21-.96-1.93-.48-.71.48-2.07,2.55-2.57,3.18-.5.64-1.64,2.31-2.36,2.94-.72.64.5-1.12.93-2.39.43-1.27,1.38-3.24.33-3.61-.84-.3-1.41.27-2.19,1.46-.79,1.19-.5,2.31-2.57,4.7-2.07,2.39-3.57,2.79-5.57,3.26-2,.48-3.36-1.19-4.36-1.04s-1.86.8-1.79,1.35c.07.56,1.5,1.11,1.43,1.83-.07.72-20.88,1.87-22.38,2.11l10.54,9.53s20.5-3.07,27.14-6.63c2.3-1.23,5.43-3.1,7.29-6.21,1.86-3.11,2.86-4.54,2.36-5.33s-.93-.88-1.57-.64Z"/><path class="uuid-850c52c7-0ef8-41ef-b2fe-61677b5ef73f" d="m462.95,262.34s-.1.04-.15.07c.3-.63.46-1.19.34-1.49-.15-.38-.5-1.05-1.1-1.27-.31-.11-.66-.09-.99.07-.23.11-.47.27-.71.47.34-.6.62-1.34.25-1.81-.67-.86-1.58-1.07-2.36-.55-.58.39-1.48,1.64-2.13,2.55-.21.29-.39.54-.52.7-.13.17-.31.41-.51.68-.2.26-.41.56-.64.86.11-.23.2-.47.28-.69.07-.2.15-.42.23-.64.39-1.07.8-2.17.48-2.87-.11-.24-.31-.42-.56-.51-1.14-.41-1.86.52-2.57,1.59-.3.46-.45.9-.62,1.36-.3.84-.63,1.8-1.93,3.3-2.05,2.36-3.53,2.71-5.41,3.16-1.07.26-1.97-.18-2.75-.57-.58-.29-1.08-.54-1.59-.46-1.07.17-2.16.9-2.05,1.71.05.37.4.66.76.96.25.21.56.46.64.67-1.38.46-11.16,1.14-16.51,1.52-2.97.21-5.11.36-5.58.43l.1.63c.44-.07,2.69-.23,5.53-.43,16.35-1.15,17.07-1.43,17.12-1.96.06-.57-.45-.98-.89-1.35-.21-.17-.52-.43-.54-.55-.04-.29.6-.85,1.52-1,.31-.05.72.16,1.2.4.84.42,1.87.94,3.18.62,1.91-.46,3.56-.85,5.74-3.36,1.38-1.59,1.75-2.65,2.04-3.5.16-.45.29-.84.55-1.22.81-1.23,1.22-1.55,1.82-1.34.1.04.16.09.2.18.21.46-.2,1.57-.49,2.38-.08.23-.17.45-.23.66-.18.54-.51,1.16-.78,1.67-.4.77-.52,1-.26,1.2.25.2.5-.04.62-.14.55-.49,1.33-1.55,1.89-2.31.2-.27.37-.51.5-.67.13-.16.31-.42.53-.72.59-.82,1.48-2.07,1.97-2.39.68-.45,1.23.06,1.5.41.2.26-.29,1.21-.87,1.94l-2.36,3.58.5.39s1.1-1.22,1.74-2.18c.65-.97,1.55-1.85,2.24-2.2.17-.08.32-.1.48-.04.27.1.54.44.73.91.1.38-.97,2.29-2.04,3.84l.52.37c.66-.93,1.76-2.29,2.14-2.43.49-.18.78-.16,1.19.51.33.54-.44,1.82-1.73,3.95l-.63,1.05c-1.74,2.92-4.6,4.72-7.16,6.09-6.52,3.49-26.84,6.56-27.04,6.59l.09.63c.84-.13,20.62-3.12,27.24-6.66,2.64-1.42,5.59-3.28,7.41-6.33l.63-1.05c1.56-2.58,2.27-3.75,1.73-4.62-.54-.86-1.1-1.08-1.95-.77Z"/><path class="uuid-850c52c7-0ef8-41ef-b2fe-61677b5ef73f" d="m459.66,282.79l-42.46,9.54-4.88,26.94c3,51.23,70.1,24.53,70.1,24.53l4.81-68.27c-6.4.23-28.17,10.41-28.17,10.41l.61-3.15Z"/><polygon class="uuid-f9295898-6569-43e1-8498-bca04d77b78e" points="430.47 36.84 318.35 27.88 319.6 106.46 412.33 107.14 439.78 125.72 424.15 85.6 430.47 36.84"/><path class="uuid-850c52c7-0ef8-41ef-b2fe-61677b5ef73f" d="m431.26,36.2l-113.63-9.08,1.28,80.04,93.2.68,29.15,19.73-16.39-42.06,6.39-49.31Zm7.04,87.67l-25.4-17.2-.35-.24h-.43s-91.82-.67-91.82-.67l-1.23-77.11,110.61,8.84-6.2,47.84-.05.36.13.34,14.75,37.84Z"/><path class="uuid-85daa93b-9dad-440b-bb7f-e4c804e84744" d="m370.02,54.35c-7.59-.04-13.78,6.07-13.84,13.66-.02,3.53,1.28,6.76,3.45,9.21,2.7,3.06,4.63,6.97,4.6,11.06v.36s11.13.08,11.13.08v-.41c.03-4.06,2.02-7.93,4.75-10.93,2.21-2.42,3.57-5.64,3.6-9.17.06-7.6-6.09-13.82-13.69-13.87Z"/><path class="uuid-850c52c7-0ef8-41ef-b2fe-61677b5ef73f" d="m365.79,68.15c.77-.39,1.11-1.47.63-2.02-.23-.27-.62-.39-1.04-.33-.26.04-.7.11-.67,1.98-.12-.04-.25-.1-.38-.2-1.41-.99-.36-3.27.16-4.06.07-.1-.01-.26-.18-.34-.17-.09-.36-.06-.43.04-.08.13-2.06,3.18.07,4.66.26.18.52.3.78.37.04.92.19,2.19.47,3.94.49,2.99,1.17,6,1.18,6.03.02.1.12.19.25.24.04.02.09.03.14.03.18.02.3-.08.27-.21-.85-3.71-1.53-7.67-1.65-9.99.14-.02.28-.07.4-.13Zm-.1-1.88c.1-.02.14,0,.17,0,.02,0,.03.02.03.02.23.27.03,1.09-.52,1.41,0-.85.09-1.37.32-1.43Z"/><path class="uuid-850c52c7-0ef8-41ef-b2fe-61677b5ef73f" d="m375.68,63.27c-.17.08-.25.23-.19.34.51.8,1.52,3.1.1,4.06-.14.09-.26.15-.39.19.06-1.88-.39-1.95-.64-1.99-.41-.07-.8.05-1.04.31-.48.55-.16,1.63.6,2.03.13.07.26.11.4.14-.16,2.32-.89,6.27-1.8,9.97-.03.13.09.23.27.22.05,0,.09-.01.13-.03.13-.05.23-.14.25-.23,0-.03.74-3.02,1.28-6.01.31-1.75.47-3.01.53-3.93.26-.06.53-.18.79-.35,2.15-1.45.23-4.53.14-4.66-.07-.1-.26-.13-.43-.04Zm-1.63,3.08s.01-.01.03-.02c.03,0,.08-.02.17,0,.23.06.32.59.3,1.44-.55-.33-.74-1.15-.5-1.42Z"/><path class="uuid-850c52c7-0ef8-41ef-b2fe-61677b5ef73f" d="m366.72,77.6l-.33.27-.08,11.12,6.98.05.08-11.12-.33-.28c-1.82-1.52-4.47-1.54-6.31-.04Zm5.91,10.79l-5.68-.04.07-10.16.1-.08c1.6-1.3,3.9-1.28,5.48.04l.1.08-.07,10.16Z"/><path class="uuid-850c52c7-0ef8-41ef-b2fe-61677b5ef73f" d="m375.57,87.88l-11.53-.08c-.47,0-.85.38-.86.84,0,.47.37.85.84.86l11.53.08c.47,0,.85-.37.86-.84,0-.47-.37-.85-.84-.86Z"/><path class="uuid-50ffc6d5-ecc8-4a75-8ece-ff4685ce4e52" d="m374.94,89.58l-10.3-.08c-.42,0-.76.38-.77.85,0,.47.33.85.75.86l10.3.07c.42,0,.76-.38.76-.84,0-.47-.33-.85-.75-.86Z"/><path class="uuid-850c52c7-0ef8-41ef-b2fe-61677b5ef73f" d="m374.93,91.29l-10.3-.08c-.42,0-.76.38-.77.84,0,.47.33.85.75.86l10.3.08c.42,0,.76-.38.77-.85,0-.47-.33-.85-.75-.85Z"/><path class="uuid-50ffc6d5-ecc8-4a75-8ece-ff4685ce4e52" d="m374.91,92.99l-10.3-.07c-.42,0-.76.37-.77.84s.33.85.75.86l10.3.07c.42,0,.76-.37.77-.84,0-.47-.33-.85-.75-.86Z"/><path class="uuid-850c52c7-0ef8-41ef-b2fe-61677b5ef73f" d="m374.9,94.7l-10.3-.08c-.42,0-.76.38-.76.85,0,.47.33.85.75.86l10.3.07c.42,0,.76-.38.77-.84,0-.47-.33-.85-.75-.86Z"/><path class="uuid-50ffc6d5-ecc8-4a75-8ece-ff4685ce4e52" d="m367,98.04l5.45.04c.94,0,1.71-.75,1.71-1.69l-8.85-.07c0,.94.75,1.71,1.69,1.71Z"/><path class="uuid-85daa93b-9dad-440b-bb7f-e4c804e84744" d="m370.15,42.76c-.54,0-.98.43-.99.97l-.04,5.51c0,.47.31.86.75.96.07.02.15.03.23.03.54,0,.98-.43.99-.97l.04-5.51c0-.54-.43-.98-.97-.99Z"/><path class="uuid-85daa93b-9dad-440b-bb7f-e4c804e84744" d="m358.65,45.73c-.29-.46-.89-.6-1.35-.32-.46.28-.6.89-.32,1.35l2.96,4.77c.14.23.36.38.6.44.25.06.52.02.75-.12.46-.29.6-.89.32-1.35l-2.96-4.77Z"/><path class="uuid-85daa93b-9dad-440b-bb7f-e4c804e84744" d="m354.87,57.34l-5.14-2.3c-.49-.23-1.07,0-1.29.5-.22.49,0,1.07.49,1.29l5.14,2.3c.05.02.11.04.17.06.45.11.93-.11,1.12-.55.22-.5,0-1.08-.49-1.3Z"/><path class="uuid-85daa93b-9dad-440b-bb7f-e4c804e84744" d="m352.17,68.83l-4.66.17c-.54.02-.96.47-.94,1.01.02.45.33.82.75.92.08.02.17.03.27.03l4.66-.16c.54-.02.96-.48.95-1.02-.02-.54-.48-.97-1.02-.95Z"/><path class="uuid-85daa93b-9dad-440b-bb7f-e4c804e84744" d="m383.64,45.61c-.46-.29-1.06-.16-1.35.3l-3.03,4.73c-.29.45-.16,1.06.3,1.35.09.06.2.1.3.13.4.09.83-.06,1.06-.42l3.03-4.73c.29-.46.16-1.06-.3-1.35Z"/><path class="uuid-85daa93b-9dad-440b-bb7f-e4c804e84744" d="m391.07,55.36l-5.17,2.22c-.5.22-.73.79-.51,1.29.13.3.38.5.67.57.2.05.41.03.62-.05l5.17-2.22c.5-.21.73-.79.51-1.29-.21-.5-.79-.73-1.29-.51Z"/><path class="uuid-85daa93b-9dad-440b-bb7f-e4c804e84744" d="m393.07,69.35l-4.66-.24c-.54-.02-1,.39-1.03.93-.02.48.3.89.75,1,.06.01.12.02.18.02l4.66.24c.54.03,1-.39,1.03-.93.03-.54-.39-1-.93-1.03Z"/></svg>