<?xml version="1.0" encoding="UTF-8"?><svg id="uuid-ef37535f-c5cb-44c0-90ef-8c3acc82a762" xmlns="http://www.w3.org/2000/svg" viewBox="0 0 560.55 549.01"><defs><style>.uuid-bec5d116-4274-4a32-9529-73ac66ff4e93{fill:#fff;}.uuid-c7fa1a3a-2de5-40ed-95ae-4cc68910b09c{fill:#e6ebf0;}.uuid-a550b392-5e88-43df-9bfa-4ab6715df66d{fill:#bb695b;}.uuid-22f30bcc-35a7-42f7-9216-f22efe07f894,.uuid-3bb1aa87-759c-4c75-b7c2-f0eb61304cde{fill:#73cbe2;}.uuid-9c65fed0-a6ef-4ed7-814c-348315ca5984{fill:none;opacity:.5;}.uuid-3bb1aa87-759c-4c75-b7c2-f0eb61304cde,.uuid-ce898ad0-ade2-48c2-a63a-f3cc3806c1ba{fill-rule:evenodd;}.uuid-d38ca9fe-c4da-4360-8479-f2d50ee0cd32{fill:#001940;}.uuid-8602317e-3f4d-460e-bafd-8db6a86e38ee{fill:#f85a44;}.uuid-f20749e2-2d11-4947-b0d3-00196a26f9d2{fill:#ffab48;}.uuid-cba13ecb-2f17-4916-8bb4-fe7cefb33d86,.uuid-ce898ad0-ade2-48c2-a63a-f3cc3806c1ba{fill:#aab6c2;}.uuid-dcee51d0-1493-4ffd-a142-fe9d9e11298b{fill:#b8b5b4;}</style></defs><rect class="uuid-d38ca9fe-c4da-4360-8479-f2d50ee0cd32" x="19.68" y="545.09" width="483.67" height="3.67"/><path class="uuid-c7fa1a3a-2de5-40ed-95ae-4cc68910b09c" d="m444.93,236.27c-111.85-39.56-18.25-135.7-154.28-214.94C132.19-70.97,24.16,158.59,4.99,282.96c-17.83,115.68,1.71,207.22,233.32,256.41,231.61,49.19,397.57-235.56,206.62-303.1Z"/><path class="uuid-c7fa1a3a-2de5-40ed-95ae-4cc68910b09c" d="m484.46,123.75c-57.84-56.61-81.84-129.84-95.38-61.54-8.99,45.34,6.77,129.84,95.38,158.76,88.61,28.92,57.84-40.61,0-97.23Z"/><path class="uuid-cba13ecb-2f17-4916-8bb4-fe7cefb33d86" d="m388.43,407.17h45.42v-24.89h-45.42v24.89Zm2.61-22.29h40.21v19.68h-40.21v-19.68Z"/><path class="uuid-cba13ecb-2f17-4916-8bb4-fe7cefb33d86" d="m419.54,429.46h45.42v-24.89h-45.42v24.89Zm2.61-22.29h40.21v19.68h-40.21v-19.68Z"/><path class="uuid-cba13ecb-2f17-4916-8bb4-fe7cefb33d86" d="m276.41,193.28h45.42v-24.89h-45.42v24.89Zm2.61-22.29h40.21v19.68h-40.21v-19.68Z"/><path class="uuid-cba13ecb-2f17-4916-8bb4-fe7cefb33d86" d="m196.58,468.04h45.42v-24.89h-45.42v24.89Zm2.61-22.29h40.21v19.68h-40.21v-19.68Z"/><path class="uuid-cba13ecb-2f17-4916-8bb4-fe7cefb33d86" d="m239.45,468.04h45.43v-24.89h-45.43v24.89Zm2.61-22.29h40.21v19.68h-40.21v-19.68Z"/><path class="uuid-cba13ecb-2f17-4916-8bb4-fe7cefb33d86" d="m217.99,490.33h45.42v-24.89h-45.42v24.89Zm2.61-22.29h40.21v19.68h-40.21v-19.68Z"/><path class="uuid-cba13ecb-2f17-4916-8bb4-fe7cefb33d86" d="m130.71,324.89h45.42v-24.89h-45.42v24.89Zm2.61-22.28h40.21v19.68h-40.21v-19.68Z"/><path class="uuid-cba13ecb-2f17-4916-8bb4-fe7cefb33d86" d="m99.6,347.18h45.42v-24.89h-45.42v24.89Zm2.61-22.29h40.21v19.68h-40.21v-19.68Z"/><path class="uuid-cba13ecb-2f17-4916-8bb4-fe7cefb33d86" d="m54.8,222.51h45.42v-24.89h-45.42v24.89Zm2.61-22.29h40.21v19.68h-40.21v-19.68Z"/><path class="uuid-cba13ecb-2f17-4916-8bb4-fe7cefb33d86" d="m97.67,222.51h45.42v-24.89h-45.42v24.89Zm2.61-22.29h40.21v19.68h-40.21v-19.68Z"/><path class="uuid-cba13ecb-2f17-4916-8bb4-fe7cefb33d86" d="m76.21,244.8h45.42v-24.89h-45.42v24.89Zm2.61-22.28h40.21v19.68h-40.21v-19.68Z"/><polygon class="uuid-d38ca9fe-c4da-4360-8479-f2d50ee0cd32" points="372.99 157.2 379.75 157.2 383.65 101.49 376.89 101.49 372.99 157.2"/><polygon class="uuid-d38ca9fe-c4da-4360-8479-f2d50ee0cd32" points="303.67 548.3 307.05 548.3 357.69 364.14 354.32 364.14 303.67 548.3"/><rect class="uuid-d38ca9fe-c4da-4360-8479-f2d50ee0cd32" x="364.94" y="364.14" width="3.23" height="184.15"/><polygon class="uuid-d38ca9fe-c4da-4360-8479-f2d50ee0cd32" points="375.74 364.14 426.38 548.3 429.76 548.3 379.12 364.14 375.74 364.14"/><polygon class="uuid-d38ca9fe-c4da-4360-8479-f2d50ee0cd32" points="323.93 466.52 330.68 466.52 359.17 364.14 352.42 364.14 323.93 466.52"/><rect class="uuid-d38ca9fe-c4da-4360-8479-f2d50ee0cd32" x="363.18" y="364.14" width="6.75" height="102.37"/><polygon class="uuid-d38ca9fe-c4da-4360-8479-f2d50ee0cd32" points="373.95 364.14 402.75 466.52 409.5 466.52 380.7 364.14 373.95 364.14"/><rect class="uuid-d38ca9fe-c4da-4360-8479-f2d50ee0cd32" x="352.42" y="364.14" width="28.28" height="7.18"/><polygon class="uuid-d38ca9fe-c4da-4360-8479-f2d50ee0cd32" points="366.71 114.34 392.03 114.34 392.53 107.17 367.21 107.17 366.71 114.34"/><rect class="uuid-d38ca9fe-c4da-4360-8479-f2d50ee0cd32" x="336.96" y="370.09" width="59.2" height="7.17"/><polygon class="uuid-d38ca9fe-c4da-4360-8479-f2d50ee0cd32" points="317.3 504.12 366.06 487.42 366.06 484.57 317.3 501.27 317.3 504.12"/><polygon class="uuid-d38ca9fe-c4da-4360-8479-f2d50ee0cd32" points="367.05 487.42 415.98 503.86 415.98 501.02 367.05 484.57 367.05 487.42"/><path class="uuid-d38ca9fe-c4da-4360-8479-f2d50ee0cd32" d="m542.2,359.66H179.2c-.76,0-1.43.62-1.48,1.38l-.54,7.66c-.05.76.52,1.39,1.29,1.39h363c.76,0,1.43-.62,1.48-1.39l.54-7.66c.05-.76-.52-1.38-1.29-1.38Z"/><path class="uuid-d38ca9fe-c4da-4360-8479-f2d50ee0cd32" d="m558.14,114.5H197.54c-1.43,0-2.67,1.16-2.76,2.58l-.37,5.26c-.1,1.43.98,2.58,2.4,2.58h360.6c1.43,0,2.67-1.16,2.76-2.58l.37-5.26c.1-1.43-.98-2.58-2.4-2.58Z"/><polygon class="uuid-bec5d116-4274-4a32-9529-73ac66ff4e93" points="183.22 369.37 527.53 369.37 544.94 120.44 200.63 120.44 183.22 369.37"/><path class="uuid-d38ca9fe-c4da-4360-8479-f2d50ee0cd32" d="m182.45,370.09h345.76l17.51-250.38H199.96l-17.51,250.38Zm361.72-248.93l-17.31,247.49H184l17.31-247.49h342.86Z"/><path class="uuid-cba13ecb-2f17-4916-8bb4-fe7cefb33d86" d="m537.56,359.66H174.56c-.76,0-1.43.62-1.48,1.38l-.54,7.66c-.05.76.52,1.39,1.29,1.39h363c.77,0,1.43-.62,1.48-1.39l.54-7.66c.05-.76-.52-1.38-1.29-1.38Z"/><path class="uuid-cba13ecb-2f17-4916-8bb4-fe7cefb33d86" d="m553.5,114.5H192.9c-1.43,0-2.67,1.16-2.77,2.58l-.37,5.26c-.1,1.43.98,2.58,2.4,2.58h360.6c1.43,0,2.67-1.16,2.76-2.58l.37-5.26c.1-1.43-.98-2.58-2.4-2.58Z"/><g class="uuid-9c65fed0-a6ef-4ed7-814c-348315ca5984"><path class="uuid-bec5d116-4274-4a32-9529-73ac66ff4e93" d="m256,147.15l-12.42,195.08,12.42-195.08Z"/><polygon class="uuid-d38ca9fe-c4da-4360-8479-f2d50ee0cd32" points="243.06 342.23 244.11 342.23 256.53 147.15 255.47 147.15 243.06 342.23"/></g><g class="uuid-9c65fed0-a6ef-4ed7-814c-348315ca5984"><path class="uuid-bec5d116-4274-4a32-9529-73ac66ff4e93" d="m314.29,147.15l-12.96,195.08,12.96-195.08Z"/><polygon class="uuid-d38ca9fe-c4da-4360-8479-f2d50ee0cd32" points="300.8 342.23 301.85 342.23 314.82 147.15 313.76 147.15 300.8 342.23"/></g><g class="uuid-9c65fed0-a6ef-4ed7-814c-348315ca5984"><path class="uuid-bec5d116-4274-4a32-9529-73ac66ff4e93" d="m372.58,147.15l-13.5,195.08,13.5-195.08Z"/><polygon class="uuid-d38ca9fe-c4da-4360-8479-f2d50ee0cd32" points="358.55 342.23 359.6 342.23 373.11 147.15 372.05 147.15 358.55 342.23"/></g><g class="uuid-9c65fed0-a6ef-4ed7-814c-348315ca5984"><path class="uuid-bec5d116-4274-4a32-9529-73ac66ff4e93" d="m430.87,147.15l-14.05,195.08,14.05-195.08Z"/><polygon class="uuid-d38ca9fe-c4da-4360-8479-f2d50ee0cd32" points="416.3 342.23 417.35 342.23 431.4 147.15 430.34 147.15 416.3 342.23"/></g><g class="uuid-9c65fed0-a6ef-4ed7-814c-348315ca5984"><path class="uuid-bec5d116-4274-4a32-9529-73ac66ff4e93" d="m489.15,147.15l-14.59,195.08,14.59-195.08Z"/><polygon class="uuid-d38ca9fe-c4da-4360-8479-f2d50ee0cd32" points="474.04 342.23 475.09 342.23 489.69 147.15 488.62 147.15 474.04 342.23"/></g><g class="uuid-9c65fed0-a6ef-4ed7-814c-348315ca5984"><polygon class="uuid-d38ca9fe-c4da-4360-8479-f2d50ee0cd32" points="203.55 208.54 526.65 208.54 526.75 207.18 203.63 207.18 203.55 208.54"/></g><g class="uuid-9c65fed0-a6ef-4ed7-814c-348315ca5984"><polygon class="uuid-d38ca9fe-c4da-4360-8479-f2d50ee0cd32" points="199.37 276.62 521.42 276.62 521.52 275.27 199.46 275.27 199.37 276.62"/></g><path class="uuid-3bb1aa87-759c-4c75-b7c2-f0eb61304cde" d="m467.1,331.83c10.44,4.73,20.88,9.46,31.31,14.19,9.23-17.96,15.68-37.07,19.12-56.65-11.66-1.17-23.33-2.34-35-3.5-2.76,15.88-7.97,31.39-15.43,45.96Z"/><path class="uuid-bec5d116-4274-4a32-9529-73ac66ff4e93" d="m493,292.81l-7.34-1.05c-.57-.08-1.14.32-1.27.91-.12.58.24,1.12.81,1.2l7.33,1.05c.32.04.63-.06.87-.26.2-.16.34-.39.4-.65.13-.58-.24-1.12-.81-1.2Z"/><path class="uuid-bec5d116-4274-4a32-9529-73ac66ff4e93" d="m511.33,295.44l-12.46-1.79c-.58-.08-1.14.32-1.27.91-.13.58.24,1.12.81,1.2l12.46,1.79c.32.05.63-.06.87-.25.2-.16.34-.39.4-.65.13-.58-.23-1.12-.81-1.2Z"/><path class="uuid-bec5d116-4274-4a32-9529-73ac66ff4e93" d="m499.31,300.35l-14.99-2.75c-.57-.1-1.15.28-1.3.86-.15.58.2,1.13.76,1.24l14.99,2.75c.33.06.66-.04.91-.25.19-.15.33-.36.39-.6.15-.58-.19-1.13-.76-1.24Z"/><path class="uuid-bec5d116-4274-4a32-9529-73ac66ff4e93" d="m509.75,302.27l-3.06-.56c-.56-.1-1.15.28-1.3.86-.15.58.2,1.13.76,1.23l3.06.56c.33.06.66-.04.91-.25.19-.15.32-.36.39-.61.15-.58-.19-1.13-.76-1.23Z"/><path class="uuid-bec5d116-4274-4a32-9529-73ac66ff4e93" d="m488.39,304.66l-5.62-1.26c-.56-.12-1.15.24-1.32.81-.17.57.15,1.14.71,1.27l5.62,1.26c.34.07.69-.02.95-.24.17-.14.31-.34.38-.56.17-.57-.15-1.14-.71-1.27Z"/><path class="uuid-bec5d116-4274-4a32-9529-73ac66ff4e93" d="m507.93,309.04l-14.93-3.35c-.56-.12-1.16.24-1.32.81-.17.57.15,1.14.71,1.27l14.93,3.35c.34.07.69-.02.95-.24.17-.14.31-.34.38-.57.17-.57-.15-1.14-.71-1.26Z"/><path class="uuid-bec5d116-4274-4a32-9529-73ac66ff4e93" d="m493.43,312.45l-12.42-3.3c-.56-.15-1.16.19-1.35.76-.19.57.11,1.15.66,1.29l12.42,3.3c.35.09.72,0,.99-.23.16-.13.29-.32.36-.53.19-.57-.11-1.15-.66-1.29Z"/><path class="uuid-bec5d116-4274-4a32-9529-73ac66ff4e93" d="m505.85,315.75l-8.21-2.18c-.56-.15-1.16.19-1.35.76-.19.57.11,1.15.66,1.29l8.21,2.18c.35.09.71,0,.99-.23.16-.13.29-.32.37-.53.19-.57-.11-1.14-.66-1.29Z"/><path class="uuid-bec5d116-4274-4a32-9529-73ac66ff4e93" d="m482.1,315.78l-3.06-.95c-.55-.17-1.16.15-1.38.71-.21.56.06,1.15.61,1.32l3.06.95c.36.11.74.02,1.03-.22.15-.13.27-.29.35-.49.21-.56-.06-1.15-.61-1.32Z"/><path class="uuid-bec5d116-4274-4a32-9529-73ac66ff4e93" d="m503.53,322.39l-17.06-5.26c-.55-.17-1.16.15-1.37.71-.21.56.06,1.15.61,1.32l17.06,5.26c.36.11.74.01,1.02-.22.15-.13.27-.3.35-.49.21-.56-.06-1.15-.61-1.32Z"/><path class="uuid-bec5d116-4274-4a32-9529-73ac66ff4e93" d="m489.26,324.83l-12.42-4.37c-.54-.19-1.17.11-1.39.66-.23.55.02,1.16.56,1.35l12.41,4.37c.36.13.77.04,1.06-.21.14-.12.26-.27.33-.45.23-.55-.02-1.16-.56-1.35Z"/><path class="uuid-bec5d116-4274-4a32-9529-73ac66ff4e93" d="m500.96,328.95l-5.7-2.01c-.54-.19-1.16.11-1.39.66-.23.55.02,1.16.56,1.35l5.71,2.01c.36.13.77.04,1.06-.21.14-.12.26-.27.33-.45.23-.55-.02-1.16-.56-1.35Z"/><path class="uuid-bec5d116-4274-4a32-9529-73ac66ff4e93" d="m480.07,328.25l-5.61-2.23c-.53-.21-1.16.06-1.42.61-.25.55-.02,1.16.51,1.37l5.61,2.23c.37.15.79.06,1.1-.19.13-.11.24-.25.32-.41.25-.55.03-1.16-.51-1.37Z"/><path class="uuid-bec5d116-4274-4a32-9529-73ac66ff4e93" d="m498.16,335.44l-12.48-4.96c-.53-.21-1.17.06-1.41.61-.25.55-.03,1.16.5,1.37l12.48,4.96c.37.15.79.06,1.1-.2.13-.11.24-.25.32-.41.25-.55.03-1.16-.5-1.37Z"/><path class="uuid-d38ca9fe-c4da-4360-8479-f2d50ee0cd32" d="m502.7,282.99l-2.66-.02c-.35,0-.67.27-.73.62l-.96,5.56c-.06.36.16.68.51.74l2.58.45c.39.07.78-.21.84-.61l1.04-5.99c.07-.4-.22-.75-.62-.75Z"/><path class="uuid-ce898ad0-ade2-48c2-a63a-f3cc3806c1ba" d="m248.5,336.33c10.49,4.73,20.97,9.46,31.45,14.19,9.04-17.95,15.29-37.06,18.52-56.63-11.67-1.17-23.35-2.34-35.03-3.5-2.59,15.87-7.64,31.37-14.94,45.94Z"/><path class="uuid-bec5d116-4274-4a32-9529-73ac66ff4e93" d="m273.98,297.32l-7.35-1.05c-.58-.08-1.14.32-1.26.91-.12.58.25,1.12.82,1.2l7.34,1.05c.32.04.63-.06.87-.26.2-.16.34-.39.39-.65.12-.58-.25-1.12-.82-1.2Z"/><path class="uuid-bec5d116-4274-4a32-9529-73ac66ff4e93" d="m292.34,299.96l-12.47-1.79c-.58-.08-1.14.32-1.26.9-.12.58.25,1.12.82,1.2l12.47,1.79c.32.05.63-.06.87-.25.19-.16.34-.39.39-.65.12-.58-.25-1.12-.82-1.2Z"/><path class="uuid-bec5d116-4274-4a32-9529-73ac66ff4e93" d="m280.38,304.86l-15.01-2.75c-.57-.1-1.14.28-1.29.86-.14.58.21,1.13.78,1.23l15.01,2.75c.33.06.66-.04.91-.25.18-.15.32-.36.38-.61.14-.58-.21-1.13-.77-1.24Z"/><path class="uuid-bec5d116-4274-4a32-9529-73ac66ff4e93" d="m290.83,306.78l-3.07-.56c-.57-.11-1.15.28-1.29.86-.14.58.21,1.13.77,1.23l3.07.56c.33.06.66-.04.91-.25.18-.15.32-.36.38-.6.14-.58-.2-1.13-.78-1.23Z"/><path class="uuid-bec5d116-4274-4a32-9529-73ac66ff4e93" d="m269.5,309.17l-5.63-1.26c-.56-.12-1.15.24-1.32.81-.16.57.16,1.14.73,1.27l5.63,1.26c.34.08.69-.02.94-.24.17-.14.31-.34.37-.57.16-.57-.16-1.14-.73-1.26Z"/><path class="uuid-bec5d116-4274-4a32-9529-73ac66ff4e93" d="m289.08,313.54l-14.96-3.34c-.56-.13-1.15.24-1.32.81-.16.57.16,1.14.73,1.27l14.96,3.34c.34.07.69-.02.95-.24.17-.14.3-.34.37-.57.17-.57-.16-1.14-.72-1.26Z"/><path class="uuid-bec5d116-4274-4a32-9529-73ac66ff4e93" d="m274.62,316.96l-12.46-3.3c-.56-.15-1.16.19-1.34.76-.18.57.12,1.15.67,1.29l12.45,3.3c.35.09.72,0,.99-.23.16-.14.29-.32.36-.53.19-.57-.12-1.14-.67-1.29Z"/><path class="uuid-bec5d116-4274-4a32-9529-73ac66ff4e93" d="m287.07,320.25l-8.23-2.18c-.56-.15-1.16.19-1.34.76-.18.57.12,1.14.67,1.29l8.23,2.17c.35.09.72,0,.98-.23.16-.13.29-.32.36-.53.19-.57-.12-1.14-.67-1.29Z"/><path class="uuid-bec5d116-4274-4a32-9529-73ac66ff4e93" d="m263.32,320.29l-3.07-.94c-.55-.17-1.16.15-1.37.71-.2.56.07,1.15.62,1.32l3.07.94c.36.11.74.02,1.02-.22.15-.13.27-.29.34-.49.21-.56-.07-1.15-.62-1.32Z"/><path class="uuid-bec5d116-4274-4a32-9529-73ac66ff4e93" d="m284.82,326.89l-17.11-5.25c-.55-.17-1.16.15-1.37.71s.08,1.15.62,1.32l17.11,5.25c.36.11.74.01,1.02-.22.15-.13.27-.3.34-.49.21-.56-.07-1.15-.62-1.32Z"/><path class="uuid-bec5d116-4274-4a32-9529-73ac66ff4e93" d="m270.58,329.33l-12.46-4.37c-.54-.19-1.17.11-1.38.66-.23.55.03,1.16.57,1.35l12.45,4.37c.36.13.77.04,1.06-.21.14-.12.26-.27.33-.45.23-.55-.03-1.16-.57-1.35Z"/><path class="uuid-bec5d116-4274-4a32-9529-73ac66ff4e93" d="m282.33,333.45l-5.73-2.01c-.54-.19-1.16.11-1.39.66-.22.56.03,1.16.57,1.35l5.73,2.01c.36.13.76.04,1.06-.21.14-.12.26-.27.33-.45.23-.55-.03-1.16-.57-1.35Z"/><path class="uuid-bec5d116-4274-4a32-9529-73ac66ff4e93" d="m261.43,332.75l-5.63-2.22c-.53-.21-1.16.06-1.41.61-.24.55-.01,1.16.52,1.37l5.63,2.22c.37.15.79.06,1.09-.19.13-.11.24-.25.31-.41.25-.55.01-1.16-.52-1.37Z"/><path class="uuid-bec5d116-4274-4a32-9529-73ac66ff4e93" d="m279.59,339.93l-12.53-4.95c-.53-.21-1.16.06-1.41.61-.24.54-.01,1.16.52,1.37l12.53,4.95c.37.15.79.06,1.1-.19.13-.11.24-.25.31-.41.25-.55.01-1.15-.52-1.37Z"/><path class="uuid-d38ca9fe-c4da-4360-8479-f2d50ee0cd32" d="m283.58,287.51l-2.66-.02c-.35,0-.67.27-.73.62l-.9,5.56c-.06.36.17.68.52.74l2.59.45c.39.07.77-.21.84-.61l.97-5.99c.06-.4-.23-.75-.63-.75Z"/><path class="uuid-bec5d116-4274-4a32-9529-73ac66ff4e93" d="m456.08,228.99c-4.87.04-9.58,1.98-13.25,5.46-3.67,3.48-5.87,8.1-6.19,12.99-.66,10.02,6.91,18.17,16.88,18.17h.13c10.04-.07,18.77-8.33,19.44-18.42.68-10.03-6.9-18.2-17.01-18.2Z"/><path class="uuid-d38ca9fe-c4da-4360-8479-f2d50ee0cd32" d="m456.25,228.52s-.09,0-.14,0c-10.33.07-19.27,8.55-19.95,18.93-.68,10.32,7.06,18.63,17.32,18.63.04,0,.09,0,.13,0,10.32-.07,19.25-8.53,19.95-18.9.7-10.33-7.04-18.67-17.31-18.67Zm16.37,18.67c-.66,9.83-9.16,17.88-18.94,17.95h-.13c-9.71,0-17.08-7.93-16.44-17.7.31-4.76,2.45-9.26,6.03-12.66,3.58-3.4,8.16-5.29,12.91-5.32h.13c9.72,0,17.1,7.95,16.44,17.73Z"/><path class="uuid-22f30bcc-35a7-42f7-9216-f22efe07f894" d="m470.55,230.56c-.55.77-11.75,16.69-15.65,22.43-1.76-1.78-4.74-5.82-7.02-9.38-.72-1.13-2.27-1.39-3.46-.58-1.18.81-1.55,2.39-.83,3.52,7.09,11.05,9.94,12.2,11.27,12.27.17,0,.32,0,.45,0,1.06-.06,2.04-.66,2.62-1.6,1.2-1.95,12.43-17.94,16.66-23.94.83-1.18.6-2.74-.52-3.48-1.12-.75-2.69-.4-3.52.78Z"/><polygon class="uuid-d38ca9fe-c4da-4360-8479-f2d50ee0cd32" points="371.07 306.75 394.33 306.75 394.58 303.56 371.29 303.56 371.07 306.75"/><polygon class="uuid-d38ca9fe-c4da-4360-8479-f2d50ee0cd32" points="370.4 316.34 412.41 316.34 412.66 313.15 370.62 313.15 370.4 316.34"/><polygon class="uuid-d38ca9fe-c4da-4360-8479-f2d50ee0cd32" points="369.73 325.92 408.72 325.92 408.97 322.74 369.95 322.74 369.73 325.92"/><polygon class="uuid-d38ca9fe-c4da-4360-8479-f2d50ee0cd32" points="396.76 306.75 403.94 306.75 404.2 303.56 397.02 303.56 396.76 306.75"/><polygon class="uuid-d38ca9fe-c4da-4360-8479-f2d50ee0cd32" points="317.32 233.04 340.66 233.04 340.91 229.83 317.53 229.83 317.32 233.04"/><polygon class="uuid-d38ca9fe-c4da-4360-8479-f2d50ee0cd32" points="316.67 242.7 358.83 242.7 359.08 239.5 316.89 239.5 316.67 242.7"/><polygon class="uuid-d38ca9fe-c4da-4360-8479-f2d50ee0cd32" points="316.03 252.35 355.15 252.35 355.4 249.15 316.24 249.15 316.03 252.35"/><polygon class="uuid-d38ca9fe-c4da-4360-8479-f2d50ee0cd32" points="343.11 233.04 350.31 233.04 350.56 229.83 343.35 229.83 343.11 233.04"/><polygon class="uuid-22f30bcc-35a7-42f7-9216-f22efe07f894" points="350.79 171.06 345.72 159.03 339.02 171.06 325.74 172.99 334.62 182.34 331.49 195.53 343.66 189.3 354.99 195.53 353.65 182.34 363.81 172.99 350.79 171.06"/><path class="uuid-d38ca9fe-c4da-4360-8479-f2d50ee0cd32" d="m150.63,151.74c-2.52-3.93-5.11-7.92-8.74-10.86-3.54-2.87-8.25-4.65-12.75-3.43-4.24,1.15-9.11,1.58-12.13,5.16-1.23,1.45-1.99,3.25-2.65,5.03-2.48,6.67-3.91,13.72-4.23,20.83-.12,2.65-.07,5.39.97,7.84,1.65,3.88,5.51,6.37,9.46,7.85,9.59,3.6,20.86,2.34,29.42-3.29,2.27-1.49,4.39-3.31,5.73-5.68,2.08-3.67,2-8.25.76-12.28-1.25-4.03-3.55-7.63-5.83-11.18Z"/><path class="uuid-bec5d116-4274-4a32-9529-73ac66ff4e93" d="m248.28,202.57c-2.42-1.58-5.38-1.99-8.27-1.58,1.06-.48,2.18-.8,3.37-.85,1.03-.04,2.41-.12,2.61-1.14.17-.85-.73-1.51-1.54-1.81-4.33-1.62-9.33-.05-12.94,2.83-1.1.87-2.14,1.84-3.11,2.89.1-.88.21-1.76.38-2.63.09-.48.17-1.04-.16-1.39-.31-.32-.85-.31-1.24-.08-.39.22-.65.6-.9.97-1.42,2.1-2.91,4.16-4.29,6.29-.82,1.28-.83,2.79-.9,4.31l-39.64,27.58-27.84-38.24c-10.7-2.16-7.13,18.75-17.34,23.89l17.53,23.42c5.15,6.88,11.72,12.54,19.21,16.61,4.78,2.6,10.72,1.72,14.65-2.04l39.75-37.99c2-.37,3.88-1.06,5.19-2.56,1.32-1.5,1.81-3.54,2.69-5.33.46-.94,1.11-1.85,1.95-2.48.34-.26,1.34-.55,1.93-.89.93-.14,1.88-.15,2.84.03,1.02.19,2.38.4,2.8-.54.35-.79-.39-1.63-1.11-2.1-.59-.39-1.23-.68-1.87-.93,1.13-.17,2.27-.16,3.41.11,1,.24,2.35.54,2.82-.38.39-.77-.3-1.65-.99-2.16-.74-.54-1.55-.95-2.4-1.27.58-.01,1.15.01,1.74.12,1.01.19,2.38.4,2.79-.54.35-.79-.39-1.63-1.11-2.1Z"/><path class="uuid-d38ca9fe-c4da-4360-8479-f2d50ee0cd32" d="m248.47,202.28c-1.59-1.04-3.47-1.64-5.52-1.76.15-.01.29-.02.44-.03,1-.04,2.68-.1,2.94-1.41.21-1.06-.82-1.85-1.76-2.21-4.84-1.81-10.03.3-13.28,2.89-.84.67-1.65,1.39-2.42,2.17.07-.51.15-1.05.25-1.57.08-.41.23-1.19-.25-1.69-.44-.47-1.17-.43-1.66-.15-.46.27-.77.72-1.01,1.08-.49.72-.98,1.43-1.48,2.15-.94,1.35-1.91,2.75-2.81,4.15-.82,1.27-.88,2.75-.94,4.18v.13s-39.23,27.28-39.23,27.28l-27.64-37.97-.08-.11-.13-.02c-6.03-1.23-7.76,4.52-9.6,10.6-1.56,5.15-3.33,10.99-7.96,13.33l-.37.18,17.77,23.76c5.12,6.85,11.8,12.62,19.32,16.7,1.91,1.04,4,1.55,6.07,1.55,3.25,0,6.48-1.24,8.98-3.63l39.68-37.92c2.42-.46,4.1-1.3,5.29-2.65.93-1.06,1.47-2.38,1.98-3.65.24-.58.48-1.19.76-1.75.5-1,1.14-1.82,1.85-2.36.13-.1.48-.24.82-.38.35-.14.72-.29,1.02-.46.94-.13,1.81-.12,2.66.04.99.18,2.63.48,3.17-.74.44-.99-.4-1.98-1.24-2.53-.22-.14-.45-.28-.7-.41.65,0,1.33.06,1.96.21.91.23,2.6.63,3.21-.56.49-.96-.28-2-1.1-2.6-.24-.18-.49-.34-.76-.5.99.17,2.5.38,3.01-.78.44-.99-.39-1.98-1.24-2.53Zm.61,2.25c-.29.67-1.35.54-2.41.34-.55-.1-1.14-.13-1.81-.12l-1.72.05,1.61.62c.91.35,1.67.76,2.32,1.23.48.35,1.2,1.11.89,1.73-.34.65-1.43.45-2.43.21-1.1-.27-2.26-.31-3.54-.12l-1.29.19,1.22.47c.73.28,1.3.57,1.81.9.5.32,1.27,1.04.99,1.67-.29.67-1.4.53-2.42.34-.94-.17-1.9-.18-2.95-.03l-.12.04c-.27.16-.63.31-.99.45-.41.17-.77.31-.98.47-.8.61-1.5,1.51-2.05,2.61-.29.59-.54,1.21-.78,1.8-.52,1.28-1,2.48-1.86,3.45-1.1,1.25-2.68,2.03-5,2.45l-.1.02-39.83,38.06c-3.88,3.71-9.6,4.5-14.25,1.98-7.43-4.03-14.03-9.74-19.1-16.51l-17.28-23.1c4.62-2.57,6.38-8.4,7.95-13.55,1.81-5.96,3.36-11.13,8.67-10.15l27.76,38.13.2.28,39.92-27.77.14-.1.02-.47c.06-1.4.12-2.73.83-3.84.9-1.39,1.87-2.79,2.8-4.13.5-.72.99-1.43,1.48-2.15.22-.32.46-.68.79-.87.25-.15.62-.18.81.02.22.23.15.68.07,1.08-.18.92-.3,1.86-.39,2.66l-.12,1.05.72-.77c.96-1.04,1.99-2,3.07-2.85,3.09-2.47,8.04-4.49,12.6-2.78.56.21,1.46.75,1.33,1.42-.14.72-1.25.82-2.28.85-1.15.05-2.3.33-3.5.88l-2.19,1,2.39-.34c2.13-.3,5.26-.28,8.03,1.53h0c.5.32,1.27,1.04.99,1.67Z"/><path class="uuid-8602317e-3f4d-460e-bafd-8db6a86e38ee" d="m220.59,213.21c-.5-1.12-1.2-2.39-2.42-2.55-.87-.12-1.69.4-2.42.9-5.25,3.56-10.5,7.13-15.75,10.69-5.46,3.71-10.9,6.93-16.36,10.63-1.91-2.72-3.81-5.44-5.72-8.16-8.49-12.12-17.31-24.56-29.84-32.43-4.4,11.67-3.46,24.93-1.7,37.28.66,4.65,1.33,9.34,2.91,13.77,2.24,6.31,6.23,11.82,10.16,17.24,2.07,2.85,4.23,5.78,7.29,7.52,3.2,1.81,7,2.1,10.67,2.35,5.03.34,10.78.43,14.27-3.22,2.65-2.76,3.31-7.1,6.26-9.54,3.04-2.52,7.78-2.38,10.5-5.24,1.88-1.98,2.29-4.89,3.24-7.46,1.5-4.08,4.56-7.57,8.42-9.58,2.78-1.45,6.4-2.69,6.91-5.78.25-1.51-.39-3-1.02-4.4-1.8-4.01-3.59-8.02-5.39-12.02Z"/><path class="uuid-8602317e-3f4d-460e-bafd-8db6a86e38ee" d="m137.07,187.92c-6.4-1.23-13.03-.56-19.23,1.32-1.19.36-14.76,5.55-11.41,8.37.56.47,1.39.3,2.09.11,12.93-3.37,27.09-1.77,38.94,4.41,3.56,1.85,7.28,4.18,11.25,3.62-3.03-9.32-12.01-15.98-21.64-17.83Z"/><path class="uuid-bec5d116-4274-4a32-9529-73ac66ff4e93" d="m148.59,153.86c-2.36.25-4.02,2.91-3.7,5.96.32,3.04.87,7.31,3.23,7.07,2.36-.25,5.64-4.91,5.32-7.96-.32-3.04-2.49-5.31-4.85-5.07Z"/><path class="uuid-d38ca9fe-c4da-4360-8479-f2d50ee0cd32" d="m148.56,153.51c-2.55.27-4.35,3.11-4.01,6.34.27,2.6.77,7.39,3.38,7.39.08,0,.15,0,.23-.01,2.64-.28,5.96-5.18,5.63-8.34-.34-3.23-2.66-5.63-5.23-5.38Zm-.47,13.02s-.09,0-.14,0c-2,0-2.48-4.55-2.71-6.76-.3-2.85,1.23-5.35,3.4-5.58,2.16-.23,4.17,1.91,4.47,4.76.31,2.95-2.94,7.36-5.02,7.58Z"/><path class="uuid-d38ca9fe-c4da-4360-8479-f2d50ee0cd32" d="m150.62,158.15c-.96-.11-1.69-.05-2.24.19.58-1.6,1.43-2.11,2.26-2.36.24-.07.38-.32.31-.57-.07-.24-.32-.37-.57-.31-1.6.48-3.27,1.7-3.58,7.13-.01.23.15.44.38.48.03,0,.07,0,.1,0,.19,0,.36-.14.41-.33.13-.44.18-.89.23-1.33.09-.76.16-1.41.59-1.74.37-.29,1.05-.38,2.02-.27.25.03.48-.15.51-.4.03-.25-.15-.48-.4-.5Z"/><path class="uuid-d38ca9fe-c4da-4360-8479-f2d50ee0cd32" d="m181.97,537.19c-9.46-7.66-19.34-14.8-29.57-21.39-3.13-2.01-10.27-8.83-13.23-4.08-2.77,4.44.05,12.52,1.5,16.95,1.66,5.09,3.7,15.79,3.7,15.79l1.94.06s.69-9.02.94-11.42c1.71.3,2.88,1.94,3.48,3.57.61,1.63.86,3.4,1.72,4.92,2.45,4.32,8.41,4.7,13.37,4.56,4.59-.13,9.17-.26,13.76-.39,2.05-.06,4.5-.36,5.42-2.19,1.15-2.29-1.04-4.78-3.02-6.39Z"/><path class="uuid-a550b392-5e88-43df-9bfa-4ab6715df66d" d="m126.45,330.23c7.44,15.85,1.54,28.24,4.23,53.88.65,6.19.64,17.59,5.99,21.61,5.34,4.02,13.98,5.84,21.17,2.62,6.81-3.05,12.92-68.4,5.34-82.96-13.14.17-24.98,1.34-36.73,4.86Z"/><path class="uuid-a550b392-5e88-43df-9bfa-4ab6715df66d" d="m125.23,445.08l14.66,62.56c1.11,6.46,1.72,5.5,8.27,5.64,5.25.12,7.86.38,7.95-4.87l3.4-104.33-25.89-3.32s-13.14,15.36-8.39,44.31Z"/><path class="uuid-a550b392-5e88-43df-9bfa-4ab6715df66d" d="m95.29,330.47c4.7,16.87-3.18,28.1-4.78,53.83-.39,6.21-2.29,17.45,2.31,22.31,4.6,4.86,12.82,8.08,20.45,6.1,7.23-1.88,24.11-65.3,19.06-80.92-12.99-2.01-24.85-2.83-37.03-1.32Z"/><path class="uuid-a550b392-5e88-43df-9bfa-4ab6715df66d" d="m74.99,443.51l4.05,64.12c.02,6.56.78,5.71,7.22,6.94,5.15.99,7.69,1.68,8.65-3.48l20.69-102.31-24.97-7.58s-15.51,12.96-15.64,42.3Z"/><path class="uuid-8602317e-3f4d-460e-bafd-8db6a86e38ee" d="m156.74,253.01c2.47-8.78,13.02-14.24,10.85-24.27-1.18-5.46-6.54-24.72-15.54-31.43-1.69-1.26-3.32-2.38-4.79-3.32-5.73-3.66-10.44-6.15-10.44-6.15,0,0-5.27.98-11.82,2.78-1.2.33-2.44.7-3.71,1.08-9.67,2.96-21.99,9.41-28.56,21.83-6.43,12.15,40.97,50.64,12.17,77.73-24.63,23.18-15.12,99.13-15.12,99.13l74.84-3.48s11.91-58.18-5.16-94.05c-12.34-25.93-2.73-39.86-2.73-39.86Z"/><path class="uuid-d38ca9fe-c4da-4360-8479-f2d50ee0cd32" d="m164.79,217.51c-.09-.25-.35-.38-.6-.29-.25.09-.37.36-.29.6,1.57,4.42,2.7,8.59,3.23,11.02,1.87,8.64-4.76,16.62-9.15,21.91-.58.7-1.13,1.36-1.61,1.96-.16.2-.13.5.08.66.09.07.21.11.32.1.13,0,.26-.07.34-.18.48-.6,1.02-1.25,1.6-1.95,4.51-5.43,11.31-13.62,9.34-22.71-.53-2.46-1.67-6.67-3.26-11.13Z"/><path class="uuid-d38ca9fe-c4da-4360-8479-f2d50ee0cd32" d="m155.07,281.21c-12.81,5.2-29.65,3.23-42.17-1.92-1.4,4.15-3.94,8.19-7.99,11.99-24.63,23.18-15.12,99.13-15.12,99.13l74.84-3.48s11.91-58.18-5.16-94.05c-2-4.21-3.42-8.1-4.4-11.66Z"/><path class="uuid-bec5d116-4274-4a32-9529-73ac66ff4e93" d="m141.36,190.13c-.35-.14-.73-.24-1.09-.37l-1.23-6.04-1.08-5.27-12.32,1.41v5.57s-.02,3.43-.02,3.43c-1.95.53-3.79,1.35-5.38,2.6-1.95,1.52-3.46,3.8-3.44,6.27.02,2.29,1.36,4.42,3.14,5.85,1.78,1.43,3.98,2.26,6.18,2.89,5.94,1.72,12.23,2.23,18.37,1.5,1.59-.19,3.26-.5,4.47-1.56,1.42-1.24,1.89-3.27,1.76-5.15-.35-5.11-4.58-9.29-9.36-11.14Z"/><path class="uuid-d38ca9fe-c4da-4360-8479-f2d50ee0cd32" d="m141.49,189.81c-.23-.09-.47-.17-.71-.24-.07-.02-.14-.05-.21-.07l-2.34-11.42-12.94,1.49-.02,9.04c-2.03.58-3.8,1.45-5.25,2.59-2.26,1.76-3.59,4.21-3.57,6.54.02,2.2,1.24,4.49,3.27,6.12,1.95,1.57,4.39,2.4,6.3,2.96,4.2,1.22,8.62,1.84,13.03,1.84,1.84,0,3.67-.11,5.48-.32,1.67-.2,3.39-.54,4.66-1.64,1.35-1.18,2.04-3.16,1.88-5.44-.33-4.82-4.09-9.31-9.58-11.44Zm8.89,11.48c.14,2.05-.46,3.83-1.65,4.87-1.12.98-2.72,1.29-4.28,1.47-6.07.73-12.37.21-18.23-1.49-1.84-.54-4.2-1.34-6.05-2.83-1.87-1.5-3-3.59-3.01-5.58-.02-2.12,1.22-4.36,3.31-5.99,1.46-1.14,3.18-1.97,5.26-2.54l.26-.07.02-8.95,11.7-1.34,2.29,11.19.19.07c.14.05.27.09.41.13.23.07.45.14.67.23h0c4.29,1.67,8.78,5.66,9.14,10.84Z"/><path class="uuid-d38ca9fe-c4da-4360-8479-f2d50ee0cd32" d="m104.84,291.35c-24.54,23.26-15.05,99.05-15.05,99.05l74.84-3.48s11.53-56.4-4.42-92.38c-16.91,6.41-36.9-.08-55.37-3.19Z"/><path class="uuid-d38ca9fe-c4da-4360-8479-f2d50ee0cd32" d="m150.57,231.69c-.25-.04-.5.14-.53.4-.51,3.52-2.89,6.9-6.2,8.82-2.87,1.66-6.47,2.34-10.39,1.97-3.74-.36-7.36-1.59-10.45-2.72-.25-.09-.52.04-.61.28-.09.25.04.52.28.61,3.15,1.15,6.83,2.41,10.69,2.77,1.14.11,2.26.13,3.34.07,2.82-.16,5.41-.89,7.61-2.17,3.56-2.06,6.11-5.7,6.66-9.5.04-.26-.14-.5-.4-.54Z"/><path class="uuid-d38ca9fe-c4da-4360-8479-f2d50ee0cd32" d="m125.64,179.87l.02,3.01c2.38,1.7,6.3,2.54,8.65,2.27,2.46-.28,4.2-1.02,4.72-1.42l-1.08-5.27-12.32,1.41Z"/><path class="uuid-d38ca9fe-c4da-4360-8479-f2d50ee0cd32" d="m129.08,140.53c-8.82,1.56-14.78,9.51-13.33,17.75,1.46,8.24,9.79,13.66,18.6,12.11,8.82-1.56,14.79-9.51,13.33-17.75-1.46-8.24-9.79-13.66-18.6-12.11Z"/><path class="uuid-bec5d116-4274-4a32-9529-73ac66ff4e93" d="m129.91,144.09c-8.51,1.5-13.84,11.62-11.91,22.59,1.94,10.97,10.41,18.65,18.93,17.14,8.51-1.5,13.84-11.62,11.91-22.59-1.94-10.97-10.41-18.65-18.93-17.14Z"/><path class="uuid-d38ca9fe-c4da-4360-8479-f2d50ee0cd32" d="m142.07,147.72c-3.66-3.31-7.99-4.72-12.22-3.98-8.69,1.54-14.15,11.85-12.18,22.99.95,5.38,3.48,10.16,7.11,13.45,3.02,2.73,6.5,4.17,10,4.17.74,0,1.48-.07,2.22-.2,8.69-1.54,14.15-11.85,12.18-22.99-.95-5.38-3.47-10.16-7.11-13.45Zm-5.2,35.76c-4.02.7-8.14-.64-11.64-3.81-3.52-3.19-5.96-7.82-6.89-13.05-1.9-10.77,3.31-20.72,11.62-22.19.7-.12,1.4-.18,2.1-.18,3.33,0,6.65,1.38,9.54,3.99,3.52,3.19,5.97,7.82,6.89,13.05,1.9,10.77-3.31,20.72-11.62,22.19Z"/><path class="uuid-bec5d116-4274-4a32-9529-73ac66ff4e93" d="m114.15,160.13c-2.3.58-3.57,3.45-2.82,6.42.75,2.97,5.43,6.23,7.73,5.65,2.3-.58,1.36-4.78.61-7.75-.75-2.97-3.22-4.91-5.52-4.33Z"/><path class="uuid-d38ca9fe-c4da-4360-8479-f2d50ee0cd32" d="m114.07,159.79c-2.49.62-3.86,3.69-3.07,6.85.71,2.82,4.81,5.98,7.47,5.98.24,0,.46-.02.67-.08,2.74-.69,1.52-5.55.87-8.17-.79-3.15-3.47-5.22-5.94-4.58Zm4.91,12.08c-2.03.52-6.59-2.53-7.31-5.4-.7-2.78.46-5.47,2.57-6.01,2.11-.52,4.4,1.3,5.1,4.08.56,2.21,1.71,6.81-.36,7.33Z"/><path class="uuid-d38ca9fe-c4da-4360-8479-f2d50ee0cd32" d="m112.94,161.91c-.27.02-.46.22-.45.48.02.25.23.44.48.43h0c.87-.01,1.83.14,2.93,1.44-.6-.04-1.31.15-2.17.59-.23.11-.32.39-.2.61.11.23.38.31.61.2.87-.44,1.54-.59,1.99-.44.52.17.81.76,1.15,1.44.2.39.4.8.67,1.17.09.13.24.19.39.19.07,0,.14-.02.2-.06.2-.12.28-.36.19-.57-2.15-4.98-4.13-5.57-5.79-5.47Z"/><path class="uuid-d38ca9fe-c4da-4360-8479-f2d50ee0cd32" d="m135.9,161.45c-.06-.25-.32-.39-.55-.33-.24.06-.39.31-.33.55l1.38,5.36c.08.33.18.8,0,.99-.1.1-.31.15-.47.17-.79.13-1.6.04-2.35-.24-.23-.09-.5.03-.59.27-.09.23.03.5.27.59.72.27,1.49.38,2.25.34.19-.01.37-.03.56-.06.3-.05.69-.14.98-.43.57-.58.34-1.47.25-1.85l-1.38-5.36Z"/><path class="uuid-d38ca9fe-c4da-4360-8479-f2d50ee0cd32" d="m140.56,174.02c-3.17,1.24-7.04.58-9.63-1.63-.19-.16-.48-.14-.64.05-.16.19-.14.48.05.64,2.03,1.74,4.79,2.6,7.46,2.45,1.06-.06,2.1-.28,3.09-.66.23-.09.35-.35.26-.59-.09-.24-.35-.35-.59-.26Z"/><path class="uuid-d38ca9fe-c4da-4360-8479-f2d50ee0cd32" d="m138.1,176.23c-1.41.91-3.45.79-4.74-.26-.19-.16-.48-.13-.64.06-.16.2-.13.48.07.64.96.78,2.21,1.15,3.44,1.08.84-.05,1.66-.3,2.37-.75.21-.14.27-.42.14-.63-.14-.21-.42-.27-.63-.14Z"/><path class="uuid-d38ca9fe-c4da-4360-8479-f2d50ee0cd32" d="m140.92,157.73c-.58.1-.91.97-.75,1.93.17.96.78,1.66,1.36,1.56.58-.1.91-.97.75-1.93-.17-.96-.78-1.66-1.36-1.56Z"/><path class="uuid-d38ca9fe-c4da-4360-8479-f2d50ee0cd32" d="m127.28,160.14c-.58.1-.91.97-.74,1.93.17.96.78,1.66,1.36,1.56.58-.1.91-.97.74-1.93-.17-.96-.78-1.66-1.36-1.56Z"/><path class="uuid-d38ca9fe-c4da-4360-8479-f2d50ee0cd32" d="m127.45,156.27c-.77.02-1.76.62-2.39,1.02-.36.23-.73.53-.81.95-.11.56.31,1.07.7,1.49.71-.82,1.67-1.41,2.72-1.68.26-.06.56-.14.67-.38.23-.5-.4-1.42-.88-1.41Z"/><path class="uuid-d38ca9fe-c4da-4360-8479-f2d50ee0cd32" d="m142.19,154.27c-.73-.17-1.87-.39-2.6-.14-.46.16-.74,1.23-.35,1.63.19.19.5.15.76.13,1.08-.11,2.18.12,3.13.65.23-.53.45-1.15.15-1.64-.22-.37-.67-.52-1.09-.62Z"/><path class="uuid-d38ca9fe-c4da-4360-8479-f2d50ee0cd32" d="m141.52,145.19c-.89.16,1.77,3.66,2.51,7.82.74,4.17,3.85,5.28,3.85,5.28,0,0,.09-1.68-.65-5.85-.74-4.16-4.83-7.41-5.71-7.26Z"/><path class="uuid-d38ca9fe-c4da-4360-8479-f2d50ee0cd32" d="m122.02,148.63c-.89.16-6.42,4.44-5.68,8.61.74,4.16,1.3,7.37,1.3,7.37,0,0,5.44-3.6,4.71-7.77-.74-4.16.56-8.37-.32-8.21Z"/><path class="uuid-d38ca9fe-c4da-4360-8479-f2d50ee0cd32" d="m124.96,144.04c-1.93.9-3.63,2.39-4.55,4.31-.76,1.58-.96,3.39-.85,5.14.11,1.75.52,3.47.95,5.18.06.25.15.52.38.62.4.17.74-.3.98-.67.87-1.36,2.45-2.05,3.9-2.74,2.49-1.19,4.89-2.63,6.84-4.57,1.95-1.95,3.42-4.45,3.79-7.18l.64.41c-1.5-1.46-3.76-1.81-5.86-1.78-2.13.03-4.28.38-6.21,1.28Z"/><path class="uuid-d38ca9fe-c4da-4360-8479-f2d50ee0cd32" d="m139.31,144.63c-.93-.46-1.9-.84-2.91-1.11-.35-.09-.74-.16-1.04.03-.3.2-.18,1.03.17,1.09.11,1.58,1.03,3.01,2.19,4.09,1.16,1.08,2.56,1.85,3.92,2.65,1.37.8,2.73,1.64,3.79,2.82.4-1.91-.56-4.31-1.67-5.91-1.11-1.6-2.72-2.8-4.46-3.67Z"/><path class="uuid-bec5d116-4274-4a32-9529-73ac66ff4e93" d="m164.11,522.22c-2.22-1.9-3.74-4.48-5.12-7.05-1.39-2.57-2.72-5.22-4.68-7.38-3.43-3.78-11.4-2.81-14.3,2.9-2.64,5.19,4.38,8.46,7.81,11.35,3.4,2.87,7.05,5.51,11.16,7.23,4.1,1.71,8.72,2.45,13.05,1.44-.1-2-6.38-7.19-7.91-8.49Z"/><path class="uuid-d38ca9fe-c4da-4360-8479-f2d50ee0cd32" d="m164.71,522.27l-.38-.32c-2.21-1.89-3.7-4.47-5.04-6.95l-.41-.77c-1.24-2.31-2.52-4.7-4.31-6.68-1.65-1.81-4.37-2.66-7.26-2.28-3.32.44-6.16,2.41-7.61,5.26-2.25,4.42,2.08,7.52,5.55,10.01.86.61,1.67,1.2,2.34,1.76,4.21,3.55,7.68,5.79,11.24,7.28,2.31.97,5.51,1.93,9.06,1.93,1.36,0,2.77-.14,4.2-.48l.28-.07v-.29c-.1-1.78-4.15-5.44-7.66-8.42Zm-5.61,6.68c-3.5-1.47-6.91-3.68-11.07-7.18-.69-.58-1.51-1.17-2.38-1.79-3.43-2.46-7.32-5.24-5.34-9.14,1.35-2.65,3.99-4.47,7.08-4.89.43-.06.86-.09,1.28-.09,2.17,0,4.12.76,5.37,2.15,1.74,1.92,3,4.27,4.22,6.54l.41.77c1.37,2.54,2.9,5.18,5.2,7.14l.38.32c4.5,3.81,6.96,6.38,7.35,7.64-4.88,1.05-9.48-.22-12.52-1.49Z"/><path class="uuid-d38ca9fe-c4da-4360-8479-f2d50ee0cd32" d="m84.83,524.68c-5.13.4-11.65,2.24-14.87,6.55-3.33,4.45-6.55,12.57-.56,16.51,2.89,1.9,6.69,1.29,10.08.61,3.33-.67,6.67-1.34,10.01-2.01,2.99-.6,6.14-1.28,8.37-3.36,3.58-3.35,3.35-9.57.24-13.36-3.12-3.79-8.38-5.32-13.27-4.94Z"/><path class="uuid-bec5d116-4274-4a32-9529-73ac66ff4e93" d="m94.06,514.89c.25-3.1,1.61-6.47,0-9.14-1.62-2.68-5.6-3.02-8.37-1.57-8.35,4.37-7.02,16.06-12.32,23.11-1.31,1.74-2.88,3.94-1.86,5.87.75,1.41,2.55,1.83,4.13,2.05,5.83.8,10.73.23,17.43-2.77,6.23-2.79.53-11.96.99-17.56Z"/><path class="uuid-d38ca9fe-c4da-4360-8479-f2d50ee0cd32" d="m94.4,514.92c.07-.83.22-1.7.37-2.54.41-2.33.83-4.75-.41-6.8-1.74-2.87-5.96-3.21-8.83-1.7-5.11,2.68-6.7,8.09-8.24,13.31-1.03,3.49-2.09,7.1-4.19,9.9-1.21,1.62-3.05,4.06-1.89,6.24.82,1.55,2.68,1.99,4.39,2.23,1.59.22,3.08.33,4.55.33,4.31,0,8.28-.98,13.07-3.13,4.39-1.97,3.24-6.79,2.13-11.45-.54-2.24-1.09-4.56-.94-6.4Zm-1.47,17.22c-6.29,2.81-11.13,3.59-17.24,2.74-1.54-.21-3.2-.6-3.88-1.87-.88-1.65.42-3.62,1.83-5.5,2.17-2.9,3.26-6.57,4.3-10.12,1.57-5.33,3.05-10.36,7.9-12.9,1-.53,2.19-.81,3.36-.81,1.84,0,3.62.7,4.56,2.25,1.1,1.83.72,4.01.32,6.33-.15.86-.3,1.74-.37,2.6-.16,1.94.41,4.32.96,6.61,1.1,4.59,2.13,8.93-1.74,10.66Z"/><path class="uuid-8602317e-3f4d-460e-bafd-8db6a86e38ee" d="m113.21,207.77c-4.18-3.38-11.66-4.93-15.99-1-4.81,4.38-8.41,11.24-10.76,17.2-.32.8-.62,1.68-.4,2.51.32,1.21,1.59,1.88,2.73,2.4,4.47,2.05,8.95,4.22,12.75,7.34,3.8,3.12,16.2,11.82,17.14,16.64,1.71-13.19,2.64-20.75,1.68-30.51-.55-5.53-2.83-11.09-7.15-14.59Z"/><path class="uuid-d38ca9fe-c4da-4360-8479-f2d50ee0cd32" d="m93.33,312.26c-5.94,17.19-22.7,125.42-37.17,185.19,4.99,9.24,15.32,13.69,25.67,15.5,15.25,2.67,31.02,2.27,46.12-1.15,18.64-4.23,38.07,3.88,56.9.64,2.97-.51,6.63-1.86,6.73-4.87,2.38-67.85-7.56-136.27-27.63-201.12-23.9-7.03-48.88-6.34-70.63,5.81Z"/><path class="uuid-bec5d116-4274-4a32-9529-73ac66ff4e93" d="m153.5,294.4c-14.57,3.57-30.19,2.32-44-3.51-.24-.1-.5.01-.6.24-.1.23,0,.5.24.6,10,4.23,20.94,6.08,31.76,5.47,4.31-.24,8.61-.88,12.81-1.91.24-.06.39-.31.33-.55-.06-.25-.3-.39-.55-.33Z"/><path class="uuid-bec5d116-4274-4a32-9529-73ac66ff4e93" d="m145.89,333.57c-.25.02-.44.24-.41.49,4.95,57.9,2.6,116.32-7.01,173.63-.04.25.13.48.37.53.03,0,.07,0,.1,0,.21-.01.39-.17.42-.38,9.61-57.39,11.97-115.88,7.01-173.86-.02-.25-.25-.44-.49-.42Z"/><path class="uuid-bec5d116-4274-4a32-9529-73ac66ff4e93" d="m147.71,341.07c-1.9-.5-3.84.64-4.33,2.54-.5,1.9.64,3.84,2.54,4.33,1.9.5,3.83-.64,4.33-2.54.49-1.9-.64-3.84-2.54-4.33Z"/><path class="uuid-bec5d116-4274-4a32-9529-73ac66ff4e93" d="m148.81,359.28c-1.9-.5-3.84.64-4.33,2.54-.5,1.9.64,3.83,2.54,4.33,1.9.5,3.83-.64,4.33-2.54.49-1.9-.64-3.84-2.54-4.33Z"/><path class="uuid-bec5d116-4274-4a32-9529-73ac66ff4e93" d="m148.96,378.39c-1.9-.49-3.83.64-4.33,2.54-.49,1.9.64,3.83,2.54,4.33,1.9.5,3.83-.64,4.33-2.54.5-1.9-.64-3.84-2.54-4.33Z"/><path class="uuid-bec5d116-4274-4a32-9529-73ac66ff4e93" d="m148.74,400.04c-1.9-.5-3.83.64-4.33,2.54-.49,1.9.64,3.83,2.54,4.33,1.9.49,3.83-.64,4.33-2.54.5-1.9-.64-3.83-2.54-4.33Z"/><path class="uuid-dcee51d0-1493-4ffd-a142-fe9d9e11298b" d="m113.47,242.38c-.59.11-1.05.58-1.15,1.17l-8.7,55.37c-.16,1.04.82,1.89,1.81,1.58-.39-.99-.12-2.62.01-3.56,1.18-7.68,5.75-37.65,7.82-51.32.23-1.44,1.32-2.59,2.75-2.87,8.54-1.73,32.62-6.15,37.06-6.96-.31-.32-.78-.51-1.3-.42l-38.31,7.01Z"/><path class="uuid-d38ca9fe-c4da-4360-8479-f2d50ee0cd32" d="m153.08,235.78c-4.44.81-28.51,5.23-37.06,6.96-1.43.28-2.52,1.43-2.75,2.87-2.07,13.67-6.65,43.64-7.82,51.32-.13.94-.4,2.58-.01,3.56.07-.02.12-.03.18-.05l2.59-1.14,24.29-10.68c.34-.16.61-.43.74-.78l20.13-50.53c.15-.36.13-.74,0-1.07-.07-.16-.16-.31-.28-.45Z"/><path class="uuid-dcee51d0-1493-4ffd-a142-fe9d9e11298b" d="m147.81,241.4c-.53-.18-1.17.3-1.43,1.07-.26.77-.05,1.54.48,1.72.53.18,1.17-.3,1.43-1.07.26-.77.05-1.54-.48-1.72Z"/><path class="uuid-bec5d116-4274-4a32-9529-73ac66ff4e93" d="m145.91,258.46c-2.06-1.12-4.39-1.58-6.75-1.62.54-.58,1.02-1.22,1.36-1.94.13-.27.17-.7-.12-.77-.12-.03-.25.03-.36.09-1.75.9-3.49,1.88-5.28,2.7-.61.28-1.23.49-1.85.71-.85.21-1.7.45-2.54.71-.02-.02-.03-.06-.06-.06-8.61.18-66.6-2.31-66.81,12.83-.22,15.8,20.47,11.17,27.45,9.24,8.53-2.37,33.76-10.73,33.76-10.73l.38-.12c.8.08,1.66-.15,2.47-.35,3.12-.79,6.42-.87,9.57-.24,1.58.32,3.19.81,4.78.56,1-.16,1.33-.62,1.11-1.23,1.15.27,2.52-1.26,1.89-1.96,1.24.02,2.33-1.25,2.12-2.47,1.14-.28,1.67-1.75,1.29-2.86-.37-1.11-1.38-1.9-2.41-2.47Z"/><path class="uuid-d38ca9fe-c4da-4360-8479-f2d50ee0cd32" d="m146.07,258.16c-1.75-.96-3.83-1.51-6.18-1.64.4-.49.7-.97.94-1.47.11-.24.2-.63.06-.92-.08-.17-.23-.29-.41-.34-.25-.07-.47.05-.6.11-.59.3-1.17.61-1.76.92-1.14.61-2.33,1.23-3.51,1.77-.57.26-1.14.46-1.79.69-.76.18-1.54.4-2.34.64h0s-.19,0-.19,0c-.98.02-2.64,0-4.73-.01-17.02-.16-62.23-.56-62.42,13.19-.05,4.01,1.22,7.04,3.78,9.01,2.63,2.03,6.35,2.73,10.23,2.73,5,0,10.27-1.16,13.89-2.17,8.45-2.34,33.53-10.65,33.78-10.73l.32-.1c.81.05,1.67-.16,2.51-.36,3.06-.77,6.32-.86,9.42-.23.3.06.59.12.89.19,1.31.29,2.65.58,4.01.37.66-.11,1.11-.34,1.32-.71.07-.12.14-.28.14-.5.73-.05,1.42-.58,1.76-1.15.18-.31.25-.61.22-.89.51-.11.99-.4,1.37-.84.43-.5.65-1.1.63-1.69.43-.18.79-.52,1.04-.97.37-.67.45-1.53.21-2.25-.34-1.02-1.21-1.92-2.57-2.66Zm-16.02.34s0,0,0,0c0,0,0,0,0,0Zm17.77,4.23c-.15.27-.42.61-.89.73l-.31.08.06.32c.08.47-.08,1-.44,1.42-.36.41-.87.62-1.34.65l-.8-.02.53.59c.16.18.01.48-.06.61-.28.48-.96.92-1.49.79l-.61-.14.2.59c.09.25.02.36,0,.4-.1.17-.4.31-.84.38-1.23.2-2.51-.09-3.75-.36-.3-.07-.6-.13-.9-.2-3.2-.64-6.56-.55-9.8.26-.77.19-1.56.38-2.27.32h-.07s-.45.14-.45.14c-.25.08-25.32,8.39-33.75,10.72-6.3,1.75-17.73,4.01-23.51-.45-2.38-1.83-3.56-4.68-3.5-8.45.16-11.46,35.86-12.54,54.88-12.54,2.65,0,4.98.02,6.84.04,2.01.02,3.62.04,4.62.02l.11.1.19-.06c.86-.27,1.71-.5,2.55-.71.55-.19,1.24-.43,1.88-.72,1.2-.55,2.39-1.18,3.55-1.79.58-.31,1.16-.62,1.75-.91.02-.01.06-.03.07-.06,0,.06,0,.18-.06.29-.29.61-.71,1.22-1.3,1.85l-.53.57h.78c2.54.06,4.75.59,6.59,1.59,1.2.66,1.96,1.42,2.25,2.27.18.54.12,1.18-.16,1.69Z"/><path class="uuid-bec5d116-4274-4a32-9529-73ac66ff4e93" d="m148.17,420.14c-1.9-.5-3.83.64-4.33,2.54-.49,1.9.64,3.84,2.54,4.33,1.9.5,3.83-.64,4.33-2.54.5-1.9-.64-3.83-2.54-4.33Z"/><path class="uuid-8602317e-3f4d-460e-bafd-8db6a86e38ee" d="m101.35,198.44c-6.51,4.71-12.12,10.65-16.42,17.44-5.64,8.9-9.01,19.14-15.11,27.73-2.54,3.57-5.53,6.83-7.71,10.63-2.18,3.8-12.51,12.58-.6,26.13.71.8,1.63,1.4,2.66,1.7,6.08,1.77,12.49,1.25,18.76.72,5.06-.43,10.17-.86,15-2.41,3.18-1.02,6.42-2.52,9.65-3.16,3.2-.62,4.86-4.22,3.39-7.13-.01-.02-.02-.05-.03-.07-1.17-2.31-2.37-4.7-2.5-7.29-.02-.34-.01-.69.02-1.04.28-3.17-1.9-6.02-5.06-6.43l-6.43-.85c8.64-5.3,13.25-16.43,10.88-26.29-1.09-4.52-3.46-8.69-4.19-13.29-.71-4.47,9.59-17.78,10.91-22.05,1.49-4.83-8.78,2.43-13.21,5.64Z"/><path class="uuid-d38ca9fe-c4da-4360-8479-f2d50ee0cd32" d="m97.83,254l-9.51-.68-.63-1.49c-.1-.23-.36-.34-.6-.24-.23.1-.34.37-.24.6l.74,1.75c.07.16.22.26.39.28l9.78.7s.04,0,.06,0c.23-.01.41-.19.43-.42.02-.25-.17-.47-.42-.49Z"/><path class="uuid-f20749e2-2d11-4947-b0d3-00196a26f9d2" d="m239.87,420.59c-24.43,22.38,36.51,65.18,51.15,72.24h15.07c3.81-28.28-36.05-99.88-66.22-72.24Z"/><path class="uuid-d38ca9fe-c4da-4360-8479-f2d50ee0cd32" d="m240.32,420.06l-.89,1.05c.36.31,36.45,31.08,58.8,71.97l1.21-.66c-22.47-41.11-58.76-72.06-59.12-72.37Z"/><path class="uuid-d38ca9fe-c4da-4360-8479-f2d50ee0cd32" d="m246.53,459.44c7.68,2.87,32.91,5.52,33.98,5.63l.14-1.37c-.26-.03-26.13-2.74-33.64-5.56l-.48,1.29Z"/><path class="uuid-d38ca9fe-c4da-4360-8479-f2d50ee0cd32" d="m260.9,440.48l1.28.52c3.6-8.96,4.29-22.82,4.31-23.4l-1.37-.06c0,.14-.7,14.21-4.21,22.95Z"/><path class="uuid-d38ca9fe-c4da-4360-8479-f2d50ee0cd32" d="m306.09,492.83c1.54-11.46-4.09-30.03-13.34-46.24-3.34,3.02-7.72,27.86,13.34,46.24Z"/><path class="uuid-f20749e2-2d11-4947-b0d3-00196a26f9d2" d="m317.23,401.32c-21.68,9.01-21.24,82.56-15.77,91.51h10.96c23.51-35.82,31.57-102.63,4.8-91.51Z"/><path class="uuid-d38ca9fe-c4da-4360-8479-f2d50ee0cd32" d="m305.42,492.69l1.35.29c4.21-19.85,15.63-83.84,15.75-84.48l-1.35-.24c-.11.64-11.53,64.61-15.74,84.44Z"/><rect class="uuid-d38ca9fe-c4da-4360-8479-f2d50ee0cd32" x="308.64" y="464.14" width="16.58" height="1.37" transform="translate(-236.05 361.27) rotate(-45.11)"/><rect class="uuid-d38ca9fe-c4da-4360-8479-f2d50ee0cd32" x="307.66" y="431.57" width="1.38" height="16.28" transform="translate(-228.71 439.51) rotate(-54.94)"/><path class="uuid-bec5d116-4274-4a32-9529-73ac66ff4e93" d="m264.3,502.15c0,10.47,2.18,20.76,6.32,29.89l1.65,3.62,11.03,9.91h31.35l11.7-9.91,1.65-3.62c4.15-9.13,6.32-19.42,6.32-29.89v-9.22h-70.02v9.22Z"/><path class="uuid-d38ca9fe-c4da-4360-8479-f2d50ee0cd32" d="m263.79,502.15c0,10.51,2.2,20.92,6.37,30.09l1.64,3.62,11.3,10.21h31.73l11.84-10.03,1.78-3.8c4.17-9.17,6.37-19.58,6.37-30.09v-9.72h-71.03v9.72Zm1.01-8.71h69.01v8.71c0,10.37-2.17,20.63-6.28,29.68l-1.6,3.52-11.47,9.72h-30.97l-10.81-9.71-1.6-3.53c-4.11-9.04-6.28-19.3-6.28-29.68v-8.71Z"/><rect class="uuid-d38ca9fe-c4da-4360-8479-f2d50ee0cd32" x="264.72" y="515.43" width="52.16" height="1.37"/><rect class="uuid-d38ca9fe-c4da-4360-8479-f2d50ee0cd32" x="307.99" y="534.87" width="18.66" height="1.38"/></svg>