<svg id="uuid-f6d0ff0f-8660-4f5c-b9d1-80a0e8b233be" xmlns="http://www.w3.org/2000/svg" viewBox="0 0 384.39 174.26"><defs><style>.uuid-e56627cf-1285-4921-98ce-ee52385f4d68{fill:#ff5329;}.uuid-7620c364-6a92-4ae7-bc08-e75a2490c944{fill:none;stroke:#ff5329;stroke-miterlimit:10;}</style></defs><polygon class="uuid-e56627cf-1285-4921-98ce-ee52385f4d68" points="384.03 106.31 318.05 173.78 46.77 106.31 384.03 106.31"/><polygon class="uuid-e56627cf-1285-4921-98ce-ee52385f4d68" points="326.41 .5 227.76 102.82 227.76 .5 326.41 .5"/><polygon class="uuid-e56627cf-1285-4921-98ce-ee52385f4d68" points="221.48 2.36 222.59 1.19 222.59 1.94 222.59 2.34 222.59 102.82 122.87 102.82 221.48 2.36"/><polygon class="uuid-e56627cf-1285-4921-98ce-ee52385f4d68" points="201.15 150.01 138.52 150.01 46.77 112.31 201.15 150.01"/><polygon class="uuid-e56627cf-1285-4921-98ce-ee52385f4d68" points="138.83 80.12 116.13 102.82 46.77 102.82 46.77 12.67 57.72 12.67 138.83 80.12"/><polygon class="uuid-e56627cf-1285-4921-98ce-ee52385f4d68" points="43.32 12.67 43.32 39.78 .27 39.78 43.32 12.67"/><line class="uuid-7620c364-6a92-4ae7-bc08-e75a2490c944" x1=".27" y1="39.78" x2="43.32" y2="39.78"/><line class="uuid-7620c364-6a92-4ae7-bc08-e75a2490c944" x1="43.32" y1="12.67" x2="43.32" y2="39.78"/><line class="uuid-7620c364-6a92-4ae7-bc08-e75a2490c944" x1=".27" y1="39.78" x2="43.32" y2="12.67"/><line class="uuid-7620c364-6a92-4ae7-bc08-e75a2490c944" x1="46.77" y1="12.67" x2="46.77" y2="102.82"/><line class="uuid-7620c364-6a92-4ae7-bc08-e75a2490c944" x1="116.13" y1="102.82" x2="46.77" y2="102.82"/><line class="uuid-7620c364-6a92-4ae7-bc08-e75a2490c944" x1="138.83" y1="80.12" x2="116.13" y2="102.82"/><polyline class="uuid-7620c364-6a92-4ae7-bc08-e75a2490c944" points="122.87 102.82 221.48 2.36 222.13 1.71"/><line class="uuid-7620c364-6a92-4ae7-bc08-e75a2490c944" x1="222.59" y1="102.82" x2="222.59" y2="2.34"/><line class="uuid-7620c364-6a92-4ae7-bc08-e75a2490c944" x1="122.87" y1="102.82" x2="222.59" y2="102.82"/><polyline class="uuid-7620c364-6a92-4ae7-bc08-e75a2490c944" points="221.48 2.36 222.59 1.19 222.8 .97"/><polyline class="uuid-7620c364-6a92-4ae7-bc08-e75a2490c944" points="222.59 2.34 222.59 1.94 222.59 1.19 222.59 .5"/><line class="uuid-7620c364-6a92-4ae7-bc08-e75a2490c944" x1="227.76" y1="102.82" x2="227.76" y2=".5"/><line class="uuid-7620c364-6a92-4ae7-bc08-e75a2490c944" x1="326.41" y1=".5" x2="227.76" y2=".5"/><line class="uuid-7620c364-6a92-4ae7-bc08-e75a2490c944" x1="227.76" y1="102.82" x2="326.41" y2=".5"/><line class="uuid-7620c364-6a92-4ae7-bc08-e75a2490c944" x1="46.77" y1="106.31" x2="384.03" y2="106.31"/><line class="uuid-7620c364-6a92-4ae7-bc08-e75a2490c944" x1="318.05" y1="173.78" x2="46.77" y2="106.31"/><line class="uuid-7620c364-6a92-4ae7-bc08-e75a2490c944" x1="384.03" y1="106.31" x2="318.05" y2="173.78"/><line class="uuid-7620c364-6a92-4ae7-bc08-e75a2490c944" x1="46.77" y1="12.67" x2="57.72" y2="12.67"/><line class="uuid-7620c364-6a92-4ae7-bc08-e75a2490c944" x1="138.83" y1="80.12" x2="57.72" y2="12.67"/><line class="uuid-7620c364-6a92-4ae7-bc08-e75a2490c944" x1="46.77" y1="112.31" x2="201.15" y2="150.01"/><line class="uuid-7620c364-6a92-4ae7-bc08-e75a2490c944" x1="201.15" y1="150.01" x2="138.52" y2="150.01"/><line class="uuid-7620c364-6a92-4ae7-bc08-e75a2490c944" x1="46.77" y1="112.31" x2="138.52" y2="150.01"/></svg>